<?xml version="1.0" encoding="UTF-8" standalone="no"?>
<!-- Created with Inkscape (http://www.inkscape.org/) -->

<svg
   width="210mm"
   height="297mm"
   viewBox="0 0 210 297"
   version="1.1"
   id="svg1"
   inkscape:version="1.4.2 (f4327f4, 2025-05-13)"
   sodipodi:docname="EarthGrassTileTilted.svg"
   inkscape:export-filename="C:\Users\drawi\OneDrive\Desktop\EarthGrassTiletTilted.png"
   inkscape:export-xdpi="22.518684"
   inkscape:export-ydpi="22.518684"
   xmlns:inkscape="http://www.inkscape.org/namespaces/inkscape"
   xmlns:sodipodi="http://sodipodi.sourceforge.net/DTD/sodipodi-0.dtd"
   xmlns="http://www.w3.org/2000/svg"
   xmlns:svg="http://www.w3.org/2000/svg">
  <sodipodi:namedview
     id="namedview1"
     pagecolor="#ffffff"
     bordercolor="#666666"
     borderopacity="1.0"
     inkscape:showpageshadow="2"
     inkscape:pageopacity="0.0"
     inkscape:pagecheckerboard="0"
     inkscape:deskcolor="#d1d1d1"
     inkscape:document-units="mm"
     inkscape:zoom="0.1767767"
     inkscape:cx="-1402.8998"
     inkscape:cy="263.04372"
     inkscape:window-width="1920"
     inkscape:window-height="1009"
     inkscape:window-x="1912"
     inkscape:window-y="-8"
     inkscape:window-maximized="1"
     inkscape:current-layer="svg1" />
  <defs
     id="defs1" />
  <g
     id="g2"
     inkscape:label="Slope"
     transform="translate(8.8965329,-50.205094)"
     style="display:inline">
    <g
       inkscape:groupmode="layer"
       id="layer3-8"
       inkscape:label="Background"
       style="display:inline">
      <path
         style="display:inline;fill:#a77b67;fill-opacity:1;stroke:none;stroke-width:0.264999"
         d="m -89.668863,115.07865 h 58.578937 V 62.272313 Z"
         id="path202"
         inkscape:label="BackgroundColor" />
      <path
         style="fill:#bc8b75;fill-opacity:1;stroke:#bc8b75;stroke-width:0.264583px;stroke-linecap:butt;stroke-linejoin:miter;stroke-opacity:1"
         d="m -60.336093,103.99791 0.02339,0.79513 0.327403,1.23946 0.397566,0.88867 c 0,0 0.257246,0.60804 0.35079,0.72497 0.09354,0.11693 0.584652,0.37418 0.584652,0.37418 0,0 0.397563,0.0701 0.491107,0.0935 0.09355,0.0234 0.116932,0.0234 0.116932,0.0234 l 0.374176,-0.14032 0.561266,-0.28063 c 0,0 0.444336,-0.28063 0.53788,-0.30402 0.09355,-0.0234 0.233862,-0.18709 0.374179,-0.23386 0.140316,-0.0468 0.888669,-0.60804 0.888669,-0.60804 l 0.584653,-0.28063 0.467722,-0.51449 0.561266,-0.44434 -1.473324,-0.72497 -0.818513,-0.14032 -1.005602,-0.35079 -1.052372,-0.1637 -1.192691,-0.18709 z"
         id="path50-5" />
      <path
         style="fill:#bc8b75;fill-opacity:1;stroke:#bc8b75;stroke-width:0.264583px;stroke-linecap:butt;stroke-linejoin:miter;stroke-opacity:1"
         d="m -52.454984,108.27756 1.239462,0.0468 1.099148,-0.16371 c 0,0 0.912056,-0.0468 1.052372,-0.0234 0.140316,0.0234 1.286235,0.0702 1.286235,0.0702 l 0.982215,0.14032 0.18709,0.63142 -0.491109,0.79513 -0.841899,0.74835 -0.53788,0.77175 c 0,0 -0.350792,0.42095 -0.420949,0.51449 -0.07016,0.0935 -0.444336,0.58465 -0.444336,0.58465 l -0.491106,0.11693 -0.631426,-0.49111 c 0,0 -0.397563,-0.46772 -0.397563,-0.56126 0,-0.0936 -0.420949,-0.6782 -0.420949,-0.6782 l -0.397563,-0.58465 -0.397566,-0.46772 -0.210473,-0.65481 z"
         id="path51-5" />
      <path
         style="fill:#bc8b75;fill-opacity:1;stroke:#bc8b75;stroke-width:0.264583px;stroke-linecap:butt;stroke-linejoin:miter;stroke-opacity:1"
         d="m -70.345336,108.27756 c 0,0 0.514493,-0.65481 0.701582,-0.72497 0.187087,-0.0701 0.77174,-0.72496 0.865286,-0.74835 0.09354,-0.0234 0.654809,-0.79513 0.654809,-0.79513 l 0.631425,-0.81851 0.65481,0.44434 c 0,0 0.140316,0.60803 0.210473,0.72497 0.07016,0.11693 0.116933,0.77174 0.163703,0.93544 0.04677,0.1637 -0.11693,0.35079 -0.140316,0.60804 -0.02339,0.25724 -0.187087,0.53788 -0.187087,0.53788 l -0.678199,0.28063 h -0.701582 -0.257247 c 0,0 -0.514492,-0.18709 -0.701582,-0.18709 -0.187089,0 -0.748355,0 -0.748355,0 z"
         id="path149-1" />
      <path
         style="fill:#bc8b75;fill-opacity:1;stroke:#bc8b75;stroke-width:0.264583px;stroke-linecap:butt;stroke-linejoin:miter;stroke-opacity:1"
         d="m -45.252071,103.29633 c 0,0 0.841899,-0.70159 0.935445,-0.72497 0.09354,-0.0234 0.935443,-0.72497 0.935443,-0.72497 0,0 0.654809,-0.44433 0.818512,-0.49111 0.163703,-0.0468 0.841899,0.49111 0.841899,0.49111 0,0 0.163703,0.56127 0.187089,0.79513 0.02339,0.23386 0.210474,0.93544 0.210474,0.93544 0,0 -0.02339,0.35079 0.02339,0.70158 0.04677,0.35079 0.04677,0.44434 0.07016,0.60804 0.02339,0.1637 -0.350793,0.63142 -0.350793,0.63142 l -0.304019,-0.0468 c 0,0 -0.65481,-0.30402 -0.748353,-0.3274 -0.09355,-0.0234 -0.654812,-0.23386 -0.748356,-0.25725 -0.09354,-0.0234 -0.724969,-0.23386 -0.724969,-0.23386 l -0.771739,-0.56126 z"
         id="path151-7" />
      <path
         style="fill:#bc8b75;fill-opacity:1;stroke:#bc8b75;stroke-width:0.264583px;stroke-linecap:butt;stroke-linejoin:miter;stroke-opacity:1"
         d="m -47.380204,96.046641 0.537879,0.584652 c 0,0 0.30402,0.678199 0.397566,0.771742 0.09354,0.09354 0.420949,0.561266 0.46772,0.654809 0.04677,0.09355 0.304019,0.491109 0.304019,0.491109 0,0 0.23386,0.374177 0.327406,0.42095 0.09354,0.04677 0.561266,0.09354 0.561266,0.09354 0,0 0.35079,-0.07016 0.444336,-0.11693 0.09354,-0.04677 0.35079,-0.350792 0.35079,-0.350792 0,0 0,-0.07016 0.09355,-0.140317 0.09354,-0.07016 0.35079,-0.420949 0.46772,-0.514493 0.11693,-0.09354 0.210476,-0.257246 0.257246,-0.374176 0.04677,-0.11693 0.374179,-0.771742 0.374179,-0.771742 l 0.257247,-0.280633 0.280632,-0.818512 -0.865285,-0.140317 c 0,0 -0.304019,0.07016 -0.514493,0.07016 -0.210476,0 -0.795128,-0.04677 -0.935445,-0.04677 -0.140316,0 -0.11693,0 -0.514493,0.04677 -0.397562,0.04677 -0.912058,0.09355 -0.912058,0.09355 l -0.748353,0.04677 z"
         id="path152-1" />
      <path
         style="fill:#bc8b75;fill-opacity:1;stroke:#bc8b75;stroke-width:0.264583px;stroke-linecap:butt;stroke-linejoin:miter;stroke-opacity:1"
         d="m -37.254029,96.23373 1.028986,0.748356 c 0,0 0.397563,0.374176 0.537879,0.444336 0.140317,0.07016 0.724969,0.584652 0.724969,0.584652 l -0.02339,0.608036 c 0,0 -0.233862,0.327406 -0.374179,0.374179 -0.140316,0.04677 -0.841899,0.304017 -0.841899,0.304017 0,0 0.07016,0.02339 -0.140316,0.02339 -0.210474,0 -0.724969,0.04677 -0.724969,0.04677 h -0.42095 l -0.374176,-0.140316 -0.210476,-0.30402 c 0,0 -0.11693,-0.140316 -0.09354,-0.304019 0.02339,-0.163703 0.09354,-0.444336 0.11693,-0.561266 0.02339,-0.11693 0.02339,-0.374176 0.07016,-0.46772 0.04677,-0.09355 0.210473,-0.514495 0.23386,-0.608039 0.02339,-0.09354 0.163703,-0.350792 0.163703,-0.350792 z"
         id="path153-1" />
      <path
         style="fill:#bc8b75;fill-opacity:1;stroke:#bc8b75;stroke-width:0.264583px;stroke-linecap:butt;stroke-linejoin:miter;stroke-opacity:1"
         d="m -49.460546,86.336845 0.214974,0.446485 0.942578,0.51263 c 0,0 0.115755,0.198437 0.181901,0.248047 0.06615,0.04961 0.396875,0.297656 0.396875,0.297656 l 0.347265,0.347266 0.214974,0.198437 -0.46302,0.446484 -0.760677,0.297657 c 0,0 0.03307,0.04961 -0.165365,0.09922 -0.198438,0.04961 -0.248047,0.03307 -0.463021,0.08268 -0.214974,0.04961 -0.628385,0.06615 -0.628385,0.06615 l -0.330729,-0.165365 -0.09922,-0.363802 c 0,0 0.115755,-0.248047 0.181901,-0.396875 0.06615,-0.148828 0.06615,-0.231511 0.08268,-0.463021 0.01654,-0.23151 0.03307,-0.595312 0.03307,-0.595312 l 0.06615,-0.33073 z"
         id="path163-2" />
      <path
         style="fill:#bc8b75;fill-opacity:1;stroke:#bc8b75;stroke-width:0.264583px;stroke-linecap:butt;stroke-linejoin:miter;stroke-opacity:1"
         d="m -44.573875,85.522905 0.385871,-0.292325 c 0,0 0.479415,-0.315714 0.526188,-0.327406 0.04677,-0.0117 0.105238,-0.163703 0.23386,-0.268941 0.128624,-0.105238 0.420949,-0.432641 0.491109,-0.46772 0.07016,-0.03508 0.315711,-0.350792 0.315711,-0.350792 l 0.198781,0.105238 c 0,0 0.09354,0.198781 0.105239,0.315711 0.01169,0.11693 -0.03508,0.152008 0.01169,0.397563 0.04677,0.245554 0,0.549574 0.05846,0.608039 0.05847,0.05846 0.03508,0.105238 -0.02339,0.245554 -0.05847,0.140317 -0.18709,0.444336 -0.18709,0.444336 l -0.561266,0.01169 -0.327406,-0.08185 c 0,0 -0.116929,0.04677 -0.327406,0 -0.210473,-0.04677 -0.315711,-0.105238 -0.444333,-0.140316 -0.128624,-0.03508 -0.45603,-0.198781 -0.45603,-0.198781 z"
         id="path164-7" />
      <path
         style="fill:#bc8b75;fill-opacity:1;stroke:#bc8b75;stroke-width:0.264583px;stroke-linecap:butt;stroke-linejoin:miter;stroke-opacity:1"
         d="m -34.065104,86.965231 c 0,0 0.165365,0.08268 0.429948,0.04961 0.264584,-0.03307 0.727604,-0.03307 0.727604,-0.03307 0,0 0.148828,-0.01654 0.314193,-0.01654 0.165365,0 0.446484,0.01654 0.545703,0 0.09922,-0.01654 0.363802,-0.06615 0.363802,-0.06615 l -0.08268,0.429948 c 0,0 -0.132292,0.23151 -0.28112,0.347265 -0.148828,0.115756 -0.28112,0.181901 -0.347265,0.264584 -0.06615,0.08268 -0.214974,0.165364 -0.248047,0.281119 -0.03307,0.115756 -0.115756,0.231511 -0.115756,0.231511 l -0.297656,-0.06615 -0.248047,-0.264583 -0.181901,-0.314193 -0.115755,-0.09922 -0.165364,-0.264583 z"
         id="path165-6" />
      <path
         style="fill:#bc8b75;fill-opacity:1;stroke:#bc8b75;stroke-width:0.264583px;stroke-linecap:butt;stroke-linejoin:miter;stroke-opacity:1"
         d="m -32.77526,91.760803 0.28112,0.214974 c 0,0 0.264583,0.297657 0.380338,0.380339 0.115756,0.08268 0.264584,0.09922 0.330729,0.28112 0.06615,0.181901 0.314193,0.496094 0.314193,0.496094 l -0.28112,0.446484 -0.661458,-0.03307 -0.51263,-0.132292 -0.165365,-0.330729 -0.03307,-0.23151 0.09922,-0.231511 c 0,0 0.08268,-0.198437 0.08268,-0.264583 0,-0.06615 0.01654,-0.314193 0.01654,-0.314193 z"
         id="path166-1" />
      <path
         style="fill:#443935;fill-opacity:1;stroke:#443935;stroke-width:0.264583px;stroke-linecap:butt;stroke-linejoin:miter;stroke-opacity:1"
         d="m -60.473825,104.89075 -0.03307,0.56224 c 0,0 0.181901,0.81029 0.198438,0.94258 0.01654,0.13229 -0.01654,0.85989 0.09922,1.14101 0.115755,0.28112 0.09922,0.21498 0.148828,0.72761 0.04961,0.51263 0.04961,0.57877 0.148828,0.81029 0.09922,0.23151 0.363802,0.85989 0.429948,0.95911 0.06615,0.0992 0.347265,0.19844 0.347265,0.19844 0,0 0.380339,0.0331 0.463021,0.0165 0.08268,-0.0165 0.347266,-0.19843 0.429948,-0.24804 0.08268,-0.0496 0.314193,-0.24805 0.496094,-0.44649 0.181901,-0.19844 0.181901,-0.28112 0.396875,-0.42995 0.214974,-0.14882 0.413411,-0.29765 0.595312,-0.44648 0.181901,-0.14883 0.380339,-0.38034 0.595313,-0.51263 0.214974,-0.13229 0.396875,-0.28112 0.529167,-0.39688 0.132291,-0.11575 0.248046,-0.3638 0.330729,-0.42994 0.08268,-0.0661 0.446484,-0.44649 0.51263,-0.51263 0.06615,-0.0661 0.314193,-0.21498 0.396875,-0.28112 0.08268,-0.0661 0.297656,-0.19844 0.297656,-0.19844 l 0.165365,-0.23151 0.347265,-0.33073 0.165362,-0.23151 -0.06614,-0.23151 -1.058333,1.05833 -1.157552,0.71107 -1.322917,0.79375 -1.223698,0.59531 -1.091406,-0.5457 -0.909505,-2.1332 z"
         id="path168-2" />
      <path
         style="fill:#443935;fill-opacity:1;stroke:#443935;stroke-width:0.264583px;stroke-linecap:butt;stroke-linejoin:miter;stroke-opacity:1"
         d="m -52.453645,109.19023 0.181901,0.81029 c 0,0 0.09922,0.46302 0.165364,0.67799 0.06615,0.21498 0.132292,0.42995 0.165365,0.62839 0.03307,0.19843 0.148828,0.44648 0.297656,0.81028 0.148828,0.36381 0.165365,0.34727 0.297657,0.56224 0.132291,0.21498 0.347265,0.62839 0.46302,0.81029 0.115756,0.1819 0.198438,0.39687 0.33073,0.61185 0.132291,0.21497 0.198437,0.3638 0.264583,0.42995 0.06615,0.0661 0.363802,0.23151 0.446484,0.24804 0.08268,0.0165 0.165365,0.0331 0.28112,0.0165 0.115755,-0.0165 0.380339,-0.0992 0.463021,-0.28112 0.08268,-0.1819 0.198437,-0.49609 0.198437,-0.49609 l 0.330729,-0.4961 c 0,0 0.06615,-0.26458 0.214974,-0.41341 0.148829,-0.14883 0.198438,-0.26458 0.297657,-0.41341 0.09922,-0.14883 0.115755,-0.1819 0.214974,-0.31419 0.09922,-0.13229 0.148828,-0.16537 0.264583,-0.3142 0.115755,-0.14882 0.08268,-0.13229 0.181901,-0.29765 0.09922,-0.16537 0.28112,-0.4961 0.28112,-0.4961 0,0 0.214974,-0.28112 0.264583,-0.46302 0.04961,-0.1819 0.04961,-0.31419 0.08268,-0.42994 0.03307,-0.11576 0.03307,-0.24805 0.132292,-0.39688 0.09922,-0.14883 0.214974,-0.41341 0.214974,-0.41341 l 0.115755,-0.38034 -0.148828,-0.19844 -0.463021,0.95912 -0.79375,0.79375 -0.876432,1.14101 -0.644922,0.8599 -0.859896,0.13229 -0.810286,-0.89297 -0.79375,-1.17409 -0.363802,-0.74414 z"
         id="path169-3" />
      <path
         style="fill:#443935;fill-opacity:1;stroke:#443935;stroke-width:0.264583px;stroke-linecap:butt;stroke-linejoin:miter;stroke-opacity:1"
         d="m -44.946093,104.31198 c 0,0 0.529166,0.52916 0.595312,0.59531 0.06615,0.0661 0.892969,0.62838 1.025261,0.76067 0.132291,0.1323 0.347265,0.33073 0.694531,0.46303 0.347266,0.13229 1.438672,0.69453 1.438672,0.69453 0,0 0.165364,0.0827 0.28112,0.11575 0.115755,0.0331 0.479557,0.14883 0.479557,0.14883 l 0.380338,-0.0496 0.347266,-0.26458 0.09922,-0.21498 c 0,0 0.115755,-0.33073 0.06615,-0.52916 -0.04961,-0.19844 -0.01654,-0.13229 -0.115756,-0.38034 -0.09922,-0.24805 -0.148828,-0.34727 -0.165364,-0.47956 -0.01654,-0.13229 -0.132292,-0.28112 -0.165365,-0.47956 -0.03307,-0.19843 -0.06615,-0.31419 -0.181901,-0.52916 -0.115755,-0.21498 -0.248047,-0.47956 -0.248047,-0.56224 0,-0.0827 0.01654,-0.11576 -0.03307,-0.24805 -0.04961,-0.13229 -0.115755,-0.23151 -0.214974,-0.41341 -0.09922,-0.1819 -0.165364,-0.33073 -0.23151,-0.46302 -0.06615,-0.13229 -0.181901,-0.3638 -0.181901,-0.3638 l -0.165365,-0.21498 -0.281119,-0.1819 0.297656,1.10794 0.214974,1.27331 0.04961,1.02526 -0.446484,0.64492 -0.661458,-0.0331 -0.84336,-0.39687 -1.02526,-0.42995 z"
         id="path170-2" />
      <path
         style="fill:#443935;fill-opacity:1;stroke:#443935;stroke-width:0.264583px;stroke-linecap:butt;stroke-linejoin:miter;stroke-opacity:1"
         d="m -47.614064,96.210344 0.467722,1.239464 0.42095,0.888669 c 0,0 0.397563,0.771742 0.491106,0.912059 0.09354,0.140316 0.397563,0.724969 0.444336,0.841894 0.04677,0.11693 0.514493,1.00561 0.514493,1.00561 l 0.537882,0.53788 0.561266,0.0234 0.420949,-0.0936 0.58465,-0.63142 0.280633,-0.65481 0.304019,-0.935448 c 0,0 0.163703,-0.865286 0.18709,-0.958829 0.02339,-0.09354 0.07016,-0.888672 0.07016,-0.888672 l 0.210476,-0.841899 0.02339,-0.678196 -0.257246,0.771742 -0.397566,0.631423 -0.46772,0.795126 -0.608039,0.654812 -0.491106,0.491106 h -0.561266 l -0.678198,-0.07016 -0.514493,-0.888671 -0.631426,-0.841899 -0.374176,-0.818513 z"
         id="path171-2" />
      <path
         style="fill:#443935;fill-opacity:1;stroke:#443935;stroke-width:0.264583px;stroke-linecap:butt;stroke-linejoin:miter;stroke-opacity:1"
         d="m -37.885026,96.63079 -0.405143,0.487826 c 0,0 -0.107487,0.338997 -0.124023,0.37207 -0.01654,0.03307 -0.124024,0.330729 -0.132292,0.405143 -0.0083,0.07441 -0.132292,0.512631 -0.14056,0.56224 -0.0083,0.04961 -0.107487,0.148828 -0.124023,0.355534 -0.01654,0.206706 -0.132292,0.537435 -0.157097,0.669726 -0.02479,0.132292 -0.03307,0.264584 -0.06614,0.363803 -0.03307,0.09922 -0.198438,0.454748 -0.206706,0.553968 -0.0083,0.0992 0.03307,0.46302 0.03307,0.46302 0,0 0.157096,0.1819 0.190169,0.19844 0.03307,0.0165 0.587044,0.0744 0.587044,0.0744 0,0 0.396875,-0.0661 0.438216,-0.0744 0.04134,-0.008 0.405144,-0.19844 0.405144,-0.19844 0,0 0.23151,-0.0992 0.363802,-0.14882 0.132291,-0.0496 0.314192,-0.14883 0.363802,-0.17364 0.04961,-0.0248 0.239778,-0.15709 0.314193,-0.19017 0.07441,-0.0331 0.429947,-0.26458 0.504362,-0.28938 0.07441,-0.0248 0.405143,-0.272856 0.438216,-0.281124 0.03307,-0.0083 0.190169,-0.14056 0.281119,-0.181901 0.09095,-0.04134 0.33073,-0.272852 0.33073,-0.272852 l 0.124023,-0.330729 0.0083,-0.338997 -0.248047,0.380338 -0.471289,0.214974 -0.454752,0.23151 -0.537435,0.07441 -0.785482,-0.0083 -0.636654,-0.09922 -0.214974,-0.330729 -0.23151,-0.405144 0.14056,-0.611849 0.198437,-0.74414 0.206706,-0.504362 z"
         id="path172-1" />
      <path
         style="fill:#443935;fill-opacity:1;stroke:#443935;stroke-width:0.264583px;stroke-linecap:butt;stroke-linejoin:miter;stroke-opacity:1"
         d="m -49.658984,86.303772 -0.305924,0.620117 c 0,0 -0.239779,0.661459 -0.305925,0.818555 -0.06615,0.157097 -0.256315,0.677995 -0.272851,0.719336 -0.01654,0.04134 -0.223242,0.504362 -0.256315,0.644922 -0.03307,0.14056 -0.124024,0.496094 -0.173633,0.628385 -0.04961,0.132292 -0.28112,0.611849 -0.297656,0.644922 -0.01654,0.03307 0.190169,0.372071 0.190169,0.372071 0,0 0.28112,0.132291 0.338997,0.140559 0.05788,0.0083 0.868164,-0.157096 0.868164,-0.157096 0,0 0.429948,-0.314193 0.463021,-0.322461 0.03307,-0.0083 0.454753,-0.314193 0.545703,-0.37207 0.09095,-0.05788 0.355534,-0.305925 0.487826,-0.380339 0.132291,-0.07441 0.23151,-0.148828 0.297656,-0.181901 0.06615,-0.03307 0.51263,-0.314192 0.595312,-0.355534 0.08268,-0.04134 0.322461,-0.281119 0.322461,-0.281119 l 0.14056,-0.338998 -0.578776,0.56224 -0.992187,0.380338 -1.223698,0.148828 -0.363802,-0.305924 -0.173633,-0.413411 0.264583,-0.487826 0.05788,-0.810286 0.157096,-0.545704 0.248047,-0.719335 z"
         id="path174-8" />
      <path
         style="fill:#443935;fill-opacity:1;stroke:#443935;stroke-width:0.264583px;stroke-linecap:butt;stroke-linejoin:miter;stroke-opacity:1"
         d="m -33.039843,91.744267 -0.28112,0.496094 c 0,0 -0.132292,0.537435 -0.157096,0.620117 -0.02479,0.08268 -0.165365,0.463021 -0.173633,0.553971 -0.0083,0.09095 -0.148828,0.388607 -0.157097,0.446485 -0.0083,0.05788 0.06615,0.297656 0.06615,0.297656 0,0 0.248047,0.14056 0.289388,0.157096 0.04134,0.01654 0.471289,-0.04134 0.520899,-0.04134 0.04961,0 0.46302,-0.09095 0.570507,-0.132292 0.107487,-0.04134 0.223243,-0.140559 0.372071,-0.181901 0.148828,-0.04134 0.413411,-0.190169 0.413411,-0.190169 l 0.148828,-0.322461 -0.272851,0.347266 -0.752409,-0.08268 -0.537435,-0.14056 -0.248047,-0.355534 -0.06615,-0.396875 0.14056,-0.487826 z"
         id="path175-5" />
      <path
         style="fill:#443935;fill-opacity:1;stroke:#443935;stroke-width:0.264583px;stroke-linecap:butt;stroke-linejoin:miter;stroke-opacity:1"
         d="m -34.365848,86.80914 0.321559,0.87113 c 0,0 0.257246,0.420949 0.304017,0.520343 0.04677,0.09939 0.344945,0.707427 0.362484,0.73666 0.01754,0.02923 0.239708,0.380024 0.268941,0.461876 0.02923,0.08185 0.169551,0.321558 0.198782,0.356637 0.02923,0.03508 0.274785,-0.134469 0.274785,-0.134469 l 0.309867,-0.333254 c 0,0 0.122777,-0.368329 0.146164,-0.426794 0.02339,-0.05846 0.251399,-0.444336 0.274786,-0.514495 0.02339,-0.07016 0.146163,-0.432642 0.16955,-0.491107 0.02339,-0.05846 0.11693,-0.280633 0.134469,-0.309866 0.01754,-0.02923 0.09939,-0.672349 0.09939,-0.672349 l -0.251402,0.806818 -0.420949,0.35664 -0.286478,0.304019 -0.128625,0.257246 -0.350789,0.04677 -0.315714,-0.134469 -0.268939,-0.397563 -0.263094,-0.432644 z"
         id="path176-7" />
      <path
         style="fill:#443935;fill-opacity:1;stroke:#443935;stroke-width:0.264583px;stroke-linecap:butt;stroke-linejoin:miter;stroke-opacity:1"
         d="m -44.608953,85.721686 0.830207,0.362485 c 0,0 0.713274,0.362484 0.7542,0.374176 0.04093,0.0117 0.537879,0.163703 0.584652,0.16955 0.04677,0.0058 0.409258,0.05846 0.444336,0.06431 0.03508,0.0058 0.321559,0.06431 0.356637,0.06431 0.03508,0 0.380024,0.02339 0.380024,0.02339 l 0.04677,-0.2514 -0.02339,-0.491109 c 0,0 -0.111083,-0.362484 -0.111083,-0.385868 0,-0.02339 -0.175397,-0.40341 -0.192937,-0.47357 -0.01754,-0.07016 -0.198781,-0.420949 -0.210473,-0.45018 -0.0117,-0.02923 -0.233862,-0.42095 -0.245554,-0.467723 -0.0117,-0.04677 -0.128625,-0.268941 -0.128625,-0.268941 l -0.152008,-0.175395 0.175395,0.555419 0.05846,0.596347 0.04677,0.56711 -0.257247,0.520341 -0.444336,0.111085 -0.695738,-0.06431 z"
         id="path177-6" />
      <path
         style="fill:#bc8b75;fill-opacity:1;stroke:#bc8b75;stroke-width:0.264583px;stroke-linecap:butt;stroke-linejoin:miter;stroke-opacity:1"
         d="m -35.66914,108.61145 0.347265,-0.5457 0.463021,-1.0418 0.611849,-0.76067 0.330729,-0.59532 0.314193,-0.66145 0.529167,-1.05834 0.264583,0.56224 c 0,0 0.330729,1.05834 0.396875,1.2237 0.06615,0.16537 0.248047,1.4056 0.264583,1.47175 0.01654,0.0661 -0.09922,1.00872 -0.132291,1.07487 -0.03307,0.0661 -0.545703,0.57877 -0.694532,0.64492 -0.148828,0.0661 -0.992187,0.1819 -1.074869,0.1819 -0.08268,0 -0.578776,-0.0662 -0.694532,-0.0992 -0.115755,-0.0331 -0.926041,-0.39688 -0.926041,-0.39688 z"
         id="path178-1" />
      <path
         style="fill:#bc8b75;fill-opacity:1;stroke:#bc8b75;stroke-width:0.264583px;stroke-linecap:butt;stroke-linejoin:miter;stroke-opacity:1"
         d="m -57.13346,88.88346 c 0,0 0.975651,-0.03307 1.07487,-0.03307 0.09922,0 1.207161,0.01654 1.207161,0.01654 l 0.843359,-0.115755 -0.06615,0.396875 -0.446485,0.347266 c 0,0 -0.23151,0.363802 -0.396875,0.446484 -0.165364,0.08268 -0.380338,0.181901 -0.51263,0.248047 -0.132292,0.06615 -0.496094,0.148828 -0.496094,0.148828 l -0.545703,-0.628385 -0.396875,-0.396875 z"
         id="path179-8" />
      <path
         style="fill:#bc8b75;fill-opacity:1;stroke:#bc8b75;stroke-width:0.264583px;stroke-linecap:butt;stroke-linejoin:miter;stroke-opacity:1"
         d="m -57.927327,94.2693 0.748356,0.374176 c 0,0 0.935442,0.420949 1.052372,0.420949 0.11693,0 0.18709,0.02339 0.42095,0.116933 0.233859,0.09354 1.005601,0.374176 1.005601,0.374176 l 0.374177,0.18709 0.374179,0.257246 -0.42095,0.444336 -0.912058,0.04677 c 0,0 -0.210473,0.11693 -0.467723,0.11693 -0.257246,0 -0.748352,0.02339 -0.935442,0.04677 -0.187089,0.02339 -0.491106,0.04677 -0.491106,0.04677 l -0.42095,-0.771742 -0.163703,-0.53788 -0.163703,-0.724969 z"
         id="path181-2" />
      <path
         style="fill:#bc8b75;fill-opacity:1;stroke:#bc8b75;stroke-width:0.264583px;stroke-linecap:butt;stroke-linejoin:miter;stroke-opacity:1"
         d="m -77.54825,104.06807 c 0,0 0.818513,0 0.935443,0 0.11693,0 0.888672,0.1637 1.052375,0.1637 0.1637,0 1.028985,-0.0935 1.239461,-0.0935 0.210474,0 0.818513,-0.0702 0.818513,-0.0702 l -0.280633,0.65481 c 0,0 -0.30402,0.67819 -0.397563,0.81851 -0.09355,0.14032 -0.210476,0.5145 -0.210476,0.5145 0,0 -0.23386,0.3274 -0.374177,0.46772 -0.140316,0.14031 -0.163703,0.18709 -0.304019,0.37418 -0.140316,0.18708 -0.584652,0.56126 -0.584652,0.56126 l -0.46772,-0.56126 -0.280633,-0.49111 -0.30402,-0.53788 -0.187089,-0.63143 z"
         id="path185-4" />
      <path
         style="fill:#443935;fill-opacity:1;stroke:#443935;stroke-width:0.260658px;stroke-linecap:butt;stroke-linejoin:miter;stroke-opacity:1"
         d="m -35.686203,108.80262 c 0,0 0.449155,0.29781 0.497279,0.3309 0.04812,0.0331 0.753938,0.33917 0.906329,0.3888 0.152393,0.0496 0.473217,0.0744 0.673733,0.12409 0.200514,0.0496 0.721855,0.0744 0.906329,0.11582 0.184474,0.0413 0.320825,0.0579 0.417072,0.0827 0.09625,0.0248 0.569464,0.0579 0.633629,0.0662 0.06416,0.008 0.2727,0.0165 0.2727,0.0165 l 0.11229,-0.38053 0.03208,-0.36399 -0.07218,-0.63698 c 0,0 -0.08823,-0.41362 -0.08823,-0.48808 0,-0.0744 -0.09625,-0.71142 -0.104268,-0.76933 -0.0081,-0.0579 -0.497278,-1.9523 -0.497278,-1.9523 l -0.39301,-0.8107 -0.673733,-0.78589 0.481237,1.01751 0.264681,0.7528 0.216556,1.21605 0.09625,1.11678 -0.240619,0.83552 -0.78602,0.52944 -1.154969,0.13236 z"
         id="path190-3" />
      <path
         style="fill:#443935;fill-opacity:1;stroke:#443935;stroke-width:0.264583px;stroke-linecap:butt;stroke-linejoin:miter;stroke-opacity:1"
         d="m -58.126108,94.2693 -0.07016,1.075758 c 0,0 -0.05846,0.561266 -0.01169,0.701583 0.04677,0.140316 -0.07016,0.795128 -0.04677,0.888672 0.02339,0.09355 0,0.830207 0,0.830207 v 0.85359 l 0.537879,-0.08185 c 0,0 0.491109,-0.08185 0.537882,-0.09354 0.04677,-0.01169 0.58465,-0.409257 0.77174,-0.444336 0.187089,-0.03508 0.73666,-0.304019 0.853593,-0.327406 0.11693,-0.02339 0.876977,-0.397562 0.947134,-0.420949 0.07016,-0.02339 0.362485,-0.280633 0.432644,-0.339098 0.07016,-0.05846 0.339098,-0.736661 0.339098,-0.736661 l -0.432644,0.467723 -0.958829,0.105238 -0.771739,0.09354 -1.11084,0.08185 -0.385871,-0.07016 -0.304019,-0.900364 -0.210474,-0.935442 z"
         id="path191-4" />
      <path
         style="fill:#443935;fill-opacity:1;stroke:#443935;stroke-width:0.264583px;stroke-linecap:butt;stroke-linejoin:miter;stroke-opacity:1"
         d="m -57.354369,88.872961 0.09355,0.368332 c 0,0 0.210474,0.409255 0.228013,0.444336 0.01754,0.03508 0.134472,0.491106 0.157856,0.543724 0.02339,0.05262 0.187089,0.444336 0.204628,0.467722 0.01754,0.02339 0.228016,0.578805 0.263094,0.625578 0.03508,0.04677 0.152009,0.18709 0.198782,0.263094 0.04677,0.076 0.163703,0.292325 0.192936,0.333251 0.02923,0.04093 0.163701,0.134472 0.163701,0.134472 l 0.198781,-0.04677 c 0,0 0.216324,-0.18709 0.23971,-0.192937 0.02339,-0.0058 0.309864,-0.309864 0.309864,-0.309864 l 0.344945,-0.461875 c 0,0 0.192935,-0.368332 0.23386,-0.426797 0.04093,-0.05846 0.280633,-0.555419 0.321559,-0.608039 0.04093,-0.05262 0.274788,-0.602192 0.274788,-0.602192 l 0.0877,-0.631423 -0.122777,0.572958 -0.368329,0.251402 -0.35664,0.438489 -0.491106,0.251401 -0.496954,0.210474 -0.327406,0.05846 -0.485261,-0.584653 -0.362485,-0.40341 -0.263094,-0.35079 z"
         id="path192-1" />
      <path
         style="fill:#443935;fill-opacity:1;stroke:#443935;stroke-width:0.264583px;stroke-linecap:butt;stroke-linejoin:miter;stroke-opacity:1"
         d="m -77.817191,103.99791 0.198782,0.71328 0.339098,1.06406 c 0,0 0.09355,0.74836 0.140316,0.81852 0.04677,0.0701 0.30402,0.64311 0.339098,0.70158 0.03508,0.0585 0.163703,0.47941 0.222168,0.64312 0.05846,0.1637 0.245555,0.67819 0.280633,0.72496 0.03508,0.0468 0.315714,0.52619 0.315714,0.52619 l 0.432642,0.29233 0.315711,-0.38587 c 0,0 0.374179,-0.56127 0.409258,-0.60804 0.03508,-0.0468 0.444335,-0.63143 0.444335,-0.63143 l 0.210474,-0.77174 0.187089,-0.77174 0.397563,-0.70158 0.210476,-0.6782 0.11693,-0.92375 -0.409257,1.07576 -0.467723,1.07576 -0.327403,0.44434 -0.608039,0.60804 -0.456028,0.53788 -0.385871,-0.14032 -0.654809,-1.0056 -0.479415,-1.02899 -0.491109,-1.08745 z"
         id="path199-7" />
    </g>
    <g
       inkscape:groupmode="layer"
       id="layer5"
       inkscape:label="ShadedEarth"
       transform="translate(-8.8965329,50.205094)">
      <path
         style="fill:#6d5f4f;fill-opacity:1;stroke-width:0.264999"
         d="M -22.190838,27.907322 -64.17386,64.872526 -80.772169,64.872348 -22.193394,12.064296 Z"
         id="path223"
         sodipodi:nodetypes="ccccc" />
      <path
         style="display:inline;fill:#6d5f4f;fill-opacity:1;stroke:#6d5f4f;stroke-width:0.264583px;stroke-linecap:butt;stroke-linejoin:miter;stroke-opacity:1"
         d="m -25.550458,29.024859 c 0,0 0.08185,0.268941 0.02339,0.385871 -0.05846,0.11693 -0.07016,0.198782 -0.07016,0.444336 0,0.245555 -0.02339,0.339098 -0.02339,0.596344 0,0.257247 -0.01169,0.350793 0,0.526188 0.0117,0.175395 0,0.222168 -0.02339,0.374176 -0.02339,0.152011 -0.04677,0.105238 -0.08185,0.315714 -0.03508,0.210474 -0.01169,0.175395 -0.01169,0.514493 0,0.339098 -0.02339,0.222168 -0.02339,0.479415 0,0.257246 -0.05846,0.198781 0.05846,0.491109 0.116933,0.292324 0.140317,0.257246 0.175398,0.432641 0.03508,0.175395 -0.04677,0.140316 0.09354,0.350792 0.140317,0.210474 0.30402,0.362485 0.502801,0.42095 0.198782,0.05846 0.315712,0.05846 0.432642,0.08185 0.116932,0.02339 0.105238,0.03508 0.292327,-0.140316 0.18709,-0.175398 0.327406,-0.245555 0.479415,-0.397566 0.152008,-0.152008 0.210473,-0.05846 0.245554,-0.35079 0.03508,-0.292327 0.02339,-0.362484 -0.01169,-0.643117 -0.03508,-0.280633 -0.163703,-0.350792 -0.05846,-0.514493 0.105238,-0.163703 0.11693,-0.350792 0.175394,-0.631425 0.05847,-0.280633 0.09355,-0.456028 0.116933,-0.806821 0.02339,-0.35079 -0.08185,-0.561266 -0.116933,-0.760047 -0.03508,-0.198782 -0.128621,-0.222168 -0.09354,-0.526188 0.03508,-0.304019 0.02339,-0.549571 -0.0117,-0.596344 -0.03508,-0.04677 -0.01169,-0.187089 -0.304019,-0.163703 -0.292328,0.02339 -0.596344,0.0117 -0.643117,0.0117 -0.04677,0 -0.140317,-0.02339 -0.397563,-0.03508 -0.257247,-0.01169 -0.432644,-0.04677 -0.479415,-0.02339 -0.04677,0.02339 -0.198784,0.233863 -0.198784,0.233863 z"
         id="path160-5-1" />
      <path
         style="display:inline;fill:#6d5f4f;fill-opacity:1;stroke:#6d5f4f;stroke-width:0.264583px;stroke-linecap:butt;stroke-linejoin:miter;stroke-opacity:1"
         d="m -31.475705,34.718888 c 0,0 -0.724969,-0.07016 -0.724969,0.280632 0,0.350793 0.18709,0.233863 0.163703,0.795129 -0.02339,0.561266 -0.09354,0.210473 -0.09354,0.724969 0,0.514493 0.11693,0.46772 0,0.865283 -0.11693,0.397565 -0.140317,0.116932 -0.327406,0.654812 -0.18709,0.537879 -0.327406,0.444336 -0.23386,0.888669 0.09354,0.444336 -0.163703,0.561268 0.327403,0.795128 0.491109,0.23386 0.584653,0.257247 0.935445,0.30402 0.35079,0.04677 0.584653,-0.04677 0.888672,-0.350793 0.304017,-0.304019 0.444334,-0.420949 0.58465,-0.444336 0.140316,-0.02339 0.233863,-0.04677 0.467722,-0.09354 0.23386,-0.04677 0.608039,0.02339 0.65481,-0.280633 0.04677,-0.30402 0.04677,-0.935442 0.04677,-1.028988 0,-0.09354 -0.327406,-0.23386 -0.257247,-0.748353 0.07016,-0.514496 0.09354,-0.701585 0.09354,-0.795129 0,-0.09354 -0.257247,-0.23386 -0.30402,-0.491106 -0.04677,-0.257249 -0.1637,-0.701582 -0.1637,-0.701582 l -0.420949,-0.327406 c 0,0 -0.140317,-0.11693 -0.233863,-0.11693 -0.09354,0 -0.397563,0 -0.397563,0 0,0 -0.187089,0 -0.304019,0 -0.11693,0 -0.701583,0.07016 -0.701583,0.07016 z"
         id="path157-9-2" />
      <path
         style="display:inline;fill:#6d5f4f;fill-opacity:1;stroke:#6d5f4f;stroke-width:0.264583px;stroke-linecap:butt;stroke-linejoin:miter;stroke-opacity:1"
         d="m -45.4648,46.986181 c 0,0 -0.374176,0.11693 -0.444336,0.42095 -0.07016,0.304016 -0.140316,0.02339 -0.04677,0.678195 0.09354,0.65481 0.1637,0.678196 0.1637,0.912056 0,0.233863 -0.1637,0.374179 -0.1637,0.724969 0,0.350793 0,0.163703 0,0.514496 0,0.350789 -0.140317,0.327403 -0.163703,0.724966 -0.02339,0.397565 -0.09355,0.537882 -0.02339,0.841897 0.07016,0.30402 -0.04677,0.30402 -0.09354,0.77174 -0.04677,0.46773 -0.233862,0.63143 0,1.05238 0.23386,0.42095 0.11693,0.4911 0.35079,0.63142 0.23386,0.14032 0.514493,0.25725 0.654809,0 0.140317,-0.25725 0.327406,-0.77174 0.584653,-0.8419 0.257249,-0.0702 0.374179,0.0702 0.491109,-0.11693 0.11693,-0.18709 -0.04677,-0.39756 0.163703,-0.72497 0.210473,-0.3274 0.257246,-0.39756 0.35079,-0.70158 0.09355,-0.30402 0,-0.491105 0.02339,-0.982214 0.02339,-0.491109 -0.02339,-0.748355 -0.140317,-1.122532 -0.11693,-0.374176 -0.327406,-0.374176 -0.23386,-0.771742 0.09354,-0.397563 0.210474,-0.818512 0.187087,-1.005602 -0.02339,-0.187087 0.02339,0 -0.04677,-0.210473 -0.07016,-0.210476 -0.163703,-0.30402 -0.210476,-0.397563 -0.04677,-0.09355 -0.210474,-0.350793 -0.42095,-0.397563 -0.210473,-0.04677 -0.888671,-0.09355 -0.888671,-0.09355 z"
         id="path158-9-2" />
      <path
         style="display:inline;fill:#6d5f4f;fill-opacity:1;stroke:#6d5f4f;stroke-width:0.264583px;stroke-linecap:butt;stroke-linejoin:miter;stroke-opacity:1"
         d="m -56.082486,53.607493 c 0,0 -0.444336,0.327406 -0.444336,0.608039 0,0.280633 0,0.537879 0.18709,0.935442 0.187089,0.397563 0.420949,0.210474 0.304019,0.631426 -0.11693,0.420949 -0.187089,0.11693 -0.163703,0.58465 0.02339,0.467722 -0.04677,0.397565 -0.04677,0.935445 0,0.537879 0,0.374176 -0.140316,0.888669 -0.140317,0.514495 -0.58465,0.374179 -0.374177,0.935445 0.210476,0.561266 0.210476,0.491106 0.397563,1.075759 0.18709,0.584652 0.140317,0.514495 0.30402,1.052374 0.163703,0.53788 0.140316,0.77174 0.350792,0.958824 0.210474,0.18709 0.771739,0.0702 0.935442,-0.11692 0.163703,-0.187094 0.257247,-0.444341 0.444336,-0.608044 0.18709,-0.163703 0.04677,-0.210473 0.42095,-0.678196 0.374176,-0.467722 0.608039,-0.537879 0.631423,-0.982215 0.02339,-0.444336 -0.280633,-0.654809 0.210476,-1.052375 0.491106,-0.397563 0.467722,-0.444333 0.537879,-1.005602 0.07016,-0.561266 0.11693,-0.888669 0.210476,-1.239461 0.09354,-0.35079 0.1637,-0.327404 -0.02339,-0.818513 -0.18709,-0.491109 -0.280633,-0.397563 -0.280633,-0.818512 0,-0.42095 0.02339,-0.397563 -0.11693,-0.631426 -0.140316,-0.233859 -0.491109,-0.537879 -0.491109,-0.537879 l -0.327406,-0.187089 -0.491106,-0.140317 h -0.30402 c 0,0 -0.397563,0 -0.514493,0 -0.116932,0 -0.467722,0 -0.467722,0 z"
         id="path156-4-6" />
    </g>
    <g
       inkscape:groupmode="layer"
       id="layer4"
       inkscape:label="GrassPatch"
       transform="translate(-8.8965329,50.205094)"
       style="display:inline">
      <path
         style="display:inline;fill:#96ab1d;fill-opacity:1;stroke:#96ab1d;stroke-width:0.264999;stroke-opacity:1"
         d="m -77.273525,64.744482 1.30968,-1.298037 1.876734,-1.011449 2.233369,-0.888672 1.888427,-1.046525 2.186599,-0.09355 2.800484,0.537879 2.391225,1.964431 0.327406,1.297929 0.695738,0.268939 1.140071,-0.800973 0.906211,-2.525697 -0.385871,-3.010958 -2.642629,-3.203893 -2.695244,-1.122532 2.309376,-0.830207 2.19829,-0.555418 2.426306,2.174904 3.104504,1.028988 9.722763,0.257247 -4.729834,-7.512778 0.491106,-4.82338 5.07478,1.21023 3.519606,3.90548 0.502801,2.911567 -0.02923,3.116196 3.905476,-5.402185 1.444091,-4.718143 -0.666504,-4.577825 -2.964186,-5.121553 -2.484771,-1.683798 6.799504,-1.239462 5.788055,0.578805 5.636047,2.607549 -1.917659,-10.015091 1.034834,-6.594875 1.666258,-2.742019 0.09354,0.0058 -0.03491,-8.4160312 -4.806013,1.859158 -1.558097,2.4613852 -1.072837,2.136903 -1.88258,2.019973 -3.320824,1.248233 -0.996831,-2.250911 -0.534957,-2.972956 1.21023,-2.1456729 2.405843,-2.166136 -3.987327,0.00292 -4.434586,2.3532247 -2.145673,3.3149772 -1.63995,4.004867 -0.66358,3.171738 -0.26894,-0.01169 -0.584652,-2.572469 -1.052374,-2.291837 -3.002188,7.030442 -3.382212,3.373442 1.087453,-5.05724 0.312788,-5.706205 -6.01607,7.308151 -1.458707,5.516193 -0.248477,6.206082 -1.859193,4.148106 -5.191711,-2.967109 -9.474287,-0.955906 9.661376,10.044323 -3.730081,2.347378 -3.686231,1.052374 -1.946891,2.338608 -2.356148,3.952248 -1.66024,2.293134 -0.0015,8.284678 z"
         id="path205"
         inkscape:label="Color"
         sodipodi:nodetypes="cccccccccccccccccccccccccccccccccccccccccccccccccccccccccccccccccccccccccc" />
      <path
         style="display:inline;fill:#9eb618;fill-opacity:1;stroke:none;stroke-width:0.264999;stroke-opacity:1"
         d="m -22.191927,12.864331 -4.134114,4.002856 -1.521354,2.910417 -1.455209,3.108854 -1.5875,1.653646 -1.455208,1.5875 -2.182813,0.859896 -1.785937,1.322917 -1.91823,0.46302 -2.182812,1.5875 -3.770313,0.33073 -1.5875,2.182812 -1.322916,2.315104 -1.5875,1.190625 -1.521354,2.844271 -2.050521,2.711979 -1.190625,1.719792 -2.645833,0.859896 -1.322917,1.918229 -2.116667,1.653646 -2.050521,0.463021 -2.05052,1.653645 -1.322917,1.719792 -1.785938,0.926042 -2.447395,1.124479 -1.322917,1.455208 -0.992188,2.315104 -1.653645,1.455209 -1.719792,1.190625 -1.35599,1.223698 -0.926041,1.322916 -1.190625,0.198438 -1.223698,1.256771 -1.19476,0.278018 8.98e-4,-6.861622 1.441699,-0.630391 0.912058,-0.982215 0.631424,-1.145918 1.028988,-0.95883 1.122532,-0.935443 0.77174,-1.262849 0.53788,-0.912057 1.099146,-0.771741 1.145918,-0.584652 1.379779,-0.77174 1.099146,-0.654811 1.239463,-0.818513 0.958829,-0.935443 0.748355,-1.005602 1.777342,-1.449937 1.005602,-1.496709 0.163702,-1.005602 1.730571,-1.30962 1.847501,-1.169305 1.216076,-1.426551 0.935444,-1.917659 1.052374,-1.496709 1.356392,-1.216076 0.865285,-2.221678 0.257247,-1.777343 1.473324,-1.30962 2.034589,-1.61364 2.361994,-1.122532 1.286235,-1.379779 2.128134,-1.496709 2.666013,-1.286235 2.736172,-0.982215 2.666013,-0.654811 2.970033,-0.561266 2.291836,-0.935443 1.753956,-1.122532 1.590254,-1.987817 1.379779,-1.216077 1.426551,-1.964431 1.169304,-1.286234 1.543482,-1.1926904 0.756065,-0.3371729 z"
         id="path206"
         inkscape:label="LightPatch"
         sodipodi:nodetypes="cccccccccccccccccccccccccccccccccccccccccccccccccccccccccccccccccccccccccccccc" />
      <path
         style="fill:none;fill-opacity:1;stroke:#1e2d07;stroke-width:0.264999;stroke-opacity:1"
         d="m -76.9636,64.77945 1.075759,-1.216075 1.847501,-1.005602 2.245063,-0.888672 1.870888,-1.028988 2.15152,-0.09354 2.712786,0.514496 2.338607,1.917657 0.350793,1.333008 0.818512,0.327404 1.239462,-0.88867 0.935445,-2.572469 -0.397566,-3.086963 -2.6894,-3.274052 -2.408766,-1.005602 1.968309,-0.696275 2.116667,-0.529167 2.38125,2.116667 3.175,1.058334 9.988021,0.264584 -4.828646,-7.672918 0.46302,-4.630208 4.872094,1.150501 3.460334,3.849755 0.51174,2.860083 -0.03291,3.54609 4.16524,-5.764089 1.466558,-4.772472 -0.671431,-4.635479 -2.989858,-5.164076 -2.248958,-1.521354 6.46516,-1.185646 5.720878,0.582585 5.86784,2.705499 -1.946601,-10.250898 1.025663,-6.549077 1.644451,-2.705956"
         id="path203"
         sodipodi:nodetypes="ccccccccccccccccccccccccccccccccccccc" />
      <path
         style="fill:none;stroke:#1e2d07;stroke-width:0.264999"
         d="m -22.258073,7.0693358 -4.99401,2.0587891 -1.5875,2.5135421 -1.058333,2.116666 -1.852084,1.984375 -3.175,1.190625 -0.926041,-2.116667 -0.529167,-2.910416 1.174575,-2.0884618 2.645834,-2.3812499 h -4.365625 l -4.497917,2.3812499 -2.16871,3.3526868 -1.651698,4.027441 -0.661459,3.175 -0.595312,-2.579687 -1.190625,-2.579687 -3.108854,7.276041 -3.042708,3.042709 0.992187,-4.630209 0.337377,-6.126112 -6.290502,7.647467 -1.475959,5.556249 -0.243832,6.199712 -1.785938,3.986747 -5.093229,-2.910417 -9.85573,-0.992188 9.789584,10.186458 -3.571875,2.248959 -3.704167,1.058333 -1.984375,2.38125 -2.38125,3.96875 -1.546574,2.334564"
         id="path204"
         sodipodi:nodetypes="ccccccccccccccccccccccccccccccccc" />
      <path
         style="fill:#6c9605;fill-opacity:1;stroke:none;stroke-width:0.264999;stroke-opacity:1"
         d="m -23.200651,35.135839 -5.630663,-2.592089 -5.74642,-0.595313 -6.842712,1.250007 -0.416793,-1.961075 6.912239,-1.25677 6.201172,0.562239 5.105632,2.443261 z"
         id="path210"
         sodipodi:nodetypes="ccccccccc" />
      <path
         style="display:inline;fill:#6c9605;fill-opacity:1;stroke:none;stroke-width:0.264999;stroke-opacity:1"
         d="m -58.621248,93.76459 0.16495,-1.631306 5.175911,1.198893 4.374339,4.349575 0.694531,3.618648 -0.01795,1.80888 -1.313675,1.79842 0.0083,-3.1502 -0.51851,-2.908995 -3.488261,-3.879906 z"
         id="path211"
         sodipodi:nodetypes="ccccccccccc"
         transform="translate(8.8965328,-50.205095)" />
      <path
         style="display:inline;fill:#6c9605;fill-opacity:1;stroke:none;stroke-width:0.264999;stroke-opacity:1"
         d="m -54.382942,106.09156 -9.718489,-0.25575 -3.127043,-1.04195 -2.421973,-2.14856 1.685686,-1.04489 1.53789,1.52135 2.331641,0.92604 8.562045,0.21689 z"
         id="path212"
         sodipodi:nodetypes="ccccccccc"
         transform="translate(8.8965328,-50.205095)" />
      <path
         style="fill:#6c9605;fill-opacity:1;stroke:none;stroke-width:0.264999;stroke-opacity:1"
         d="m -61.557014,64.509092 -0.685048,-0.267521 -0.368331,-1.338852 -2.414612,-1.981971 -2.736172,-0.514495 -2.186599,0.08185 -0.02339,-1.508403 2.22168,-0.09354 2.912398,0.50882 3.355041,2.245307 0.403929,2.492623 z"
         id="path213"
         sodipodi:nodetypes="cccccccccccc" />
      <path
         style="fill:#6c9605;fill-opacity:1;stroke:none;stroke-width:0.264999;stroke-opacity:1"
         d="m -67.251769,44.506458 1.8671,-1.302368 -8.481885,-8.48154 -3.047981,-0.290263 z"
         id="path214"
         sodipodi:nodetypes="ccccc" />
      <path
         style="display:inline;fill:#6c9605;fill-opacity:1;stroke:none;stroke-width:0.264999;stroke-opacity:1"
         d="m -69.285299,84.420573 1.981996,-1.307927 0.09922,-5.159375 1.322911,-4.960938 4.167897,-5.006291 0.143986,-2.604613 -5.9986,7.288444 -1.488281,5.556249 z"
         id="path215"
         transform="translate(8.8965328,-50.205095)"
         sodipodi:nodetypes="ccccccccc" />
      <path
         style="fill:#6c9605;fill-opacity:1;stroke:none;stroke-width:0.264999;stroke-opacity:1"
         d="m -50.683488,22.544184 1.011447,0.233861 2.537391,-6.045303 -0.552498,-1.195613 z"
         id="path216"
         sodipodi:nodetypes="ccccc" />
      <path
         style="fill:#6c9605;fill-opacity:1;stroke:none;stroke-width:0.264999;stroke-opacity:1"
         d="m -45.769993,20.397219 1.404337,-0.05453 0.69287,-3.095155 1.521354,-3.753775 1.752865,-2.877343 3.704166,-2.0009123 2.654517,-0.016537 1.144734,-1.0335286 -3.988918,0.00142 -4.438535,2.3530205 -2.149678,3.3092984 -1.643103,4.001736 z"
         id="path217"
         sodipodi:nodetypes="ccccccccccccc" />
      <path
         style="display:inline;fill:#a5bd23;fill-opacity:1;stroke-width:0.264999"
         d="m -31.318234,66.022354 -1.689351,-0.896939 -1.870887,2.432153 -1.449936,7.2263 1.176154,7.141023 2.639911,1.258714 -1.491157,-7.856305 1.030285,-6.600306 z"
         id="path207"
         sodipodi:nodetypes="ccccccccc"
         transform="translate(8.8965328,-50.205095)" />
      <path
         style="fill:#a5bd23;fill-opacity:1;stroke-width:0.264999"
         d="m -41.433289,33.208237 -1.92451,1.824117 2.361996,1.239462 2.221677,3.928861 0.818512,4.162724 -1.052372,3.601456 -0.746937,0.801976 0.442918,2.332003 -0.01512,1.750875 2.555934,-3.52846 1.458203,-4.762495 -0.664496,-4.546587 -2.946646,-5.106434 z"
         id="path208"
         sodipodi:nodetypes="cccccccccccccc" />
      <path
         style="display:inline;fill:#a5bd23;fill-opacity:1;stroke-width:0.264999"
         d="m -58.622653,93.761675 -2.565164,-0.549574 -0.537879,5.168326 3.371981,5.811443 2.816562,0.0746 -3.571367,-5.672794 z"
         id="path209"
         transform="translate(8.8965328,-50.205095)"
         sodipodi:nodetypes="ccccccc" />
      <path
         style="fill:#a5bd23;fill-opacity:1;stroke-width:0.264999"
         d="m -65.249024,53.799948 -0.979491,1.564114 2.397787,1.041797 1.5875,2.067057 0.446484,2.497005 0.04618,0.481062 0.271848,0.18716 0.401303,2.496443 0.657324,-0.471289 0.903451,-2.504625 -0.386687,-3.012351 -2.640402,-3.217136 z"
         id="path218"
         sodipodi:nodetypes="ccccccccccccc" />
      <path
         style="fill:#a5bd23;fill-opacity:1;stroke-width:0.264999"
         d="m -62.300527,38.32979 -0.865285,1.91766 -4.723987,-2.654322 -3.928864,-0.841899 -2.011202,-2.011201 6.372708,0.666502 z"
         id="path219"
         sodipodi:nodetypes="ccccccc" />
      <path
         style="fill:#a5bd23;fill-opacity:1;stroke-width:0.264999"
         d="m -54.068624,25.93809 -1.660412,0.499877 1.028987,-5.109859 0.0274,-1.315052 1.859565,-2.230862 -0.172473,3.104502 z"
         id="path220"
         sodipodi:nodetypes="ccccccc" />
      <path
         style="fill:#a5bd23;fill-opacity:1;stroke-width:0.264999"
         d="m -47.133749,16.734896 -0.637156,1.517012 0.187247,0.368144 0.405143,1.885156 1.14444,-0.104062 -0.59289,-2.563151 z"
         id="path221"
         sodipodi:nodetypes="ccccccc" />
      <path
         style="fill:#a5bd23;fill-opacity:1;stroke-width:0.264999"
         d="m -34.050138,8.597309 -2.199002,0.017037 -0.817802,0.8687099 -1.11084,2.2099851 0.584653,3.402675 1.064067,2.455539 1.523019,-0.458952 -0.970022,-2.228381 -0.544229,-2.977946 1.214157,-2.1600817 z"
         id="path222"
         sodipodi:nodetypes="ccccccccccc" />
    </g>
    <g
       inkscape:label="Layer 1"
       inkscape:groupmode="layer"
       id="layer1-3"
       style="display:inline">
      <path
         style="opacity:0.62;fill:#96ab1d;fill-opacity:0.854902;stroke:#8fbd01;stroke-width:0.171177;stroke-opacity:1"
         d=""
         id="path2-1"
         transform="scale(0.26458333)" />
      <path
         style="fill:none;stroke:#000000;stroke-width:0.264583px;stroke-linecap:butt;stroke-linejoin:miter;stroke-opacity:1"
         d="M -85.658853,92.736457 Z"
         id="path123-0" />
      <path
         style="fill:none;stroke:#0b0103;stroke-width:0.264583px;stroke-linecap:butt;stroke-linejoin:miter;stroke-opacity:1"
         d="m -64.062239,109.43828 0.03307,1.05833 c 0,0 -0.06615,1.35599 0.06615,1.42214 0.132292,0.0661 0.03307,0.0331 0.363802,0.3638 0.330729,0.33073 0.529167,0.59531 0.529167,0.59531 0,0 0.03307,0.56224 0.264583,0.72761 0.23151,0.16536 0.198438,0.13229 0.429948,0.19843 0.23151,0.0662 0.926042,0.4961 0.926042,0.4961"
         id="path129-4" />
      <path
         style="fill:none;stroke:#0b0103;stroke-width:0.264583px;stroke-linecap:butt;stroke-linejoin:miter;stroke-opacity:1"
         d="m -52.104194,103.03908 0.280633,1.07576 c 0,0 -0.514493,0.5145 -0.701583,0.88867 -0.187089,0.37418 0.18709,0.56127 -0.187089,1.02899 -0.374176,0.46772 -0.748353,0.37418 -1.262848,0.70158 -0.514493,0.32741 -0.701583,0.88867 -0.65481,1.40317 0.04677,0.51449 0.04677,0.51449 -0.23386,0.98221 -0.280633,0.46773 -0.654812,0.46773 -1.075761,0.60804 -0.420949,0.14032 -0.561266,-0.0935 -0.561266,0.42095 0,0.5145 -0.23386,0.79513 -0.23386,0.79513"
         id="path133-9" />
      <path
         style="fill:none;stroke:#0b0103;stroke-width:0.264583px;stroke-linecap:butt;stroke-linejoin:miter;stroke-opacity:1"
         d="m -47.614067,103.08586 c 0,0 1.028989,0.98221 1.169305,1.1693 0.140317,0.18709 0.420949,0.65481 0.608039,1.44994 0.18709,0.79512 -0.04677,1.07576 0.935442,1.26284 0.982216,0.18709 1.637028,0.28064 1.637028,0.28064 0,0 -0.280633,-0.23386 0.187087,0.56126 0.467722,0.79513 0.795128,1.16931 1.309621,1.26285 0.514495,0.0936 0.841899,0 1.216078,0.0468 0.374176,0.0468 0.46772,0.18709 0.888669,0.65481"
         id="path134-8" />
      <path
         style="fill:none;stroke:#0b0103;stroke-width:0.264583px;stroke-linecap:butt;stroke-linejoin:miter;stroke-opacity:1"
         d="m -43.821614,90.851301 c 0,0 -0.03307,0.628385 0.06615,0.79375 0.09922,0.165365 0.165364,0.529167 0.363802,0.926042 0.198437,0.396875 0.165364,0.23151 0.330729,0.661458 0.165365,0.429948 0.297656,0.595312 0.727604,0.892969 0.429948,0.297656 0.826823,0.496093 1.124479,0.661458 0.297657,0.165365 0.363802,0.198437 0.694532,0.363802 0.330729,0.165365 1.223697,0.23151 1.455208,0.297656 0.23151,0.06615 0.826823,0 0.959114,0 0.132292,0 0.595313,-0.396875 0.760678,-0.463021 0.165364,-0.06615 0.297656,-0.297656 0.562239,-0.46302 0.264583,-0.165365 0.496094,-0.628386 0.496094,-0.628386 0,0 0.23151,-0.661458 0.529167,-0.992187 0.297656,-0.330729 0.330729,-0.463021 0.496093,-0.859896 0.165365,-0.396875 0.198438,-1.02526 0.198438,-1.02526 l 0.165364,-0.529167"
         id="path136-8" />
      <path
         style="fill:none;stroke:#0b0103;stroke-width:0.264583px;stroke-linecap:butt;stroke-linejoin:miter;stroke-opacity:1"
         d="m -36.5125,94.191665 c 0,0 0.396875,0.463021 0.760678,0.595313 0.363802,0.132292 1.719791,-0.264583 1.918229,0.165365 0.198437,0.429947 0.09922,0.694531 0.198437,0.959114 0.09922,0.264583 0.03307,0.396875 0.297656,0.661458 0.264584,0.264584 0.463021,0.231511 0.727605,0.694532 0.264583,0.463021 0.165364,0.595312 0.09922,0.959114 -0.06615,0.363802 -0.03307,0.363802 0.198438,0.859896 0.23151,0.496094 0.09922,0.264583 0.396875,0.694531"
         id="path138-7" />
      <path
         style="fill:none;stroke:#0b0103;stroke-width:0.264583px;stroke-linecap:butt;stroke-linejoin:miter;stroke-opacity:1"
         d="m -41.674002,100.13921 c 0,0 1.730571,1.6838 1.870888,1.91766 0.140316,0.23386 0.140316,0.3274 0.374179,0.93544 0.233859,0.60804 0.467719,0.88867 0.841898,1.40317 0.374177,0.51449 0.42095,0.18708 0.795126,0.93544 0.374177,0.74835 0.795126,1.02899 0.982216,1.49671 0.187089,0.46772 0.23386,0.14031 0.23386,0.8419 0,0.70158 -0.140317,0.74835 0.140316,1.40316 0.280633,0.65481 0.233863,0.60804 0.795128,1.3564 0.561266,0.74835 0.748356,1.02898 1.075759,1.54348 0.327406,0.51449 0.233863,0.46772 0.701583,0.98221 0.467722,0.5145 0.374179,0.37418 0.748355,0.79513 0.374176,0.42095 0.701582,0.51449 0.701582,0.51449"
         id="path139-8" />
      <path
         style="fill:none;stroke:#0b0103;stroke-width:0.264583px;stroke-linecap:butt;stroke-linejoin:miter;stroke-opacity:1"
         d="m -47.8947,113.00155 c 0,0 1.824117,-0.3274 2.291837,-0.3274 0.467722,0 1.403165,-0.0468 2.057977,-0.0468 0.654809,0 1.262848,-0.0936 2.011203,-0.14032 0.748353,-0.0468 1.403165,-0.14032 1.964431,-0.37418 0.561266,-0.23386 1.169302,-0.42095 1.169302,-0.70158 0,-0.28063 -0.187087,-0.37418 0.09355,-1.30962 0.280633,-0.93544 0,-1.35639 0.280633,-1.73057 0.280633,-0.37418 0.65481,-0.65481 0.982216,-0.79513 0.327403,-0.14031 0.46772,-0.42095 0.888669,-0.8419 0.420952,-0.42094 0.187089,-0.23386 0.888672,-1.02898 0.701582,-0.79513 0.795128,-1.26285 1.075761,-1.73057 0.280633,-0.46772 0.04677,-0.93545 0.701583,-1.02899 0.654809,-0.0935 0.888669,-0.28063 1.169302,-0.42095 0.280633,-0.14032 0.467722,-1.21608 0.467722,-1.21608"
         id="path140-3" />
      <path
         style="fill:none;stroke:#0b0103;stroke-width:0.264583px;stroke-linecap:butt;stroke-linejoin:miter;stroke-opacity:1"
         d="m -37.636979,86.18802 -0.529166,0.529166 c 0,0 -0.06615,0.198438 0.132291,0.463021 0.198438,0.264584 0.330729,0.396875 0.330729,0.396875 l 1.058334,-0.132291 v -0.661459 -0.330729 z"
         id="path145-0" />
      <path
         style="fill:none;stroke:#0b0103;stroke-width:0.264583px;stroke-linecap:butt;stroke-linejoin:miter;stroke-opacity:1"
         d="m -38.033854,86.584895 -1.984375,-1.521354 -0.132291,-0.33073 -0.396875,-0.529166 -0.727604,-0.859896 -0.529167,-0.529167 -0.463021,-0.529166"
         id="path148-4" />
      <path
         style="fill:none;stroke:#0b0103;stroke-width:0.264583px;stroke-linecap:butt;stroke-linejoin:miter;stroke-opacity:1"
         d="m -36.710937,87.378645 0.463021,0.330729 0.396875,0.727604 c 0,0 -0.132292,0.06615 0.06615,0.330729 0.198437,0.264584 0.46302,0.463021 0.46302,0.463021 l 0.264584,0.859896 0.06615,0.463021"
         id="path150-9" />
      <path
         style="display:inline;fill:none;stroke:#000000;stroke-width:0.264583px;stroke-linecap:butt;stroke-linejoin:miter;stroke-opacity:1"
         d="m -39.741984,112.29638 0.165364,0.84336 -0.132292,0.97565 -0.04961,0.95911"
         id="path81-8-3" />
    </g>
    <g
       inkscape:groupmode="layer"
       id="layer2-4"
       inkscape:label="Shading"
       style="display:inline">
      <path
         style="display:inline;fill:#bc8b75;fill-opacity:1;stroke:#bc8b75;stroke-width:0.264583px;stroke-linecap:butt;stroke-linejoin:miter;stroke-opacity:1"
         d="m -60.646962,111.89523 1.075759,0.0702 1.753957,0.0468 1.543482,0.0702 -0.608039,0.93544 -0.958829,0.58465 -1.028988,0.65481 -0.88867,-0.44433 -0.724969,-0.81852 z"
         id="path78-9-5" />
      <path
         style="display:inline;fill:#443935;fill-opacity:1;stroke:#443935;stroke-width:0.264583px;stroke-linecap:butt;stroke-linejoin:miter;stroke-opacity:1"
         d="m -60.901083,111.79761 0.421193,2.16404 0.72355,0.99036 2.533965,-0.001 0.484257,-0.91878 0.736075,-1.83899 -0.681034,1.02615 -2.173974,1.34412 -1.036769,-0.53931 -0.70442,-0.82276 z"
         id="path79-9-5"
         sodipodi:nodetypes="ccccccccccc" />
      <path
         style="display:inline;fill:#bc8b75;fill-opacity:1;stroke:#bc8b75;stroke-width:0.264583px;stroke-linecap:butt;stroke-linejoin:miter;stroke-opacity:1"
         d="m -31.2095,88.241279 -0.388606,1.016992 -0.115755,1.141016 0.487826,1.000456 z"
         id="path76-6-3"
         sodipodi:nodetypes="ccccc" />
      <path
         style="display:inline;fill:#443935;fill-opacity:1;stroke:#443935;stroke-width:0.265;stroke-linecap:butt;stroke-linejoin:miter;stroke-dasharray:none;stroke-opacity:1"
         d="m -31.327968,88.185188 c -0.413412,0.661458 -0.760677,1.215429 -0.760677,1.248502 0,0.03307 -0.603581,0.686263 -0.603581,0.686263 l 0.396875,0.7028 0.967383,0.636653 -0.496094,-1.083138 0.107487,-1.190625 z"
         id="path77-4-3" />
    </g>
  </g>
</svg>
