<?xml version="1.0" encoding="UTF-8" standalone="no"?>
<!-- Created with Inkscape (http://www.inkscape.org/) -->

<svg
   width="210mm"
   height="297mm"
   viewBox="0 0 210 297"
   version="1.1"
   id="svg1"
   xml:space="preserve"
   inkscape:version="1.4.2 (f4327f4, 2025-05-13)"
   sodipodi:docname="FlowerForMap.svg"
   inkscape:export-filename="Flower1.png"
   inkscape:export-xdpi="35.558163"
   inkscape:export-ydpi="35.558163"
   xmlns:inkscape="http://www.inkscape.org/namespaces/inkscape"
   xmlns:sodipodi="http://sodipodi.sourceforge.net/DTD/sodipodi-0.dtd"
   xmlns="http://www.w3.org/2000/svg"
   xmlns:svg="http://www.w3.org/2000/svg"><sodipodi:namedview
     id="namedview1"
     pagecolor="#505050"
     bordercolor="#eeeeee"
     borderopacity="1"
     inkscape:showpageshadow="0"
     inkscape:pageopacity="0"
     inkscape:pagecheckerboard="0"
     inkscape:deskcolor="#505050"
     inkscape:document-units="mm"
     inkscape:zoom="1.4142136"
     inkscape:cx="61.871843"
     inkscape:cy="419.66787"
     inkscape:window-width="1920"
     inkscape:window-height="1009"
     inkscape:window-x="1912"
     inkscape:window-y="-8"
     inkscape:window-maximized="1"
     inkscape:current-layer="layer1" /><defs
     id="defs1" /><g
     inkscape:label="Ebene 1"
     inkscape:groupmode="layer"
     id="layer1"
     transform="translate(-69.557621,-25.026022)"><g
       id="g10"
       inkscape:label="Leaf1"><path
         style="fill:#29520d;fill-opacity:1;stroke:none;stroke-width:0.264999"
         d="m 125.14346,169.09319 -3.1736,0.006 0.87633,-1.05778 1.0554,-0.99552 1.26388,-0.72913 2.16897,-0.50699 1.35852,-0.0593 1.1649,0.24874 0.96102,0.5631 -0.19855,0.0355 -0.58553,-0.0966 -0.72181,-0.008 -1.03717,0.0789 -1.04234,0.30705 -0.83665,0.46929 -0.60319,0.44392 -0.51234,0.65297 z"
         id="path4"
         transform="translate(-1.1875e-6)"
         sodipodi:nodetypes="cccccccccccccccccc"
         inkscape:label="DarkShading" /><path
         style="display:inline;fill:#70a55e;fill-opacity:1;stroke:none;stroke-width:0.264999"
         d="m 122.02207,169.05971 0.85386,-1.07714 1.12708,-0.80506 1.27661,-0.56355 2.04717,-0.52904 1.36861,-0.0805 1.10409,0.14952 1.24628,0.50406 -0.80925,-0.90405 -0.80785,-0.37336 -1.2205,-0.1731 -1.19167,0.0878 -1.25047,0.20029 -1.49652,0.44376 -1.46537,0.70237 -0.71306,0.51 -0.78881,0.75372 -0.36128,0.68611 -0.12989,0.51277 z"
         id="path3"
         sodipodi:nodetypes="cccccccccccccccccccc"
         inkscape:label="LightShading" /><path
         style="display:inline;fill:#496c24;fill-opacity:1;stroke:none;stroke-width:0.264999;stroke-opacity:1"
         d="m 122.93046,169.06683 0.73529,-0.8668 0.9491,-0.69939 1.22084,-0.5875 1.38867,-0.32669 0.55301,-0.0976 0.12198,-0.0651 0.0569,-0.0894 v -0.12199 l -0.0373,-0.0603 -0.53197,0.0684 -2.0924,0.50084 -1.27202,0.54725 -1.13139,0.77595 -0.34633,0.4564 -0.36357,0.58413 z"
         id="path8"
         transform="translate(-1.1875e-6)"
         sodipodi:nodetypes="ccccccccccccccccc" /><path
         style="display:inline;fill:none;fill-opacity:1;stroke:#91d497;stroke-width:0.264999;stroke-opacity:1"
         d="m 125.77695,165.686 1.27857,-0.21992 1.11699,-0.11501 1.16357,0.20029 0.78322,0.37 0.75372,0.73466"
         id="path6"
         sodipodi:nodetypes="cccccc"
         transform="translate(-1.1875e-6)" /><path
         style="display:inline;fill:none;fill-opacity:1;stroke:#123900;stroke-width:0.264999;stroke-opacity:1"
         d="m 123.03694,169.15567 0.75906,-0.89708 0.86257,-0.63255 1.2191,-0.58654"
         id="path7"
         transform="translate(-1.1875e-6)"
         sodipodi:nodetypes="cccc" /><path
         style="display:inline;fill:none;fill-opacity:1;stroke:#0a1f00;stroke-width:0.264999;stroke-opacity:1"
         d="m 129.73048,166.06192 -1.02358,-0.15526 -1.35711,0.17826 -2.09317,0.51754 -1.29385,0.54629 -1.1501,0.78782 -0.37378,0.48878 -0.40253,0.62681"
         id="path5"
         sodipodi:nodetypes="ccccccc"
         transform="translate(-1.1875e-6)" /><path
         style="display:inline;fill:#000000;fill-opacity:0.266667;stroke:none;stroke-width:0.264999;stroke-opacity:1"
         d="m 127.26066,166.84398 -0.3364,-0.1265 -0.55205,0.26452 -0.62105,0.39103 -0.49454,0.41404 -0.34503,0.43703 -0.66705,0.25302 -0.66705,0.0805 -0.93158,0.0115 -0.83957,-0.11501 -0.27602,-0.12651 -0.11501,-0.20702 0.0632,-0.3479 -0.17827,0.15526 -0.36803,0.69006 -0.10063,0.48304 4.30422,-0.0115 0.1035,-0.65555 0.52617,-0.65843 0.62392,-0.45141 z"
         id="path9"
         transform="translate(-1.1875e-6)"
         sodipodi:nodetypes="ccccccccccccccccccccc" /><path
         style="fill:none;stroke:#093000;stroke-width:0.264999;stroke-opacity:1"
         d="m 125.21567,169.18068 0.13011,-0.69938 0.50421,-0.63433 0.58554,-0.42288 0.84576,-0.47169 0.99215,-0.30903 1.00841,-0.0651 0.71566,0.0163 0.60179,0.0814 0.71566,0.0488 -1.07348,-1.04094 -0.81324,-0.39036 -1.23612,-0.19518 -1.17107,0.0975 -1.26865,0.21144 -1.48009,0.43916 -1.51262,0.73191 -0.66686,0.47168 -0.8783,0.79697 -0.39035,0.73191 -0.0976,0.42289 v 0.19517 z"
         id="path2"
         sodipodi:nodetypes="ccccccccccccccccccccccc"
         transform="translate(-1.1875e-6)"
         inkscape:label="Outline" /></g><g
       id="g17"
       inkscape:label="Leaf2"><path
         style="fill:#70a55e;fill-opacity:1;stroke:none;stroke-width:0.264999;stroke-opacity:1"
         d="m 119.199,169.10095 -0.4174,-2.09596 -0.28752,-2.05866 -0.0805,-2.57621 -0.0345,-2.21968 0.14951,-3.02475 0.21852,-2.13917 0.0115,2.02417 0.023,1.80564 0.17251,2.4612 0.34503,3.39277 0.43703,2.17368 0.35653,1.2881 0.21852,0.95458 z"
         id="path12"
         transform="translate(-1.1875e-6)"
         inkscape:label="LightShading"
         sodipodi:nodetypes="ccccccccccccccc" /><path
         style="fill:#29520d;fill-opacity:1;stroke:none;stroke-width:0.264999;stroke-opacity:1"
         d="m 119.1977,169.11472 -1.00226,-0.015 -0.31478,-1.04144 -0.19994,-1.42415 -0.0606,-1.50113 0.10473,-1.96705 0.12297,-1.62886 0.19995,-2.28067 0.32053,-2.86713 0.39669,-1.50687 -0.23405,2.0924 -0.14301,3.14486 0.11825,4.83737 0.26064,1.98906 z"
         id="path13"
         inkscape:label="DarkShading"
         transform="translate(-1.1875e-6)"
         sodipodi:nodetypes="ccccccccccccccc" /><path
         style="fill:none;fill-opacity:1;stroke:#91d497;stroke-width:0.264999;stroke-opacity:1"
         d="m 118.7576,154.9448 -0.11985,1.33836 0.0216,2.7093 0.13396,1.72679 0.20251,2.33011"
         id="path15"
         transform="translate(-1.1875e-6)"
         sodipodi:nodetypes="ccccc" /><path
         style="display:inline;fill:none;fill-opacity:1;stroke:#0a1f00;stroke-width:0.264999;stroke-opacity:1"
         d="m 119.21864,169.14417 -0.40254,-1.97817 -0.32203,-2.23118 -0.0805,-4.68087 0.0446,-1.92726"
         id="path14"
         transform="translate(-1.1875e-6)"
         sodipodi:nodetypes="ccccc" /><path
         style="display:inline;fill:#496c24;fill-opacity:1;stroke:none;stroke-width:0.264999;stroke-opacity:1"
         d="m 119.07171,169.0906 -0.39035,-8e-4 -0.19931,-1.04769 -0.24397,-1.07347 -0.14441,-1.08399 -0.0345,-0.86779 -0.0239,-1.07905 0.0939,-1.65343 0.15213,-1.46859 0.0268,1.52412 0.0555,2.55636 0.32193,2.3082 z"
         id="path16"
         transform="translate(-1.1875e-6)"
         sodipodi:nodetypes="ccccccccccccc" /><path
         style="display:inline;fill:#000000;fill-opacity:0.266667;stroke:none;stroke-width:0.264999;stroke-opacity:1"
         d="m 117.749,166.76413 0.2315,0.42582 0.27286,0.14883 0.50022,0.0331 0.39688,-0.0331 0.29766,-0.23978 0.2439,-0.47956 0.20258,0.71521 0.19844,0.74827 0.2067,1.03766 -2.10426,-0.008 -0.27285,-1.04593 -0.12816,-1.0418 z"
         id="path17"
         transform="translate(-1.1875e-6)"
         sodipodi:nodetypes="cccccccccccccc" /><path
         style="fill:none;fill-opacity:0.266667;stroke:#093000;stroke-width:0.264999;stroke-opacity:1"
         d="m 120.44349,169.20742 -0.23578,-1.13284 -0.34108,-1.27184 -0.22212,-1.02556 -0.23675,-1.15962 -0.10942,-1.08109 -0.092,-0.9498 -0.0876,-0.92961 -0.092,-1.22073 -0.11665,-1.53555 -0.0135,-1.94168 -0.046,-3.09967 -0.55204,2.4612 -0.27602,2.17565 -0.18959,1.98211 -0.17449,2.40172 -0.12684,2.25023 0.0808,1.49676 0.18796,1.39358 0.30838,1.20399 z"
         id="path11"
         sodipodi:nodetypes="ccccccccccccccccccccc"
         inkscape:label="Outline" /></g><g
       id="g25"
       inkscape:label="Leaf3"><path
         style="fill:#29520d;fill-opacity:1;stroke:none;stroke-width:0.264999;stroke-opacity:1"
         d="m 116.68935,169.09891 -0.87698,0.003 -0.0629,-0.24263 -0.16955,-0.57734 -0.21778,-0.59196 -0.17393,-0.69574 -0.34057,-0.8799 -0.152,-0.34202 -0.28356,-0.62997 -0.42972,-0.87844 -0.39464,-0.69573 -0.11255,-0.2514 1.11377,0.65773 0.36687,0.3128 0.30109,0.31278 0.38294,0.31133 0.31134,0.34933 0.21485,0.51157 0.17394,0.51888 0.13739,0.54519 0.14032,0.46771 0.0935,0.6519 0.21631,1.14299 z"
         id="path28"
         transform="translate(-1.1875e-6)"
         sodipodi:nodetypes="cccccccccccccccccccccccc"
         inkscape:label="DarkShading" /><path
         style="display:inline;fill:#70a55e;fill-opacity:1;stroke:none;stroke-width:0.264999;stroke-opacity:1"
         d="m 116.95003,169.1059 -0.21268,-1.12413 -0.10322,-0.70654 -0.12895,-0.42998 -0.14725,-0.59006 -0.17202,-0.5071 -0.21397,-0.4955 -0.2915,-0.37067 -0.3993,-0.37402 -0.68581,-0.52705 -1.12298,-0.66279 0.55329,0.0131 0.6546,0.15052 0.56986,0.15052 0.79568,0.35075 0.45819,0.34541 0.35621,0.41562 0.32769,1.01131 0.23952,-0.0822 0.0522,0.96731 0.19177,1.41527 0.27759,1.05231 z"
         id="path27"
         inkscape:label="LightShading"
         transform="translate(-1.1875e-6)"
         sodipodi:nodetypes="ccccccccccccccccccccccc" /><path
         style="display:inline;fill:#496c24;fill-opacity:1;stroke:none;stroke-width:0.264999;stroke-opacity:1"
         d="m 116.34007,169.1029 -0.13306,-0.69095 -0.11693,-0.61974 -0.20463,-0.95298 -0.54765,-1.26158 -0.23464,-0.38034 -0.22324,-0.34727 -0.0289,-0.11989 0.008,-0.10748 0.0703,-0.062 0.23565,0.1819 0.33073,0.30592 0.26045,0.339 0.19843,0.46302 0.17364,0.49196 0.12402,0.52503 0.14883,0.50023 0.0744,0.59945 0.21911,1.13274 z"
         id="path32"
         transform="translate(-1.1875e-6)"
         sodipodi:nodetypes="cccccccccccccccccccc" /><path
         style="display:inline;fill:none;fill-opacity:0.266667;stroke:#0a1f00;stroke-width:0.264999;stroke-opacity:1"
         d="m 114.49692,164.07069 0.38878,0.27912 0.33894,0.26916 0.35888,0.32897 0.27912,0.35888 0.21932,0.49844 0.16947,0.5084 0.13956,0.57819 0.1296,0.43863 0.0897,0.61806 0.11963,0.62804 0.10322,0.55131"
         id="path26"
         sodipodi:nodetypes="cccccccccccc"
         transform="translate(-1.1875e-6)" /><path
         style="display:inline;fill:#91d497;fill-opacity:1;stroke:none;stroke-width:0.264999;stroke-opacity:1"
         d="m 113.47669,163.31962 0.5408,2e-5 0.62996,0.15055 0.5832,0.15639 0.77757,0.3391 0.45604,0.33617 -0.32753,0.30728 -0.54059,-0.38801 -0.56428,-0.38114 -0.67235,-0.24555 -0.56711,-0.16371 z"
         id="path29"
         sodipodi:nodetypes="cccccccccccc"
         transform="translate(-1.1875e-6)" /><path
         style="display:inline;fill:#91d497;fill-opacity:1;stroke:none;stroke-width:0.264999;stroke-opacity:1"
         d="m 116.12842,164.58959 0.1571,0.40515 0.56224,-0.24392 -0.39274,-0.44648 z"
         id="path30"
         transform="translate(-1.1875e-6)" /><path
         style="display:inline;fill:none;fill-opacity:1;stroke:#123900;stroke-width:0.264999;stroke-opacity:1"
         d="m 116.22526,169.12634 -0.24626,-1.14119 -0.19879,-1.09915 -0.56126,-1.26284"
         id="path31"
         transform="translate(-1.1875e-6)"
         sodipodi:nodetypes="cccc" /><path
         style="display:inline;fill:#000000;fill-opacity:0.266667;stroke:none;stroke-width:0.264999;stroke-opacity:1"
         d="m 115.27266,167.37185 0.14056,0.14056 0.1571,0.23978 0.23151,0.17363 0.3638,0.0662 0.24805,-0.0331 0.3638,-0.19844 0.0992,-0.67799 -0.0827,-0.64493 -0.0331,-0.60358 0.0909,-0.48782 0.11162,-0.26459 0.0972,0.27596 0.12609,0.38861 0.24081,-0.0754 0.0568,0.92398 0.0786,0.62425 0.11162,0.8475 0.28112,1.05833 -2.16214,-0.0124 -0.0868,-0.3762 -0.1571,-0.46716 -0.17363,-0.54156 z"
         id="path33"
         transform="translate(-1.1875e-6)"
         sodipodi:nodetypes="cccccccccccccccccccccccc" /><path
         style="display:inline;fill:none;fill-opacity:0.266667;stroke:#093000;stroke-width:0.264999;stroke-opacity:1"
         d="m 117.30753,165.7205 -0.33835,-1.03973 -0.40884,-0.46523 -0.49343,-0.36655 -0.78949,-0.33835 -0.56392,-0.15508 -0.6767,-0.15508 -0.57802,-0.0141 -0.16918,0.0141 0.18328,0.42294 0.39474,0.7049 0.43704,0.88818 0.42294,0.95866 0.33835,0.85998 0.16918,0.6908 0.22557,0.60621 0.16917,0.56392 0.0776,0.33132 2.27682,0.007"
         id="path25"
         sodipodi:nodetypes="ccccccccccccccccccc"
         inkscape:label="Outline" /></g><g
       id="g11"
       inkscape:label="Leaf4"
       style="display:inline"><path
         style="display:inline;fill:#29520d;fill-opacity:1;stroke:none;stroke-width:0.264999;stroke-opacity:1"
         d="m 120.59433,169.2842 -0.24627,-1.15389 -0.3518,-1.31262 -0.45986,-2.1846 -0.22731,-2.37168 0.18738,-0.80854 0.50694,-1.34711 0.4777,-1.06407 0.28034,-0.40513 0.18416,-0.28063 0.44142,-0.71912 0.0877,-0.15201 0.13447,-0.16371 -0.22802,0.56712 -0.39172,1.02314 -0.19878,0.6665 -0.1637,0.49696 -0.1637,1.02899 -0.19294,2.54908 0.076,1.78903 0.28648,1.59026 0.35663,1.02314 -0.28063,0.46187 -0.11108,0.46772 z"
         id="path19"
         transform="translate(-1.1875e-6)"
         inkscape:label="DarkColor"
         sodipodi:nodetypes="ccccccccccccccccccccccccc" /><path
         style="fill:#70a55e;fill-opacity:1;stroke:none;stroke-width:0.264999;stroke-opacity:1"
         d="m 121.04208,167.88576 0.0461,-0.0997 0.71127,-0.64253 -0.33639,-0.78372 -0.0935,-0.30987 -0.0877,-0.71912 -0.13447,-0.90621 -0.0351,-0.78928 -0.006,-0.83021 -0.0468,-0.54957 0.0409,-0.72497 0.0874,-0.51207 0.0646,-0.49353 0.24556,-2.21583 0.0324,-0.39757 0.0553,-0.46187 0.0292,-0.12278 -0.21703,0.51379 -0.41439,1.08816 -0.34495,1.181 -0.18709,0.96467 -0.19293,2.65432 0.0819,1.72473 0.29817,1.60779 0.2631,0.86528 0.11693,0.0702 z"
         id="path20"
         transform="translate(-1.1875e-6)"
         inkscape:label="LightColor"
         sodipodi:nodetypes="ccccccccccccccccccccccccccc" /><path
         style="fill:none;fill-opacity:0.266667;stroke:#093000;stroke-width:0.264999;stroke-opacity:1"
         d="m 119.17843,162.23158 0.21201,-0.777 0.11109,-0.32447 0.13154,-0.35664 0.15786,-0.41218 0.14324,-0.36541 0.1637,-0.37125 0.15201,-0.32156 0.1637,-0.3391 0.21632,-0.37418 0.20463,-0.28063 0.23094,-0.37126 0.14324,-0.2397 0.1754,-0.30695 0.21924,-0.27478 0.34787,-0.39464 -0.0731,0.21047 -0.0585,0.16078 -0.0555,0.16955 -0.0497,0.21924 -0.0614,0.43557 -0.0175,0.35956 -0.0585,0.4385 -0.0789,0.73373 -0.11984,1.09622 -0.0848,0.50865 -0.0643,0.55542 -0.0351,0.62558 0.0408,0.70158 0.0117,0.60804 0.041,0.88867 0.0906,0.7045 0.0585,0.38295 0.0702,0.51157 0.0731,0.29233 0.32641,0.78178"
         id="path10"
         sodipodi:nodetypes="cccccccccccccccccccccccccccccccccccc"
         inkscape:label="Outline" /><path
         style="display:inline;fill:none;fill-opacity:0.266667;stroke:#0a1f00;stroke-width:0.264999;stroke-opacity:1"
         d="m 120.83718,159.41782 -0.21498,0.69453 -0.16536,0.94258 -0.0992,1.15755 -0.0827,1.50482 0.0661,1.70325 0.28112,1.62057 0.28939,0.92191 0.10753,0.0579"
         id="path18"
         transform="translate(-1.1875e-6)"
         sodipodi:nodetypes="cccccccc" /><path
         style="display:inline;fill:#496c24;fill-opacity:1;stroke:none;stroke-width:0.264999"
         d="m 121.10054,167.78052 -0.0526,0.10232 -0.0322,-0.003 -0.26879,-0.87078 -0.27567,-1.59478 -0.0662,-1.70119 0.0703,-1.20923 0.10956,-1.40767 0.1034,-0.16536 0.13229,-0.0578 0.11575,0.0682 0.0373,0.16949 -0.0228,0.4961 -0.0559,0.64492 -0.0558,1.10174 0.0475,1.12655 0.0723,0.7028 0.24184,1.6123 0.0889,0.63045 -0.031,0.21086 z"
         id="path1"
         sodipodi:nodetypes="ccccccccccccccccccccc" /><path
         style="display:inline;fill:none;fill-opacity:1;stroke:#91d497;stroke-width:0.264999;stroke-opacity:1"
         d="m 121.4075,157.88529 -0.0263,0.0438 -0.3391,0.54665 -0.19001,0.26017 -0.20755,0.34201 -0.48234,1.0553 -0.26419,0.68117 -0.21232,0.58758 -0.25724,0.88867"
         id="path21"
         sodipodi:nodetypes="ccccccccc" /><path
         style="display:inline;fill:none;fill-opacity:1;stroke:#123900;stroke-width:0.264999;stroke-opacity:1"
         d="m 120.66206,168.42948 -0.28063,-0.98221 -0.32741,-1.33301 -0.22801,-2.10474 0.0117,-1.20439"
         id="path22"
         transform="translate(-1.1875e-6)"
         sodipodi:nodetypes="ccccc" /><path
         style="display:inline;fill:#000000;fill-opacity:0.266667;stroke:none;stroke-width:0.264999;stroke-opacity:1"
         d="m 119.31423,162.27222 0.3874,0.10881 0.17115,0.51768 0.23386,1.57856 0.30402,1.90596 0.17539,0.80682 0.23387,0.0351 0.3274,-0.10524 0.12862,-0.19878 0.0234,-0.39756 -0.0234,-0.40926 0.0945,-0.0757 0.0847,0.33073 0.33487,0.79376 -0.69453,0.62217 -0.1509,0.34934 -0.23357,0.3886 -0.11162,0.45476 h -0.0703 l -0.18397,-0.84543 -0.35347,-1.31671 -0.45889,-2.17662 -0.19223,-2.00504 z"
         id="path23"
         transform="translate(-1.1875e-6)"
         sodipodi:nodetypes="cccccccccccccccccccccccc" /></g><g
       id="g34"
       inkscape:label="Flower"
       style="display:inline"><path
         style="display:inline;fill:#29520d;fill-opacity:1;stroke:#093000;stroke-width:0.264999;stroke-opacity:1"
         d="m 124.50652,158.61029 -0.90366,1.72761 -1.0056,2.61924 -0.79513,3.5313 0.1926,0.49481 0.66146,-0.50437 0.38034,-1.62057 0.23151,-1.62057 1.0914,-2.74505 0.80616,-1.44694 -0.27699,-0.13643 z"
         id="path58"
         transform="translate(-1.1875e-6)"
         sodipodi:nodetypes="cccccccccccc" /><path
         style="display:inline;fill:#000000;fill-opacity:0.266667;stroke:none;stroke-width:0.264999;stroke-opacity:1"
         d="m 122.26345,165.01541 0.5705,0.11575 -0.30179,1.27332 -0.48369,0.37206 -0.11162,-0.29353 z"
         id="path60"
         sodipodi:nodetypes="cccccc"
         transform="translate(-1.1875e-6)" /><path
         style="display:inline;fill:#000000;fill-opacity:0.266667;stroke:none;stroke-width:0.264999;stroke-opacity:1"
         d="m 123.7476,160.33972 0.45061,0.20258 0.0869,-0.19017 0.7028,-1.2485 -0.16743,-0.0827 -0.27285,-0.21086 z"
         id="path59"
         sodipodi:nodetypes="ccccccc"
         transform="translate(-1.1875e-6)" /><path
         style="display:inline;fill:#cfca7a;fill-opacity:1;stroke:#464429;stroke-width:0.264999;stroke-opacity:1"
         d="m 126.1603,155.31605 -2.45567,0.0413 -0.21497,0.13229 -0.1819,0.27285 -0.0165,0.22324 -0.13229,0.17364 -0.0744,0.28938 0.008,0.28112 0.0662,0.25632 0.16536,0.28112 0.19017,0.24804 0.25632,0.20671 0.32246,0.20671 0.27285,0.25631 0.35553,0.26458 0.33073,0.25632 0.34727,0.1819 0.38034,0.17363 0.47128,0.0827 0.76068,0.0579 0.90124,-0.0165 h 0.80202 l 0.39687,-0.19844 0.0661,-0.23978 0.0165,-0.37207 -0.0165,-0.61185 -0.1819,-0.38861 -0.29766,-0.47128 -0.3638,-0.45476 -0.62012,-0.42994 -0.67799,-0.36381 -0.54571,-0.28112 z"
         id="path34"
         transform="translate(-1.1875e-6)" /><path
         style="display:inline;fill:#f5c75a;fill-opacity:1;stroke:none;stroke-width:0.264999;stroke-opacity:1"
         d="m 126.98508,155.91501 -0.79221,-0.0235 -0.63435,-0.0292 -0.59635,0.0994 -0.23386,0.15201 0.0556,0.47064 0.19878,0.3274 0.36249,0.32741 0.40341,0.24555 0.8419,0.18124 0.88867,0.0526 1.5084,-0.0234 -0.10524,-0.25432 -0.28063,-0.44727 -0.34786,-0.44141 -0.59051,-0.41218 -0.63435,-0.33325 z"
         id="path38"
         transform="translate(-1.1875e-6)"
         sodipodi:nodetypes="cccccccccccccccccc" /><path
         style="display:inline;fill:none;fill-opacity:1;stroke:#e08f09;stroke-width:0.264999;stroke-opacity:1"
         d="m 59.491975,133.00273 -1.556494,-0.008 -0.892969,-0.0662 -0.917773,-0.16536 -0.479557,-0.29766 -0.438217,-0.38861 -0.248046,-0.40514 -0.04134,-0.46302 0.173633,-0.22324 0.297656,-0.14056 0.603581,-0.0909 0.686263,0.0165 h 0.79375"
         id="path36"
         transform="translate(69.557621,25.026022)"
         sodipodi:nodetypes="ccccccccccccc" /><path
         style="fill:none;fill-opacity:1;stroke:#e08f09;stroke-width:0.264999;stroke-opacity:1"
         d="m 128.97725,157.76417 -1.49241,0.002 -0.83923,-0.06 -0.86817,-0.16123 -0.43201,-0.26459 -0.38447,-0.34313 -0.20273,-0.31626 -0.0302,-0.35312 0.0197,-0.15744"
         id="path37"
         sodipodi:nodetypes="ccccccccc" /><path
         style="display:inline;fill:none;fill-opacity:1;stroke:#a5a161;stroke-width:0.264999;stroke-opacity:1"
         d="m 127.73288,158.18585 v 0.86817"
         id="path54"
         transform="translate(-1.1875e-6)" /><path
         style="display:inline;fill:none;fill-opacity:1;stroke:#a5a161;stroke-width:0.264999;stroke-opacity:1"
         d="m 125.86426,157.97915 -0.38861,0.73587"
         id="path55"
         transform="translate(-1.1875e-6)" /><path
         style="display:inline;fill:none;fill-opacity:1;stroke:#a5a161;stroke-width:0.264999;stroke-opacity:1"
         d="m 124.64883,157.20193 -0.75241,0.40515"
         id="path56"
         transform="translate(-1.1875e-6)" /><path
         style="display:inline;fill:none;fill-opacity:1;stroke:#a5a161;stroke-width:0.264999;stroke-opacity:1"
         d="m 124.3181,156.1684 -0.8847,-0.21497"
         id="path57"
         transform="translate(-1.1875e-6)" /><path
         style="display:inline;fill:#000000;fill-opacity:0.266667;stroke:none;stroke-width:0.264999;stroke-opacity:1"
         d="m 123.43296,155.81269 0.17575,0.12278 0.14031,0.58465 0.19878,0.53204 0.4268,0.4911 0.61388,0.47357 0.58466,0.33325 0.68404,0.21632 0.80682,0.11109 1.24531,-0.0117 0.74115,-0.0196 -0.005,0.0901 -0.0443,0.16412 -0.31507,0.1575 -1.67239,0.0113 -0.74216,-0.0502 -0.45089,-0.0801 -0.68511,-0.32911 -0.69538,-0.53239 -0.26688,-0.24657 -0.32598,-0.20734 -0.2387,-0.19713 -0.17351,-0.2242 -0.1611,-0.25314 -0.054,-0.23593 -0.007,-0.25932 0.0547,-0.22494 0.14958,-0.19394 z"
         id="path44"
         sodipodi:nodetypes="ccccccccccccccccccccccccccccc"
         transform="translate(-1.1875e-6)" /><path
         style="fill:#ffde8e;fill-opacity:1;stroke:none;stroke-width:0.407756;stroke-opacity:1"
         d="m 126.43425,156.1473 -0.1214,0.25638 0.26987,0.2339 0.63424,0.31487 0.4678,0.0765 0.29237,-0.10802 0.12602,-0.2339 -0.19791,-0.28338 -0.52628,-0.26089 -0.36883,-0.0585 z"
         id="path53" /></g></g></svg>
