<?xml version="1.0" encoding="UTF-8" standalone="no"?>
<!-- Created with Inkscape (http://www.inkscape.org/) -->

<svg
   width="210mm"
   height="297mm"
   viewBox="0 0 210 297"
   version="1.1"
   id="svg1"
   inkscape:version="1.3.2 (091e20e, 2023-11-25, custom)"
   sodipodi:docname="AnimatedThornbushDie3.svg"
   xmlns:inkscape="http://www.inkscape.org/namespaces/inkscape"
   xmlns:sodipodi="http://sodipodi.sourceforge.net/DTD/sodipodi-0.dtd"
   xmlns="http://www.w3.org/2000/svg"
   xmlns:svg="http://www.w3.org/2000/svg">
  <sodipodi:namedview
     id="namedview1"
     pagecolor="#ffffff"
     bordercolor="#000000"
     borderopacity="0.25"
     inkscape:showpageshadow="2"
     inkscape:pageopacity="0.0"
     inkscape:pagecheckerboard="0"
     inkscape:deskcolor="#d1d1d1"
     inkscape:document-units="mm"
     inkscape:zoom="0.3535534"
     inkscape:cx="115.96551"
     inkscape:cy="91.923879"
     inkscape:window-width="1920"
     inkscape:window-height="1009"
     inkscape:window-x="2552"
     inkscape:window-y="-3"
     inkscape:window-maximized="1"
     inkscape:current-layer="layer1" />
  <defs
     id="defs1" />
  <g
     inkscape:label="Ebene 1"
     inkscape:groupmode="layer"
     id="layer1">
    <g
       id="g28"
       inkscape:label="Arm3"
       style="display:inline"
       transform="rotate(-1.3549077,584.99181,-847.53053)">
      <path
         style="fill:#71291c;fill-opacity:1;stroke:#000000;stroke-width:0.264583"
         d="m 90.501277,270.31052 6.74554,-12.31066 10.493163,-3.95063 15.57029,-0.47956 -0.38973,-8.80198 -8.0588,-0.37217 -15.623626,-3.10938 -17.308148,3.6438 -17.323738,-2.8182 -13.564645,-7.06555 -31.760811,6.84955 -16.8406252,9.72403 14.9810352,-13.5637 32.837804,-9.03026 17.54293,8.54451 12.695681,1.88145 16.717837,-3.60446 17.677906,3.684 11.30839,1.21761 -0.64898,17.73679 -16.96647,1.30824 -8.817649,3.88097 -3.043789,6.6682"
         id="path18"
         sodipodi:nodetypes="ccccccccccccccccccccccc" />
      <path
         style="fill:#71291c;fill-opacity:1;stroke:#000000;stroke-width:0.264583"
         d="m 96.155277,260.0161 1.09154,-2.01624 2.462612,-0.92132 -1.37574,-6.34344 z"
         id="path19"
         sodipodi:nodetypes="ccccc" />
      <path
         style="fill:#71291c;fill-opacity:1;stroke:#000000;stroke-width:0.264583"
         d="m 106.75219,260.57421 1.83407,-0.78022 3.5572,-0.25914 -4.41017,7.53102 z"
         id="path20"
         sodipodi:nodetypes="ccccc" />
      <path
         style="fill:#71291c;fill-opacity:1;stroke:#000000;stroke-width:0.264583"
         d="m 121.57212,253.63697 1.78236,-0.0826 -0.25764,-4.03596 -1.72603,-1.56332 z"
         id="path21"
         sodipodi:nodetypes="ccccc" />
      <path
         style="fill:#71291c;fill-opacity:1;stroke:#000000;stroke-width:0.264583"
         d="m 126.13315,244.24989 0.0875,-3.54809 -3.53466,-0.32566 9.48349,-3.17003 z"
         id="path22"
         sodipodi:nodetypes="ccccc" />
      <path
         style="fill:#71291c;fill-opacity:1;stroke:#000000;stroke-width:0.264583"
         d="m 117.88418,244.46761 -3.09584,-0.0557 -3.16261,-0.74309 2.7923,9.18464 z"
         id="path23"
         sodipodi:nodetypes="ccccc" />
      <path
         style="fill:#71291c;fill-opacity:1;stroke:#000000;stroke-width:0.264583"
         d="m 100.95605,236.59121 -3.758328,-0.78718 -3.963,0.81257 3.786137,-10.13957 z"
         id="path24"
         sodipodi:nodetypes="ccccc" />
      <path
         style="fill:#71291c;fill-opacity:1;stroke:#000000;stroke-width:0.264583"
         d="m 85.558067,244.14819 -3.709461,0.80273 -3.893083,-0.69438 5.410858,10.25744 z"
         id="path25"
         sodipodi:nodetypes="ccccc" />
      <path
         style="fill:#71291c;fill-opacity:1;stroke:#000000;stroke-width:0.264583"
         d="m 54.201975,236.6855 -3.239511,-1.69444 -3.536644,0.81947 4.343933,6.29653 z"
         id="path26"
         sodipodi:nodetypes="ccccc" />
      <path
         style="fill:#71291c;fill-opacity:1;stroke:#000000;stroke-width:0.264583"
         d="m 70.860277,238.01543 -2.832146,-0.38214 -3.163588,-1.55398 9.689435,-8.26211 z"
         id="path27"
         sodipodi:nodetypes="ccccc" />
      <path
         style="fill:#71291c;fill-opacity:1;stroke:#000000;stroke-width:0.264583"
         d="m 15.537681,239.66791 1.905616,-1.69322 2.594751,-0.61853 -6.416023,-5.07878 z"
         id="path28"
         sodipodi:nodetypes="ccccc" />
      <path
         style="fill:#71291c;fill-opacity:1;stroke:#000000;stroke-width:0.264583"
         d="m 90.198125,237.2576 2.696255,-9.93822 -11.110318,-6.88555 -11.856062,-2.29286 -0.373,-4.64243 11.189051,-4.55043 10.830994,-1.97094 10.234855,-9.19834 6.95202,-11.74376 -8.932362,9.42992 -10.190256,7.88948 -10.076703,1.80945 -11.390815,4.66622 -0.913805,11.17878 12.895208,3.05851 8.153177,6.08124 -5.833275,8.76486"
         id="path29"
         sodipodi:nodetypes="ccccccccccccccccc" />
      <path
         style="fill:#71291c;fill-opacity:1;stroke:#000000;stroke-width:0.264583"
         d="m 90.494696,225.89324 7.304245,-4.47183 -5.778215,9.13002 0.864501,-3.21197 z"
         id="path30"
         sodipodi:nodetypes="ccccc" />
      <path
         style="fill:#71291c;fill-opacity:1;stroke:#000000;stroke-width:0.264583"
         d="m 69.286715,221.42736 -2.134998,-0.42192 0.48106,-5.594 -3.563015,11.77838 z"
         id="path31"
         sodipodi:nodetypes="ccccc" />
      <path
         style="fill:#71291c;fill-opacity:1;stroke:#000000;stroke-width:0.264583"
         d="m 78.776262,209.70005 2.016121,-0.79709 3.460451,-0.60748 -0.659603,6.99742 z"
         id="path32"
         sodipodi:nodetypes="ccccc" />
      <path
         style="fill:#71291c;fill-opacity:1;stroke:#000000;stroke-width:0.264583"
         d="m 87.794078,203.62977 c 0.06375,0.0684 1.8634,-0.30052 1.8634,-0.30052 l 3.144735,-2.45749 -7.089709,-3.65004 z"
         id="path33"
         sodipodi:nodetypes="ccccc" />
      <path
         style="fill:#5f190e;fill-opacity:1;stroke:#5f190e;stroke-width:0.264583;stroke-opacity:1"
         d="m 120.81676,281.44583 4.52826,-8.07025 9.48762,-4.45761 16.62407,-1.51161 -0.45859,-14.99128 -10.3256,-0.54874 -17.48313,-3.2078 -16.52402,3.9547 -13.613633,-1.53121 -17.413433,-8.05553 -31.550949,9.11808 -14.470819,12.18595 13.750493,-12.91745 32.463394,-9.76065 17.649321,8.08944 12.879676,1.60404 16.62386,-4.00143 17.70955,3.25633 11.09504,0.93629 -0.20874,17.26924 -16.61635,1.68902 -9.02662,4.07953 -2.97981,6.88124 z"
         id="path85"
         sodipodi:nodetypes="cccccccccccccccccccccccc"
         transform="rotate(1.3549077,584.9922,-847.53026)" />
      <path
         style="fill:#5f190e;fill-opacity:1;stroke:#5f190e;stroke-width:0.264583;stroke-opacity:1"
         d="m 87.849369,237.65413 3.988563,-9.3362 -10.719557,-6.79823 -11.923386,-2.35601 -0.01505,-6.66426 11.032836,-4.65594 10.720215,-2.06408 10.081843,-8.9336 7.00303,-9.84814 -6.40925,10.61402 -10.151431,9.12644 -10.723336,1.91673 -11.45427,4.66543 0.414394,5.059 11.99018,2.28897 10.886813,6.78716 -2.637374,9.74797 z"
         id="path86"
         sodipodi:nodetypes="cccccccccccccccccc" />
      <path
         style="fill:#5f190e;fill-opacity:1;stroke:#5f190e;stroke-width:0.264583;stroke-opacity:1"
         d="m 99.088973,257.04609 -0.74138,-5.64644 1.064108,5.5265 z"
         id="path87"
         sodipodi:nodetypes="cccc" />
      <path
         style="fill:#5f190e;fill-opacity:1;stroke:#5f190e;stroke-width:0.264583;stroke-opacity:1"
         d="m 110.4061,259.92142 -2.6215,6.75974 3.87168,-6.84164 z"
         id="path88"
         sodipodi:nodetypes="cccc" />
      <path
         style="fill:#5f190e;fill-opacity:1;stroke:#5f190e;stroke-width:0.264583;stroke-opacity:1"
         d="m 122.88702,250.41345 -1.41662,-2.09123 1.38993,1.35366 z"
         id="path89"
         sodipodi:nodetypes="cccc" />
      <path
         style="fill:#5f190e;fill-opacity:1;stroke:#5f190e;stroke-width:0.264583;stroke-opacity:1"
         d="m 124.96697,240.32479 6.87074,-2.89931 -7.89254,2.80384 z"
         id="path90"
         sodipodi:nodetypes="cccc" />
      <path
         style="fill:#5f190e;fill-opacity:1;stroke:#5f190e;stroke-width:0.264583;stroke-opacity:1"
         d="m 115.50123,244.68516 -1.07922,7.76148 3.07846,-7.72723 z"
         id="path91"
         sodipodi:nodetypes="cccc" />
      <path
         style="fill:#5f190e;fill-opacity:1;stroke:#5f190e;stroke-width:0.264583;stroke-opacity:1"
         d="m 95.683787,235.85902 1.359888,-9.04633 -3.399787,9.4658 z"
         id="path92"
         sodipodi:nodetypes="cccc" />
      <path
         style="fill:#5f190e;fill-opacity:1;stroke:#5f190e;stroke-width:0.264583;stroke-opacity:1"
         d="m 66.880125,236.80727 7.327766,-8.51717 -8.877275,7.73281 z"
         id="path93"
         sodipodi:nodetypes="cccc" />
      <path
         style="fill:#5f190e;fill-opacity:1;stroke:#5f190e;stroke-width:0.264583;stroke-opacity:1"
         d="m 82.93334,244.98207 0.38999,9.08767 1.882327,-9.56794 z"
         id="path94"
         sodipodi:nodetypes="cccc" />
      <path
         style="fill:#5f190e;fill-opacity:1;stroke:#5f190e;stroke-width:0.264583;stroke-opacity:1"
         d="m 51.919207,235.78232 -0.1934,6.03158 2.134881,-4.99987 z"
         id="path95"
         sodipodi:nodetypes="cccc" />
      <path
         style="fill:#5f190e;fill-opacity:1;stroke:#5f190e;stroke-width:0.264583;stroke-opacity:1"
         d="m 16.854018,238.15808 -2.985547,-5.51777 1.802941,6.56557 z"
         id="path96"
         sodipodi:nodetypes="cccc" />
      <path
         style="fill:#5f190e;fill-opacity:1;stroke:#5f190e;stroke-width:0.264583;stroke-opacity:1"
         d="m 92.146494,226.58884 5.33465,-4.78403 -6.475722,4.08577 z"
         id="path97"
         sodipodi:nodetypes="cccc" />
      <path
         style="fill:#5f190e;fill-opacity:1;stroke:#5f190e;stroke-width:0.264583;stroke-opacity:1"
         d="m 67.010519,219.45295 -2.594066,6.98725 2.794255,-8.97855 z"
         id="path98"
         sodipodi:nodetypes="cccc" />
      <path
         style="fill:#5f190e;fill-opacity:1;stroke:#5f190e;stroke-width:0.264583;stroke-opacity:1"
         d="m 82.478003,208.87484 0.993086,6.07651 0.492699,-6.34086 z"
         id="path99"
         sodipodi:nodetypes="cccc" />
      <path
         style="fill:#5f190e;fill-opacity:1;stroke:#5f190e;stroke-width:0.264583;stroke-opacity:1"
         d="m 91.143461,201.84936 -5.184122,-4.30799 6.363963,3.3823 z"
         id="path100"
         sodipodi:nodetypes="cccc" />
      <path
         style="fill:#84392a;fill-opacity:1;stroke:#84392a;stroke-width:0.264583;stroke-opacity:1"
         d="m 123.04849,269.66362 1.35086,-6.90867 -0.49969,6.03215 -0.57467,0.21026 z"
         id="path134"
         transform="rotate(1.3549077,584.9922,-847.53026)"
         sodipodi:nodetypes="ccccc" />
      <path
         style="fill:#84392a;fill-opacity:1;stroke:#84392a;stroke-width:0.264583;stroke-opacity:1"
         d="m 107.03608,260.71231 0.85973,5.64236 0.1315,-6.03206 z"
         id="path135"
         sodipodi:nodetypes="cccc" />
      <path
         style="fill:#84392a;fill-opacity:1;stroke:#84392a;stroke-width:0.264583;stroke-opacity:1"
         d="m 121.8292,253.35473 -0.16242,-4.72813 1.0716,4.69111 z"
         id="path136"
         sodipodi:nodetypes="cccc" />
      <path
         style="fill:#84392a;fill-opacity:1;stroke:#84392a;stroke-width:0.264583;stroke-opacity:1"
         d="m 126.45627,243.45135 5.06593,-5.89124 -5.05818,4.31386 z"
         id="path137"
         sodipodi:nodetypes="cccc" />
      <path
         style="fill:#84392a;fill-opacity:1;stroke:#84392a;stroke-width:0.264583;stroke-opacity:1"
         d="m 92.677112,229.08097 4.574485,-7.0456 -4.20129,5.73941 z"
         id="path138"
         sodipodi:nodetypes="cccc" />
      <path
         style="fill:#84392a;fill-opacity:1;stroke:#84392a;stroke-width:0.264583;stroke-opacity:1"
         d="m 64.328729,226.50706 c 0.06092,-0.0709 4.446844,-4.91502 4.446844,-4.91502 l -1.176439,-0.24416 z"
         id="path139"
         sodipodi:nodetypes="cccc" />
      <path
         style="fill:#84392a;fill-opacity:1;stroke:#84392a;stroke-width:0.264583;stroke-opacity:1"
         d="m 79.206322,209.79382 4.203928,4.88103 -3.06593,-5.31892 z"
         id="path140"
         sodipodi:nodetypes="cccc" />
      <path
         style="fill:#84392a;fill-opacity:1;stroke:#84392a;stroke-width:0.264583;stroke-opacity:1"
         d="m 86.16373,197.72776 1.821712,5.61892 1.259437,-0.20834 z"
         id="path141"
         sodipodi:nodetypes="cccc" />
      <path
         style="fill:#84392a;fill-opacity:1;stroke:#84392a;stroke-width:0.264583;stroke-opacity:1"
         d="m 92.025672,270.20433 6.145725,-10.86155 9.430253,-4.11183 16.41556,-0.55095 -0.18692,-10.86724 -9.00081,-0.4072 -15.584873,-3.36131 -17.549431,3.54828 -16.571968,-2.70134 -13.898839,-7.07323 -32.376814,7.04825 -14.5641172,9.38338 14.9104962,-8.6176 31.810867,-6.92202 13.729787,7.15705 17.18157,2.79926 17.308827,-3.6397 15.656675,3.1069 8.25504,0.36329 0.46612,9.32346 -15.94235,0.49366 -10.201302,3.89335 -6.57539,11.97292 z"
         id="path142"
         sodipodi:nodetypes="cccccccccccccccccccccccc" />
      <path
         style="fill:#84392a;fill-opacity:1;stroke:#84392a;stroke-width:0.264583;stroke-opacity:1"
         d="m 84.299994,238.38397 4.997634,-8.95431 -8.53883,-6.21926 -12.980928,-2.9343 0.943622,-9.6854 11.316482,-4.59932 10.005905,-1.78203 10.281291,-8.27246 7.08926,-8.09606 -7.39468,7.81674 -10.273194,7.95192 -10.107415,1.80268 -11.336097,4.64811 -0.902427,10.70644 12.856617,3.05839 8.392837,6.23014 -5.690731,8.62418 z"
         id="path143"
         sodipodi:nodetypes="cccccccccccccccccc" />
      <path
         style="fill:#84392a;fill-opacity:1;stroke:#84392a;stroke-width:0.264583;stroke-opacity:1"
         d="m 113.37094,244.36057 1.08466,7.71039 -2.43554,-8.02664 z"
         id="path144"
         sodipodi:nodetypes="cccc" />
      <path
         style="fill:#84392a;fill-opacity:1;stroke:#84392a;stroke-width:0.264583;stroke-opacity:1"
         d="m 100.54066,236.23649 -3.538305,-9.07219 1.727639,8.70416 z"
         id="path145"
         sodipodi:nodetypes="cccc" />
      <path
         style="fill:#84392a;fill-opacity:1;stroke:#84392a;stroke-width:0.264583;stroke-opacity:1"
         d="m 80.138639,244.91681 3.162611,8.89963 -4.851616,-9.19744 z"
         id="path146"
         sodipodi:nodetypes="cccc" />
      <path
         style="fill:#84392a;fill-opacity:1;stroke:#84392a;stroke-width:0.264583;stroke-opacity:1"
         d="m 70.688596,237.725 3.334075,-9.19685 -4.629036,9.03406 z"
         id="path147"
         sodipodi:nodetypes="cccc" />
      <path
         style="fill:#84392a;fill-opacity:1;stroke:#84392a;stroke-width:0.264583;stroke-opacity:1"
         d="m 47.853969,235.97746 3.83996,5.5512 -2.397087,-5.8917 z"
         id="path148"
         sodipodi:nodetypes="cccc" />
      <path
         style="fill:#84392a;fill-opacity:1;stroke:#84392a;stroke-width:0.264583;stroke-opacity:1"
         d="m 19.45624,237.22386 -5.400609,-4.26571 4.354639,4.51501 z"
         id="path149"
         sodipodi:nodetypes="cccc" />
    </g>
    <g
       id="g10"
       inkscape:label="Arm1"
       style="display:inline"
       transform="rotate(-1.3549077,584.99181,-847.53053)">
      <path
         style="display:inline;fill:#8f4333;fill-opacity:1;stroke:#000000;stroke-width:0.264583"
         d="m 96.282619,244.52945 -3.122109,1.38296 -3.763505,-1.52668 6.439267,9.60951 z"
         id="path35"
         sodipodi:nodetypes="ccccc" />
      <path
         style="display:inline;fill:#a65746;stroke:#a65746;stroke-width:0.264583"
         d="m 96.000898,244.94841 -0.391307,8.23204 -1.095726,-7.58606 z"
         id="path122"
         sodipodi:nodetypes="cccc" />
      <path
         style="display:inline;fill:#782f1f;stroke:#782f1f;stroke-width:0.264583"
         d="m 117.48423,256.88613 4.46489,7.90805 -5.9002,-8.47413 z"
         id="path79"
         sodipodi:nodetypes="cccc"
         transform="rotate(1.3549077,584.99259,-847.52999)" />
      <path
         style="display:inline;fill:#8f4333;fill-opacity:1;stroke:#000000;stroke-width:0.264583;stroke-opacity:1"
         d="m 88.085672,270.19829 -0.54354,-2.62417 -0.35086,-4.37877 3.039084,-5.84265 3.355146,-2.93728 11.287588,-2.14632 3.04667,-1.61096 3.93351,-3.74446 12.40207,-14.48623 5.33825,-2.91029 5.27008,0.5643 12.83801,7.33825 4.31962,1.04498 3.42651,-4.33052 2.14893,-1.85905 6.87017,1.22944 14.65982,7.47003 7.28725,0.52705 12.96807,-7.11993 6.92018,2.76749 7.80458,7.11895 11.19935,3.89234 13.1852,-2.52587 -11.49056,-0.64797 -7.32448,-2.54426 -10.85809,-9.39264 -7.36171,-4.56141 -14.20382,6.48115 -7.87331,-0.0201 -12.86436,-6.97389 -8.13226,-1.50387 -6.48404,3.55998 -2.87767,1.80633 -5.4763,-2.77684 -7.44078,-3.46832 -6.23139,-2.46518 -6.01424,2.12887 -6.19876,4.6794 -7.36001,8.07495 -6.52585,6.67023 -5.369002,1.67693 -6.296227,1.23616 -6.907842,4.05871 -2.920557,6.93217 -2.093544,4.18294 0.924589,7.17197"
         id="path1"
         sodipodi:nodetypes="cccccccccccccccccccccccccccccccccccccccccccccc" />
      <path
         style="fill:#8f4333;fill-opacity:1;stroke:#000000;stroke-width:0.264583"
         d="m 87.533611,267.58525 9.372124,-2.05881 -9.718423,-2.32751 z"
         id="path2"
         sodipodi:nodetypes="cccc" />
      <path
         style="fill:#8f4333;fill-opacity:1;stroke:#000000;stroke-width:0.264583"
         d="m 86.04134,251.12831 c 0.07326,-0.0912 3.944229,-2.27545 3.944229,-2.27545 l -7.47691,-7.24581 z"
         id="path3"
         sodipodi:nodetypes="cccc" />
      <path
         style="fill:#8f4333;fill-opacity:1;stroke:#000000;stroke-width:0.264583"
         d="m 104.83393,252.23039 3.15133,-1.58922 2.30551,-2.21315 2.51663,9.45539 z"
         id="path4"
         sodipodi:nodetypes="ccccc" />
      <path
         style="fill:#8f4333;fill-opacity:1;stroke:#000000;stroke-width:0.264583"
         d="m 127.14108,224.06592 2.79094,-0.98223 2.40259,0.98272 0.42658,-9.11762 z"
         id="path5"
         sodipodi:nodetypes="ccccc" />
      <path
         style="fill:#8f4333;fill-opacity:1;stroke:#000000;stroke-width:0.264583"
         d="m 149.00667,237.76394 3.06108,0.69599 2.29111,-2.89663 0.91565,10.12768 z"
         id="path6"
         sodipodi:nodetypes="ccccc" />
      <path
         style="display:inline;fill:#8f4333;fill-opacity:1;stroke:#000000;stroke-width:0.264583"
         d="m 68.753735,235.19188 1.680176,-0.34549 2.640708,-2.11389 1.009719,8.92802 z"
         id="path38"
         sodipodi:nodetypes="ccccc" />
      <path
         style="display:inline;fill:#a65746;stroke:#a65746;stroke-width:0.264583"
         d="m 69.244449,235.37186 4.566251,5.54244 -3.437823,-5.77761 z"
         id="path125"
         sodipodi:nodetypes="cccc" />
      <path
         style="display:inline;fill:#782f1f;stroke:#782f1f;stroke-width:0.264583"
         d="m 97.76639,245.7111 2.035909,7.34762 -1.235029,-8.04643 z"
         id="path82"
         sodipodi:nodetypes="cccc"
         transform="rotate(1.3549077,584.99259,-847.52999)" />
      <path
         style="fill:#8f4333;fill-opacity:1;stroke:#000000;stroke-width:0.264583"
         d="m 155.94091,227.76687 2.38106,-1.28679 3.40914,0.54502 -3.98027,-10.06988 z"
         id="path7"
         sodipodi:nodetypes="ccccc" />
      <path
         style="fill:#8f4333;fill-opacity:1;stroke:#000000;stroke-width:0.264583"
         d="m 179.12736,240.9502 7.32304,0.52962 -4.79824,11.32504 z"
         id="path8"
         sodipodi:nodetypes="cccc" />
      <path
         style="fill:#8f4333;fill-opacity:1;stroke:#000000;stroke-width:0.264583"
         d="m 198.9848,229.55538 2.51692,-1.0841 2.85263,1.73039 -1.62175,-8.69896 z"
         id="path9"
         sodipodi:nodetypes="ccccc" />
      <path
         style="fill:#8f4333;fill-opacity:1;stroke:#000000;stroke-width:0.264583"
         d="m 214.03603,244.27093 6.425,2.17241 -6.98438,8.08309 z"
         id="path10"
         sodipodi:nodetypes="cccc" />
      <path
         style="fill:#8f4333;fill-opacity:1;stroke:#000000;stroke-width:0.264583"
         d="m 110.0093,238.34453 -16.823233,7.57615 -11.789425,-5.07794 -18.233594,3.5082 -4.560818,-2.20353 3.567244,-9.98814 6.101923,-0.92141 8.260368,-5.46922 6.352505,-9.46094 5.260796,-4.32459 13.015134,-0.60575 12.36927,3.95049 9.30014,10.69836 -9.94792,-7.91701 -10.59311,-2.76915 -12.542219,0.25025 -5.142077,4.67943 -3.95651,6.62121 -10.275027,7.93027 -7.166833,1.77056 -0.931729,2.28757 4.514456,-0.42824 13.053303,-2.39631 11.882714,4.49011 25.627722,-10.46341"
         id="path34"
         sodipodi:nodetypes="ccccccccccccccccccccccccc" />
      <path
         style="fill:#8f4333;fill-opacity:1;stroke:#000000;stroke-width:0.264583"
         d="m 82.346,237.09673 -2.483809,-1.03024 -3.144073,0.53295 3.308669,-9.32423 z"
         id="path36"
         sodipodi:nodetypes="ccccc" />
      <path
         style="fill:#8f4333;fill-opacity:1;stroke:#000000;stroke-width:0.264583"
         d="m 63.226508,244.42121 -4.661206,-2.31172 -0.876388,8.12638 z"
         id="path37"
         sodipodi:nodetypes="cccc" />
      <path
         style="fill:#8f4333;fill-opacity:1;stroke:#000000;stroke-width:0.264583"
         d="m 81.632787,218.33068 1.158659,-2.06159 2.706473,-2.12603 -11.224644,-2.38283 z"
         id="path39"
         sodipodi:nodetypes="ccccc" />
      <path
         style="fill:#8f4333;fill-opacity:1;stroke:#000000;stroke-width:0.264583"
         d="m 100.34001,215.40291 2.08123,-0.0336 3.47321,0.89564 -2.53307,7.70026 z"
         id="path40"
         sodipodi:nodetypes="ccccc" />
      <path
         style="fill:#782f1f;fill-opacity:1;stroke:#782f1f;stroke-width:0.264583;stroke-opacity:1"
         d="m 112.20161,281.69205 -1.69221,-0.051 -0.61879,-3.47102 -0.23178,-1.39885 -0.20856,-1.61822 1.73227,-3.64832 2.38268,-3.78562 3.43275,-3.00163 9.06166,-1.71769 2.47564,-0.65172 3.23436,-1.62301 3.31828,-3.2417 4.58102,-5.57102 4.17284,-4.97052 3.43197,-3.89668 5.86542,-3.15697 1.60722,-0.21535 4.01484,0.42303 8.47189,4.35977 5.59571,3.32273 2.52328,0.41462 2.88427,-2.74256 2.74279,-2.62016 1.18554,-0.34533 6.41769,1.12737 14.94912,7.41469 6.60687,0.34522 12.55118,-6.65251 1.80036,-0.13505 6.62825,2.80057 8.21702,7.42512 10.46342,3.87379 11.93698,-1.42093 -12.04808,2.28074 -11.11183,-3.8835 -7.78537,-7.08579 -7.08183,-2.84142 -12.94726,7.13357 -7.28714,-0.52604 -14.58819,-7.44862 -7.02056,-1.25629 -2.26891,1.94736 -3.30878,4.22305 -4.13571,-0.98864 -12.8938,-7.35922 -5.36349,-0.56789 -5.44419,2.96077 -12.43309,14.4994 -3.89343,3.7438 -3.06676,1.55263 -11.22819,2.15293 -3.44792,3.02048 -3.09494,5.9091 0.36338,4.3373 z"
         id="path51"
         sodipodi:nodetypes="ccccccccccccccccccccccccccccccccccccccccccccccccccccccc"
         transform="translate(-24.341667,-11.641667)" />
      <path
         style="fill:#782f1f;fill-opacity:1;stroke:#782f1f;stroke-width:0.264583;stroke-opacity:1"
         d="m 138.87381,244.72154 -22.36915,9.14614 -13.04815,-4.6234 -17.758156,2.89449 1.669851,-5.29652 6.99774,-1.75077 9.762365,-7.3366 3.99244,-6.74768 5.3833,-4.86078 13.04011,-0.43947 10.50458,2.94673 9.06789,7.94016 -8.76693,-7.07386 -10.67077,-2.78611 -12.68863,0.22556 -5.25024,4.7905 -3.97938,6.644 -10.165025,7.82805 -7.254815,1.79743 -0.946573,2.79443 4.790132,-0.46317 12.998241,-2.3817 11.88891,4.51183 25.18319,-10.33723 z"
         id="path53"
         sodipodi:nodetypes="ccccccccccccccccccccccccc"
         transform="translate(-24.341667,-11.641667)" />
      <path
         style="fill:#782f1f;stroke:#782f1f;stroke-width:0.264583"
         d="m 113.97752,275.97505 8.81678,0.79162 -8.90757,-1.76716 z"
         id="path70"
         sodipodi:nodetypes="cccc"
         transform="rotate(1.3549077,584.9922,-847.53026)" />
      <path
         style="fill:#782f1f;stroke:#782f1f;stroke-width:0.264583"
         d="m 114.69842,260.75915 -5.93923,-7.04919 6.85538,6.4967 z"
         id="path71"
         sodipodi:nodetypes="cccc"
         transform="rotate(1.3549077,584.9922,-847.53026)" />
      <path
         style="fill:#782f1f;stroke:#782f1f;stroke-width:0.264583"
         d="m 135.36459,260.69608 3.44447,7.6801 -2.60517,-8.54081 z"
         id="path72"
         sodipodi:nodetypes="cccc"
         transform="rotate(1.3549077,584.9922,-847.53026)" />
      <path
         style="fill:#782f1f;stroke:#782f1f;stroke-width:0.264583"
         d="m 156.44035,233.68433 1.4055,-7.80122 -0.2949,8.22282 z"
         id="path73"
         sodipodi:nodetypes="cccc"
         transform="rotate(1.3549077,584.9922,-847.53026)" />
      <path
         style="fill:#782f1f;stroke:#782f1f;stroke-width:0.264583"
         d="m 179.04321,247.23748 2.01706,7.87201 -1.16482,-8.99582 z"
         id="path74"
         sodipodi:nodetypes="cccc"
         transform="rotate(1.3549077,584.9922,-847.53026)" />
      <path
         style="fill:#782f1f;stroke:#782f1f;stroke-width:0.264583"
         d="m 185.28918,236.19765 -2.17852,-8.86233 3.7158,9.08491 z"
         id="path75"
         sodipodi:nodetypes="cccc"
         transform="rotate(1.3549077,584.9922,-847.53026)" />
      <path
         style="fill:#782f1f;stroke:#782f1f;stroke-width:0.264583"
         d="m 209.6717,250.73975 -1.87124,10.79708 4.1236,-10.68934 z"
         id="path76"
         sodipodi:nodetypes="cccc"
         transform="rotate(1.3549077,584.9922,-847.53026)" />
      <path
         style="fill:#782f1f;stroke:#782f1f;stroke-width:0.264583"
         d="m 228.46743,237.75413 -0.39769,-7.00283 1.50071,7.65051 z"
         id="path77"
         sodipodi:nodetypes="cccc"
         transform="rotate(1.3549077,584.9922,-847.53026)" />
      <path
         style="fill:#782f1f;stroke:#782f1f;stroke-width:0.264583"
         d="m 243.97746,254.27048 -4.20041,8.31303 6.21032,-7.69578 z"
         id="path78"
         sodipodi:nodetypes="cccc"
         transform="rotate(1.3549077,584.9922,-847.53026)" />
      <path
         style="fill:#782f1f;stroke:#782f1f;stroke-width:0.264583"
         d="m 104.03879,247.74555 1.51875,-8.30426 -2.68602,8.556 z"
         id="path80"
         sodipodi:nodetypes="cccc"
         transform="rotate(1.3549077,584.9922,-847.53026)" />
      <path
         style="fill:#782f1f;stroke:#782f1f;stroke-width:0.264583"
         d="m 85.912951,255.21651 -1.895436,6.82384 0.691889,-7.41384 z"
         id="path81"
         sodipodi:nodetypes="cccc"
         transform="rotate(1.3549077,584.9922,-847.53026)" />
      <path
         style="fill:#782f1f;stroke:#782f1f;stroke-width:0.264583"
         d="m 109.22728,226.57119 -9.321451,-2.7865 10.260611,2.03551 z"
         id="path83"
         sodipodi:nodetypes="cccc"
         transform="rotate(1.3549077,584.9922,-847.53026)" />
      <path
         style="fill:#782f1f;stroke:#782f1f;stroke-width:0.264583"
         d="m 129.58306,227.18591 -0.77581,7.46643 2.03886,-7.17383 z"
         id="path84"
         sodipodi:nodetypes="cccc"
         transform="rotate(1.3549077,584.9922,-847.53026)" />
      <path
         style="display:inline;fill:#a65746;fill-opacity:1;stroke:#a65746;stroke-width:0.264583;stroke-opacity:1"
         d="m 83.17719,269.88372 -1.141973,-6.22451 2.316152,-3.93981 2.745864,-6.55625 6.550097,-3.77583 11.03361,-2.40626 7.9646,-8.02235 6.38379,-7.47664 5.94158,-4.77803 5.45382,-1.95093 7.01886,2.8511 11.00264,5.47682 1.04937,0.31684 9.73637,-5.54284 7.06923,1.80909 12.47842,6.71518 8.74371,-0.0564 14.12784,-6.46625 8.22999,5.45945 9.13314,7.98835 7.69724,2.53421 9.45305,-0.0692 -9.20713,-0.51862 -7.41667,-2.57188 -10.88882,-9.418 -7.21169,-4.47166 -14.14662,6.44529 -7.99055,-0.024 -12.87361,-6.97893 -8.01581,-1.46926 -6.37346,3.48965 -3.00561,1.88701 -5.55833,-2.81577 -7.49414,-3.49696 -6.11584,-2.41947 -5.88633,2.07877 -6.13527,4.64235 -7.42348,8.14038 -6.52363,6.66837 -5.409891,1.68309 -6.287365,1.22627 -6.78372,3.98812 -2.898967,6.86402 -2.118899,4.23749 1.021348,6.89726 z"
         id="path101"
         sodipodi:nodetypes="cccccccccccccccccccccccccccccccccccccccccccccc" />
      <path
         style="fill:#a65746;fill-opacity:1;stroke:#a65746;stroke-width:0.264583;stroke-opacity:1"
         d="m 108.47989,237.68765 -15.242477,6.50235 -11.388602,-4.44713 -18.433577,3.42014 -3.739103,-2.26678 2.687956,-7.41556 6.192708,-1.18607 8.67866,-5.64949 6.133101,-9.3923 5.218796,-4.34394 12.753238,-0.50726 11.72875,3.6332 7.74197,8.06869 -7.42671,-8.54328 -12.25361,-3.91288 -12.884208,0.59499 -5.164071,4.24328 -6.344658,9.46832 -8.366499,5.53868 -6.020958,0.92189 -3.448443,9.54433 4.295013,2.11397 18.232109,-3.50412 11.738594,5.05006 16.986631,-7.62982 1.56859,-1.8067 z"
         id="path102"
         sodipodi:nodetypes="ccccccccccccccccccccccccccc" />
      <path
         style="fill:#a65746;stroke:#a65746;stroke-width:0.264583"
         d="m 114.27364,278.70529 8.06276,-1.97581 -8.16356,1.06339 z"
         id="path114"
         sodipodi:nodetypes="cccc"
         transform="rotate(1.3549077,584.9922,-847.53026)" />
      <path
         style="fill:#a65746;stroke:#a65746;stroke-width:0.264583"
         d="m 86.183794,250.7368 -3.066136,-8.25752 3.93907,7.73944 z"
         id="path115"
         sodipodi:nodetypes="cccc" />
      <path
         style="fill:#a65746;stroke:#a65746;stroke-width:0.264583"
         d="m 131.47169,263.29119 7.21387,4.87057 -5.76919,-5.62066 z"
         id="path116"
         transform="rotate(1.3549077,584.9922,-847.53026)"
         sodipodi:nodetypes="cccc" />
      <path
         style="fill:#a65746;stroke:#a65746;stroke-width:0.264583"
         d="m 175.45795,248.16435 5.49937,6.63763 -4.01364,-6.33373 z"
         id="path117"
         sodipodi:nodetypes="cccc"
         transform="rotate(1.3549077,584.9922,-847.53026)" />
      <path
         style="fill:#a65746;stroke:#a65746;stroke-width:0.264583"
         d="m 183.1873,227.64989 -0.16249,8.77962 -1.2121,0.71231 z"
         id="path118"
         sodipodi:nodetypes="cccc"
         transform="rotate(1.3549077,584.9922,-847.53026)" />
      <path
         style="fill:#a65746;stroke:#a65746;stroke-width:0.264583"
         d="m 205.30308,250.51559 2.5455,10.67142 -0.87786,-10.5781 z"
         id="path119"
         transform="rotate(1.3549077,584.9922,-847.53026)"
         sodipodi:nodetypes="cccc" />
      <path
         style="fill:#a65746;stroke:#a65746;stroke-width:0.264583"
         d="m 199.49478,229.06915 3.17086,-6.79461 -2.02746,6.27592 z"
         id="path120"
         sodipodi:nodetypes="cccc" />
      <path
         style="fill:#a65746;stroke:#a65746;stroke-width:0.264583"
         d="m 240.21161,253.08245 -0.28358,9.18721 1.78989,-8.7043 z"
         id="path121"
         sodipodi:nodetypes="cccc"
         transform="rotate(1.3549077,584.9922,-847.53026)" />
      <path
         style="fill:#a65746;stroke:#a65746;stroke-width:0.264583"
         d="m 107.73105,248.22246 -2.21979,-8.49932 0.92577,8.02844 z"
         id="path123"
         sodipodi:nodetypes="cccc"
         transform="rotate(1.3549077,584.9922,-847.53026)" />
      <path
         style="fill:#a65746;stroke:#a65746;stroke-width:0.264583"
         d="m 58.066364,249.44017 4.718811,-4.9424 -1.073063,-0.54308 z"
         id="path124"
         sodipodi:nodetypes="cccc" />
      <path
         style="fill:#a65746;stroke:#a65746;stroke-width:0.264583"
         d="m 81.552525,217.91511 -6.431651,-5.75604 7.104089,4.58367 z"
         id="path126"
         sodipodi:nodetypes="cccc" />
      <path
         style="fill:#a65746;stroke:#a65746;stroke-width:0.264583"
         d="m 100.70977,215.66254 2.65481,7.551 -1.29019,-7.58202 z"
         id="path127"
         sodipodi:nodetypes="cccc" />
    </g>
    <g
       id="g17"
       inkscape:label="Arm2"
       style="display:inline"
       transform="rotate(-1.3549077,584.99181,-847.53053)">
      <path
         style="fill:#8f4333;fill-opacity:1;stroke:#000000;stroke-width:0.264583"
         d="m -45.917213,184.43533 -2.825371,-0.80483 -1.282761,-2.58914 -0.893436,9.81183 z"
         id="path17"
         sodipodi:nodetypes="ccccc" />
      <path
         style="fill:#8f4333;fill-opacity:1;stroke:#000000;stroke-width:0.264583"
         d="m 81.126323,269.88709 -2.09157,-4.98108 -13.415877,-20.20272 -23.140779,-19.9327 -38.3468419,-10.46943 -18.3692981,-25.14891 -32.621766,-7.57366 -14.283502,-23.20899 12.394533,25.26909 31.715549,8.38549 18.1228825,25.28657 38.3846825,12.04798 20.292441,17.97638 12.992576,20.70643 0.566233,1.72524"
         id="path11"
         sodipodi:nodetypes="ccccccccccccccc" />
      <path
         style="fill:#8f4333;fill-opacity:1;stroke:#000000;stroke-width:0.264583"
         d="m 77.693318,262.85647 6.694439,-5.45795 -3.600931,11.77 -1.764444,-4.29319 z"
         id="path12"
         sodipodi:nodetypes="ccccc" />
      <path
         style="fill:#8f4333;fill-opacity:1;stroke:#000000;stroke-width:0.264583"
         d="m 61.236502,249.59886 -1.497905,-2.20871 -2.26425,-2.1016 0.132467,9.23871 z"
         id="path13"
         sodipodi:nodetypes="ccccc" />
      <path
         style="fill:#8f4333;fill-opacity:1;stroke:#000000;stroke-width:0.264583"
         d="m 45.164553,227.09716 -2.586222,-2.41753 -3.781187,-0.96814 9.967381,-8.88022 z"
         id="path14"
         sodipodi:nodetypes="ccccc" />
      <path
         style="fill:#8f4333;fill-opacity:1;stroke:#000000;stroke-width:0.264583"
         d="m 3.8151383,218.13742 -2.7654248,-0.87933 -2.0821809,-2.89249 0.45691431,11.00487 z"
         id="path15"
         sodipodi:nodetypes="ccccc" />
      <path
         style="fill:#8f4333;fill-opacity:1;stroke:#000000;stroke-width:0.264583"
         d="m -16.563935,188.63799 2.331833,0.48713 1.270286,1.78534 4.1413064,-9.26702 z"
         id="path16"
         sodipodi:nodetypes="ccccc" />
      <path
         style="display:inline;fill:#782f1f;fill-opacity:1;stroke:#782f1f;stroke-width:0.264583;stroke-opacity:1"
         d="M 104.8632,281.21474 103.5876,278.1095 90.561582,258.19848 66.639157,238.87062 28.698584,229.15852 9.4916936,204.01782 -22.8506,197.06633 l -12.919517,-21.29387 13.270721,20.69327 32.790524,6.7977 18.971026,24.69699 38.603389,9.5788 23.597429,19.3631 13.869438,19.8827 1.99803,4.56709 -2.35031,0.035 z"
         id="path54"
         sodipodi:nodetypes="ccccccccccccccccc"
         transform="rotate(1.3549077,584.9922,-847.53026)" />
      <path
         style="fill:#782f1f;stroke:#782f1f;stroke-width:0.264583"
         d="m 78.721975,263.9416 5.415317,-6.19589 -6.11703,5.18436 z"
         id="path55"
         sodipodi:nodetypes="cccc" />
      <path
         style="fill:#782f1f;stroke:#782f1f;stroke-width:0.264583"
         d="m 58.603115,246.68608 -0.837469,7.48153 -0.01945,-8.28859 z"
         id="path56"
         sodipodi:nodetypes="cccc" />
      <path
         style="fill:#782f1f;stroke:#782f1f;stroke-width:0.264583"
         d="m 41.369886,224.10693 7.094299,-8.83597 -9.147808,8.32677 z"
         id="path57"
         sodipodi:nodetypes="cccc" />
      <path
         style="fill:#782f1f;stroke:#782f1f;stroke-width:0.264583"
         d="m 0.12947537,216.4367 -0.54924907,8.47558 -0.3165941,-9.67821 z"
         id="path58"
         sodipodi:nodetypes="cccc" />
      <path
         style="fill:#782f1f;stroke:#782f1f;stroke-width:0.264583"
         d="m -15.130613,188.67094 5.9094723,-6.50287 -6.7850213,6.31304 z"
         id="path59"
         sodipodi:nodetypes="cccc" />
      <path
         style="fill:#782f1f;stroke:#782f1f;stroke-width:0.264583"
         d="m -49.292656,183.12926 -1.445649,7.25474 0.885927,-8.38077 z"
         id="path60"
         sodipodi:nodetypes="cccc" />
      <path
         style="fill:#a65746;fill-opacity:1;stroke:#a65746;stroke-width:0.264583;stroke-opacity:1"
         d="M 101.8761,281.41343 100.91342,278.97572 86.823978,258.44899 66.216124,240.80206 27.34447,230.04577 8.5618108,205.23683 l -31.9880068,-7.45884 -11.319683,-20.3163 10.74144,20.64152 31.872178,7.63634 18.687639,24.7946 38.66843,11.18465 20.720139,17.49886 13.497334,20.41244 0.668699,1.79219 z"
         id="path104"
         sodipodi:nodetypes="cccccccccccccccc"
         transform="rotate(1.3549077,584.9922,-847.53026)" />
      <path
         style="fill:#a65746;stroke:#a65746;stroke-width:0.264583"
         d="m 80.781693,268.29898 3.167801,-10.32803 -4.075092,8.28726 z"
         id="path128"
         sodipodi:nodetypes="cccc" />
      <path
         style="fill:#a65746;stroke:#a65746;stroke-width:0.264583"
         d="m 60.917197,249.59256 -3.080306,4.18911 2.354385,-5.249 z"
         id="path129"
         sodipodi:nodetypes="cccc" />
      <path
         style="fill:#a65746;stroke:#a65746;stroke-width:0.264583"
         d="m 45.033557,226.61756 3.257287,-11.12066 -4.487914,9.97315 z"
         id="path130"
         sodipodi:nodetypes="cccc" />
      <path
         style="display:inline;fill:#a65746;stroke:#a65746;stroke-width:0.264583"
         d="m 3.4137898,218.28655 -3.79070015,6.25614 2.57468695,-6.64732 z"
         id="path131"
         sodipodi:nodetypes="cccc" />
      <path
         style="fill:#a65746;stroke:#a65746;stroke-width:0.264583"
         d="m -13.025856,190.36876 3.5509921,-7.91016 -4.1002981,7.14893 z"
         id="path132"
         sodipodi:nodetypes="cccc" />
      <path
         style="fill:#a65746;stroke:#a65746;stroke-width:0.264583"
         d="m -46.364721,184.58411 -4.299926,5.52004 3.194387,-5.84308 z"
         id="path133"
         sodipodi:nodetypes="cccc" />
    </g>
    <g
       id="g50"
       inkscape:label="Arm4"
       style="display:inline"
       transform="rotate(-1.3549077,584.99181,-847.53053)">
      <path
         style="display:inline;fill:#8f4333;fill-opacity:1;stroke:#000000;stroke-width:0.264583"
         d="m 96.771353,270.27187 16.531347,-4.96409 2.27846,-9.97852 -17.279909,-9.24006 -14.434527,-0.50741 -6.332292,-2.80268 0.767674,-16.5219 12.401049,-0.75744 3.800539,-4.45002 5.646976,-11.86055 10.17963,-7.37528 13.42323,-2.03423 12.12056,-8.66867 7.63187,-15.30009 14.97625,-9.44043 -12.68867,12.00904 -6.90638,15.71687 -13.15172,10.29561 -13.95113,1.44148 -6.7659,6.08648 -7.203768,12.71295 -4.844009,4.99599 -12.74814,0.89719 -0.61654,7.76082 6.966507,2.8239 11.365758,-0.14606 21.143532,9.97724 0.47519,14.01012 -9.75484,5.31974"
         id="path41"
         sodipodi:nodetypes="ccccccccccccccccccccccccccccc" />
      <path
         style="fill:#8f4333;fill-opacity:1;stroke:#000000;stroke-width:0.264583"
         d="m 110.87744,266.01604 2.43223,-0.69326 0.73471,-3.47859 -6.62104,-0.27619 z"
         id="path42"
         sodipodi:nodetypes="ccccc" />
      <path
         style="fill:#8f4333;fill-opacity:1;stroke:#000000;stroke-width:0.264583"
         d="m 119.16237,253.40889 -0.0722,-2.48113 -2.65133,-1.2329 5.85005,-3.29347 z"
         id="path43"
         sodipodi:nodetypes="ccccc" />
      <path
         style="fill:#8f4333;fill-opacity:1;stroke:#000000;stroke-width:0.264583"
         d="m 100.06546,247.06905 -1.801083,-0.98239 -2.811272,-0.08 1.748952,5.01857 z"
         id="path44"
         sodipodi:nodetypes="ccccc" />
      <path
         style="fill:#8f4333;fill-opacity:1;stroke:#000000;stroke-width:0.264583"
         d="m 81.300877,238.95105 -1.824548,-0.74674 0.364481,-3.04658 3.32563,-1.07575 z"
         id="path45"
         sodipodi:nodetypes="ccccc" />
      <path
         style="fill:#8f4333;fill-opacity:1;stroke:#000000;stroke-width:0.264583"
         d="m 78.471238,228.38239 -0.162659,-2.14039 2.937415,-0.18682 -4.641725,-6.48842 z"
         id="path46"
         sodipodi:nodetypes="ccccc" />
      <path
         style="fill:#8f4333;fill-opacity:1;stroke:#000000;stroke-width:0.264583"
         d="m 91.060224,229.77925 1.892781,-0.14707 2.156954,-2.22574 1.928924,7.04916 z"
         id="path47"
         sodipodi:nodetypes="ccccc" />
      <path
         style="fill:#8f4333;fill-opacity:1;stroke:#000000;stroke-width:0.264583"
         d="m 99.093708,211.32948 1.084092,-2.17945 2.7323,-1.84779 -9.124742,-2.82578 z"
         id="path48"
         sodipodi:nodetypes="ccccc" />
      <path
         style="fill:#8f4333;fill-opacity:1;stroke:#000000;stroke-width:0.264583"
         d="m 123.31043,204.60307 2.42501,-0.21105 3.09305,-2.44463 0.84071,8.95022 z"
         id="path49"
         sodipodi:nodetypes="ccccc" />
      <path
         style="fill:#8f4333;fill-opacity:1;stroke:#000000;stroke-width:0.264583"
         d="m 133.89965,192.48165 1.96992,-1.40989 1.58189,-3.00594 -9.14532,-1.97032 z"
         id="path50"
         sodipodi:nodetypes="ccccc" />
      <path
         style="fill:#782f1f;fill-opacity:1;stroke:#782f1f;stroke-width:0.264583;stroke-opacity:1"
         d="m 131.60127,281.42985 10.40739,-4.97833 0.19416,-12.70557 -20.31343,-9.75771 -10.61138,-0.11977 -7.92369,-3.16294 0.69765,-9.50714 12.81969,-0.83443 4.48626,-5.08554 6.76637,-12.37228 7.50619,-6.58405 14.11864,-1.50206 12.21821,-9.95141 7.25832,-15.32171 12.50177,-10.70217 -11.80934,11.03212 -6.90537,15.69937 -13.0354,10.20865 -13.90652,1.42942 -6.9127,6.16705 -7.18729,12.68917 -4.77034,4.94573 -12.88461,0.91073 -0.74491,8.09661 7.29019,2.9903 11.35444,-0.14311 21.00957,9.90326 0.43234,13.71306 -9.61295,5.19081 -0.0207,0.0992 -3.06656,0.012 z"
         id="path52"
         sodipodi:nodetypes="cccccccccccccccccccccccccccccccc"
         transform="translate(-24.341667,-11.641667)" />
      <path
         style="fill:#782f1f;stroke:#782f1f;stroke-width:0.264583"
         d="m 139.83566,274.23079 -5.76256,-1.52809 6.02347,0.21673 z"
         id="path61"
         sodipodi:nodetypes="cccc"
         transform="rotate(1.3549077,584.9922,-847.53026)" />
      <path
         style="fill:#782f1f;stroke:#782f1f;stroke-width:0.264583"
         d="m 143.97038,260.81864 4.02988,-3.46453 -4.94006,3.08759 z"
         id="path62"
         sodipodi:nodetypes="cccc"
         transform="rotate(1.3549077,584.9922,-847.53026)" />
      <path
         style="fill:#782f1f;stroke:#782f1f;stroke-width:0.264583"
         d="m 123.3524,261.94889 -0.12433,-4.41382 -1.40389,-0.0116 z"
         id="path63"
         sodipodi:nodetypes="cccc"
         transform="rotate(1.3549077,584.9922,-847.53026)" />
      <path
         style="fill:#782f1f;stroke:#782f1f;stroke-width:0.264583"
         d="m 105.75167,247.80557 2.90957,-1.9295 -2.82565,1.10508 z"
         id="path64"
         sodipodi:nodetypes="cccc"
         transform="rotate(1.3549077,584.9922,-847.53026)" />
      <path
         style="fill:#782f1f;stroke:#782f1f;stroke-width:0.264583"
         d="m 104.98424,237.57865 -2.86197,-5.85622 4.16882,5.72083 z"
         id="path65"
         sodipodi:nodetypes="cccc"
         transform="rotate(1.3549077,584.9922,-847.53026)" />
      <path
         style="fill:#782f1f;stroke:#782f1f;stroke-width:0.264583"
         d="m 119.6364,240.18078 2.6674,4.8316 -1.75913,-5.80529 z"
         id="path66"
         sodipodi:nodetypes="cccc"
         transform="rotate(1.3549077,584.9922,-847.53026)" />
      <path
         style="fill:#782f1f;stroke:#782f1f;stroke-width:0.264583"
         d="m 126.32665,219.26126 -7.13958,-3.18622 8.22058,2.4404 z"
         id="path67"
         sodipodi:nodetypes="cccc"
         transform="rotate(1.3549077,584.9922,-847.53026)" />
      <path
         style="fill:#782f1f;stroke:#782f1f;stroke-width:0.264583"
         d="m 152.34299,213.97469 2.28429,7.03943 -1.08166,-8.07135 z"
         id="path68"
         sodipodi:nodetypes="cccc"
         transform="rotate(1.3549077,584.9922,-847.53026)" />
      <path
         style="fill:#782f1f;stroke:#782f1f;stroke-width:0.264583"
         d="m 161.06289,199.80491 -7.81126,-2.96293 8.41713,1.70957 z"
         id="path69"
         sodipodi:nodetypes="cccc"
         transform="rotate(1.3549077,584.9922,-847.53026)" />
      <path
         style="fill:#a65746;fill-opacity:1;stroke:#a65746;stroke-width:0.264583;stroke-opacity:1"
         d="m 127.61539,281.27038 13.2509,-5.02421 2.00387,-11.23744 -18.14538,-9.09626 -14.41247,-0.17315 -6.1472,-2.5566 0.39787,-14.25905 12.2042,-0.90258 4.13621,-4.67831 5.84426,-12.08314 9.10606,-7.57662 13.4238,-2.1219 12.12748,-9.20352 7.22543,-15.51656 12.11954,-9.13774 -12.71425,8.43039 -7.26435,15.47817 -12.02015,9.03319 -13.40948,2.36197 -9.84845,7.52066 -5.37711,12.0091 -3.79928,4.60508 -12.18205,1.03159 -0.49525,16.08926 6.26596,2.60344 14.45488,0.16565 17.7268,8.95994 -2.08254,10.29743 -15.58438,5.05179 z"
         id="path103"
         transform="rotate(1.3549077,584.9922,-847.53026)"
         sodipodi:nodetypes="cccccccccccccccccccccccccccccc" />
      <path
         style="fill:#a65746;fill-opacity:1;stroke:#a65746;stroke-width:0.264583;stroke-opacity:1"
         d="m 139.07464,276.09468 -4.73632,-3.30079 3.10679,3.82015 z"
         id="path105"
         transform="rotate(1.3549077,584.9922,-847.53026)"
         sodipodi:nodetypes="cccc" />
      <path
         style="fill:#a65746;fill-opacity:1;stroke:#a65746;stroke-width:0.264583;stroke-opacity:1"
         d="m 145.55574,263.02111 2.24417,-5.47308 -2.35595,3.99082 z"
         id="path106"
         sodipodi:nodetypes="cccc"
         transform="rotate(1.3549077,584.9922,-847.53026)" />
      <path
         style="fill:#a65746;fill-opacity:1;stroke:#a65746;stroke-width:0.264583;stroke-opacity:1"
         d="m 123.39118,261.68685 2.30658,-3.35746 -0.67711,-0.37101 z"
         id="path107"
         sodipodi:nodetypes="cccc"
         transform="rotate(1.3549077,584.9922,-847.53026)" />
      <path
         style="fill:#a65746;fill-opacity:1;stroke:#a65746;stroke-width:0.264583;stroke-opacity:1"
         d="m 106.98368,250.23487 1.47525,-4.15827 -2.43811,3.78877 z"
         id="path108"
         sodipodi:nodetypes="cccc"
         transform="rotate(1.3549077,584.9922,-847.53026)" />
      <path
         style="fill:#a65746;fill-opacity:1;stroke:#a65746;stroke-width:0.264583;stroke-opacity:1"
         d="m 103.76172,237.66302 -1.48839,-5.6134 1.673,5.59465 z"
         id="path109"
         sodipodi:nodetypes="cccc"
         transform="rotate(1.3549077,584.9922,-847.53026)" />
      <path
         style="fill:#a65746;fill-opacity:1;stroke:#a65746;stroke-width:0.264583;stroke-opacity:1"
         d="m 117.3517,241.35737 5.03952,3.72673 -4.26582,-3.80968 z"
         id="path110"
         sodipodi:nodetypes="cccc"
         transform="rotate(1.3549077,584.9922,-847.53026)" />
      <path
         style="fill:#a65746;fill-opacity:1;stroke:#a65746;stroke-width:0.264583;stroke-opacity:1"
         d="m 124.20714,222.03164 -4.71227,-5.80366 5.186,4.77449 z"
         id="path111"
         sodipodi:nodetypes="cccc"
         transform="rotate(1.3549077,584.9922,-847.53026)" />
      <path
         style="fill:#a65746;fill-opacity:1;stroke:#a65746;stroke-width:0.264583;stroke-opacity:1"
         d="m 158.65621,202.50147 -5.07573,-5.51901 5.97596,4.83905 z"
         id="path113"
         sodipodi:nodetypes="cccc"
         transform="rotate(1.3549077,584.9922,-847.53026)" />
      <path
         style="display:inline;fill:#a65746;fill-opacity:1;stroke:#a65746;stroke-width:0.264583;stroke-opacity:1"
         d="m 148.91341,215.41887 5.59411,5.28939 -4.25667,-5.42868 z"
         id="path112"
         sodipodi:nodetypes="cccc"
         transform="rotate(1.3549077,584.9922,-847.53026)" />
    </g>
  </g>
</svg>
