<?xml version="1.0" encoding="UTF-8" standalone="no"?>
<!-- Created with Inkscape (http://www.inkscape.org/) -->

<svg
   width="210mm"
   height="297mm"
   viewBox="0 0 210 297"
   version="1.1"
   id="svg1"
   inkscape:version="1.3.2 (091e20e, 2023-11-25, custom)"
   sodipodi:docname="AnimatedThornbushRightAttack2.svg"
   xmlns:inkscape="http://www.inkscape.org/namespaces/inkscape"
   xmlns:sodipodi="http://sodipodi.sourceforge.net/DTD/sodipodi-0.dtd"
   xmlns="http://www.w3.org/2000/svg"
   xmlns:svg="http://www.w3.org/2000/svg">
  <sodipodi:namedview
     id="namedview1"
     pagecolor="#ffffff"
     bordercolor="#000000"
     borderopacity="0.25"
     inkscape:showpageshadow="2"
     inkscape:pageopacity="0.0"
     inkscape:pagecheckerboard="0"
     inkscape:deskcolor="#d1d1d1"
     inkscape:document-units="mm"
     inkscape:zoom="1"
     inkscape:cx="682"
     inkscape:cy="734.5"
     inkscape:window-width="1920"
     inkscape:window-height="1009"
     inkscape:window-x="2552"
     inkscape:window-y="-3"
     inkscape:window-maximized="1"
     inkscape:current-layer="layer1" />
  <defs
     id="defs1" />
  <g
     inkscape:label="Ebene 1"
     inkscape:groupmode="layer"
     id="layer1">
    <g
       id="g28"
       inkscape:label="Arm3"
       style="display:inline"
       transform="rotate(-1.3549077,584.99181,-847.53053)">
      <path
         style="fill:#71291c;fill-opacity:1;stroke:#000000;stroke-width:0.264583"
         d="m 88.165534,270.1617 6.361015,-6.8344 11.085001,-8.83994 4.63045,-14.87355 -6.59488,-16.04285 -19.270131,-8.41899 -13.283295,-8.79317 -17.399246,-3.18051 -14.967095,-9.16734 -8.044812,-22.45064 -28.437477,-15.71545 -19.083044,-3.74177 20.205576,-0.37418 30.682543,14.78 9.354431,24.50862 11.038231,6.5481 16.83798,2.99342 14.967095,10.10279 19.644314,8.2319 9.72861,20.20558 -4.30304,16.4638 -11.03823,10.10278 -3.554688,4.67722"
         id="path18"
         sodipodi:nodetypes="ccccccccccccccccccccccc" />
      <path
         style="fill:#71291c;fill-opacity:1;stroke:#000000;stroke-width:0.264583"
         d="m 93.123384,264.91755 1.403165,-1.59025 2.104747,-1.73057 -6.361015,-4.25627 z"
         id="path19" />
      <path
         style="fill:#71291c;fill-opacity:1;stroke:#000000;stroke-width:0.264583"
         d="m 109.54041,257.20015 1.77735,-1.63703 1.02898,-3.3676 5.56589,6.54811 z"
         id="path20" />
      <path
         style="fill:#71291c;fill-opacity:1;stroke:#000000;stroke-width:0.264583"
         d="m 109.63396,241.25084 0.60804,-1.6838 -1.07576,-2.66601 -4.86431,2.71278 z"
         id="path21" />
      <path
         style="fill:#71291c;fill-opacity:1;stroke:#000000;stroke-width:0.264583"
         d="m 107.12318,221.48932 -1.2237,-2.64583 -2.91042,-1.2237 7.87136,-3.57188 z"
         id="path22" />
      <path
         style="fill:#71291c;fill-opacity:1;stroke:#000000;stroke-width:0.264583"
         d="m 87.147134,216.36302 -2.84427,-1.2237 -2.645834,-1.88516 -0.892969,9.55808 z"
         id="path23" />
      <path
         style="fill:#71291c;fill-opacity:1;stroke:#000000;stroke-width:0.264583"
         d="m 74.46129,202.6638 -3.180509,-2.15152 -3.975632,-0.74835 7.34323,-7.95127 z"
         id="path24" />
      <path
         style="fill:#71291c;fill-opacity:1;stroke:#000000;stroke-width:0.264583"
         d="m 57.348437,203.82838 -3.73724,-0.66146 -3.340364,-2.11666 1.124479,11.54245 z"
         id="path25" />
      <path
         style="fill:#71291c;fill-opacity:1;stroke:#000000;stroke-width:0.264583"
         d="m 31.828459,174.90452 -1.169305,-3.43776 -3.203892,-1.70718 -0.865286,7.60048 z"
         id="path26" />
      <path
         style="fill:#71291c;fill-opacity:1;stroke:#000000;stroke-width:0.264583"
         d="m 46.066732,192.58743 -2.476628,-1.42597 -1.262789,-2.95702 11.019299,-3.65757 z"
         id="path27"
         sodipodi:nodetypes="ccccc" />
      <path
         style="fill:#71291c;fill-opacity:1;stroke:#000000;stroke-width:0.264583"
         d="m 0.88867116,151.70552 2.54908304,-0.0234 2.3619944,1.23947 -1.4967093,-8.04482 z"
         id="path28" />
      <path
         style="fill:#71291c;fill-opacity:1;stroke:#000000;stroke-width:0.264583"
         d="m 101.16536,217.06728 3.23012,-12.67291 -1.73057,-12.95589 -5.752981,-10.61728 1.169305,-10.52374 4.312516,-11.28288 5.95312,-9.26042 0.26459,-13.75833 -3.83646,-13.09687 0.79375,12.96458 -1.19063,12.83229 -5.556246,8.59896 -4.365625,11.50937 -1.455209,11.77396 5.820834,11.90625 1.058333,11.90625 -3.568551,10.62844"
         id="path29"
         sodipodi:nodetypes="ccccccccccccccccc" />
      <path
         style="fill:#71291c;fill-opacity:1;stroke:#000000;stroke-width:0.264583"
         d="m 103.97453,201.63481 8.09158,2.80633 -8.37222,2.47893 0.79513,-2.61924 z"
         id="path30" />
      <path
         style="fill:#71291c;fill-opacity:1;stroke:#000000;stroke-width:0.264583"
         d="m 93.965283,182.41145 -1.028989,-1.91766 0.608039,-4.16272 -7.34323,5.7062 z"
         id="path31" />
      <path
         style="fill:#71291c;fill-opacity:1;stroke:#000000;stroke-width:0.264583"
         d="m 101.6,160.96588 0.79375,-2.01744 1.91823,-2.94349 4.66328,5.25859 z"
         id="path32" />
      <path
         style="fill:#71291c;fill-opacity:1;stroke:#000000;stroke-width:0.264583"
         d="m 103.31972,150.2322 c 0.0935,0 1.05237,-1.56687 1.05237,-1.56687 l 0.35079,-3.97563 -7.506932,2.6894 z"
         id="path33" />
      <path
         style="fill:#5f190e;fill-opacity:1;stroke:#5f190e;stroke-width:0.264583;stroke-opacity:1"
         d="m 120.81676,281.44583 4.20524,-5.46666 10.7576,-10.05602 3.99902,-16.20655 -9.30766,-18.45162 -19.69108,-7.71741 -14.967097,-9.58829 -16.791206,-2.59586 -12.020447,-6.57149 -10.079403,-24.43845 -29.770485,-13.86795 -18.9154498,-0.3287 18.8534378,-0.69604 30.880492,13.98347 9.934952,24.26932 11.313555,6.36101 16.901289,2.59042 15.158312,9.71893 19.76927,7.74493 10.1276,19.7982 -3.86166,16.3881 -10.77519,10.31998 -3.45288,4.78588 z"
         id="path85"
         sodipodi:nodetypes="cccccccccccccccccccccccc"
         transform="rotate(1.3549077,584.9922,-847.53026)" />
      <path
         style="fill:#5f190e;fill-opacity:1;stroke:#5f190e;stroke-width:0.264583;stroke-opacity:1"
         d="m 99.496184,216.36431 3.457136,-12.15257 -1.55004,-12.5985 -5.746909,-10.70939 1.215143,-10.82544 4.352346,-11.42962 5.80945,-9.24304 0.35359,-13.46579 -2.41638,-11.84018 3.38139,11.92905 -0.26018,13.64829 -5.91925,9.14474 -4.344929,11.40569 -1.199886,10.64493 5.792675,10.63757 1.7112,12.85266 -3.2019,12.56308 z"
         id="path86"
         sodipodi:nodetypes="cccccccccccccccccc" />
      <path
         style="fill:#5f190e;fill-opacity:1;stroke:#5f190e;stroke-width:0.264583;stroke-opacity:1"
         d="m 95.140151,262.50083 -4.575643,-4.77908 5.641688,3.90933 z"
         id="path87"
         sodipodi:nodetypes="cccc" />
      <path
         style="fill:#5f190e;fill-opacity:1;stroke:#5f190e;stroke-width:0.264583;stroke-opacity:1"
         d="m 112.0892,253.91189 5.47659,4.65766 -5.12174,-5.84849 z"
         id="path88"
         sodipodi:nodetypes="cccc" />
      <path
         style="fill:#5f190e;fill-opacity:1;stroke:#5f190e;stroke-width:0.264583;stroke-opacity:1"
         d="m 109.42068,238.22986 -4.73927,1.40969 4.37346,-2.37773 z"
         id="path89"
         sodipodi:nodetypes="cccc" />
      <path
         style="fill:#5f190e;fill-opacity:1;stroke:#5f190e;stroke-width:0.264583;stroke-opacity:1"
         d="m 105.15271,218.25137 5.43679,-3.91227 -6.97287,3.28046 z"
         id="path90"
         sodipodi:nodetypes="cccc" />
      <path
         style="fill:#5f190e;fill-opacity:1;stroke:#5f190e;stroke-width:0.264583;stroke-opacity:1"
         d="m 84.859213,215.66217 -3.937461,6.77508 5.774905,-5.98645 z"
         id="path91"
         sodipodi:nodetypes="cccc" />
      <path
         style="fill:#5f190e;fill-opacity:1;stroke:#5f190e;stroke-width:0.264583;stroke-opacity:1"
         d="m 69.858724,199.98999 4.683685,-7.85802 -6.73054,7.47393 z"
         id="path92"
         sodipodi:nodetypes="cccc" />
      <path
         style="fill:#5f190e;fill-opacity:1;stroke:#5f190e;stroke-width:0.264583;stroke-opacity:1"
         d="m 43.323702,189.8718 9.523545,-5.01827 -10.176388,3.49476 z"
         id="path93"
         sodipodi:nodetypes="cccc" />
      <path
         style="fill:#5f190e;fill-opacity:1;stroke:#5f190e;stroke-width:0.264583;stroke-opacity:1"
         d="m 54.603386,203.60644 -3.079726,8.5588 5.36472,-8.143 z"
         id="path94"
         sodipodi:nodetypes="cccc" />
      <path
         style="fill:#5f190e;fill-opacity:1;stroke:#5f190e;stroke-width:0.264583;stroke-opacity:1"
         d="m 30.801021,172.71469 -4.051468,4.39556 4.745938,-2.35567 z"
         id="path95"
         sodipodi:nodetypes="cccc" />
      <path
         style="fill:#5f190e;fill-opacity:1;stroke:#5f190e;stroke-width:0.264583;stroke-opacity:1"
         d="m 2.8731259,151.43297 1.3770778,-6.12071 -2.9570412,6.13297 z"
         id="path96"
         sodipodi:nodetypes="cccc" />
      <path
         style="fill:#5f190e;fill-opacity:1;stroke:#5f190e;stroke-width:0.264583;stroke-opacity:1"
         d="m 104.58688,203.39868 6.98125,1.04021 -7.27037,-2.40287 z"
         id="path97"
         sodipodi:nodetypes="cccc" />
      <path
         style="fill:#5f190e;fill-opacity:1;stroke:#5f190e;stroke-width:0.264583;stroke-opacity:1"
         d="m 93.003789,178.3264 -6.389676,3.60923 6.568699,-4.99686 z"
         id="path98"
         sodipodi:nodetypes="cccc" />
      <path
         style="fill:#5f190e;fill-opacity:1;stroke:#5f190e;stroke-width:0.264583;stroke-opacity:1"
         d="m 103.52383,157.69743 5.11846,3.42222 -4.29741,-4.68844 z"
         id="path99"
         sodipodi:nodetypes="cccc" />
      <path
         style="fill:#5f190e;fill-opacity:1;stroke:#5f190e;stroke-width:0.264583;stroke-opacity:1"
         d="m 104.30499,146.5692 -6.686954,0.84772 6.815864,-2.3418 z"
         id="path100"
         sodipodi:nodetypes="cccc" />
      <path
         style="fill:#84392a;fill-opacity:1;stroke:#84392a;stroke-width:0.264583;stroke-opacity:1"
         d="m 119.64127,275.7289 -2.56732,-6.38175 3.25359,5.5632 z"
         id="path134"
         transform="rotate(1.3549077,584.9922,-847.53026)"
         sodipodi:nodetypes="cccc" />
      <path
         style="fill:#84392a;fill-opacity:1;stroke:#84392a;stroke-width:0.264583;stroke-opacity:1"
         d="m 110.10153,257.0409 7.19197,1.31693 -6.16513,-2.27346 z"
         id="path135"
         sodipodi:nodetypes="cccc" />
      <path
         style="fill:#84392a;fill-opacity:1;stroke:#84392a;stroke-width:0.264583;stroke-opacity:1"
         d="m 109.47363,240.9194 -4.4404,-1.36609 4.73408,0.52287 z"
         id="path136"
         sodipodi:nodetypes="cccc" />
      <path
         style="fill:#84392a;fill-opacity:1;stroke:#84392a;stroke-width:0.264583;stroke-opacity:1"
         d="m 107.13306,220.84919 3.1814,-6.3051 -3.68255,5.24057 z"
         id="path137"
         sodipodi:nodetypes="cccc" />
      <path
         style="fill:#84392a;fill-opacity:1;stroke:#84392a;stroke-width:0.264583;stroke-opacity:1"
         d="m 104.07377,206.53591 7.17051,-2.12808 -6.87217,1.14816 z"
         id="path138"
         sodipodi:nodetypes="cccc" />
      <path
         style="fill:#84392a;fill-opacity:1;stroke:#84392a;stroke-width:0.264583;stroke-opacity:1"
         d="m 86.893087,181.80405 c 0.09352,0.002 6.620524,0.31692 6.620524,0.31692 l -0.557987,-1.06408 z"
         id="path139"
         sodipodi:nodetypes="cccc" />
      <path
         style="fill:#84392a;fill-opacity:1;stroke:#84392a;stroke-width:0.264583;stroke-opacity:1"
         d="m 101.96209,160.71561 6.43661,0.25975 -5.97979,-1.39028 z"
         id="path140"
         sodipodi:nodetypes="cccc" />
      <path
         style="fill:#84392a;fill-opacity:1;stroke:#84392a;stroke-width:0.264583;stroke-opacity:1"
         d="m 97.893776,147.3948 5.349694,2.50431 0.70746,-1.06258 z"
         id="path141"
         sodipodi:nodetypes="cccc" />
      <path
         style="fill:#84392a;fill-opacity:1;stroke:#84392a;stroke-width:0.264583;stroke-opacity:1"
         d="m 90.554973,270.07597 5.569114,-6.42268 10.559293,-8.64935 4.6627,-15.30601 -6.82156,-16.50394 -19.802542,-8.97049 -13.152051,-9.01168 -17.5864,-3.36026 -14.315535,-8.77455 -8.040318,-22.32214 -29.0323061,-15.97063 -17.1435479,-2.50206 16.9012088,3.30684 28.5228272,15.69375 8.062987,22.55029 14.84268,9.09599 17.398326,3.18455 13.314827,8.80339 19.355814,8.45128 6.67981,16.20284 -4.69452,15.07781 -11.122525,8.85934 -6.080597,6.54292 z"
         id="path142"
         sodipodi:nodetypes="cccccccccccccccccccccccc" />
      <path
         style="fill:#84392a;fill-opacity:1;stroke:#84392a;stroke-width:0.264583;stroke-opacity:1"
         d="m 97.45137,215.35631 3.59421,-10.82024 -1.177044,-12.12764 -5.97122,-11.89367 1.489971,-11.59314 4.363773,-11.40938 5.52795,-8.52851 0.9729,-13.16023 -1.07713,-10.70718 0.66452,10.73969 -1.2016,12.93553 -5.582161,8.61678 -4.341508,11.45702 -1.435297,11.66929 5.796444,11.87634 1.075962,12.02174 -3.563056,10.56952 z"
         id="path143"
         sodipodi:nodetypes="cccccccccccccccccc" />
      <path
         style="fill:#84392a;fill-opacity:1;stroke:#84392a;stroke-width:0.264583;stroke-opacity:1"
         d="m 83.010401,214.55519 -1.915317,7.54707 0.784732,-8.35123 z"
         id="path144"
         sodipodi:nodetypes="cccc" />
      <path
         style="fill:#84392a;fill-opacity:1;stroke:#84392a;stroke-width:0.264583;stroke-opacity:1"
         d="m 74.211114,202.17822 0.159934,-9.73646 -1.696466,8.7103 z"
         id="path145"
         sodipodi:nodetypes="cccc" />
      <path
         style="fill:#84392a;fill-opacity:1;stroke:#84392a;stroke-width:0.264583;stroke-opacity:1"
         d="m 52.04144,202.48794 -0.442315,9.4345 -1.008198,-10.34962 z"
         id="path146"
         sodipodi:nodetypes="cccc" />
      <path
         style="fill:#84392a;fill-opacity:1;stroke:#84392a;stroke-width:0.264583;stroke-opacity:1"
         d="m 46.017792,192.25362 6.567896,-7.24989 -7.704824,6.60894 z"
         id="path147"
         sodipodi:nodetypes="cccc" />
      <path
         style="fill:#84392a;fill-opacity:1;stroke:#84392a;stroke-width:0.264583;stroke-opacity:1"
         d="m 27.668191,170.16681 -0.755158,6.70752 2.066326,-6.01567 z"
         id="path148"
         sodipodi:nodetypes="cccc" />
      <path
         style="fill:#84392a;fill-opacity:1;stroke:#84392a;stroke-width:0.264583;stroke-opacity:1"
         d="m 5.4482637,152.43945 -1.2659492,-6.76463 0.313826,6.26496 z"
         id="path149"
         sodipodi:nodetypes="cccc" />
    </g>
    <g
       id="g10"
       inkscape:label="Arm1"
       style="display:inline"
       transform="rotate(-1.3549077,584.99181,-847.53053)">
      <path
         style="display:inline;fill:#8f4333;fill-opacity:1;stroke:#000000;stroke-width:0.264583;stroke-opacity:1"
         d="m 88.085672,270.19829 5.941264,-14.72401 -3.09979,-7.49115 -1.291579,-6.4579 0.774949,-4.39136 9.557684,-11.3659 0.77495,-3.3581 -0.25832,-5.42463 -2.841474,-18.85705 1.29158,-5.94126 3.874734,-3.61643 13.94905,-4.908 3.61642,-2.58315 -1.03326,-5.42463 v -2.84148 l 5.42463,-4.39137 15.24063,-6.19957 5.16632,-5.16632 3.09978,-14.46568 6.62053,-3.42292 10.49006,-1.24481 10.27089,-5.92322 6.71621,-11.62421 -8.00779,8.26611 -6.71621,3.87473 -14.20737,2.06653 -8.2661,2.58316 -4.39137,14.98231 -5.16632,5.94126 -13.69073,5.16632 -6.4579,5.16631 -1.54989,7.23285 -0.51663,3.3581 -5.68295,2.32484 -7.49116,3.35811 -5.941259,3.09979 -2.324841,5.94126 -0.516633,7.74947 1.291579,10.84926 0.774949,9.29937 -4.391369,6.19958 -4.133051,4.908 -2.841474,7.49115 2.066526,7.23285 1.033264,8.2661 -4.133054,14.20738"
         id="path1"
         sodipodi:nodetypes="cccccccccccccccccccccccccccccccccccccccccccccc" />
      <path
         style="fill:#8f4333;fill-opacity:1;stroke:#000000;stroke-width:0.264583"
         d="m 94.026301,255.48828 6.515369,-7.04453 -8.152479,3.07578 z"
         id="path2"
         sodipodi:nodetypes="cccc" />
      <path
         style="fill:#8f4333;fill-opacity:1;stroke:#000000;stroke-width:0.264583"
         d="m 82.471022,239.2981 c 0,-0.11693 1.648721,-4.24457 1.648721,-4.24457 l -10.36714,-0.96343 z"
         id="path3"
         sodipodi:nodetypes="cccc" />
      <path
         style="fill:#8f4333;fill-opacity:1;stroke:#000000;stroke-width:0.264583"
         d="m 99.91328,225.77226 0.8599,-3.42304 -0.16537,-3.19154 8.7974,4.28294 z"
         id="path4" />
      <path
         style="fill:#8f4333;fill-opacity:1;stroke:#000000;stroke-width:0.264583"
         d="m 93.207746,190.4752 1.083138,-2.75333 2.315105,-1.17408 -6.616341,-6.28786 z"
         id="path5"
         sodipodi:nodetypes="ccccc" />
      <path
         style="fill:#8f4333;fill-opacity:1;stroke:#000000;stroke-width:0.264583"
         d="m 117.87284,182.90077 2.52911,-1.85963 -0.69169,-3.62784 8.25839,5.93359 z"
         id="path6"
         sodipodi:nodetypes="ccccc" />
      <path
         style="fill:#8f4333;fill-opacity:1;stroke:#000000;stroke-width:0.264583"
         d="m 114.84906,171.11597 0.58465,-2.64262 2.64263,-2.22168 -10.21972,-3.57807 z"
         id="path7" />
      <path
         style="fill:#8f4333;fill-opacity:1;stroke:#000000;stroke-width:0.264583"
         d="m 139.9891,162.20587 5.1917,-5.19171 5.42558,11.03824 z"
         id="path8" />
      <path
         style="fill:#8f4333;fill-opacity:1;stroke:#000000;stroke-width:0.264583"
         d="m 144.36328,139.73307 0.82682,-2.61276 3.175,-1.02526 -7.63984,-4.46484 z"
         id="path9" />
      <path
         style="fill:#8f4333;fill-opacity:1;stroke:#000000;stroke-width:0.264583"
         d="m 165.33961,137.97789 5.84652,-3.43775 1.54348,10.57051 z"
         id="path10" />
      <path
         style="fill:#8f4333;fill-opacity:1;stroke:#000000;stroke-width:0.264583"
         d="m 88.024741,229.22672 -14.86745,-10.68089 -1.502331,-12.7483 -12.160763,-14.03165 -0.374179,-5.05139 6.361014,-9.9157 1.496711,-5.98684 -1.870887,-9.72861 -7.857723,-9.35443 -2.432153,-6.36102 3.554685,-12.53494 7.670633,-10.47696 13.096208,-5.42557 -10.664054,6.92228 -5.986836,9.16734 -3.741774,11.97368 2.806329,6.36101 6.173928,6.36102 3.367595,12.53494 -1.122532,7.29646 -6.184302,10.71139 2.629617,3.69443 8.606079,10.10279 2.057974,12.53494 14.815085,9.67014"
         id="path34"
         sodipodi:nodetypes="ccccccccccccccccccccccccc" />
      <path
         style="fill:#8f4333;fill-opacity:1;stroke:#000000;stroke-width:0.264583"
         d="m 75.911228,220.53077 -2.75956,-2.01121 -0.561266,-4.0224 -5.098166,10.38342 z"
         id="path35" />
      <path
         style="fill:#8f4333;fill-opacity:1;stroke:#000000;stroke-width:0.264583"
         d="m 75.373348,204.74516 -0.350792,-2.66601 -2.034591,-2.45554 9.728613,-1.80073 z"
         id="path36" />
      <path
         style="fill:#8f4333;fill-opacity:1;stroke:#000000;stroke-width:0.264583"
         d="m 59.465103,191.85599 -0.330729,-5.19245 -7.474479,3.30729 z"
         id="path37" />
      <path
         style="fill:#8f4333;fill-opacity:1;stroke:#000000;stroke-width:0.264583"
         d="m 70.813061,171.88771 0.327404,-1.68379 -0.935443,-3.25067 8.629465,2.50231 z"
         id="path38" />
      <path
         style="fill:#8f4333;fill-opacity:1;stroke:#000000;stroke-width:0.264583"
         d="m 58.770572,153.55755 -1.5875,-1.75286 -1.157552,-3.24115 -5.820833,9.8888 z"
         id="path39" />
      <path
         style="fill:#8f4333;fill-opacity:1;stroke:#000000;stroke-width:0.264583"
         d="m 61.929036,134.88789 0.628385,-1.98438 1.951302,-3.00963 6.498828,4.84518 z"
         id="path40" />
      <path
         style="fill:#782f1f;fill-opacity:1;stroke:#782f1f;stroke-width:0.264583;stroke-opacity:1"
         d="m 112.20161,281.69205 -1.69221,-0.051 5.62589,-14.24453 -0.56126,-2.15154 -1.73058,-4.06917 -0.93544,-3.92886 -0.51449,-4.44336 0.79512,-4.49013 5.98684,-7.01582 3.50791,-4.39659 0.88867,-3.50791 -0.28063,-4.63044 -1.21607,-7.10937 -1.02899,-6.40779 -0.70158,-5.14494 1.44993,-6.50133 0.88867,-1.35639 2.94665,-2.75956 8.83994,-3.55468 6.17392,-2.05798 1.96444,-1.63702 -0.18709,-3.97564 -0.18709,-3.78854 0.51449,-1.12254 5.0514,-4.11595 15.38804,-6.45456 4.58367,-4.77076 3.18051,-13.84456 1.07576,-1.44994 6.45456,-3.1805 10.99146,-1.3564 9.77538,-5.3788 6.73519,-9.95728 -6.15763,10.60383 -10.20695,5.86281 -10.45241,1.25199 -6.78221,3.4968 -3.07585,14.45886 -5.16549,5.16691 -15.17757,6.1594 -5.54333,4.48753 -0.0117,2.99 1.02899,5.26529 -3.45347,2.48093 -14.00141,4.93647 -3.93856,3.68473 -1.32272,6.0544 2.83113,18.88911 0.28406,5.39391 -0.83221,3.33512 -9.49274,11.28036 -0.79513,4.51434 1.28966,6.54468 3.08212,7.43193 z"
         id="path51"
         sodipodi:nodetypes="ccccccccccccccccccccccccccccccccccccccccccccccccccccccc"
         transform="translate(-24.341667,-11.641667)" />
      <path
         style="fill:#782f1f;fill-opacity:1;stroke:#782f1f;stroke-width:0.264583;stroke-opacity:1"
         d="m 115.00992,237.32197 -14.82394,-9.86892 -2.525696,-13.6107 -11.248705,-13.33007 6.548102,-11.69304 1.075761,-7.13276 -3.016805,-11.83336 -6.244085,-6.36101 -2.90178,-6.64732 3.720292,-12.50588 6.127155,-9.02703 10.406811,-6.08038 -9.489791,6.0698 -6.027539,9.23561 -3.811654,12.10469 2.877344,6.49882 6.176367,6.37481 3.315559,12.39408 -1.091406,7.17682 -6.250781,10.83965 2.736784,3.84473 8.565885,10.06243 2.042252,12.55117 14.81666,9.65729 z"
         id="path53"
         sodipodi:nodetypes="ccccccccccccccccccccccccc"
         transform="translate(-24.341667,-11.641667)" />
      <path
         style="fill:#782f1f;stroke:#782f1f;stroke-width:0.264583"
         d="m 119.26371,263.91324 6.86913,-3.98862 -7.2707,3.07952 z"
         id="path70"
         sodipodi:nodetypes="cccc"
         transform="rotate(1.3549077,584.9922,-847.53026)" />
      <path
         style="fill:#782f1f;stroke:#782f1f;stroke-width:0.264583"
         d="m 109.12408,247.83603 -9.04544,-1.77353 9.41339,0.76894 z"
         id="path71"
         sodipodi:nodetypes="cccc"
         transform="rotate(1.3549077,584.9922,-847.53026)" />
      <path
         style="fill:#782f1f;stroke:#782f1f;stroke-width:0.264583"
         d="m 126.3497,231.93219 8.06181,2.41975 -8.16363,-3.61763 z"
         id="path72"
         sodipodi:nodetypes="cccc"
         transform="rotate(1.3549077,584.9922,-847.53026)" />
      <path
         style="fill:#782f1f;stroke:#782f1f;stroke-width:0.264583"
         d="m 119.71026,198.32057 -4.98031,-6.16693 6.02577,5.60285 z"
         id="path73"
         sodipodi:nodetypes="cccc"
         transform="rotate(1.3549077,584.9922,-847.53026)" />
      <path
         style="fill:#782f1f;stroke:#782f1f;stroke-width:0.264583"
         d="m 144.74817,190.09378 7.27307,3.62484 -7.5654,-5.00462 z"
         id="path74"
         sodipodi:nodetypes="cccc"
         transform="rotate(1.3549077,584.9922,-847.53026)" />
      <path
         style="fill:#782f1f;stroke:#782f1f;stroke-width:0.264583"
         d="m 140.48548,178.14726 -8.12767,-4.15065 9.30176,3.13366 z"
         id="path75"
         sodipodi:nodetypes="cccc"
         transform="rotate(1.3549077,584.9922,-847.53026)" />
      <path
         style="fill:#782f1f;stroke:#782f1f;stroke-width:0.264583"
         d="m 167.43565,169.22159 6.9413,8.47919 -5.38621,-10.11211 z"
         id="path76"
         sodipodi:nodetypes="cccc"
         transform="rotate(1.3549077,584.9922,-847.53026)" />
      <path
         style="fill:#782f1f;stroke:#782f1f;stroke-width:0.264583"
         d="m 169.91211,146.51095 -5.55625,-4.28087 6.76773,3.87044 z"
         id="path77"
         sodipodi:nodetypes="cccc"
         transform="rotate(1.3549077,584.9922,-847.53026)" />
      <path
         style="fill:#782f1f;stroke:#782f1f;stroke-width:0.264583"
         d="m 192.55052,145.58698 3.5388,8.61549 -1.757,-9.7317 z"
         id="path78"
         sodipodi:nodetypes="cccc"
         transform="rotate(1.3549077,584.9922,-847.53026)" />
      <path
         style="fill:#782f1f;stroke:#782f1f;stroke-width:0.264583"
         d="m 97.97015,228.70421 -4.612906,7.82264 4.384893,-9.34859 z"
         id="path79"
         sodipodi:nodetypes="cccc"
         transform="rotate(1.3549077,584.9922,-847.53026)" />
      <path
         style="fill:#782f1f;stroke:#782f1f;stroke-width:0.264583"
         d="m 99.156737,212.48935 7.949903,-2.84013 -8.751921,1.95544 z"
         id="path80"
         sodipodi:nodetypes="cccc"
         transform="rotate(1.3549077,584.9922,-847.53026)" />
      <path
         style="fill:#782f1f;stroke:#782f1f;stroke-width:0.264583"
         d="m 83.61885,200.53378 -6.856611,1.77325 6.765245,-3.11052 z"
         id="path81"
         sodipodi:nodetypes="cccc"
         transform="rotate(1.3549077,584.9922,-847.53026)" />
      <path
         style="fill:#782f1f;stroke:#782f1f;stroke-width:0.264583"
         d="m 95.039867,180.21245 7.565403,0.94714 -7.902373,-1.95521 z"
         id="path82"
         sodipodi:nodetypes="cccc"
         transform="rotate(1.3549077,584.9922,-847.53026)" />
      <path
         style="fill:#782f1f;stroke:#782f1f;stroke-width:0.264583"
         d="m 80.113121,162.51847 -5.599841,7.95588 5.185599,-9.08477 z"
         id="path83"
         sodipodi:nodetypes="cccc"
         transform="rotate(1.3549077,584.9922,-847.53026)" />
      <path
         style="fill:#782f1f;stroke:#782f1f;stroke-width:0.264583"
         d="m 87.154087,143.40931 6.834582,3.1045 -6.156386,-4.20949 z"
         id="path84"
         sodipodi:nodetypes="cccc"
         transform="rotate(1.3549077,584.9922,-847.53026)" />
      <path
         style="display:inline;fill:#a65746;fill-opacity:1;stroke:#a65746;stroke-width:0.264583;stroke-opacity:1"
         d="m 83.17719,269.88372 4.361645,-13.80083 -1.002841,-9.02988 -1.967176,-6.83039 2.739854,-7.04655 8.534596,-10.7225 -0.856238,-11.2721 -1.477776,-9.7195 0.27379,-7.61952 2.092724,-5.40099 6.748332,-3.44285 11.34051,-4.73779 0.92618,-0.58631 2.17813,-10.9898 5.99339,-4.16248 13.24256,-5.0437 5.67793,-6.64957 4.35291,-14.91511 9.51336,-2.65228 12.01677,-1.68076 6.95251,-4.1632 6.13236,-7.1944 -6.41601,6.62381 -6.79744,3.92639 -14.24663,2.07319 -8.1001,2.52842 -4.38105,14.91559 -5.24598,6.02738 -13.70059,5.17001 -6.35555,5.10089 -1.53072,7.10319 -0.53934,3.50766 -5.76604,2.36141 -7.54774,3.37973 -5.83109,3.04231 -2.279028,5.81174 -0.503129,7.6772 1.299533,10.94009 0.775007,9.29646 -4.437059,6.27807 -4.132329,4.89475 -2.788952,7.35838 2.040661,7.1662 1.047178,8.34311 -4.094206,14.08403 z"
         id="path101"
         sodipodi:nodetypes="cccccccccccccccccccccccccccccccccccccccccccccc" />
      <path
         style="fill:#a65746;fill-opacity:1;stroke:#a65746;stroke-width:0.264583;stroke-opacity:1"
         d="m 88.312934,227.47638 -13.631487,-9.75206 -1.847951,-12.08562 -12.184585,-14.24886 -0.319563,-4.67215 6.446276,-9.59023 1.287326,-6.17246 -1.876385,-10.18406 -7.887498,-9.20145 -2.463837,-6.32734 3.564998,-12.25533 7.166529,-9.97018 10.108057,-4.78218 -10.458113,4.33263 -7.598274,10.37921 -3.523352,12.40736 2.38573,6.2435 7.876435,9.36704 1.894173,9.85329 -1.521867,6.08472 -6.328129,9.85083 0.350671,4.90321 12.156486,14.03241 1.501046,12.69033 14.6777,10.55804 0.838291,-1.07379 z"
         id="path102"
         sodipodi:nodetypes="ccccccccccccccccccccccccccc" />
      <path
         style="fill:#a65746;stroke:#a65746;stroke-width:0.264583"
         d="m 120.311,266.31138 5.42479,-6.15565 -5.75552,5.34538 z"
         id="path114"
         sodipodi:nodetypes="cccc"
         transform="rotate(1.3549077,584.9922,-847.53026)" />
      <path
         style="fill:#a65746;stroke:#a65746;stroke-width:0.264583"
         d="m 82.336774,238.90369 -7.563061,-4.51528 7.918891,3.5646 z"
         id="path115"
         sodipodi:nodetypes="cccc" />
      <path
         style="fill:#a65746;stroke:#a65746;stroke-width:0.264583"
         d="m 125.76536,236.57415 8.40319,-2.26908 -8.02527,0.68576 z"
         id="path116"
         transform="rotate(1.3549077,584.9922,-847.53026)"
         sodipodi:nodetypes="cccc" />
      <path
         style="fill:#a65746;stroke:#a65746;stroke-width:0.264583"
         d="m 143.10347,193.41164 8.61787,0.18366 -7.41598,-1.10846 z"
         id="path117"
         sodipodi:nodetypes="cccc"
         transform="rotate(1.3549077,584.9922,-847.53026)" />
      <path
         style="fill:#a65746;stroke:#a65746;stroke-width:0.264583"
         d="m 132.64586,174.14447 6.53349,5.86698 -0.25432,1.38271 z"
         id="path118"
         sodipodi:nodetypes="cccc"
         transform="rotate(1.3549077,584.9922,-847.53026)" />
      <path
         style="fill:#a65746;stroke:#a65746;stroke-width:0.264583"
         d="m 164.40795,172.37881 9.73593,5.05671 -8.5743,-6.25684 z"
         id="path119"
         transform="rotate(1.3549077,584.9922,-847.53026)"
         sodipodi:nodetypes="cccc" />
      <path
         style="fill:#a65746;stroke:#a65746;stroke-width:0.264583"
         d="m 144.32922,139.02927 -3.06406,-6.84344 3.41986,5.63935 z"
         id="path120"
         sodipodi:nodetypes="cccc" />
      <path
         style="fill:#a65746;stroke:#a65746;stroke-width:0.264583"
         d="m 189.18822,147.65772 6.76254,6.22524 -5.41182,-7.04847 z"
         id="path121"
         sodipodi:nodetypes="cccc"
         transform="rotate(1.3549077,584.9922,-847.53026)" />
      <path
         style="fill:#a65746;stroke:#a65746;stroke-width:0.264583"
         d="m 75.407529,220.49648 -7.323255,3.78015 6.019898,-4.74443 z"
         id="path122"
         sodipodi:nodetypes="cccc" />
      <path
         style="fill:#a65746;stroke:#a65746;stroke-width:0.264583"
         d="m 100.59127,215.9248 6.24819,-6.17463 -6.48797,4.81864 z"
         id="path123"
         sodipodi:nodetypes="cccc"
         transform="rotate(1.3549077,584.9922,-847.53026)" />
      <path
         style="fill:#a65746;stroke:#a65746;stroke-width:0.264583"
         d="m 52.537674,189.89951 6.64032,1.61267 -0.06671,-1.20081 z"
         id="path124"
         sodipodi:nodetypes="cccc" />
      <path
         style="fill:#a65746;stroke:#a65746;stroke-width:0.264583"
         d="m 71.167956,171.50399 6.872462,-2.0829 -6.655463,0.95084 z"
         id="path125"
         sodipodi:nodetypes="cccc" />
      <path
         style="fill:#a65746;stroke:#a65746;stroke-width:0.264583"
         d="m 58.351005,153.50182 -7.499162,4.27325 6.600695,-5.28289 z"
         id="path126"
         sodipodi:nodetypes="cccc" />
      <path
         style="fill:#a65746;stroke:#a65746;stroke-width:0.264583"
         d="m 62.29256,134.6196 8.003167,-0.12206 -7.599649,-1.1819 z"
         id="path127"
         sodipodi:nodetypes="cccc" />
    </g>
    <g
       id="g17"
       inkscape:label="Arm2"
       style="display:inline"
       transform="rotate(-1.3549077,584.99181,-847.53053)">
      <path
         style="fill:#8f4333;fill-opacity:1;stroke:#000000;stroke-width:0.264583"
         d="m -13.394531,111.6707 -1.984375,-2.16627 0.264583,-2.87735 -5.903515,7.88789 z"
         id="path17" />
      <path
         style="fill:#8f4333;fill-opacity:1;stroke:#000000;stroke-width:0.264583"
         d="M 81.126323,269.88709 69.453124,244.21042 50.006249,221.45625 40.745833,192.35208 13.575375,163.33733 11.1125,132.29167 -12.7,108.74375 V 81.491666 l -2.688475,28.016494 22.615227,23.76434 2.1808653,31.03375 26.3753307,30.37893 7.860006,25.94521 18.817516,24.14129 10.865116,24.9951"
         id="path11"
         sodipodi:nodetypes="ccccccccccccccc" />
      <path
         style="fill:#8f4333;fill-opacity:1;stroke:#000000;stroke-width:0.264583"
         d="m 67.70026,242.22604 9.524999,-2.97656 -6.283854,8.13593 -1.488281,-3.20807 z"
         id="path12" />
      <path
         style="fill:#8f4333;fill-opacity:1;stroke:#000000;stroke-width:0.264583"
         d="m 45.243749,222.67995 -1.653645,-2.01745 -0.826823,-2.97657 -4.729427,7.9375 z"
         id="path13" />
      <path
         style="fill:#8f4333;fill-opacity:1;stroke:#000000;stroke-width:0.264583"
         d="m 41.814318,195.74152 -0.935445,-3.41437 -2.712786,-2.80633 13.142979,-2.33861 z"
         id="path14"
         sodipodi:nodetypes="ccccc" />
      <path
         style="fill:#8f4333;fill-opacity:1;stroke:#000000;stroke-width:0.264583"
         d="m 11.295478,166.43876 -1.8942724,-2.1983 -0.257247,-3.55468 -5.3787991,9.61168 z"
         id="path15"
         sodipodi:nodetypes="ccccc" />
      <path
         style="fill:#8f4333;fill-opacity:1;stroke:#000000;stroke-width:0.264583"
         d="m 9.4012056,130.63466 1.7305704,1.63703 0.146088,2.18625 8.383985,-5.72161 z"
         id="path16" />
      <path
         style="display:inline;fill:#782f1f;fill-opacity:1;stroke:#782f1f;stroke-width:0.264583;stroke-opacity:1"
         d="M 104.8632,281.21474 93.076611,256.82597 73.759707,234.56242 63.516602,205.56367 36.295203,177.40683 33.114694,145.92916 9.2141168,123.05757 9.3719728,98.151393 9.8280016,122.73016 34.190919,145.7057 l 3.212198,30.97616 27.855748,28.39071 9.947856,28.85842 19.983409,22.31909 12.14031,25.10203 -2.35031,0.035 z"
         id="path54"
         sodipodi:nodetypes="ccccccccccccccccc"
         transform="rotate(1.3549077,584.9922,-847.53026)" />
      <path
         style="fill:#782f1f;stroke:#782f1f;stroke-width:0.264583"
         d="m 69.068123,243.36238 7.795006,-3.88456 -8.708194,2.88538 z"
         id="path55"
         sodipodi:nodetypes="cccc" />
      <path
         style="fill:#782f1f;stroke:#782f1f;stroke-width:0.264583"
         d="m 42.992102,219.46775 -4.634476,5.93263 4.327696,-7.0691 z"
         id="path56"
         sodipodi:nodetypes="cccc" />
      <path
         style="fill:#782f1f;stroke:#782f1f;stroke-width:0.264583"
         d="m 40.149881,191.20603 10.672949,-3.80677 -12.154918,2.29682 z"
         id="path57"
         sodipodi:nodetypes="cccc" />
      <path
         style="fill:#782f1f;stroke:#782f1f;stroke-width:0.264583"
         d="m 9.0480027,163.05862 -4.9100305,6.93028 4.8029703,-8.4083 z"
         id="path58"
         sodipodi:nodetypes="cccc" />
      <path
         style="fill:#782f1f;stroke:#782f1f;stroke-width:0.264583"
         d="m 10.604618,131.41395 8.441063,-2.4408 -9.0872264,1.82024 z"
         id="path59"
         sodipodi:nodetypes="cccc" />
      <path
         style="fill:#782f1f;stroke:#782f1f;stroke-width:0.264583"
         d="m -15.584656,108.78924 -5.033568,5.42074 5.147069,-6.67308 z"
         id="path60"
         sodipodi:nodetypes="cccc" />
      <path
         style="fill:#a65746;fill-opacity:1;stroke:#a65746;stroke-width:0.264583;stroke-opacity:1"
         d="M 101.8761,281.41343 90.272525,256.62929 70.445312,232.81679 62.14401,206.98685 34.676953,177.45273 31.683854,146.47995 8.3509114,123.36198 9.3588903,100.12684 7.6879988,123.33588 30.829268,146.5443 l 2.919689,30.91077 27.069476,29.7924 8.474531,25.7627 19.369525,23.67549 11.447491,24.73663 z"
         id="path104"
         sodipodi:nodetypes="cccccccccccccccc"
         transform="rotate(1.3549077,584.9922,-847.53026)" />
      <path
         style="fill:#a65746;stroke:#a65746;stroke-width:0.264583"
         d="m 70.993897,246.87075 5.610827,-7.25426 -6.269338,5.83963 z"
         id="path128"
         sodipodi:nodetypes="cccc" />
      <path
         style="fill:#a65746;stroke:#a65746;stroke-width:0.264583"
         d="m 44.817968,222.58301 -6.197387,2.52603 5.339556,-3.59313 z"
         id="path129"
         sodipodi:nodetypes="cccc" />
      <path
         style="fill:#a65746;stroke:#a65746;stroke-width:0.264583"
         d="m 41.954124,195.26442 8.60266,-7.76359 -9.049272,6.14132 z"
         id="path130"
         sodipodi:nodetypes="cccc" />
      <path
         style="display:inline;fill:#a65746;stroke:#a65746;stroke-width:0.264583"
         d="m 10.875506,166.35542 -6.5073157,3.34118 5.6767407,-4.31168 z"
         id="path131"
         sodipodi:nodetypes="cccc" />
      <path
         style="fill:#a65746;stroke:#a65746;stroke-width:0.264583"
         d="m 11.507244,133.96304 7.170085,-4.87545 -7.238918,3.93925 z"
         id="path132"
         sodipodi:nodetypes="cccc" />
      <path
         style="fill:#a65746;stroke:#a65746;stroke-width:0.264583"
         d="m -13.853628,111.56286 -6.555186,2.44739 5.782973,-3.30194 z"
         id="path133"
         sodipodi:nodetypes="cccc" />
    </g>
    <g
       id="g50"
       inkscape:label="Arm4"
       style="display:inline"
       transform="rotate(-1.3549077,584.99181,-847.53053)">
      <path
         style="display:inline;fill:#8f4333;fill-opacity:1;stroke:#000000;stroke-width:0.264583"
         d="m 96.771353,270.27187 18.324477,-6.01248 10.08931,-13.00202 -0.34617,-19.5922 -6.58718,-12.85386 -1.41149,-6.80415 7.08452,-14.36577 12.04705,-5.49493 3.49555,-5.90713 -1.42109,-13.05913 5.08946,-12.2809 8.09861,-10.8965 2.50194,-14.68992 -5.35478,-16.23774 3.98614,-17.24879 -0.55317,17.46176 6.16338,16.02282 -2.08848,16.57122 -8.89084,10.84736 -3.3757,10.21908 0.54367,14.60198 -4.6513,7.70002 -11.9098,5.28286 -5.86712,10.48663 1.73607,7.97676 5.66327,9.85541 1.5841,23.32562 -9.85956,14.52903 -11.06016,3.56497"
         id="path41"
         sodipodi:nodetypes="ccccccccccccccccccccccccccccc" />
      <path
         style="fill:#8f4333;fill-opacity:1;stroke:#000000;stroke-width:0.264583"
         d="m 112.87854,265.01921 2.21691,-0.74328 2.19764,-2.79479 -5.81592,-3.17643 z"
         id="path42"
         sodipodi:nodetypes="ccccc" />
      <path
         style="fill:#8f4333;fill-opacity:1;stroke:#000000;stroke-width:0.264583"
         d="m 129.71428,253.56081 1.02405,-1.38256 -0.21454,-2.91609 5.7257,3.5052 z"
         id="path43"
         sodipodi:nodetypes="ccccc" />
      <path
         style="fill:#8f4333;fill-opacity:1;stroke:#000000;stroke-width:0.264583"
         d="m 124.84246,233.68324 -0.0192,-2.0515 -1.29934,-2.49428 -3.53126,3.97179 z"
         id="path44"
         sodipodi:nodetypes="ccccc" />
      <path
         style="fill:#8f4333;fill-opacity:1;stroke:#000000;stroke-width:0.264583"
         d="m 122.13651,212.8961 -0.43506,-1.92285 1.40273,-2.38431 4.09073,3.0419 z"
         id="path45"
         sodipodi:nodetypes="ccccc" />
      <path
         style="fill:#8f4333;fill-opacity:1;stroke:#000000;stroke-width:0.264583"
         d="m 123.02014,199.40545 0.90336,-1.78055 2.51604,-1.52737 -7.12089,-3.59696 z"
         id="path46"
         sodipodi:nodetypes="ccccc" />
      <path
         style="fill:#8f4333;fill-opacity:1;stroke:#000000;stroke-width:0.264583"
         d="m 137.77161,196.04549 1.72824,-0.78578 1.48145,-2.52031 4.22435,5.96376 z"
         id="path47"
         sodipodi:nodetypes="ccccc" />
      <path
         style="fill:#8f4333;fill-opacity:1;stroke:#000000;stroke-width:0.264583"
         d="m 138.27047,175.55668 -0.22161,-2.42407 1.35527,-3.00717 -9.24954,2.38579 z"
         id="path48"
         sodipodi:nodetypes="ccccc" />
      <path
         style="fill:#8f4333;fill-opacity:1;stroke:#000000;stroke-width:0.264583"
         d="m 154.31623,153.7396 1.57323,-1.85745 0.47478,-3.91377 6.89935,5.76301 z"
         id="path49"
         sodipodi:nodetypes="ccccc" />
      <path
         style="fill:#8f4333;fill-opacity:1;stroke:#000000;stroke-width:0.264583"
         d="m 153.29959,137.6764 0.40591,-2.38821 -0.99345,-3.24826 -7.88097,5.04077 z"
         id="path50"
         sodipodi:nodetypes="ccccc" />
      <path
         style="fill:#782f1f;fill-opacity:1;stroke:#782f1f;stroke-width:0.264583;stroke-opacity:1"
         d="m 131.60127,281.42985 11.9706,-4.04488 9.88203,-14.06537 -1.37155,-22.49372 -5.64153,-9.35869 -1.94592,-8.71243 6.05855,-10.99955 12.57924,-5.56409 4.17305,-7.42753 -0.73706,-14.0824 3.60783,-10.77985 8.96711,-11.00831 1.66803,-15.66949 -5.63523,-15.99006 1.34071,-16.40223 -0.61671,16.14893 6.15179,16.00968 -2.06714,16.42758 -8.86766,10.80736 -3.41939,10.31808 0.54521,14.57308 -4.57839,7.57558 -11.91889,5.30053 -5.97908,10.59093 1.79513,8.13654 5.65518,9.84695 1.58348,23.1726 -9.7658,14.40713 -10.99033,3.53169 -0.0207,0.0992 -3.06656,0.012 z"
         id="path52"
         sodipodi:nodetypes="cccccccccccccccccccccccccccccccc"
         transform="translate(-24.341667,-11.641667)" />
      <path
         style="fill:#782f1f;stroke:#782f1f;stroke-width:0.264583"
         d="m 142.44337,273.37699 -4.49221,-3.91946 5.30627,2.85878 z"
         id="path61"
         sodipodi:nodetypes="cccc"
         transform="rotate(1.3549077,584.9922,-847.53026)" />
      <path
         style="fill:#782f1f;stroke:#782f1f;stroke-width:0.264583"
         d="m 156.9873,261.14462 4.98858,1.83219 -5.10268,-2.8107 z"
         id="path62"
         sodipodi:nodetypes="cccc"
         transform="rotate(1.3549077,584.9922,-847.53026)" />
      <path
         style="fill:#782f1f;stroke:#782f1f;stroke-width:0.264583"
         d="m 145.95815,243.6879 3.79437,-2.25834 -0.67361,-1.23178 z"
         id="path63"
         sodipodi:nodetypes="cccc"
         transform="rotate(1.3549077,584.9922,-847.53026)" />
      <path
         style="fill:#782f1f;stroke:#782f1f;stroke-width:0.264583"
         d="m 147.76192,220.52829 4.28978,1.58283 -3.75006,-2.5133 z"
         id="path64"
         sodipodi:nodetypes="cccc"
         transform="rotate(1.3549077,584.9922,-847.53026)" />
      <path
         style="fill:#782f1f;stroke:#782f1f;stroke-width:0.264583"
         d="m 149.61992,207.39968 -5.25086,-3.86194 6.34601,3.1361 z"
         id="path65"
         sodipodi:nodetypes="cccc"
         transform="rotate(1.3549077,584.9922,-847.53026)" />
      <path
         style="fill:#782f1f;stroke:#782f1f;stroke-width:0.264583"
         d="m 165.14102,204.49022 4.56577,4.05878 -3.97997,-5.13691 z"
         id="path66"
         sodipodi:nodetypes="cccc"
         transform="rotate(1.3549077,584.9922,-847.53026)" />
      <path
         style="fill:#782f1f;stroke:#782f1f;stroke-width:0.264583"
         d="m 162.6275,181.97626 -7.74924,1.03675 8.27769,-2.23906 z"
         id="path67"
         sodipodi:nodetypes="cccc"
         transform="rotate(1.3549077,584.9922,-847.53026)" />
      <path
         style="fill:#782f1f;stroke:#782f1f;stroke-width:0.264583"
         d="m 180.08942,159.92049 6.57884,3.38978 -6.45156,-4.96932 z"
         id="path68"
         sodipodi:nodetypes="cccc"
         transform="rotate(1.3549077,584.9922,-847.53026)" />
      <path
         style="fill:#782f1f;stroke:#782f1f;stroke-width:0.264583"
         d="m 176.3031,143.71917 -7.63267,3.39659 7.1803,-4.71312 z"
         id="path69"
         sodipodi:nodetypes="cccc"
         transform="rotate(1.3549077,584.9922,-847.53026)" />
      <path
         style="fill:#a65746;fill-opacity:1;stroke:#a65746;stroke-width:0.264583;stroke-opacity:1"
         d="m 127.61539,281.27038 14.96725,-5.29068 10.20928,-13.7552 -0.89328,-20.27803 -6.86839,-12.67182 -1.54262,-6.65456 6.38263,-13.83337 11.71882,-5.43786 3.81599,-6.54067 -1.37005,-13.35216 4.14098,-12.13153 8.03727,-10.95914 2.13024,-15.07459 -5.7958,-16.10524 2.17093,-15.02227 -3.09128,14.9388 5.74113,16.10539 -2.17396,14.87805 -7.85809,11.11954 -4.7533,12.28659 1.72876,13.0439 -3.44677,6.14125 -11.8859,5.75624 -6.67768,14.3762 1.54645,6.65901 6.89559,12.7052 0.82419,19.73018 -9.88332,13.39421 -17.26415,6.04314 z"
         id="path103"
         transform="rotate(1.3549077,584.9922,-847.53026)"
         sodipodi:nodetypes="cccccccccccccccccccccccccccccc" />
      <path
         style="fill:#a65746;fill-opacity:1;stroke:#a65746;stroke-width:0.264583;stroke-opacity:1"
         d="m 141.04238,274.97288 -2.8937,-5.31624 1.35334,5.86573 z"
         id="path105"
         transform="rotate(1.3549077,584.9922,-847.53026)"
         sodipodi:nodetypes="cccc" />
      <path
         style="fill:#a65746;fill-opacity:1;stroke:#a65746;stroke-width:0.264583;stroke-opacity:1"
         d="m 156.41862,263.68097 5.29031,-0.7847 -4.63294,-0.11389 z"
         id="path106"
         sodipodi:nodetypes="cccc"
         transform="rotate(1.3549077,584.9922,-847.53026)" />
      <path
         style="fill:#a65746;fill-opacity:1;stroke:#a65746;stroke-width:0.264583;stroke-opacity:1"
         d="m 146.20591,243.59416 4.05569,0.37968 -0.006,-0.77207 z"
         id="path107"
         sodipodi:nodetypes="cccc"
         transform="rotate(1.3549077,584.9922,-847.53026)" />
      <path
         style="fill:#a65746;fill-opacity:1;stroke:#a65746;stroke-width:0.264583;stroke-opacity:1"
         d="m 147.51912,223.23759 4.25227,-1.17718 -4.502,0.17654 z"
         id="path108"
         sodipodi:nodetypes="cccc"
         transform="rotate(1.3549077,584.9922,-847.53026)" />
      <path
         style="fill:#a65746;fill-opacity:1;stroke:#a65746;stroke-width:0.264583;stroke-opacity:1"
         d="m 147.87782,209.44022 -3.22323,-5.68261 3.65048,4.79718 z"
         id="path109"
         sodipodi:nodetypes="cccc"
         transform="rotate(1.3549077,584.9922,-847.53026)" />
      <path
         style="fill:#a65746;fill-opacity:1;stroke:#a65746;stroke-width:0.264583;stroke-opacity:1"
         d="m 163.27981,206.28381 6.15697,2.03933 -5.45835,-2.38199 z"
         id="path110"
         sodipodi:nodetypes="cccc"
         transform="rotate(1.3549077,584.9922,-847.53026)" />
      <path
         style="fill:#a65746;fill-opacity:1;stroke:#a65746;stroke-width:0.264583;stroke-opacity:1"
         d="m 162.27815,185.44688 -7.05765,-2.4653 6.9205,1.34067 z"
         id="path111"
         sodipodi:nodetypes="cccc"
         transform="rotate(1.3549077,584.9922,-847.53026)" />
      <path
         style="fill:#a65746;fill-opacity:1;stroke:#a65746;stroke-width:0.264583;stroke-opacity:1"
         d="m 176.49307,147.32852 -7.49025,-0.3446 7.65066,-0.77209 z"
         id="path113"
         sodipodi:nodetypes="cccc"
         transform="rotate(1.3549077,584.9922,-847.53026)" />
      <path
         style="display:inline;fill:#a65746;fill-opacity:1;stroke:#a65746;stroke-width:0.264583;stroke-opacity:1"
         d="m 178.67122,163.3609 7.69663,-0.18347 -6.84507,-0.8572 z"
         id="path112"
         sodipodi:nodetypes="cccc"
         transform="rotate(1.3549077,584.9922,-847.53026)" />
    </g>
  </g>
</svg>
