<?xml version="1.0" encoding="UTF-8" standalone="no"?>
<!-- Created with Inkscape (http://www.inkscape.org/) -->

<svg
   width="210mm"
   height="297mm"
   viewBox="0 0 210 297"
   version="1.1"
   id="svg1"
   inkscape:version="1.3.2 (091e20e, 2023-11-25, custom)"
   sodipodi:docname="AnimatedThornbushDie2.svg"
   xmlns:inkscape="http://www.inkscape.org/namespaces/inkscape"
   xmlns:sodipodi="http://sodipodi.sourceforge.net/DTD/sodipodi-0.dtd"
   xmlns="http://www.w3.org/2000/svg"
   xmlns:svg="http://www.w3.org/2000/svg">
  <sodipodi:namedview
     id="namedview1"
     pagecolor="#ffffff"
     bordercolor="#000000"
     borderopacity="0.25"
     inkscape:showpageshadow="2"
     inkscape:pageopacity="0.0"
     inkscape:pagecheckerboard="0"
     inkscape:deskcolor="#d1d1d1"
     inkscape:document-units="mm"
     inkscape:zoom="0.35355339"
     inkscape:cx="336.58283"
     inkscape:cy="943.28045"
     inkscape:window-width="1920"
     inkscape:window-height="1009"
     inkscape:window-x="2552"
     inkscape:window-y="-3"
     inkscape:window-maximized="1"
     inkscape:current-layer="layer1" />
  <defs
     id="defs1" />
  <g
     inkscape:label="Ebene 1"
     inkscape:groupmode="layer"
     id="layer1">
    <g
       id="g28"
       inkscape:label="Arm3"
       style="display:inline"
       transform="rotate(-1.3549077,584.99181,-847.53053)">
      <path
         style="fill:#71291c;fill-opacity:1;stroke:#000000;stroke-width:0.264583"
         d="m 90.501277,270.31052 6.74554,-12.31066 14.116493,1.32149 13.65236,-7.5018 0.65469,-5.92289 -7.94837,-1.38062 -15.10987,-5.04557 -17.628601,1.4428 -16.833082,-4.97006 -12.570664,-8.71206 -32.369319,2.80939 -17.9278492,7.53364 16.5648432,-11.57633 33.711477,-4.83769 16.331885,10.6786 12.35918,3.45989 17.03802,-1.47786 17.07579,5.87347 11.06617,2.62719 -0.18299,12.85848 -14.51957,8.87438 -14.958779,-0.37939 -3.043789,6.6682"
         id="path18"
         sodipodi:nodetypes="ccccccccccccccccccccccc" />
      <path
         style="fill:#71291c;fill-opacity:1;stroke:#000000;stroke-width:0.264583"
         d="m 96.252898,261.3284 0.993919,-3.32854 2.715933,0.23676 -1.629061,-7.50152 z"
         id="path19"
         sodipodi:nodetypes="ccccc" />
      <path
         style="fill:#71291c;fill-opacity:1;stroke:#000000;stroke-width:0.264583"
         d="m 112.31163,264.00065 2.41578,0.0537 3.05106,-1.84711 -0.50681,8.71258 z"
         id="path20"
         sodipodi:nodetypes="ccccc" />
      <path
         style="fill:#71291c;fill-opacity:1;stroke:#000000;stroke-width:0.264583"
         d="m 123.49788,252.66926 1.55023,-0.8834 0.30126,-2.85027 -4.61246,-1.23634 z"
         id="path21"
         sodipodi:nodetypes="ccccc" />
      <path
         style="fill:#71291c;fill-opacity:1;stroke:#000000;stroke-width:0.264583"
         d="m 129.39231,245.33659 0.0623,-3.05952 -3.46584,-0.76668 9.80635,-1.95479 z"
         id="path22"
         sodipodi:nodetypes="ccccc" />
      <path
         style="fill:#71291c;fill-opacity:1;stroke:#000000;stroke-width:0.264583"
         d="m 120.71148,244.96688 -3.06436,-0.44382 -3.04435,-1.13412 1.61754,9.46245 z"
         id="path23"
         sodipodi:nodetypes="ccccc" />
      <path
         style="fill:#71291c;fill-opacity:1;stroke:#000000;stroke-width:0.264583"
         d="m 104.90569,235.02826 -3.62982,-1.25263 -4.033646,0.30879 5.028726,-9.58424 z"
         id="path24"
         sodipodi:nodetypes="ccccc" />
      <path
         style="fill:#71291c;fill-opacity:1;stroke:#000000;stroke-width:0.264583"
         d="m 88.681045,240.59303 -3.780876,0.33085 -3.775157,-1.17748 4.08076,10.85541 z"
         id="path25"
         sodipodi:nodetypes="ccccc" />
      <path
         style="fill:#71291c;fill-opacity:1;stroke:#000000;stroke-width:0.264583"
         d="m 58.509443,229.25413 -3.001245,-2.0876 -3.611526,0.36914 3.519369,6.79191 z"
         id="path26"
         sodipodi:nodetypes="ccccc" />
      <path
         style="fill:#71291c;fill-opacity:1;stroke:#000000;stroke-width:0.264583"
         d="m 74.869128,232.66418 -2.761794,-0.73456 -2.94355,-1.93872 10.649727,-6.98076 z"
         id="path27"
         sodipodi:nodetypes="ccccc" />
      <path
         style="fill:#71291c;fill-opacity:1;stroke:#000000;stroke-width:0.264583"
         d="m 19.776551,227.36057 2.10305,-1.44068 2.651862,-0.288 -5.727904,-5.84384 z"
         id="path28"
         sodipodi:nodetypes="ccccc" />
      <path
         style="fill:#71291c;fill-opacity:1;stroke:#000000;stroke-width:0.264583"
         d="m 91.465487,234.60912 5.850223,-10.57344 -9.164044,-9.32042 -10.976024,-5.03491 0.496405,-1.78549 11.205818,-4.50898 10.838215,-1.93084 10.26883,-9.16039 6.99545,-11.71794 -8.96721,9.39679 -10.21939,7.8517 -10.083331,1.77214 -11.40801,4.62402 -2.39994,7.61319 11.804334,6.02483 6.481434,7.8388 -7.827287,9.55227"
         id="path29"
         sodipodi:nodetypes="ccccccccccccccccc" />
      <path
         style="fill:#71291c;fill-opacity:1;stroke:#000000;stroke-width:0.264583"
         d="m 95.321942,222.0819 8.155368,-2.61519 -7.775687,7.50225 1.60044,-2.91594 z"
         id="path30"
         sodipodi:nodetypes="ccccc" />
      <path
         style="fill:#71291c;fill-opacity:1;stroke:#000000;stroke-width:0.264583"
         d="m 75.774449,212.72145 -1.974384,-0.91545 1.610954,-4.87323 -6.069592,10.15202 z"
         id="path31"
         sodipodi:nodetypes="ccccc" />
      <path
         style="fill:#71291c;fill-opacity:1;stroke:#000000;stroke-width:0.264583"
         d="m 86.907306,204.13053 2.019058,-0.78962 3.462676,-0.59467 -0.6855,6.99493 z"
         id="path32"
         sodipodi:nodetypes="ccccc" />
      <path
         style="fill:#71291c;fill-opacity:1;stroke:#000000;stroke-width:0.264583"
         d="m 95.94753,198.09367 c 0.0635,0.0686 1.8645,-0.29362 1.8645,-0.29362 l 3.15381,-2.44583 -7.07615,-3.67626 z"
         id="path33"
         sodipodi:nodetypes="ccccc" />
      <path
         style="fill:#5f190e;fill-opacity:1;stroke:#5f190e;stroke-width:0.264583;stroke-opacity:1"
         d="m 120.81676,281.44583 4.52826,-8.07025 14.90338,-0.11193 14.12215,-8.89996 -0.24032,-10.59534 -10.1751,-1.84027 -16.94231,-5.37659 -16.8897,1.84966 -13.313824,-3.22763 -16.264779,-10.17724 -32.445818,5.08632 -15.885753,10.27351 15.262925,-11.08962 33.431692,-5.6093 16.494547,10.24048 12.57653,3.20777 16.99461,-1.88348 17.16086,5.45314 10.93814,2.23576 0.15793,12.57281 -14.14914,9.12602 -15.14488,-0.0348 -2.97981,6.88124 z"
         id="path85"
         sodipodi:nodetypes="cccccccccccccccccccccccc"
         transform="rotate(1.3549077,584.9922,-847.53026)" />
      <path
         style="fill:#5f190e;fill-opacity:1;stroke:#5f190e;stroke-width:0.264583;stroke-opacity:1"
         d="m 89.194611,234.68 6.858259,-9.92431 -8.80507,-9.14306 -11.026483,-5.1122 1.184565,-3.60318 10.944796,-4.61795 10.727782,-2.02438 10.11484,-8.89622 7.03944,-9.82216 -6.4485,10.59023 -10.18514,9.0888 -10.730358,1.87702 -11.317909,4.56871 -0.571699,2.23076 11.019952,5.0273 8.97019,9.17191 -5.755256,10.40547 z"
         id="path86"
         sodipodi:nodetypes="cccccccccccccccccc" />
      <path
         style="fill:#5f190e;fill-opacity:1;stroke:#5f190e;stroke-width:0.264583;stroke-opacity:1"
         d="m 99.185825,257.89636 -0.838232,-6.49671 1.285677,6.54347 z"
         id="path87"
         sodipodi:nodetypes="cccc" />
      <path
         style="fill:#5f190e;fill-opacity:1;stroke:#5f190e;stroke-width:0.264583;stroke-opacity:1"
         d="m 116.40645,263.341 0.73612,7.2128 0.34035,-7.8538 z"
         id="path88"
         sodipodi:nodetypes="cccc" />
      <path
         style="fill:#5f190e;fill-opacity:1;stroke:#5f190e;stroke-width:0.264583;stroke-opacity:1"
         d="m 124.97346,250.12746 -3.98104,-2.14644 4.10857,1.16396 z"
         id="path89"
         sodipodi:nodetypes="cccc" />
      <path
         style="fill:#5f190e;fill-opacity:1;stroke:#5f190e;stroke-width:0.264583;stroke-opacity:1"
         d="m 128.2582,241.74571 7.18028,-2.0141 -8.18202,1.79115 z"
         id="path90"
         sodipodi:nodetypes="cccc" />
      <path
         style="fill:#5f190e;fill-opacity:1;stroke:#5f190e;stroke-width:0.264583;stroke-opacity:1"
         d="m 118.32007,244.88365 -2.04476,7.56467 4.0239,-7.27979 z"
         id="path91"
         sodipodi:nodetypes="cccc" />
      <path
         style="fill:#5f190e;fill-opacity:1;stroke:#5f190e;stroke-width:0.264583;stroke-opacity:1"
         d="m 99.767003,233.64019 2.484457,-8.80414 -4.560871,8.96428 z"
         id="path92"
         sodipodi:nodetypes="cccc" />
      <path
         style="fill:#5f190e;fill-opacity:1;stroke:#5f190e;stroke-width:0.264583;stroke-opacity:1"
         d="m 71.07207,230.96606 8.338741,-7.53019 -9.777561,6.55757 z"
         id="path93"
         sodipodi:nodetypes="cccc" />
      <path
         style="fill:#5f190e;fill-opacity:1;stroke:#5f190e;stroke-width:0.264583;stroke-opacity:1"
         d="m 85.972417,241.09092 -0.753603,9.06476 3.068228,-9.25606 z"
         id="path94"
         sodipodi:nodetypes="cccc" />
      <path
         style="fill:#5f190e;fill-opacity:1;stroke:#5f190e;stroke-width:0.264583;stroke-opacity:1"
         d="m 56.358072,228.07161 -0.948839,5.95962 2.745489,-4.69241 z"
         id="path95"
         sodipodi:nodetypes="cccc" />
      <path
         style="fill:#5f190e;fill-opacity:1;stroke:#5f190e;stroke-width:0.264583;stroke-opacity:1"
         d="m 21.271966,226.02787 -2.269457,-5.84883 0.964702,6.73993 z"
         id="path96"
         sodipodi:nodetypes="cccc" />
      <path
         style="fill:#5f190e;fill-opacity:1;stroke:#5f190e;stroke-width:0.264583;stroke-opacity:1"
         d="m 96.762066,223.14883 6.315704,-3.38487 -7.258997,2.43629 z"
         id="path97"
         sodipodi:nodetypes="cccc" />
      <path
         style="fill:#5f190e;fill-opacity:1;stroke:#5f190e;stroke-width:0.264583;stroke-opacity:1"
         d="m 74.030475,210.26423 -4.174722,6.17434 4.693633,-7.60472 z"
         id="path98"
         sodipodi:nodetypes="cccc" />
      <path
         style="fill:#5f190e;fill-opacity:1;stroke:#5f190e;stroke-width:0.264583;stroke-opacity:1"
         d="m 90.612076,203.31903 0.970587,6.08014 0.516167,-6.33899 z"
         id="path99"
         sodipodi:nodetypes="cccc" />
      <path
         style="fill:#5f190e;fill-opacity:1;stroke:#5f190e;stroke-width:0.264583;stroke-opacity:1"
         d="m 99.30348,196.32567 -5.16814,-4.32715 6.3514,3.40583 z"
         id="path100"
         sodipodi:nodetypes="cccc" />
      <path
         style="fill:#84392a;fill-opacity:1;stroke:#84392a;stroke-width:0.264583;stroke-opacity:1"
         d="m 123.50452,268.97373 0.89483,-6.21878 -0.57569,6.20754 z"
         id="path134"
         transform="rotate(1.3549077,584.9922,-847.53026)"
         sodipodi:nodetypes="cccc" />
      <path
         style="fill:#84392a;fill-opacity:1;stroke:#84392a;stroke-width:0.264583;stroke-opacity:1"
         d="m 112.82628,264.27515 4.26701,5.93728 -2.86387,-5.91402 z"
         id="path135"
         sodipodi:nodetypes="cccc" />
      <path
         style="fill:#84392a;fill-opacity:1;stroke:#84392a;stroke-width:0.264583;stroke-opacity:1"
         d="m 123.59865,252.30103 -2.29299,-4.1381 3.08608,3.69202 z"
         id="path136"
         sodipodi:nodetypes="cccc" />
      <path
         style="fill:#84392a;fill-opacity:1;stroke:#84392a;stroke-width:0.264583;stroke-opacity:1"
         d="m 129.68813,244.70799 5.42044,-4.88241 -5.42716,3.62941 z"
         id="path137"
         sodipodi:nodetypes="cccc" />
      <path
         style="fill:#84392a;fill-opacity:1;stroke:#84392a;stroke-width:0.264583;stroke-opacity:1"
         d="m 96.687516,225.69573 6.112644,-5.76212 -5.440786,4.58144 z"
         id="path138"
         sodipodi:nodetypes="cccc" />
      <path
         style="fill:#84392a;fill-opacity:1;stroke:#84392a;stroke-width:0.264583;stroke-opacity:1"
         d="m 69.754692,216.48276 c 0.07599,-0.0545 5.484157,-3.72234 5.484157,-3.72234 l -1.085174,-0.51577 z"
         id="path139"
         sodipodi:nodetypes="cccc" />
      <path
         style="fill:#84392a;fill-opacity:1;stroke:#84392a;stroke-width:0.264583;stroke-opacity:1"
         d="m 87.337016,204.22589 4.185832,4.89656 -3.046221,-5.33023 z"
         id="path140"
         sodipodi:nodetypes="cccc" />
      <path
         style="fill:#84392a;fill-opacity:1;stroke:#84392a;stroke-width:0.264583;stroke-opacity:1"
         d="m 94.33904,192.18567 1.8009,5.62562 1.2602,-0.20368 z"
         id="path141"
         sodipodi:nodetypes="cccc" />
      <path
         style="fill:#84392a;fill-opacity:1;stroke:#84392a;stroke-width:0.264583;stroke-opacity:1"
         d="m 92.025672,270.20433 6.145725,-10.86155 13.605613,1.09412 13.97557,-7.79093 0.94019,-7.58252 -8.87855,-1.53359 -15.0398,-5.29065 -17.855989,1.31776 -16.101922,-4.75977 -12.901252,-8.76163 -33.005388,2.92921 -15.6265888,7.48139 15.8741228,-6.67819 32.428073,-2.875 12.723018,8.82356 16.694415,4.93343 17.628761,-1.43866 15.14297,5.04726 8.14418,1.39644 -0.66591,6.33374 -13.84018,7.60449 -13.967325,-1.2986 -6.709729,11.85307 z"
         id="path142"
         sodipodi:nodetypes="cccccccccccccccccccccccc" />
      <path
         style="fill:#84392a;fill-opacity:1;stroke:#84392a;stroke-width:0.264583;stroke-opacity:1"
         d="m 85.924331,234.98367 7.397239,-9.74935 -6.823441,-8.06421 -11.917026,-5.92445 2.268205,-6.26171 11.333429,-4.5574 10.012433,-1.74498 10.31184,-8.23434 7.11918,-8.06976 -7.42356,7.78931 -10.30256,7.91384 -10.114019,1.76525 -11.353225,4.60612 -2.334417,7.18102 11.76687,6.01557 6.679021,8.04022 -7.686505,9.37459 z"
         id="path143"
         sodipodi:nodetypes="cccccccccccccccccc" />
      <path
         style="fill:#84392a;fill-opacity:1;stroke:#84392a;stroke-width:0.264583;stroke-opacity:1"
         d="m 116.24736,244.29427 0.10843,7.78556 -1.40894,-8.26884 z"
         id="path144"
         sodipodi:nodetypes="cccc" />
      <path
         style="fill:#84392a;fill-opacity:1;stroke:#84392a;stroke-width:0.264583;stroke-opacity:1"
         d="m 104.5381,234.62421 -2.37176,-9.44452 0.6216,8.85217 z"
         id="path145"
         sodipodi:nodetypes="cccc" />
      <path
         style="fill:#84392a;fill-opacity:1;stroke:#84392a;stroke-width:0.264583;stroke-opacity:1"
         d="m 83.208002,240.67544 2.020696,9.22617 -3.658971,-9.7336 z"
         id="path146"
         sodipodi:nodetypes="cccc" />
      <path
         style="fill:#84392a;fill-opacity:1;stroke:#84392a;stroke-width:0.264583;stroke-opacity:1"
         d="m 74.735254,232.3545 4.461926,-8.70571 -5.726219,8.38169 z"
         id="path147"
         sodipodi:nodetypes="cccc" />
      <path
         style="fill:#84392a;fill-opacity:1;stroke:#84392a;stroke-width:0.264583;stroke-opacity:1"
         d="m 52.300486,227.75501 3.112919,5.98923 -1.638722,-6.14595 z"
         id="path148"
         sodipodi:nodetypes="cccc" />
      <path
         style="fill:#84392a;fill-opacity:1;stroke:#84392a;stroke-width:0.264583;stroke-opacity:1"
         d="m 23.970859,225.42762 -4.82256,-4.90976 3.753572,5.02582 z"
         id="path149"
         sodipodi:nodetypes="cccc" />
    </g>
    <g
       id="g10"
       inkscape:label="Arm1"
       style="display:inline"
       transform="rotate(-1.3549077,584.99181,-847.53053)">
      <path
         style="display:inline;fill:#8f4333;fill-opacity:1;stroke:#000000;stroke-width:0.264583;stroke-opacity:1"
         d="m 88.085672,270.19829 -0.54354,-2.62417 1.736157,-7.91908 2.629795,-6.03794 3.145052,-3.16121 14.338014,-3.8671 2.55469,-2.3132 2.88742,-4.59959 8.44219,-17.09947 4.4546,-4.13802 5.24628,-0.75413 14.25221,3.94196 4.4439,-0.0537 2.25143,-5.04236 1.6235,-2.332 6.96105,-0.50457 16.05016,3.61993 7.19183,-1.28817 10.80911,-10.10087 7.38918,0.97353 9.32042,4.97199 11.8136,1.00722 12.15361,-5.70259 -11.29491,2.20864 -7.72586,-0.6574 -12.84071,-6.42154 -8.2599,-2.60293 -12.1643,9.78691 -7.63459,1.92415 -14.1878,-3.58236 -8.25182,0.55019 -5.40456,5.05045 -2.34269,2.4608 -5.99231,-1.33902 -8.06668,-1.52416 -6.64709,-0.85061 -5.30259,3.54766 -4.85175,6.0648 -5.13885,9.64193 -4.67729,8.07475 -7.146194,2.57894 -6.196229,1.66652 -6.612149,4.52448 -2.436571,7.11672 -3.874929,7.37434 0.924589,7.17197"
         id="path1"
         sodipodi:nodetypes="cccccccccccccccccccccccccccccccccccccccccccccc" />
      <path
         style="fill:#8f4333;fill-opacity:1;stroke:#000000;stroke-width:0.264583"
         d="m 87.533611,267.58525 9.372124,-2.05881 -8.448109,-2.13372 z"
         id="path2"
         sodipodi:nodetypes="cccc" />
      <path
         style="fill:#8f4333;fill-opacity:1;stroke:#000000;stroke-width:0.264583"
         d="m 87.300645,247.69575 c 0.06681,-0.096 3.778285,-2.54149 3.778285,-2.54149 l -7.957831,-6.71408 z"
         id="path3"
         sodipodi:nodetypes="cccc" />
      <path
         style="fill:#8f4333;fill-opacity:1;stroke:#000000;stroke-width:0.264583"
         d="m 109.34363,246.56094 2.6615,-2.31797 1.68781,-2.71378 4.77291,8.5415 z"
         id="path4"
         sodipodi:nodetypes="ccccc" />
      <path
         style="fill:#8f4333;fill-opacity:1;stroke:#000000;stroke-width:0.264583"
         d="m 124.00776,213.7614 2.46208,-1.64079 2.57083,0.3592 -1.83739,-8.94076 z"
         id="path5"
         sodipodi:nodetypes="ccccc" />
      <path
         style="fill:#8f4333;fill-opacity:1;stroke:#000000;stroke-width:0.264583"
         d="m 148.57812,221.63776 3.13815,-0.0812 1.50514,-3.37256 3.38743,9.5882 z"
         id="path6"
         sodipodi:nodetypes="ccccc" />
      <path
         style="fill:#8f4333;fill-opacity:1;stroke:#000000;stroke-width:0.264583"
         d="m 152.82988,210.23831 1.98971,-1.83475 3.43818,-0.31343 -6.34293,-8.77567 z"
         id="path7"
         sodipodi:nodetypes="ccccc" />
      <path
         style="fill:#8f4333;fill-opacity:1;stroke:#000000;stroke-width:0.264583"
         d="m 178.55317,217.28984 7.22715,-1.29449 -1.85405,12.15903 z"
         id="path8"
         sodipodi:nodetypes="cccc" />
      <path
         style="fill:#8f4333;fill-opacity:1;stroke:#000000;stroke-width:0.264583"
         d="m 194.98313,201.34568 2.1714,-1.67187 3.19151,0.97265 -3.71897,-8.0294 z"
         id="path9"
         sodipodi:nodetypes="ccccc" />
      <path
         style="fill:#8f4333;fill-opacity:1;stroke:#000000;stroke-width:0.264583"
         d="m 213.20122,211.89027 6.76243,0.51911 -4.77284,9.55709 z"
         id="path10"
         sodipodi:nodetypes="cccc" />
      <path
         style="fill:#8f4333;fill-opacity:1;stroke:#000000;stroke-width:0.264583"
         d="m 111.43622,230.79317 -18.033448,3.9005 -10.47095,-7.42531 -18.564291,-0.37216 -4.000886,-3.10637 2.888274,-10.69204 5.877072,-1.88215 7.283108,-6.71583 3.810809,-11.60719 4.12512,-5.41862 12.526893,-3.58294 12.946269,0.99969 11.51141,8.27255 -11.50212,-5.41678 -10.946024,-0.25853 -12.148418,3.12821 -3.927973,5.73664 -2.1537,8.59892 -8.879776,9.46652 -6.793036,2.89016 -0.345059,4.05111 4.504484,0.52281 13.26602,0.37908 10.6848,6.86986 22.248032,-5.88745"
         id="path34"
         sodipodi:nodetypes="ccccccccccccccccccccccccc" />
      <path
         style="fill:#8f4333;fill-opacity:1;stroke:#000000;stroke-width:0.264583"
         d="m 96.721401,233.97892 -3.341899,0.70133 -3.362288,-2.2781 4.293267,10.74126 z"
         id="path35"
         sodipodi:nodetypes="ccccc" />
      <path
         style="fill:#8f4333;fill-opacity:1;stroke:#000000;stroke-width:0.264583"
         d="m 84.641649,223.80276 -2.214288,-1.52566 -3.186082,-0.13457 5.180758,-8.42901 z"
         id="path36"
         sodipodi:nodetypes="ccccc" />
      <path
         style="fill:#8f4333;fill-opacity:1;stroke:#000000;stroke-width:0.264583"
         d="m 64.414938,226.97816 -4.076499,-3.23312 -2.552126,7.76484 z"
         id="path37"
         sodipodi:nodetypes="cccc" />
      <path
         style="fill:#8f4333;fill-opacity:1;stroke:#000000;stroke-width:0.264583"
         d="m 70.238349,215.04225 1.603635,-0.60886 2.270046,-2.50774 2.419743,8.65297 z"
         id="path38"
         sodipodi:nodetypes="ccccc" />
      <path
         style="fill:#8f4333;fill-opacity:1;stroke:#000000;stroke-width:0.264583"
         d="m 79.473256,195.14921 0.653438,-2.27281 2.144935,-2.69152 -11.471771,0.26268 z"
         id="path39"
         sodipodi:nodetypes="ccccc" />
      <path
         style="fill:#8f4333;fill-opacity:1;stroke:#000000;stroke-width:0.264583"
         d="m 97.005585,187.99733 2.017696,-0.51141 3.586099,0.0728 -0.69413,8.07643 z"
         id="path40"
         sodipodi:nodetypes="ccccc" />
      <path
         style="fill:#782f1f;fill-opacity:1;stroke:#782f1f;stroke-width:0.264583;stroke-opacity:1"
         d="m 112.20161,281.69205 -1.69221,-0.051 -0.61879,-3.47102 0.76868,-2.08645 0.90468,-4.32835 1.47709,-3.75888 2.11651,-3.94062 3.21804,-3.23075 8.92197,-2.33723 5.39098,-1.60398 2.73361,-2.3712 2.41534,-3.96053 3.06399,-6.52947 2.81667,-5.84679 2.36383,-4.6233 4.90457,-4.5072 1.50432,-0.60544 3.99501,-0.58116 9.28594,2.13347 6.24278,1.83854 2.54754,-0.2211 2.11798,-3.36969 2.01109,-3.21615 1.06361,-0.62731 6.49737,-0.49178 16.31684,3.49488 6.48763,-1.29643 10.52049,-9.545 1.71131,-0.57531 7.11446,1.07766 9.79567,5.16688 11.09588,1.17091 11.21677,-4.32371 -11.11218,5.18433 -11.72661,-1.02026 -9.29362,-4.9446 -7.56408,-1.00526 -10.78558,10.10894 -7.19148,1.28912 -15.97546,-3.61686 -7.11341,0.51567 -1.71796,2.4472 -2.16389,4.90915 -4.25177,0.0629 -14.31144,-3.94851 -5.33769,0.77372 -4.5448,4.21308 -8.469,17.11988 -2.84874,4.58907 -2.58856,2.26164 -14.23584,3.834 -3.23188,3.2506 -2.68095,6.10808 -1.71682,7.86037 z"
         id="path51"
         sodipodi:nodetypes="ccccccccccccccccccccccccccccccccccccccccccccccccccccccc"
         transform="translate(-24.341667,-11.641667)" />
      <path
         style="fill:#782f1f;fill-opacity:1;stroke:#782f1f;stroke-width:0.264583;stroke-opacity:1"
         d="m 138.37709,237.12481 -20.86258,5.38373 -11.7968,-7.24332 -17.971302,-0.8732 1.181004,-6.78673 6.629259,-2.84367 8.468289,-8.79873 2.11673,-8.65855 4.12102,-5.96861 12.58945,-3.42687 10.9007,0.45172 10.651,5.64171 -10.15886,-4.86786 -11.0255,-0.25717 -12.29659,3.13785 -4.00769,5.86961 -2.16413,8.60826 -8.787468,9.34808 -6.875611,2.93071 -0.384641,4.46962 4.781382,0.54615 13.209128,0.38188 10.68632,6.8924 21.96461,-5.81275 z"
         id="path53"
         sodipodi:nodetypes="ccccccccccccccccccccccccc"
         transform="translate(-24.341667,-11.641667)" />
      <path
         style="fill:#782f1f;stroke:#782f1f;stroke-width:0.264583"
         d="m 114.87788,276.11537 7.91642,0.6513 -7.72657,-1.62684 z"
         id="path70"
         sodipodi:nodetypes="cccc"
         transform="rotate(1.3549077,584.9922,-847.53026)" />
      <path
         style="fill:#782f1f;stroke:#782f1f;stroke-width:0.264583"
         d="m 115.74219,257.12743 -6.41026,-6.62375 7.28622,6.00952 z"
         id="path71"
         sodipodi:nodetypes="cccc"
         transform="rotate(1.3549077,584.9922,-847.53026)" />
      <path
         style="fill:#782f1f;stroke:#782f1f;stroke-width:0.264583"
         d="m 138.96607,253.91721 5.23377,6.5921 -4.63292,-7.63336 z"
         id="path72"
         sodipodi:nodetypes="cccc"
         transform="rotate(1.3549077,584.9922,-847.53026)" />
      <path
         style="fill:#782f1f;stroke:#782f1f;stroke-width:0.264583"
         d="m 152.72146,222.53869 -0.5638,-7.90675 1.7441,8.04114 z"
         id="path73"
         sodipodi:nodetypes="cccc"
         transform="rotate(1.3549077,584.9922,-847.53026)" />
      <path
         style="fill:#782f1f;stroke:#782f1f;stroke-width:0.264583"
         d="m 177.97051,230.09266 3.89791,7.13045 -3.34947,-8.42986 z"
         id="path74"
         sodipodi:nodetypes="cccc"
         transform="rotate(1.3549077,584.9922,-847.53026)" />
      <path
         style="fill:#782f1f;stroke:#782f1f;stroke-width:0.264583"
         d="m 181.2979,217.85262 -4.29885,-8.05026 5.84349,7.88646 z"
         id="path75"
         sodipodi:nodetypes="cccc"
         transform="rotate(1.3549077,584.9922,-847.53026)" />
      <path
         style="fill:#782f1f;stroke:#782f1f;stroke-width:0.264583"
         d="m 208.51566,225.92561 0.85203,10.92486 1.35721,-11.37647 z"
         id="path76"
         sodipodi:nodetypes="cccc"
         transform="rotate(1.3549077,584.9922,-847.53026)" />
      <path
         style="fill:#782f1f;stroke:#782f1f;stroke-width:0.264583"
         d="m 223.52406,208.70198 -2.11409,-6.68793 3.34286,7.04328 z"
         id="path77"
         sodipodi:nodetypes="cccc"
         transform="rotate(1.3549077,584.9922,-847.53026)" />
      <path
         style="fill:#782f1f;stroke:#782f1f;stroke-width:0.264583"
         d="m 242.6313,220.87838 -2.01827,9.09266 4.11835,-8.99068 z"
         id="path78"
         sodipodi:nodetypes="cccc"
         transform="rotate(1.3549077,584.9922,-847.53026)" />
      <path
         style="fill:#782f1f;stroke:#782f1f;stroke-width:0.264583"
         d="m 117.5473,245.31157 2.71721,8.66541 -4.00287,-9.51842 z"
         id="path79"
         sodipodi:nodetypes="cccc"
         transform="rotate(1.3549077,584.9922,-847.53026)" />
      <path
         style="fill:#782f1f;stroke:#782f1f;stroke-width:0.264583"
         d="m 106.30416,233.56757 3.21746,-7.80483 -4.41157,7.80756 z"
         id="path80"
         sodipodi:nodetypes="cccc"
         transform="rotate(1.3549077,584.9922,-847.53026)" />
      <path
         style="fill:#782f1f;stroke:#782f1f;stroke-width:0.264583"
         d="m 87.01869,237.09348 -3.277075,6.2784 2.223063,-7.10646 z"
         id="path81"
         sodipodi:nodetypes="cccc"
         transform="rotate(1.3549077,584.9922,-847.53026)" />
      <path
         style="fill:#782f1f;stroke:#782f1f;stroke-width:0.264583"
         d="m 98.511688,225.02902 3.180932,6.92922 -2.501664,-7.74674 z"
         id="path82"
         sodipodi:nodetypes="cccc"
         transform="rotate(1.3549077,584.9922,-847.53026)" />
      <path
         style="fill:#782f1f;stroke:#782f1f;stroke-width:0.264583"
         d="m 105.68625,203.0197 -9.712448,-0.5679 10.453698,-0.37896 z"
         id="path83"
         sodipodi:nodetypes="cccc"
         transform="rotate(1.3549077,584.9922,-847.53026)" />
      <path
         style="fill:#782f1f;stroke:#782f1f;stroke-width:0.264583"
         d="m 125.6377,198.93618 0.96224,7.4447 0.33425,-7.45045 z"
         id="path84"
         sodipodi:nodetypes="cccc"
         transform="rotate(1.3549077,584.9922,-847.53026)" />
      <path
         style="display:inline;fill:#a65746;fill-opacity:1;stroke:#a65746;stroke-width:0.264583;stroke-opacity:1"
         d="m 83.17719,269.88372 -1.307573,-5.51716 4.336291,-7.98379 2.288162,-6.72967 6.27472,-4.21765 13.13075,-3.92361 5.73772,-9.74021 4.34054,-8.82113 4.57819,-6.0969 4.80342,-3.23688 7.50546,1.03019 12.01413,2.59122 1.09511,0.048 8.06674,-7.77482 7.29704,0.008 13.74993,3.42694 8.45917,-2.21316 12.09435,-9.75372 9.323,3.25884 10.82248,5.48652 8.08461,0.55565 9.14341,-2.40063 -9.0502,1.77029 -7.82203,-0.66141 -12.87674,-6.43851 -8.09238,-2.553 -12.11771,9.73804 -7.74918,1.94931 -14.198,-3.58497 -8.13044,0.55499 -5.31475,4.95499 -2.44677,2.57057 -6.0814,-1.35649 -8.12547,-1.53874 -6.52383,-0.83484 -5.19099,3.46754 -4.79938,6.01321 -5.18421,9.72101 -4.67559,8.07241 -7.228533,2.61724 -6.188068,1.65606 -6.49318,4.44551 -2.419721,7.04725 -3.90751,7.4455 1.021348,6.89726 z"
         id="path101"
         sodipodi:nodetypes="cccccccccccccccccccccccccccccccccccccccccccccc" />
      <path
         style="fill:#a65746;fill-opacity:1;stroke:#a65746;stroke-width:0.264583;stroke-opacity:1"
         d="m 110.18635,229.42494 -16.372372,3.58682 -10.210519,-6.72477 -18.741509,-0.49999 -3.184052,-2.99683 1.979748,-8.41889 5.924517,-2.15789 7.66732,-6.96047 3.6651,-11.55191 4.079796,-5.42779 12.294673,-3.42686 12.249938,0.83822 9.3902,6.07176 -9.19254,-6.60613 -12.825061,-0.98969 -12.401951,3.54236 -4.04969,5.31724 -3.811668,11.62973 -7.376811,6.80132 -5.797066,1.86972 -2.775098,10.34707 3.759609,2.96333 18.561988,0.37584 10.427053,7.38744 17.972335,-3.87218 0.78174,-1.55262 z"
         id="path102"
         sodipodi:nodetypes="ccccccccccccccccccccccccccc" />
      <path
         style="fill:#a65746;stroke:#a65746;stroke-width:0.264583"
         d="m 114.36718,278.6819 7.96922,-1.95242 -7.77769,1.09847 z"
         id="path114"
         sodipodi:nodetypes="cccc"
         transform="rotate(1.3549077,584.9922,-847.53026)" />
      <path
         style="fill:#a65746;stroke:#a65746;stroke-width:0.264583"
         d="m 87.415818,247.29536 -3.627138,-8.02693 4.462349,7.45001 z"
         id="path115"
         sodipodi:nodetypes="cccc" />
      <path
         style="fill:#a65746;stroke:#a65746;stroke-width:0.264583"
         d="m 135.83427,257.393 8.19295,2.93902 -6.97815,-4.02252 z"
         id="path116"
         transform="rotate(1.3549077,584.9922,-847.53026)"
         sodipodi:nodetypes="cccc" />
      <path
         style="fill:#a65746;stroke:#a65746;stroke-width:0.264583"
         d="m 174.72502,231.8759 6.96773,5.07464 -5.45296,-5.14691 z"
         id="path117"
         sodipodi:nodetypes="cccc"
         transform="rotate(1.3549077,584.9922,-847.53026)" />
      <path
         style="fill:#a65746;stroke:#a65746;stroke-width:0.264583"
         d="m 177.15097,210.08828 2.00987,8.54801 -0.99875,0.98948 z"
         id="path118"
         sodipodi:nodetypes="cccc"
         transform="rotate(1.3549077,584.9922,-847.53026)" />
      <path
         style="fill:#a65746;stroke:#a65746;stroke-width:0.264583"
         d="m 204.22691,226.78683 5.10106,9.71277 -3.462,-10.03401 z"
         id="path119"
         transform="rotate(1.3549077,584.9922,-847.53026)"
         sodipodi:nodetypes="cccc" />
      <path
         style="fill:#a65746;stroke:#a65746;stroke-width:0.264583"
         d="m 195.3573,200.74861 1.39541,-7.36709 -0.41544,6.58219 z"
         id="path120"
         sodipodi:nodetypes="cccc" />
      <path
         style="fill:#a65746;stroke:#a65746;stroke-width:0.264583"
         d="m 238.68871,220.65675 1.99315,8.97289 -0.41424,-8.87677 z"
         id="path121"
         sodipodi:nodetypes="cccc"
         transform="rotate(1.3549077,584.9922,-847.53026)" />
      <path
         style="fill:#a65746;stroke:#a65746;stroke-width:0.264583"
         d="m 96.35849,234.3299 -2.099754,7.96936 0.510687,-7.64775 z"
         id="path122"
         sodipodi:nodetypes="cccc" />
      <path
         style="fill:#a65746;stroke:#a65746;stroke-width:0.264583"
         d="m 109.81573,234.80412 -0.39816,-8.77538 -0.76918,8.04495 z"
         id="path123"
         sodipodi:nodetypes="cccc"
         transform="rotate(1.3549077,584.9922,-847.53026)" />
      <path
         style="fill:#a65746;stroke:#a65746;stroke-width:0.264583"
         d="m 58.321428,230.81042 5.645916,-3.84944 -0.936186,-0.75495 z"
         id="path124"
         sodipodi:nodetypes="cccc" />
      <path
         style="fill:#a65746;stroke:#a65746;stroke-width:0.264583"
         d="m 70.751475,215.14172 5.391226,4.74383 -4.314703,-5.15584 z"
         id="path125"
         sodipodi:nodetypes="cccc" />
      <path
         style="fill:#a65746;stroke:#a65746;stroke-width:0.264583"
         d="m 79.299565,194.76324 -7.583097,-4.12247 7.967867,2.82687 z"
         id="path126"
         sodipodi:nodetypes="cccc" />
      <path
         style="fill:#a65746;stroke:#a65746;stroke-width:0.264583"
         d="m 97.425148,188.16495 4.320342,6.73797 -2.999444,-7.08201 z"
         id="path127"
         sodipodi:nodetypes="cccc" />
    </g>
    <g
       id="g17"
       inkscape:label="Arm2"
       style="display:inline"
       transform="rotate(-1.3549077,584.99181,-847.53053)">
      <path
         style="fill:#8f4333;fill-opacity:1;stroke:#000000;stroke-width:0.264583"
         d="m -47.366787,172.96492 -2.650501,-1.26701 -0.830638,-2.76752 -2.525393,9.52327 z"
         id="path17"
         sodipodi:nodetypes="ccccc" />
      <path
         style="fill:#8f4333;fill-opacity:1;stroke:#000000;stroke-width:0.264583"
         d="M 81.126323,269.88709 79.034753,264.90601 52.489646,251.07522 33.017235,227.54581 -3.0322864,210.79704 -16.92641,182.92497 l -30.890811,-12.93436 -10.191287,-25.27476 7.983741,26.9891 29.86134,13.58281 13.6281209,27.96648 35.8222401,18.31133 16.992274,21.12335 26.480145,15.35262 0.566233,1.72524"
         id="path11"
         sodipodi:nodetypes="ccccccccccccccc" />
      <path
         style="fill:#8f4333;fill-opacity:1;stroke:#000000;stroke-width:0.264583"
         d="m 76.666985,263.72111 7.720772,-6.32259 -3.600931,11.77 -1.764444,-4.29319 z"
         id="path12"
         sodipodi:nodetypes="ccccc" />
      <path
         style="fill:#8f4333;fill-opacity:1;stroke:#000000;stroke-width:0.264583"
         d="m 48.530317,253.99114 -2.288116,-1.25268 -1.87996,-2.45139 -1.41794,9.13021 z"
         id="path13"
         sodipodi:nodetypes="ccccc" />
      <path
         style="fill:#8f4333;fill-opacity:1;stroke:#000000;stroke-width:0.264583"
         d="m 35.275721,230.28975 -2.144423,-2.81682 -3.56542,-1.58822 11.314815,-7.08392 z"
         id="path14"
         sodipodi:nodetypes="ccccc" />
      <path
         style="fill:#8f4333;fill-opacity:1;stroke:#000000;stroke-width:0.264583"
         d="m -3.9869399,214.52604 -2.5789145,-1.33041 -1.5679034,-3.20057 -1.3941144,10.92576 z"
         id="path15"
         sodipodi:nodetypes="ccccc" />
      <path
         style="fill:#8f4333;fill-opacity:1;stroke:#000000;stroke-width:0.264583"
         d="m -19.133201,182.02814 2.217195,0.87108 0.953068,1.973 5.635997,-8.44178 z"
         id="path16"
         sodipodi:nodetypes="ccccc" />
      <path
         style="display:inline;fill:#782f1f;fill-opacity:1;stroke:#782f1f;stroke-width:0.264583;stroke-opacity:1"
         d="M 104.8632,281.21474 103.5876,278.1095 77.346507,264.68514 57.00213,241.62099 21.226192,225.68693 6.504948,197.68257 l -30.719574,-12.27416 -9.167601,-23.1581 9.614504,22.62487 31.1872413,12.19767 14.5630887,27.52739 36.451721,15.91374 20.018071,23.04442 26.880011,13.22662 1.99803,4.56709 -2.35031,0.035 z"
         id="path54"
         sodipodi:nodetypes="ccccccccccccccccc"
         transform="rotate(1.3549077,584.9922,-847.53026)" />
      <path
         style="fill:#782f1f;stroke:#782f1f;stroke-width:0.264583"
         d="m 78.360549,264.26347 5.776743,-6.51776 -6.99733,5.93257 z"
         id="path55"
         sodipodi:nodetypes="cccc" />
      <path
         style="fill:#782f1f;stroke:#782f1f;stroke-width:0.264583"
         d="m 45.240794,251.85403 -2.079626,7.23531 1.370108,-8.17459 z"
         id="path56"
         sodipodi:nodetypes="cccc" />
      <path
         style="fill:#782f1f;stroke:#782f1f;stroke-width:0.264583"
         d="m 32.035942,226.70578 8.474962,-7.52186 -10.414071,6.67567 z"
         id="path57"
         sodipodi:nodetypes="cccc" />
      <path
         style="fill:#782f1f;stroke:#782f1f;stroke-width:0.264583"
         d="m -7.3353966,212.23161 -1.9621024,8.26362 1.3100851,-9.59436 z"
         id="path58"
         sodipodi:nodetypes="cccc" />
      <path
         style="fill:#782f1f;stroke:#782f1f;stroke-width:0.264583"
         d="m -17.725678,182.30086 6.915838,-5.42036 -7.747184,5.08647 z"
         id="path59"
         sodipodi:nodetypes="cccc" />
      <path
         style="fill:#782f1f;stroke:#782f1f;stroke-width:0.264583"
         d="m -50.475563,171.11156 -2.641191,6.9098 2.278126,-8.11372 z"
         id="path60"
         sodipodi:nodetypes="cccc" />
      <path
         style="fill:#a65746;fill-opacity:1;stroke:#a65746;stroke-width:0.264583;stroke-opacity:1"
         d="M 101.8761,281.41343 100.91342,278.97572 73.619791,264.30563 56.261346,243.4542 19.74252,226.33466 5.3838984,198.72847 -24.901364,186.01353 l -7.754252,-21.92622 7.129678,22.14992 30.1413214,12.87051 14.2673486,27.57613 36.24668,17.50777 17.493959,20.72428 26.81791,14.71418 0.668699,1.79219 z"
         id="path104"
         sodipodi:nodetypes="cccccccccccccccc"
         transform="rotate(1.3549077,584.9922,-847.53026)" />
      <path
         style="fill:#a65746;stroke:#a65746;stroke-width:0.264583"
         d="m 80.781693,268.29898 3.167801,-10.32803 -4.075092,8.28726 z"
         id="path128"
         sodipodi:nodetypes="cccc" />
      <path
         style="fill:#a65746;stroke:#a65746;stroke-width:0.264583"
         d="m 48.099175,254.06045 -4.803081,4.66035 3.608435,-5.32922 z"
         id="path129"
         sodipodi:nodetypes="cccc" />
      <path
         style="fill:#a65746;stroke:#a65746;stroke-width:0.264583"
         d="m 35.226965,229.79498 5.07518,-10.41737 -6.096058,9.07982 z"
         id="path130"
         sodipodi:nodetypes="cccc" />
      <path
         style="display:inline;fill:#a65746;stroke:#a65746;stroke-width:0.264583"
         d="m -4.4076069,214.60579 -4.7856863,5.53226 3.6524441,-6.12173 z"
         id="path131"
         sodipodi:nodetypes="cccc" />
      <path
         style="fill:#a65746;stroke:#a65746;stroke-width:0.264583"
         d="m -15.935276,184.32745 4.826606,-7.20306 -5.240549,6.36053 z"
         id="path132"
         sodipodi:nodetypes="cccc" />
      <path
         style="fill:#a65746;stroke:#a65746;stroke-width:0.264583"
         d="m -47.832902,173.03659 -5.164328,4.72122 4.128574,-5.22499 z"
         id="path133"
         sodipodi:nodetypes="cccc" />
    </g>
    <g
       id="g50"
       inkscape:label="Arm4"
       style="display:inline"
       transform="rotate(-1.3549077,584.99181,-847.53053)">
      <path
         style="display:inline;fill:#8f4333;fill-opacity:1;stroke:#000000;stroke-width:0.264583"
         d="m 96.771353,270.27187 16.531347,-4.96409 2.16919,-9.95088 -14.53747,-13.1391 -13.884892,-3.97779 -5.468178,-4.24876 3.103091,-12.50413 12.402766,0.72879 4.304723,-3.96435 7.02284,-11.10138 14.91357,-7.63564 13.09287,-3.59134 11.02264,-10.02772 5.78864,-16.08819 13.76838,-11.12841 -11.19588,13.41162 -5.01935,16.41719 -11.8563,11.76417 -13.68653,3.06445 -12.32121,7.10637 -8.67028,11.76178 -5.405923,4.38182 -12.764061,-0.63149 -1.405074,4.17739 6.078501,4.4225 11.064717,2.60266 18.10876,14.78739 -0.37131,13.0074 -9.75484,5.31974"
         id="path41"
         sodipodi:nodetypes="ccccccccccccccccccccccccccccc" />
      <path
         style="fill:#8f4333;fill-opacity:1;stroke:#000000;stroke-width:0.264583"
         d="m 110.87744,266.01604 2.43223,-0.69326 0.73471,-3.47859 -6.62104,-0.27619 z"
         id="path42"
         sodipodi:nodetypes="ccccc" />
      <path
         style="fill:#8f4333;fill-opacity:1;stroke:#000000;stroke-width:0.264583"
         d="m 119.91623,253.70853 0.0236,-1.7756 -2.27518,-1.83662 6.4722,-1.78345 z"
         id="path43"
         sodipodi:nodetypes="ccccc" />
      <path
         style="fill:#8f4333;fill-opacity:1;stroke:#000000;stroke-width:0.264583"
         d="m 102.40983,243.59465 -1.51058,-1.38822 -2.708762,-0.75648 0.485404,5.29238 z"
         id="path44"
         sodipodi:nodetypes="ccccc" />
      <path
         style="fill:#8f4333;fill-opacity:1;stroke:#000000;stroke-width:0.264583"
         d="m 86.160678,231.18592 -1.590248,-1.16521 1.08933,-2.86842 3.486979,-0.24091 z"
         id="path45"
         sodipodi:nodetypes="ccccc" />
      <path
         style="fill:#8f4333;fill-opacity:1;stroke:#000000;stroke-width:0.264583"
         d="m 84.5986,223.6173 0.09409,-2.14451 2.938706,0.16528 -3.833731,-6.99626 z"
         id="path46"
         sodipodi:nodetypes="ccccc" />
      <path
         style="fill:#8f4333;fill-opacity:1;stroke:#000000;stroke-width:0.264583"
         d="m 96.930714,226.50741 1.8968,0.08 2.407296,-1.95225 1.07338,7.22906 z"
         id="path47"
         sodipodi:nodetypes="ccccc" />
      <path
         style="fill:#8f4333;fill-opacity:1;stroke:#000000;stroke-width:0.264583"
         d="m 107.10981,209.14893 1.33658,-2.0344 2.9334,-1.5083 -8.72203,-3.89515 z"
         id="path48"
         sodipodi:nodetypes="ccccc" />
      <path
         style="fill:#8f4333;fill-opacity:1;stroke:#000000;stroke-width:0.264583"
         d="m 136.54571,200.76529 2.38363,-0.49343 2.78567,-2.78985 1.8825,8.79031 z"
         id="path49"
         sodipodi:nodetypes="ccccc" />
      <path
         style="fill:#8f4333;fill-opacity:1;stroke:#000000;stroke-width:0.264583"
         d="m 145.64342,187.48779 1.79135,-1.63077 1.2192,-3.17043 -9.31308,-0.88638 z"
         id="path50"
         sodipodi:nodetypes="ccccc" />
      <path
         style="fill:#782f1f;fill-opacity:1;stroke:#782f1f;stroke-width:0.264583;stroke-opacity:1"
         d="m 131.60127,281.42985 10.40739,-4.97833 0.79614,-12.03197 -17.35624,-14.37391 -10.26847,-2.67848 -6.9255,-4.98262 1.77565,-5.81169 12.8276,0.70234 5.06143,-4.51345 8.19534,-11.47578 12.84283,-7.39514 13.84579,-3.14422 10.96949,-11.31307 5.41513,-16.06594 11.16322,-12.09186 -10.43693,12.3385 -5.0204,16.39969 -11.75096,11.66419 -13.64363,3.04726 -12.41489,7.15585 -8.65108,11.74014 -5.32678,4.34071 -12.969,-0.62742 -1.53559,4.4086 6.38008,4.69396 11.05302,2.60279 17.99664,14.68325 -0.37407,12.76385 -9.61295,5.19081 -0.0207,0.0992 -3.06656,0.012 z"
         id="path52"
         sodipodi:nodetypes="cccccccccccccccccccccccccccccccc"
         transform="translate(-24.341667,-11.641667)" />
      <path
         style="fill:#782f1f;stroke:#782f1f;stroke-width:0.264583"
         d="m 139.83566,274.23079 -5.76256,-1.52809 6.02347,0.21673 z"
         id="path61"
         sodipodi:nodetypes="cccc"
         transform="rotate(1.3549077,584.9922,-847.53026)" />
      <path
         style="fill:#782f1f;stroke:#782f1f;stroke-width:0.264583"
         d="m 145.07743,261.53222 4.74719,-2.38895 -5.53942,1.80339 z"
         id="path62"
         sodipodi:nodetypes="cccc"
         transform="rotate(1.3549077,584.9922,-847.53026)" />
      <path
         style="fill:#782f1f;stroke:#782f1f;stroke-width:0.264583"
         d="m 124.79662,257.65056 0.94512,-4.31324 -1.35954,-0.35027 z"
         id="path63"
         sodipodi:nodetypes="cccc"
         transform="rotate(1.3549077,584.9922,-847.53026)" />
      <path
         style="fill:#782f1f;stroke:#782f1f;stroke-width:0.264583"
         d="m 111.13178,239.67582 3.28938,-1.16985 -3.00888,0.39009 z"
         id="path64"
         sodipodi:nodetypes="cccc"
         transform="rotate(1.3549077,584.9922,-847.53026)" />
      <path
         style="fill:#782f1f;stroke:#782f1f;stroke-width:0.264583"
         d="m 111.28667,232.79892 -2.1422,-6.15607 3.45586,6.1777 z"
         id="path65"
         sodipodi:nodetypes="cccc"
         transform="rotate(1.3549077,584.9922,-847.53026)" />
      <path
         style="fill:#782f1f;stroke:#782f1f;stroke-width:0.264583"
         d="m 125.52327,237.13205 2.07137,5.11555 -1.05333,-5.97382 z"
         id="path66"
         sodipodi:nodetypes="cccc"
         transform="rotate(1.3549077,584.9922,-847.53026)" />
      <path
         style="fill:#782f1f;stroke:#782f1f;stroke-width:0.264583"
         d="m 134.66366,217.16109 -6.70803,-4.01596 7.87036,3.40456 z"
         id="path67"
         sodipodi:nodetypes="cccc"
         transform="rotate(1.3549077,584.9922,-847.53026)" />
      <path
         style="fill:#782f1f;stroke:#782f1f;stroke-width:0.264583"
         d="m 165.30975,209.36248 3.09251,6.72369 -2.01893,-7.88928 z"
         id="path68"
         sodipodi:nodetypes="cccc"
         transform="rotate(1.3549077,584.9922,-847.53026)" />
      <path
         style="fill:#782f1f;stroke:#782f1f;stroke-width:0.264583"
         d="m 172.31124,194.26949 -8.10437,-2.02829 8.55936,0.71266 z"
         id="path69"
         sodipodi:nodetypes="cccc"
         transform="rotate(1.3549077,584.9922,-847.53026)" />
      <path
         style="fill:#a65746;fill-opacity:1;stroke:#a65746;stroke-width:0.264583;stroke-opacity:1"
         d="m 127.61539,281.27038 13.2509,-5.02421 2.13173,-10.9135 -15.41206,-13.20854 -13.9442,-3.64809 -5.34798,-3.96527 2.41404,-10.42676 12.22466,0.56118 4.66525,-4.15093 7.24529,-11.29881 14.05665,-8.19267 13.08317,-3.67848 10.96693,-10.55971 5.35965,-16.25559 10.96673,-10.49345 -11.64014,9.86057 -5.4028,16.22202 -10.88026,10.37798 -13.04087,3.91523 -14.62705,7.92759 -6.77265,11.28109 -4.32199,4.11845 -12.21806,-0.43045 -2.84929,12.14388 5.45191,4.0394 13.98717,3.65106 14.96494,12.8845 -1.92237,10.2823 -15.58438,5.05179 z"
         id="path103"
         transform="rotate(1.3549077,584.9922,-847.53026)"
         sodipodi:nodetypes="cccccccccccccccccccccccccccccc" />
      <path
         style="fill:#a65746;fill-opacity:1;stroke:#a65746;stroke-width:0.264583;stroke-opacity:1"
         d="m 139.07464,276.09468 -4.73632,-3.30079 3.10679,3.82015 z"
         id="path105"
         transform="rotate(1.3549077,584.9922,-847.53026)"
         sodipodi:nodetypes="cccc" />
      <path
         style="fill:#a65746;fill-opacity:1;stroke:#a65746;stroke-width:0.264583;stroke-opacity:1"
         d="m 146.34164,263.59829 3.24174,-4.31521 -3.24987,3.30386 z"
         id="path106"
         sodipodi:nodetypes="cccc"
         transform="rotate(1.3549077,584.9922,-847.53026)" />
      <path
         style="fill:#a65746;fill-opacity:1;stroke:#a65746;stroke-width:0.264583;stroke-opacity:1"
         d="m 124.89753,257.40564 3.04903,-2.70116 -0.56749,-0.52353 z"
         id="path107"
         sodipodi:nodetypes="cccc"
         transform="rotate(1.3549077,584.9922,-847.53026)" />
      <path
         style="fill:#a65746;fill-opacity:1;stroke:#a65746;stroke-width:0.264583;stroke-opacity:1"
         d="m 111.74075,242.33072 2.43566,-3.67901 -3.28081,3.08795 z"
         id="path108"
         sodipodi:nodetypes="cccc"
         transform="rotate(1.3549077,584.9922,-847.53026)" />
      <path
         style="fill:#a65746;fill-opacity:1;stroke:#a65746;stroke-width:0.264583;stroke-opacity:1"
         d="m 110.06283,232.7367 -0.80745,-5.75096 0.99298,5.75439 z"
         id="path109"
         sodipodi:nodetypes="cccc"
         transform="rotate(1.3549077,584.9922,-847.53026)" />
      <path
         style="fill:#a65746;fill-opacity:1;stroke:#a65746;stroke-width:0.264583;stroke-opacity:1"
         d="m 123.11442,238.02741 4.55846,4.30183 -3.78039,-4.2918 z"
         id="path110"
         sodipodi:nodetypes="cccc"
         transform="rotate(1.3549077,584.9922,-847.53026)" />
      <path
         style="fill:#a65746;fill-opacity:1;stroke:#a65746;stroke-width:0.264583;stroke-opacity:1"
         d="m 132.22851,219.65855 -3.98555,-6.32483 4.57878,5.3596 z"
         id="path111"
         sodipodi:nodetypes="cccc"
         transform="rotate(1.3549077,584.9922,-847.53026)" />
      <path
         style="fill:#a65746;fill-opacity:1;stroke:#a65746;stroke-width:0.264583;stroke-opacity:1"
         d="m 170.23671,197.2292 -5.6868,-4.887 6.50126,4.10635 z"
         id="path113"
         sodipodi:nodetypes="cccc"
         transform="rotate(1.3549077,584.9922,-847.53026)" />
      <path
         style="display:inline;fill:#a65746;fill-opacity:1;stroke:#a65746;stroke-width:0.264583;stroke-opacity:1"
         d="m 162.07278,211.19814 6.17474,4.59829 -4.8628,-4.89316 z"
         id="path112"
         sodipodi:nodetypes="cccc"
         transform="rotate(1.3549077,584.9922,-847.53026)" />
    </g>
  </g>
</svg>
