<?xml version="1.0" encoding="UTF-8" standalone="no"?>
<!-- Created with Inkscape (http://www.inkscape.org/) -->

<svg
   width="210mm"
   height="297mm"
   viewBox="0 0 210 297"
   version="1.1"
   id="svg1"
   inkscape:version="1.3 (0e150ed6c4, 2023-07-21)"
   sodipodi:docname="AnimatedThornBushIdle1.svg"
   xmlns:inkscape="http://www.inkscape.org/namespaces/inkscape"
   xmlns:sodipodi="http://sodipodi.sourceforge.net/DTD/sodipodi-0.dtd"
   xmlns="http://www.w3.org/2000/svg"
   xmlns:svg="http://www.w3.org/2000/svg">
  <sodipodi:namedview
     id="namedview1"
     pagecolor="#ffffff"
     bordercolor="#666666"
     borderopacity="1.0"
     inkscape:showpageshadow="2"
     inkscape:pageopacity="0.0"
     inkscape:pagecheckerboard="0"
     inkscape:deskcolor="#d1d1d1"
     inkscape:document-units="mm"
     inkscape:zoom="0.25858552"
     inkscape:cx="-1063.478"
     inkscape:cy="524.0046"
     inkscape:window-width="1920"
     inkscape:window-height="1017"
     inkscape:window-x="1912"
     inkscape:window-y="-8"
     inkscape:window-maximized="1"
     inkscape:current-layer="layer1" />
  <defs
     id="defs1" />
  <g
     inkscape:label="Layer 1"
     inkscape:groupmode="layer"
     id="layer1">
    <path
       style="fill:#9c575a;stroke:#000000;stroke-width:0.264583px;stroke-linecap:butt;stroke-linejoin:miter;stroke-opacity:1;fill-opacity:1"
       d="m -186.73303,298.26126 17.13851,-9.72035 8.69715,-15.09212 9.20875,-11.51094 4.86018,-8.95296 -13.30153,14.32473 -12.78994,19.6965 -18.4175,11.25514 3.58118,-3.32539 6.90657,-6.90656 4.86017,-8.95295 4.60438,-5.11598 7.41816,-9.97615 2.30219,-8.95295 6.39496,-4.86017 6.90657,-17.65011 2.81378,-16.37112 -5.11597,10.99935 -4.86018,14.32472 -9.72035,13.30153 -3.58118,11.25514 -7.41816,7.67396 -8.69715,14.83633 -10.23195,9.46455 4.09278,-4.34858 4.86017,-8.95295 4.34858,-16.37112 11.51094,-9.20875 1.27899,-14.83632 12.02254,-11.76674 6.13917,-10.99935 4.86018,-20.20809 -6.13917,-18.6733 -15.60372,-15.34793 12.02254,18.16171 4.09277,16.11532 -6.13916,23.02188 -14.83633,17.90591 -2.04639,15.60372 -12.02253,9.20875 -4.34858,19.1849 -8.95296,11.25514 6.65077,-35.81181 5.62757,-7.16237 16.88271,-31.46323 -1.79059,-37.60241 -12.02254,-19.4407 6.39497,19.4407 1.79059,36.83501 -20.97549,38.8814 -5.82914,35.9355 -1.80877,-35.45188 7.59683,-19.53472 -3.61754,-6.87332 3.61754,-3.61754 10.85262,-12.29964 -2.53228,-27.4933 -13.02314,-27.13154 2.53227,10.49086 7.23508,25.32278 -0.36175,20.61997 -14.1084,11.93788 3.97929,9.04385 -7.23508,20.25822 2.17052,34.00488 -2.53227,-10.85262 -8.6821,-26.04629 -2.89403,-12.29963 8.68209,-8.32034 -1.08526,-13.02315 -2.89403,-15.55542 -0.36175,-8.32034 5.06455,-6.51157 4.7028,-14.83191 -9.4056,13.02314 -7.95859,12.29964 4.34105,8.32034 2.89403,19.17296 -10.12911,16.27893 6.14982,22.79049 8.6821,17.3642 -22.7905,-19.89648 -11.93788,-32.1961 13.02314,-36.53715 3.61754,-17.00243 -9.04385,-17.72595 2.17052,11.57613 v 12.66139 l -5.06455,15.91717 -11.57613,30.02558 11.57613,34.72839 28.94032,22.42873 1.44701,2.53228 -22.7733,-9.12053 -15.60372,-17.65011 5.88337,13.30154 8.18556,8.44135 20.71969,6.65077 z"
       id="path1" />
  </g>
</svg>
