<?xml version="1.0" encoding="UTF-8" standalone="no"?>
<!-- Created with Inkscape (http://www.inkscape.org/) -->

<svg
   width="210mm"
   height="297mm"
   viewBox="0 0 210 297"
   version="1.1"
   id="svg1"
   inkscape:version="1.3.2 (091e20e, 2023-11-25, custom)"
   sodipodi:docname="AnimatedThornbushDie1.svg"
   xmlns:inkscape="http://www.inkscape.org/namespaces/inkscape"
   xmlns:sodipodi="http://sodipodi.sourceforge.net/DTD/sodipodi-0.dtd"
   xmlns="http://www.w3.org/2000/svg"
   xmlns:svg="http://www.w3.org/2000/svg">
  <sodipodi:namedview
     id="namedview1"
     pagecolor="#ffffff"
     bordercolor="#000000"
     borderopacity="0.25"
     inkscape:showpageshadow="2"
     inkscape:pageopacity="0.0"
     inkscape:pagecheckerboard="0"
     inkscape:deskcolor="#d1d1d1"
     inkscape:document-units="mm"
     inkscape:zoom="0.35355339"
     inkscape:cx="-330.92597"
     inkscape:cy="799.03066"
     inkscape:window-width="1920"
     inkscape:window-height="1009"
     inkscape:window-x="2552"
     inkscape:window-y="-3"
     inkscape:window-maximized="1"
     inkscape:current-layer="layer1" />
  <defs
     id="defs1" />
  <g
     inkscape:label="Ebene 1"
     inkscape:groupmode="layer"
     id="layer1">
    <g
       id="g28"
       inkscape:label="Arm3"
       style="display:inline"
       transform="rotate(-1.3549077,584.99181,-847.53053)">
      <path
         style="fill:#71291c;fill-opacity:1;stroke:#000000;stroke-width:0.264583"
         d="m 90.501277,270.31052 -1.33054,-11.91492 13.501603,-4.32765 9.61017,-12.26003 -0.46841,-17.33914 -7.94837,-1.38062 -15.109865,-5.04557 -17.628605,1.4428 -16.833082,-4.97006 -13.594326,-19.5945 -31.5411238,-7.79891 -19.4003642,1.33763 19.4165349,-5.60388 33.4665951,6.313 15.393057,21.24221 12.35918,3.45989 17.038019,-1.47786 17.07579,5.87347 11.06617,2.62719 1.91976,22.34336 -9.86878,13.8629 -13.906306,5.52481 3.006458,7.71848"
         id="path18"
         sodipodi:nodetypes="ccccccccccccccccccccccc" />
      <path
         style="fill:#71291c;fill-opacity:1;stroke:#000000;stroke-width:0.264583"
         d="m 89.563637,261.84708 -0.3929,-3.45148 2.582095,-0.87041 -4.435107,-6.23764 z"
         id="path19"
         sodipodi:nodetypes="ccccc" />
      <path
         style="fill:#71291c;fill-opacity:1;stroke:#000000;stroke-width:0.264583"
         d="m 105.38187,257.99906 2.24282,-0.89923 2.15773,-2.78275 2.87798,8.09778 z"
         id="path20"
         sodipodi:nodetypes="ccccc" />
      <path
         style="fill:#71291c;fill-opacity:1;stroke:#000000;stroke-width:0.264583"
         d="m 111.1328,243.12236 1.16632,-1.35816 -0.059,-2.87426 -5.51059,0.80871 z"
         id="path21"
         sodipodi:nodetypes="ccccc" />
      <path
         style="fill:#71291c;fill-opacity:1;stroke:#000000;stroke-width:0.264583"
         d="m 115.8028,223.75712 -0.20443,-2.90793 -3.46584,-0.76668 9.80635,-1.95479 z"
         id="path22"
         sodipodi:nodetypes="ccccc" />
      <path
         style="fill:#71291c;fill-opacity:1;stroke:#000000;stroke-width:0.264583"
         d="m 106.85522,223.539 -3.06436,-0.44382 -3.04435,-1.13412 1.61754,9.46245 z"
         id="path23"
         sodipodi:nodetypes="ccccc" />
      <path
         style="fill:#71291c;fill-opacity:1;stroke:#000000;stroke-width:0.264583"
         d="m 91.049435,213.60038 -3.62982,-1.25263 -4.03365,0.30879 5.028729,-9.58424 z"
         id="path24"
         sodipodi:nodetypes="ccccc" />
      <path
         style="fill:#71291c;fill-opacity:1;stroke:#000000;stroke-width:0.264583"
         d="m 74.824786,219.16515 -3.780876,0.33085 -3.775157,-1.17748 4.08076,10.85541 z"
         id="path25"
         sodipodi:nodetypes="ccccc" />
      <path
         style="fill:#71291c;fill-opacity:1;stroke:#000000;stroke-width:0.264583"
         d="m 42.674212,197.8532 -2.021219,-3.01665 -3.537114,-0.81744 1.136357,7.5647 z"
         id="path26"
         sodipodi:nodetypes="ccccc" />
      <path
         style="fill:#71291c;fill-opacity:1;stroke:#000000;stroke-width:0.264583"
         d="m 61.012869,211.2363 -2.761794,-0.73456 -1.986768,-2.52811 9.692945,-6.39137 z"
         id="path27"
         sodipodi:nodetypes="ccccc" />
      <path
         style="fill:#71291c;fill-opacity:1;stroke:#000000;stroke-width:0.264583"
         d="m 6.7747981,183.47626 2.4557163,-0.68398 2.6026976,0.58419 -3.5327526,-7.38099 z"
         id="path28"
         sodipodi:nodetypes="ccccc" />
      <path
         style="fill:#71291c;fill-opacity:1;stroke:#000000;stroke-width:0.264583"
         d="m 101.16536,217.06728 1.60328,-8.28168 -5.745528,-11.74048 -8.819981,-8.24811 1.096769,-7.84446 8.828972,-8.24321 9.414848,-5.70575 6.2792,-12.24473 2.30422,-13.45128 -4.9798,11.99633 -6.70454,11.00611 -8.767829,5.28575 -8.976142,8.42337 -2.282183,11.78617 9.292652,9.44921 4.775413,10.95784 -2.313708,5.06654"
         id="path29"
         sodipodi:nodetypes="ccccccccccccccccc" />
      <path
         style="fill:#71291c;fill-opacity:1;stroke:#000000;stroke-width:0.264583"
         d="m 101.49521,206.3015 8.56385,0.0986 -7.8092,5.00445 0.50035,-2.60682 z"
         id="path30"
         sodipodi:nodetypes="ccccc" />
      <path
         style="fill:#71291c;fill-opacity:1;stroke:#000000;stroke-width:0.264583"
         d="m 85.911982,191.23878 -1.583461,-1.49295 0.925597,-4.3579 -6.825001,7.95542 z"
         id="path31"
         sodipodi:nodetypes="ccccc" />
      <path
         style="fill:#71291c;fill-opacity:1;stroke:#000000;stroke-width:0.264583"
         d="m 96.558899,174.1139 1.599016,-1.46398 3.015925,-1.8022 1.88052,6.77219 z"
         id="path32"
         sodipodi:nodetypes="ccccc" />
      <path
         style="fill:#71291c;fill-opacity:1;stroke:#000000;stroke-width:0.264583"
         d="m 102.81726,165.22558 c 0.084,0.0411 1.63352,-0.94561 1.63352,-0.94561 l 2.06091,-3.41779 -7.925412,-0.88016 z"
         id="path33"
         sodipodi:nodetypes="ccccc" />
      <path
         style="fill:#5f190e;fill-opacity:1;stroke:#5f190e;stroke-width:0.264583;stroke-opacity:1"
         d="m 120.81676,281.44583 -2.05219,-8.53221 13.66244,-5.95492 9.49323,-13.73037 -2.14907,-20.55423 -10.1751,-1.84027 -16.94231,-5.37659 -16.889691,1.84966 -13.313828,-3.22763 -16.074996,-20.98635 -32.349131,-5.66881 -18.352959,4.59033 18.027192,-5.56389 33.451099,5.49238 15.891609,20.86049 12.576533,3.20777 16.994602,-1.88348 17.16086,5.45314 10.93814,2.23576 2.43741,22.10421 -9.42929,13.94886 -13.94216,5.91479 3.1772,7.67164 z"
         id="path85"
         sodipodi:nodetypes="cccccccccccccccccccccccc"
         transform="rotate(1.3549077,584.9922,-847.53026)" />
      <path
         style="fill:#5f190e;fill-opacity:1;stroke:#5f190e;stroke-width:0.264583;stroke-opacity:1"
         d="m 99.521568,216.3401 1.821332,-7.27089 -5.461086,-11.45868 -8.8434,-8.3374 1.653793,-9.15532 8.546223,-8.25082 9.27814,-5.75323 6.2307,-11.94282 3.02824,-11.69865 -2.20027,12.20225 -6.22691,12.1478 -9.333628,5.61669 -8.91202,8.33931 -1.152932,8.15735 8.864059,8.25479 5.694451,11.6487 -1.57061,8.0103 z"
         id="path86"
         sodipodi:nodetypes="cccccccccccccccccc" />
      <path
         style="fill:#5f190e;fill-opacity:1;stroke:#5f190e;stroke-width:0.264583;stroke-opacity:1"
         d="m 90.91337,257.53904 -3.321913,-5.64577 3.751781,5.51308 z"
         id="path87"
         sodipodi:nodetypes="cccc" />
      <path
         style="fill:#5f190e;fill-opacity:1;stroke:#5f190e;stroke-width:0.264583;stroke-opacity:1"
         d="m 108.93219,255.83014 3.46579,6.29882 -2.71121,-7.28604 z"
         id="path88"
         sodipodi:nodetypes="cccc" />
      <path
         style="fill:#5f190e;fill-opacity:1;stroke:#5f190e;stroke-width:0.264583;stroke-opacity:1"
         d="m 112.00614,240.22252 -4.93098,-0.36506 4.93276,-0.66979 z"
         id="path89"
         sodipodi:nodetypes="cccc" />
      <path
         style="fill:#5f190e;fill-opacity:1;stroke:#5f190e;stroke-width:0.264583;stroke-opacity:1"
         d="m 114.40194,220.31783 7.18028,-2.0141 -8.18202,1.79115 z"
         id="path90"
         sodipodi:nodetypes="cccc" />
      <path
         style="fill:#5f190e;fill-opacity:1;stroke:#5f190e;stroke-width:0.264583;stroke-opacity:1"
         d="m 104.46381,223.45577 -2.04476,7.56467 4.0239,-7.27979 z"
         id="path91"
         sodipodi:nodetypes="cccc" />
      <path
         style="fill:#5f190e;fill-opacity:1;stroke:#5f190e;stroke-width:0.264583;stroke-opacity:1"
         d="m 85.910744,212.21231 2.484457,-8.80414 -4.560871,8.96428 z"
         id="path92"
         sodipodi:nodetypes="cccc" />
      <path
         style="fill:#5f190e;fill-opacity:1;stroke:#5f190e;stroke-width:0.264583;stroke-opacity:1"
         d="m 57.659183,209.32537 7.895369,-7.31738 -8.921143,6.01543 z"
         id="path93"
         sodipodi:nodetypes="cccc" />
      <path
         style="fill:#5f190e;fill-opacity:1;stroke:#5f190e;stroke-width:0.264583;stroke-opacity:1"
         d="m 72.116158,219.66304 -0.753603,9.06476 3.068228,-9.25606 z"
         id="path94"
         sodipodi:nodetypes="cccc" />
      <path
         style="fill:#5f190e;fill-opacity:1;stroke:#5f190e;stroke-width:0.264583;stroke-opacity:1"
         d="m 41.113789,196.00494 -2.772256,5.29622 3.97221,-3.50638 z"
         id="path95"
         sodipodi:nodetypes="cccc" />
      <path
         style="fill:#5f190e;fill-opacity:1;stroke:#5f190e;stroke-width:0.264583;stroke-opacity:1"
         d="m 8.6205781,182.69816 -0.2581532,-6.26839 -1.2645221,6.69017 z"
         id="path96"
         sodipodi:nodetypes="cccc" />
      <path
         style="fill:#5f190e;fill-opacity:1;stroke:#5f190e;stroke-width:0.264583;stroke-opacity:1"
         d="m 102.52393,207.76916 7.06208,-1.21344 -7.65691,0.0152 z"
         id="path97"
         sodipodi:nodetypes="cccc" />
      <path
         style="fill:#5f190e;fill-opacity:1;stroke:#5f190e;stroke-width:0.264583;stroke-opacity:1"
         d="m 84.399774,188.05726 -5.278339,4.83573 5.65307,-6.53245 z"
         id="path98"
         sodipodi:nodetypes="cccc" />
      <path
         style="fill:#5f190e;fill-opacity:1;stroke:#5f190e;stroke-width:0.264583;stroke-opacity:1"
         d="m 99.722551,172.02221 3.095839,5.32221 -1.80217,-6.09929 z"
         id="path99"
         sodipodi:nodetypes="cccc" />
      <path
         style="fill:#5f190e;fill-opacity:1;stroke:#5f190e;stroke-width:0.264583;stroke-opacity:1"
         d="m 105.31093,162.36728 -6.380011,-2.17472 7.151901,0.88899 z"
         id="path100"
         sodipodi:nodetypes="cccc" />
      <path
         style="fill:#84392a;fill-opacity:1;stroke:#84392a;stroke-width:0.264583;stroke-opacity:1"
         d="m 115.34346,269.588 -1.61891,-6.07067 1.908,5.93502 z"
         id="path134"
         transform="rotate(1.3549077,584.9922,-847.53026)"
         sodipodi:nodetypes="cccc" />
      <path
         style="fill:#84392a;fill-opacity:1;stroke:#84392a;stroke-width:0.264583;stroke-opacity:1"
         d="m 105.96297,258.04943 6.25564,3.78492 -4.95606,-4.31449 z"
         id="path135"
         sodipodi:nodetypes="cccc" />
      <path
         style="fill:#84392a;fill-opacity:1;stroke:#84392a;stroke-width:0.264583;stroke-opacity:1"
         d="m 111.10061,242.75559 -3.66594,-2.85382 4.2399,2.16983 z"
         id="path136"
         sodipodi:nodetypes="cccc" />
      <path
         style="fill:#84392a;fill-opacity:1;stroke:#84392a;stroke-width:0.264583;stroke-opacity:1"
         d="m 116.03935,223.16221 5.21296,-4.76451 -5.30345,3.5914 z"
         id="path137"
         sodipodi:nodetypes="cccc" />
      <path
         style="fill:#84392a;fill-opacity:1;stroke:#84392a;stroke-width:0.264583;stroke-opacity:1"
         d="m 102.63191,210.84529 6.63709,-4.21644 -6.43207,3.13073 z"
         id="path138"
         sodipodi:nodetypes="cccc" />
      <path
         style="fill:#84392a;fill-opacity:1;stroke:#84392a;stroke-width:0.264583;stroke-opacity:1"
         d="m 79.011587,192.90294 c 0.08934,-0.0277 6.379967,-1.7966 6.379967,-1.7966 l -0.866323,-0.83253 z"
         id="path139"
         sodipodi:nodetypes="cccc" />
      <path
         style="fill:#84392a;fill-opacity:1;stroke:#84392a;stroke-width:0.264583;stroke-opacity:1"
         d="m 96.994109,174.04805 5.668791,3.05978 -4.761938,-3.87489 z"
         id="path140"
         sodipodi:nodetypes="cccc" />
      <path
         style="fill:#84392a;fill-opacity:1;stroke:#84392a;stroke-width:0.264583;stroke-opacity:1"
         d="m 99.188366,160.29376 3.706654,4.59908 1.1022,-0.644 z"
         id="path141"
         sodipodi:nodetypes="cccc" />
      <path
         style="fill:#84392a;fill-opacity:1;stroke:#84392a;stroke-width:0.264583;stroke-opacity:1"
         d="m 92.025672,270.20433 -1.477299,-10.93671 12.942467,-4.33616 9.7939,-12.65285 -0.44823,-18.64304 -8.87855,-1.53359 -15.0398,-5.29065 -17.855988,1.31776 -16.101922,-4.75977 -13.556645,-19.47157 -32.1817915,-7.89102 -17.2056345,2.03167 17.1804017,-1.19157 31.6179213,7.75581 13.637733,19.68602 16.694415,4.93343 17.628766,-1.43866 15.142964,5.04726 8.14418,1.39644 0.50458,17.64325 -9.74259,12.42822 -13.355425,4.29013 1.266551,11.55898 z"
         id="path142"
         sodipodi:nodetypes="cccccccccccccccccccccccc" />
      <path
         style="fill:#84392a;fill-opacity:1;stroke:#84392a;stroke-width:0.264583;stroke-opacity:1"
         d="m 97.352737,215.57036 2.283407,-5.5892 -4.958142,-11.13023 -9.431308,-9.38963 2.237031,-10.9278 8.930571,-8.33435 8.711474,-5.23488 6.65293,-11.39635 3.73394,-10.09265 -4.11892,9.94068 -6.75973,11.09404 -8.798939,5.29038 -8.931487,8.38693 -2.237301,11.48879 9.260043,9.42857 4.828718,11.0618 -2.26585,5.06151 z"
         id="path143"
         sodipodi:nodetypes="cccccccccccccccccc" />
      <path
         style="fill:#84392a;fill-opacity:1;stroke:#84392a;stroke-width:0.264583;stroke-opacity:1"
         d="m 102.3911,222.86639 0.10843,7.78556 -1.40894,-8.26884 z"
         id="path144"
         sodipodi:nodetypes="cccc" />
      <path
         style="fill:#84392a;fill-opacity:1;stroke:#84392a;stroke-width:0.264583;stroke-opacity:1"
         d="m 90.681839,213.19633 -2.371753,-9.44452 0.621594,8.85217 z"
         id="path145"
         sodipodi:nodetypes="cccc" />
      <path
         style="fill:#84392a;fill-opacity:1;stroke:#84392a;stroke-width:0.264583;stroke-opacity:1"
         d="m 69.351743,219.24756 2.020696,9.22617 -3.658971,-9.7336 z"
         id="path146"
         sodipodi:nodetypes="cccc" />
      <path
         style="fill:#84392a;fill-opacity:1;stroke:#84392a;stroke-width:0.264583;stroke-opacity:1"
         d="m 60.878995,210.92662 4.461926,-8.70571 -5.726219,8.38169 z"
         id="path147"
         sodipodi:nodetypes="cccc" />
      <path
         style="fill:#84392a;fill-opacity:1;stroke:#84392a;stroke-width:0.264583;stroke-opacity:1"
         d="m 37.427175,194.35715 1.011028,6.67375 0.434745,-6.34579 z"
         id="path148"
         sodipodi:nodetypes="cccc" />
      <path
         style="fill:#84392a;fill-opacity:1;stroke:#84392a;stroke-width:0.264583;stroke-opacity:1"
         d="m 11.368668,183.00203 -2.9777381,-6.2045 1.9285781,5.96898 z"
         id="path149"
         sodipodi:nodetypes="cccc" />
    </g>
    <g
       id="g10"
       inkscape:label="Arm1"
       style="display:inline"
       transform="rotate(-1.3549077,584.99181,-847.53053)">
      <path
         style="display:inline;fill:#8f4333;fill-opacity:1;stroke:#000000;stroke-width:0.264583;stroke-opacity:1"
         d="m 88.085672,270.19829 -1.45495,-2.88667 -0.615884,-8.08373 0.781233,-6.53929 2.102446,-3.93247 12.618943,-7.82914 1.78105,-2.95046 1.44183,-5.23588 3.165,-18.80546 3.07555,-5.24478 4.80742,-2.23179 14.78372,-0.32565 4.24051,-1.33011 0.70534,-5.47693 0.88384,-2.70052 6.52148,-2.48619 16.41297,-1.1514 6.51703,-3.30305 7.44558,-12.78389 7.35681,-1.19379 10.35688,2.07989 11.60381,-2.4346 9.99877,-8.95848 -10.18173,5.36521 -7.58828,1.59343 -14.14539,-2.45521 -8.65954,-0.11617 -8.8338,12.87314 -6.75807,4.03954 -14.61857,0.65151 -7.74453,2.90128 -3.72279,6.39196 -1.53555,3.03081 -6.12418,0.44182 -8.16409,0.86139 -6.61073,1.09798 -4.05755,4.92339 -2.90149,7.20434 -2.147171,10.71281 -2.156079,9.0791 -6.101916,4.5261 -5.454665,3.37893 -5.030652,6.2357 -0.285778,7.51684 -1.589178,8.17744 2.907826,5.11474"
         id="path1"
         sodipodi:nodetypes="cccccccccccccccccccccccccccccccccccccccccccccc" />
      <path
         style="fill:#8f4333;fill-opacity:1;stroke:#000000;stroke-width:0.264583"
         d="m 86.625764,267.32473 8.383374,-4.66845 -8.704786,0.38735 z"
         id="path2"
         sodipodi:nodetypes="cccc" />
      <path
         style="fill:#8f4333;fill-opacity:1;stroke:#000000;stroke-width:0.264583"
         d="m 80.67969,248.34341 c 0.03637,-0.11113 2.887214,-3.52117 2.887214,-3.52117 l -9.553181,-4.14036 z"
         id="path3"
         sodipodi:nodetypes="cccc" />
      <path
         style="fill:#8f4333;fill-opacity:1;stroke:#000000;stroke-width:0.264583"
         d="m 101.46393,240.91399 1.88198,-2.98576 0.83557,-3.08466 7.02877,6.80693 z"
         id="path4"
         sodipodi:nodetypes="ccccc" />
      <path
         style="fill:#8f4333;fill-opacity:1;stroke:#000000;stroke-width:0.264583"
         d="m 106.07024,205.28214 1.88584,-2.27983 2.56546,-0.39572 -4.33228,-8.03396 z"
         id="path5"
         sodipodi:nodetypes="ccccc" />
      <path
         style="fill:#8f4333;fill-opacity:1;stroke:#000000;stroke-width:0.264583"
         d="m 131.86782,205.75558 2.98208,-0.9807 0.47107,-3.66302 6.00307,8.20802 z"
         id="path6"
         sodipodi:nodetypes="ccccc" />
      <path
         style="fill:#8f4333;fill-opacity:1;stroke:#000000;stroke-width:0.264583"
         d="m 132.65972,193.61483 1.37764,-2.32967 3.20259,-1.28947 -8.59978,-6.57944 z"
         id="path7"
         sodipodi:nodetypes="ccccc" />
      <path
         style="fill:#8f4333;fill-opacity:1;stroke:#000000;stroke-width:0.264583"
         d="m 159.32414,192.96659 6.54904,-3.31928 1.72297,12.1783 z"
         id="path8"
         sodipodi:nodetypes="cccc" />
      <path
         style="fill:#8f4333;fill-opacity:1;stroke:#000000;stroke-width:0.264583"
         d="m 170.47153,172.96919 1.59851,-2.22596 3.3364,0.0132 -5.87205,-6.61974 z"
         id="path9"
         sodipodi:nodetypes="ccccc" />
      <path
         style="fill:#8f4333;fill-opacity:1;stroke:#000000;stroke-width:0.264583"
         d="m 190.95324,177.82581 6.62581,-1.44865 -1.82106,10.52624 z"
         id="path10"
         sodipodi:nodetypes="cccc" />
      <path
         style="fill:#8f4333;fill-opacity:1;stroke:#000000;stroke-width:0.264583"
         d="m 98.999425,224.38409 -18.142652,-3.35609 -6.79724,-10.88915 -16.98462,-7.50294 -2.493364,-4.40905 2.506756,-9.11931 4.579824,-4.13614 3.869708,-9.11984 -1.309304,-12.14639 1.526552,-6.63684 9.938485,-8.42538 12.208488,-4.42245 13.897182,2.79569 -12.712245,-0.19734 -10.080539,4.27377 -9.780951,7.85511 -1.215895,6.84541 1.579973,8.72259 -4.191419,12.28403 -4.999185,5.43199 -0.937861,5.40071 3.954386,2.21958 12.093559,5.46597 7.208765,10.45914 17.524652,2.42588"
         id="path34"
         sodipodi:nodetypes="ccccccccccccccccccccccccc" />
      <path
         style="fill:#8f4333;fill-opacity:1;stroke:#000000;stroke-width:0.264583"
         d="m 84.194323,221.64842 -3.353843,-0.64178 -2.223602,-3.39857 -0.181371,11.56606 z"
         id="path35"
         sodipodi:nodetypes="ccccc" />
      <path
         style="fill:#8f4333;fill-opacity:1;stroke:#000000;stroke-width:0.264583"
         d="m 76.973641,207.60077 -1.4546,-2.2616 -2.887705,-1.35292 8.030734,-5.77891 z"
         id="path36"
         sodipodi:nodetypes="ccccc" />
      <path
         style="fill:#8f4333;fill-opacity:1;stroke:#000000;stroke-width:0.264583"
         d="m 57.087041,202.72982 -2.514244,-4.55516 -5.349304,6.17988 z"
         id="path37"
         sodipodi:nodetypes="cccc" />
      <path
         style="fill:#8f4333;fill-opacity:1;stroke:#000000;stroke-width:0.264583"
         d="m 64.252659,188.00244 1.210407,-1.21543 1.035374,-3.22023 5.769568,6.88776 z"
         id="path38"
         sodipodi:nodetypes="ccccc" />
      <path
         style="fill:#8f4333;fill-opacity:1;stroke:#000000;stroke-width:0.264583"
         d="m 64.472344,166.07145 -0.340898,-2.34018 0.845667,-3.33614 -10.344879,4.96528 z"
         id="path39"
         sodipodi:nodetypes="ccccc" />
      <path
         style="fill:#8f4333;fill-opacity:1;stroke:#000000;stroke-width:0.264583"
         d="m 77.501521,152.332 1.627846,-1.29721 3.297667,-1.41097 2.69468,7.64521 z"
         id="path40"
         sodipodi:nodetypes="ccccc" />
      <path
         style="fill:#782f1f;fill-opacity:1;stroke:#782f1f;stroke-width:0.264583;stroke-opacity:1"
         d="m 112.20161,281.69205 -1.69221,-0.051 -1.74681,-3.11578 0.13582,-2.21939 -0.37901,-4.40561 0.33305,-4.02493 0.89314,-4.38297 2.15234,-4.02007 7.87214,-4.80557 4.70146,-3.08734 1.93572,-3.05748 1.1736,-4.48802 1.05564,-7.13496 1.01521,-6.40999 0.93356,-5.10794 3.40026,-5.72782 1.26649,-1.01268 3.65884,-1.7061 9.50711,-0.62867 6.50779,-0.0355 2.37618,-0.94477 1.05882,-3.83661 1.00063,-3.6588 0.83813,-0.90682 6.08109,-2.34052 16.63239,-1.3479 5.84024,-3.10834 7.32911,-12.16847 1.4734,-1.04339 7.12367,-1.01502 10.86811,2.12979 10.96354,-2.07132 9.49831,-7.36834 -9.15051,8.16247 -11.52425,2.39708 -10.32333,-2.06136 -7.53345,1.21372 -7.42072,12.78485 -6.51642,3.30386 -16.34055,1.13284 -6.6642,2.54066 -0.94116,2.83803 -0.65983,5.32417 -4.05385,1.28365 -14.84234,0.33642 -4.88932,2.27685 -3.14034,5.34262 -3.1848,18.83271 -1.40782,5.21469 -1.82832,2.91082 -12.53061,7.76804 -2.15988,4.04307 -0.81005,6.62117 0.61751,8.02195 z"
         id="path51"
         sodipodi:nodetypes="ccccccccccccccccccccccccccccccccccccccccccccccccccccccc"
         transform="translate(-24.341667,-11.641667)" />
      <path
         style="fill:#782f1f;fill-opacity:1;stroke:#782f1f;stroke-width:0.264583;stroke-opacity:1"
         d="m 124.07962,231.65212 -17.61746,-2.60188 -8.090714,-11.23257 -15.860422,-7.25749 1.312213,-7.74786 4.869104,-5.32216 4.091576,-11.50602 -1.638224,-8.76169 1.296245,-7.13631 10.059782,-8.30894 10.11882,-4.07906 12.02937,0.75292 -11.26214,-0.25053 -10.15239,4.30775 -9.911991,7.92493 -1.233755,6.99941 1.574311,8.7354 -4.156102,12.13808 -4.906654,5.35001 -1.061899,5.77059 4.11543,2.3098 12.039988,5.44661 7.201472,10.48053 17.52059,2.41358 z"
         id="path53"
         sodipodi:nodetypes="ccccccccccccccccccccccccc"
         transform="translate(-24.341667,-11.641667)" />
      <path
         style="fill:#782f1f;stroke:#782f1f;stroke-width:0.264583"
         d="m 113.08829,275.75883 7.76904,-1.6541 -7.86791,0.66519 z"
         id="path70"
         sodipodi:nodetypes="cccc"
         transform="rotate(1.3549077,584.9922,-847.53026)" />
      <path
         style="fill:#782f1f;stroke:#782f1f;stroke-width:0.264583"
         d="m 108.4525,257.32521 -8.04506,-4.49915 8.70724,3.65885 z"
         id="path71"
         sodipodi:nodetypes="cccc"
         transform="rotate(1.3549077,584.9922,-847.53026)" />
      <path
         style="fill:#782f1f;stroke:#782f1f;stroke-width:0.264583"
         d="m 129.77053,247.56837 6.90922,4.80736 -6.63339,-5.97748 z"
         id="path72"
         sodipodi:nodetypes="cccc"
         transform="rotate(1.3549077,584.9922,-847.53026)" />
      <path
         style="fill:#782f1f;stroke:#782f1f;stroke-width:0.264583"
         d="m 133.9154,213.55892 -2.81502,-7.41014 3.98408,7.19923 z"
         id="path73"
         sodipodi:nodetypes="cccc"
         transform="rotate(1.3549077,584.9922,-847.53026)" />
      <path
         style="fill:#782f1f;stroke:#782f1f;stroke-width:0.264583"
         d="m 160.27021,213.52832 5.78477,5.70732 -5.63341,-7.10958 z"
         id="path74"
         sodipodi:nodetypes="cccc"
         transform="rotate(1.3549077,584.9922,-847.53026)" />
      <path
         style="fill:#782f1f;stroke:#782f1f;stroke-width:0.264583"
         d="m 159.93497,200.84851 -6.43342,-6.47287 7.8656,5.87154 z"
         id="path75"
         sodipodi:nodetypes="cccc"
         transform="rotate(1.3549077,584.9922,-847.53026)" />
      <path
         style="fill:#782f1f;stroke:#782f1f;stroke-width:0.264583"
         d="m 188.32457,200.74851 3.95949,10.21767 -1.97363,-11.28587 z"
         id="path76"
         sodipodi:nodetypes="cccc"
         transform="rotate(1.3549077,584.9922,-847.53026)" />
      <path
         style="fill:#782f1f;stroke:#782f1f;stroke-width:0.264583"
         d="m 197.74236,179.93479 -3.94905,-5.79679 5.2281,5.78355 z"
         id="path77"
         sodipodi:nodetypes="cccc"
         transform="rotate(1.3549077,584.9922,-847.53026)" />
      <path
         style="fill:#782f1f;stroke:#782f1f;stroke-width:0.264583"
         d="m 219.54515,186.09837 0.68339,9.28885 1.35722,-9.79546 z"
         id="path78"
         sodipodi:nodetypes="cccc"
         transform="rotate(1.3549077,584.9922,-847.53026)" />
      <path
         style="fill:#782f1f;stroke:#782f1f;stroke-width:0.264583"
         d="m 105.07536,231.39046 -0.83492,9.04298 -0.0223,-10.32583 z"
         id="path79"
         sodipodi:nodetypes="cccc"
         transform="rotate(1.3549077,584.9922,-847.53026)" />
      <path
         style="fill:#782f1f;stroke:#782f1f;stroke-width:0.264583"
         d="m 99.23123,216.21892 5.97859,-5.96019 -7.081378,5.50218 z"
         id="path80"
         sodipodi:nodetypes="cccc"
         transform="rotate(1.3549077,584.9922,-847.53026)" />
      <path
         style="fill:#782f1f;stroke:#782f1f;stroke-width:0.264583"
         d="m 80.077873,212.03436 -5.444908,4.52885 4.791789,-5.69935 z"
         id="path81"
         sodipodi:nodetypes="cccc"
         transform="rotate(1.3549077,584.9922,-847.53026)" />
      <path
         style="fill:#782f1f;stroke:#782f1f;stroke-width:0.264583"
         d="m 90.843848,197.0682 5.753045,5.00349 -5.470883,-6.02825 z"
         id="path82"
         sodipodi:nodetypes="cccc"
         transform="rotate(1.3549077,584.9922,-847.53026)" />
      <path
         style="fill:#782f1f;stroke:#782f1f;stroke-width:0.264583"
         d="m 88.314322,174.05764 -9.083947,3.48369 9.369303,-4.65184 z"
         id="path83"
         sodipodi:nodetypes="cccc"
         transform="rotate(1.3549077,584.9922,-847.53026)" />
      <path
         style="fill:#782f1f;stroke:#782f1f;stroke-width:0.264583"
         d="m 104.81185,162.1175 3.94373,6.38721 -2.76473,-6.92656 z"
         id="path84"
         sodipodi:nodetypes="cccc"
         transform="rotate(1.3549077,584.9922,-847.53026)" />
      <path
         style="display:inline;fill:#a65746;fill-opacity:1;stroke:#a65746;stroke-width:0.264583;stroke-opacity:1"
         d="m 83.17719,269.88372 -2.902023,-4.01181 1.855666,-8.89387 0.255015,-7.10345 4.795779,-5.84476 11.446472,-7.53589 2.692441,-10.97925 1.6188,-9.69701 2.63027,-7.15638 3.6689,-4.48212 7.48447,-1.17298 12.25164,-0.97528 1.06261,-0.26913 5.48848,-9.76712 6.99082,-2.09174 14.15449,-0.67437 7.46462,-4.55358 8.77635,-12.82123 9.86642,0.43844 11.94346,2.14045 7.90259,-1.79409 8.06598,-4.93002 -8.15808,4.29951 -7.68155,1.61726 -14.18477,-2.4611 -8.48474,-0.11655 -8.80324,12.81294 -6.86057,4.0966 -14.62909,0.65195 -7.62691,2.87095 -3.66424,6.27469 -1.60365,3.16589 -6.21452,0.45073 -8.22459,0.86434 -6.48815,1.07762 -3.97372,4.81454 -2.86618,7.13986 -2.167864,10.8016 -2.155119,9.07636 -6.169754,4.58648 -5.449857,3.36657 -4.939437,6.12584 -0.289629,7.44546 -1.599907,8.25496 2.965233,4.90819 z"
         id="path101"
         sodipodi:nodetypes="cccccccccccccccccccccccccccccccccccccccccccccc" />
      <path
         style="fill:#a65746;fill-opacity:1;stroke:#a65746;stroke-width:0.264583;stroke-opacity:1"
         d="m 98.373928,222.63968 -16.489109,-3.00489 -6.827131,-10.14236 -17.098827,-7.68923 -2.282182,-4.08935 2.303222,-7.6118 4.509457,-4.40695 4.119023,-9.50103 -1.419299,-12.03599 1.481472,-6.62653 9.791186,-8.18749 11.507475,-4.28272 11.057692,1.66419 -11.097728,-2.23254 -12.093925,4.38163 -9.841355,8.33693 -1.499584,6.51339 1.31781,12.16729 -3.919876,9.23633 -4.65527,4.20338 -2.384477,8.80975 2.408889,4.28505 16.981075,7.50545 6.771348,10.83727 17.907075,3.31981 0.264616,-1.3121 z"
         id="path102"
         sodipodi:nodetypes="ccccccccccccccccccccccccccc" />
      <path
         style="fill:#a65746;stroke:#a65746;stroke-width:0.264583"
         d="m 113.33768,278.36377 7.07041,-4.1629 -7.13269,3.28995 z"
         id="path114"
         sodipodi:nodetypes="cccc"
         transform="rotate(1.3549077,584.9922,-847.53026)" />
      <path
         style="fill:#a65746;stroke:#a65746;stroke-width:0.264583"
         d="m 80.674784,247.92681 -5.783395,-6.6438 6.417284,5.85096 z"
         id="path115"
         sodipodi:nodetypes="cccc" />
      <path
         style="fill:#a65746;stroke:#a65746;stroke-width:0.264583"
         d="m 127.77129,251.7983 8.69213,0.45731 -7.84047,-1.84453 z"
         id="path116"
         transform="rotate(1.3549077,584.9922,-847.53026)"
         sodipodi:nodetypes="cccc" />
      <path
         style="fill:#a65746;stroke:#a65746;stroke-width:0.264583"
         d="m 157.67508,216.17 8.13323,2.85515 -6.70331,-3.36022 z"
         id="path117"
         sodipodi:nodetypes="cccc"
         transform="rotate(1.3549077,584.9922,-847.53026)" />
      <path
         style="fill:#a65746;stroke:#a65746;stroke-width:0.264583"
         d="m 153.72932,194.60576 4.38445,7.60819 -0.6718,1.23501 z"
         id="path118"
         sodipodi:nodetypes="cccc"
         transform="rotate(1.3549077,584.9922,-847.53026)" />
      <path
         style="fill:#a65746;stroke:#a65746;stroke-width:0.264583"
         d="m 184.465,202.80734 7.68006,7.83424 -6.20275,-8.61351 z"
         id="path119"
         transform="rotate(1.3549077,584.9922,-847.53026)"
         sodipodi:nodetypes="cccc" />
      <path
         style="fill:#a65746;stroke:#a65746;stroke-width:0.264583"
         d="m 170.65808,172.28971 -0.7834,-7.45704 1.49608,6.42336 z"
         id="path120"
         sodipodi:nodetypes="cccc" />
      <path
         style="fill:#a65746;stroke:#a65746;stroke-width:0.264583"
         d="m 215.70553,187.02054 4.4907,8.01992 -2.95091,-8.38217 z"
         id="path121"
         sodipodi:nodetypes="cccc"
         transform="rotate(1.3549077,584.9922,-847.53026)" />
      <path
         style="fill:#a65746;stroke:#a65746;stroke-width:0.264583"
         d="m 83.72413,221.83228 -5.010808,6.54305 3.420636,-6.85916 z"
         id="path122"
         sodipodi:nodetypes="cccc" />
      <path
         style="fill:#a65746;stroke:#a65746;stroke-width:0.264583"
         d="m 101.99425,218.71409 3.01699,-8.25007 -3.81232,7.12595 z"
         id="path123"
         sodipodi:nodetypes="cccc"
         transform="rotate(1.3549077,584.9922,-847.53026)" />
      <path
         style="fill:#a65746;stroke:#a65746;stroke-width:0.264583"
         d="m 49.986965,203.91557 6.693733,-1.37422 -0.572606,-1.0576 z"
         id="path124"
         sodipodi:nodetypes="cccc" />
      <path
         style="fill:#a65746;stroke:#a65746;stroke-width:0.264583"
         d="m 64.761198,187.88169 6.866766,2.1016 -6.055569,-2.92051 z"
         id="path125"
         sodipodi:nodetypes="cccc" />
      <path
         style="fill:#a65746;stroke:#a65746;stroke-width:0.264583"
         d="m 64.155073,165.79131 -8.608025,-0.63245 8.424892,-0.70661 z"
         id="path126"
         sodipodi:nodetypes="cccc" />
      <path
         style="fill:#a65746;stroke:#a65746;stroke-width:0.264583"
         d="m 77.95288,152.31189 6.712488,4.35983 -5.650616,-5.21748 z"
         id="path127"
         sodipodi:nodetypes="cccc" />
    </g>
    <g
       id="g17"
       inkscape:label="Arm2"
       style="display:inline"
       transform="rotate(-1.3549077,584.99181,-847.53053)">
      <path
         style="fill:#8f4333;fill-opacity:1;stroke:#000000;stroke-width:0.264583"
         d="m -28.243361,145.55999 -2.332523,-1.786 -0.24251,-2.87929 -4.433644,8.79847 z"
         id="path17"
         sodipodi:nodetypes="ccccc" />
      <path
         style="fill:#8f4333;fill-opacity:1;stroke:#000000;stroke-width:0.264583"
         d="M 81.126323,269.88709 76.49905,261.57525 53.373768,242.57118 39.167972,215.53411 7.3435728,191.71611 -0.50877264,161.5791 -28.071214,142.5567 l -4.764206,-26.83241 2.250766,28.05505 26.4214407,19.44479 7.5725965,30.17458 31.2800018,25.30018 12.274703,24.17158 22.748112,20.47985 3.613386,6.41646"
         id="path11"
         sodipodi:nodetypes="ccccccccccccccc" />
      <path
         style="fill:#8f4333;fill-opacity:1;stroke:#000000;stroke-width:0.264583"
         d="m 74.426271,259.92786 8.857956,-4.59588 -5.08955,9.24186 -1.70141,-3.03116 z"
         id="path12"
         sodipodi:nodetypes="ccccc" />
      <path
         style="fill:#8f4333;fill-opacity:1;stroke:#000000;stroke-width:0.264583"
         d="m 48.898536,244.60862 -1.98087,-1.6973 -1.334454,-2.78618 -3.268963,8.64206 z"
         id="path13"
         sodipodi:nodetypes="ccccc" />
      <path
         style="fill:#8f4333;fill-opacity:1;stroke:#000000;stroke-width:0.264583"
         d="m 40.812544,218.68456 -1.517939,-3.19826 -3.161613,-2.28886 12.531748,-4.60025 z"
         id="path14"
         sodipodi:nodetypes="ccccc" />
      <path
         style="fill:#8f4333;fill-opacity:1;stroke:#000000;stroke-width:0.264583"
         d="m 5.6409768,195.16835 -2.249408,-1.83329 -0.8747141,-3.45497 -3.6156555,10.40398 z"
         id="path15"
         sodipodi:nodetypes="ccccc" />
      <path
         style="fill:#8f4333;fill-opacity:1;stroke:#000000;stroke-width:0.264583"
         d="m -2.4833921,160.24677 1.99010571,1.30928 0.52603821,2.12705 7.25462428,-7.09919 z"
         id="path16"
         sodipodi:nodetypes="ccccc" />
      <path
         style="display:inline;fill:#782f1f;fill-opacity:1;stroke:#782f1f;stroke-width:0.264583;stroke-opacity:1"
         d="m 104.8632,281.21474 -4.16834,-6.7984 L 77.78332,255.87262 62.628398,229.11113 30.903822,206.14674 22.26937,175.70983 -5.2615572,157.36875 l -4.198669,-24.55023 4.7458625,24.12054 28.0043197,18.3626 8.577979,29.93759 32.390041,23.08377 14.839688,26.67493 23.577496,18.48188 4.65528,7.87228 -2.35031,0.035 z"
         id="path54"
         sodipodi:nodetypes="ccccccccccccccccc"
         transform="rotate(1.3549077,584.9922,-847.53026)" />
      <path
         style="fill:#782f1f;stroke:#782f1f;stroke-width:0.264583"
         d="m 75.971724,260.80757 6.995868,-5.18746 -8.06967,4.36331 z"
         id="path55"
         sodipodi:nodetypes="cccc" />
      <path
         style="fill:#782f1f;stroke:#782f1f;stroke-width:0.264583"
         d="m 46.120007,241.83951 -3.525966,6.65147 3.025232,-7.7168 z"
         id="path56"
         sodipodi:nodetypes="cccc" />
      <path
         style="fill:#782f1f;stroke:#782f1f;stroke-width:0.264583"
         d="m 38.380845,214.50989 9.843091,-5.61399 -11.566208,4.38637 z"
         id="path57"
         sodipodi:nodetypes="cccc" />
      <path
         style="fill:#782f1f;stroke:#782f1f;stroke-width:0.264583"
         d="m 2.837196,192.23316 -3.62286764,7.68193 3.25906894,-9.11847 z"
         id="path58"
         sodipodi:nodetypes="cccc" />
      <path
         style="fill:#782f1f;stroke:#782f1f;stroke-width:0.264583"
         d="m -1.1622764,160.80368 7.8843741,-3.87888 -8.629073,3.38084 z"
         id="path59"
         sodipodi:nodetypes="cccc" />
      <path
         style="fill:#782f1f;stroke:#782f1f;stroke-width:0.264583"
         d="m -30.903495,143.10579 -4.008401,6.21723 3.90122,-7.47013 z"
         id="path60"
         sodipodi:nodetypes="cccc" />
      <path
         style="fill:#a65746;fill-opacity:1;stroke:#a65746;stroke-width:0.264583;stroke-opacity:1"
         d="m 101.8761,281.41343 -3.976525,-6.70053 -23.68478,-19.97961 -12.689052,-23.98094 -32.207227,-24.27752 -8.361663,-29.97256 -27.0151057,-18.6829 -3.0695072,-23.05354 2.4122404,23.14373 26.8421965,18.80547 8.278543,29.92434 31.860921,24.60133 12.847858,23.88445 23.210189,19.92472 3.785792,6.37242 z"
         id="path104"
         sodipodi:nodetypes="cccccccccccccccc"
         transform="rotate(1.3549077,584.9922,-847.53026)" />
      <path
         style="fill:#a65746;stroke:#a65746;stroke-width:0.264583"
         d="m 78.198408,264.01213 4.539001,-8.21031 -5.292602,6.85992 z"
         id="path128"
         sodipodi:nodetypes="cccc" />
      <path
         style="fill:#a65746;stroke:#a65746;stroke-width:0.264583"
         d="m 48.462364,244.5876 -5.660349,3.57056 4.629178,-4.47126 z"
         id="path129"
         sodipodi:nodetypes="cccc" />
      <path
         style="fill:#a65746;stroke:#a65746;stroke-width:0.264583"
         d="m 40.866791,218.19036 7.112953,-9.14795 -7.836293,7.62874 z"
         id="path130"
         sodipodi:nodetypes="cccc" />
      <path
         style="display:inline;fill:#a65746;stroke:#a65746;stroke-width:0.264583"
         d="m 5.2129027,195.15971 -5.82300134,4.42734 4.83555414,-5.23769 z"
         id="path131"
         sodipodi:nodetypes="cccc" />
      <path
         style="fill:#a65746;stroke:#a65746;stroke-width:0.264583"
         d="m 0.17208113,163.15572 6.20734337,-6.05385 -6.43878272,5.1441 z"
         id="path132"
         sodipodi:nodetypes="cccc" />
      <path
         style="fill:#a65746;stroke:#a65746;stroke-width:0.264583"
         d="m -28.714241,145.53407 -6.026386,3.55568 5.116673,-4.26207 z"
         id="path133"
         sodipodi:nodetypes="cccc" />
    </g>
    <g
       id="g50"
       inkscape:label="Arm4"
       style="display:inline"
       transform="rotate(-1.3549077,584.99181,-847.53053)">
      <path
         style="display:inline;fill:#8f4333;fill-opacity:1;stroke:#000000;stroke-width:0.264583"
         d="m 96.771353,270.27187 16.531347,-4.96409 3.29732,-16.12372 -8.97681,-17.41812 -11.593448,-8.61423 -3.620854,-5.90274 3.907589,-11.41358 12.402763,0.72879 5.7877,-3.68991 4.63373,-12.29184 13.06215,-10.49275 12.09659,-6.1639 8.76799,-12.0489 2.41694,-16.92621 11.23455,-13.68191 -8.25361,15.39796 -1.59703,17.09291 -9.23342,13.91802 -12.7845,5.76789 -10.6303,9.45036 -6.11367,13.27164 -7.62893,4.76701 -12.764058,-0.63149 -1.057349,4.31395 4.139707,6.39093 9.43851,6.33374 11.73848,20.21886 -2.41581,17.39159 -9.75484,5.31974"
         id="path41"
         sodipodi:nodetypes="ccccccccccccccccccccccccccccc" />
      <path
         style="fill:#8f4333;fill-opacity:1;stroke:#000000;stroke-width:0.264583"
         d="m 110.87744,266.01604 2.43223,-0.69326 0.73471,-3.47859 -6.62104,-0.27619 z"
         id="path42"
         sodipodi:nodetypes="ccccc" />
      <path
         style="fill:#8f4333;fill-opacity:1;stroke:#000000;stroke-width:0.264583"
         d="m 121.68087,249.24649 0.30686,-1.69292 -1.48231,-2.52039 6.68557,0.61094 z"
         id="path43"
         sodipodi:nodetypes="ccccc" />
      <path
         style="fill:#8f4333;fill-opacity:1;stroke:#000000;stroke-width:0.264583"
         d="m 108.519,233.57429 -0.9247,-1.83138 -2.26861,-1.66224 -1.41014,5.1241 z"
         id="path44"
         sodipodi:nodetypes="ccccc" />
      <path
         style="fill:#8f4333;fill-opacity:1;stroke:#000000;stroke-width:0.264583"
         d="m 97.682944,216.23671 -1.077817,-1.65073 0.75697,-2.72548 4.621333,1.42765 z"
         id="path45"
         sodipodi:nodetypes="ccccc" />
      <path
         style="fill:#8f4333;fill-opacity:1;stroke:#000000;stroke-width:0.264583"
         d="m 95.647295,207.8029 0.677454,-1.98184 2.938706,0.16528 -3.833731,-6.99626 z"
         id="path46"
         sodipodi:nodetypes="ccccc" />
      <path
         style="fill:#8f4333;fill-opacity:1;stroke:#000000;stroke-width:0.264583"
         d="m 108.56277,210.85568 1.8968,0.08 2.46049,-1.57882 1.07338,7.22906 z"
         id="path47"
         sodipodi:nodetypes="ccccc" />
      <path
         style="fill:#8f4333;fill-opacity:1;stroke:#000000;stroke-width:0.264583"
         d="m 118.26671,192.8037 0.89774,-2.26258 2.56794,-2.07015 -9.32936,-2.05159 z"
         id="path48"
         sodipodi:nodetypes="ccccc" />
      <path
         style="fill:#8f4333;fill-opacity:1;stroke:#000000;stroke-width:0.264583"
         d="m 145.40018,178.64274 2.23467,-0.96509 2.1642,-3.29537 3.62058,8.22829 z"
         id="path49"
         sodipodi:nodetypes="ccccc" />
      <path
         style="fill:#8f4333;fill-opacity:1;stroke:#000000;stroke-width:0.264583"
         d="m 151.62605,163.80027 1.42471,-1.95922 0.55313,-3.35144 -9.29999,1.01454 z"
         id="path50"
         sodipodi:nodetypes="ccccc" />
      <path
         style="fill:#782f1f;fill-opacity:1;stroke:#782f1f;stroke-width:0.264583;stroke-opacity:1"
         d="m 131.60127,281.42985 10.40739,-4.97833 2.64106,-16.98571 -11.17987,-19.56678 -9.19929,-5.89788 -4.72622,-7.10295 1.59955,-6.08859 13.346,0.81385 7.07915,-4.74006 5.70634,-12.89553 11.08278,-9.83862 12.92434,-5.87821 8.45611,-13.29697 2.05564,-16.82891 8.48841,-14.09885 -7.72725,14.19358 -1.60159,17.07598 -9.15047,13.79881 -12.74596,5.74238 -10.71205,9.51777 -6.09923,13.24656 -7.50766,4.68895 -12.74562,-0.63041 -1.3161,4.61405 4.26864,6.5407 9.42752,6.32974 11.67023,20.0819 -2.38564,17.24078 -9.61295,5.19081 -0.0207,0.0992 -3.06656,0.012 z"
         id="path52"
         sodipodi:nodetypes="cccccccccccccccccccccccccccccccc"
         transform="translate(-24.341667,-11.641667)" />
      <path
         style="fill:#782f1f;stroke:#782f1f;stroke-width:0.264583"
         d="m 139.83566,274.23079 -5.76256,-1.52809 6.02347,0.21673 z"
         id="path61"
         sodipodi:nodetypes="cccc"
         transform="rotate(1.3549077,584.9922,-847.53026)" />
      <path
         style="fill:#782f1f;stroke:#782f1f;stroke-width:0.264583"
         d="m 147.46854,256.82688 5.28445,-0.56344 -5.81961,-0.26367 z"
         id="path62"
         sodipodi:nodetypes="cccc"
         transform="rotate(1.3549077,584.9922,-847.53026)" />
      <path
         style="fill:#782f1f;stroke:#782f1f;stroke-width:0.264583"
         d="m 129.85532,246.04944 2.40402,-3.70378 -1.14899,-0.80676 z"
         id="path63"
         sodipodi:nodetypes="cccc"
         transform="rotate(1.3549077,584.9922,-847.53026)" />
      <path
         style="fill:#782f1f;stroke:#782f1f;stroke-width:0.264583"
         d="m 122.48227,224.43034 4.40709,0.0467 -4.15101,-1.05735 z"
         id="path64"
         sodipodi:nodetypes="cccc"
         transform="rotate(1.3549077,584.9922,-847.53026)" />
      <path
         style="fill:#782f1f;stroke:#782f1f;stroke-width:0.264583"
         d="m 122.54538,216.87652 -2.1422,-6.15607 3.45586,6.1777 z"
         id="path65"
         sodipodi:nodetypes="cccc"
         transform="rotate(1.3549077,584.9922,-847.53026)" />
      <path
         style="fill:#782f1f;stroke:#782f1f;stroke-width:0.264583"
         d="m 136.84399,221.34608 2.23881,5.68399 -1.22903,-6.38103 z"
         id="path66"
         sodipodi:nodetypes="cccc"
         transform="rotate(1.3549077,584.9922,-847.53026)" />
      <path
         style="fill:#782f1f;stroke:#782f1f;stroke-width:0.264583"
         d="m 144.77584,200.12624 -7.38136,-2.57704 8.3961,1.7433 z"
         id="path67"
         sodipodi:nodetypes="cccc"
         transform="rotate(1.3549077,584.9922,-847.53026)" />
      <path
         style="fill:#782f1f;stroke:#782f1f;stroke-width:0.264583"
         d="m 173.21277,186.29359 4.38785,5.95973 -3.57205,-7.31828 z"
         id="path68"
         sodipodi:nodetypes="cccc"
         transform="rotate(1.3549077,584.9922,-847.53026)" />
      <path
         style="fill:#782f1f;stroke:#782f1f;stroke-width:0.264583"
         d="m 177.0187,170.09685 -8.34707,-0.34813 8.52671,-1.03231 z"
         id="path69"
         sodipodi:nodetypes="cccc"
         transform="rotate(1.3549077,584.9922,-847.53026)" />
      <path
         style="fill:#a65746;fill-opacity:1;stroke:#a65746;stroke-width:0.264583;stroke-opacity:1"
         d="m 127.61539,281.27038 13.49645,-4.76696 3.07175,-16.85227 -9.77086,-17.79122 -11.76511,-8.32655 -3.60823,-5.59508 2.92714,-9.77669 12.22466,0.56118 6.35987,-4.11028 4.81168,-12.53017 12.11032,-10.86505 12.06947,-6.24727 8.60589,-12.55865 1.96297,-17.00344 8.61909,-12.49371 -9.40653,12.01003 -2.01201,16.97928 -8.55775,12.36315 -11.98019,6.47058 -12.72253,10.72075 -4.35238,12.41727 -5.84999,3.9208 -12.41684,-0.43045 -3.43871,11.16324 3.67939,5.70107 11.80427,8.34447 9.46657,17.33043 -2.93909,16.38433 -15.58438,5.05179 z"
         id="path103"
         transform="rotate(1.3549077,584.9922,-847.53026)"
         sodipodi:nodetypes="cccccccccccccccccccccccccccccc" />
      <path
         style="fill:#a65746;fill-opacity:1;stroke:#a65746;stroke-width:0.264583;stroke-opacity:1"
         d="m 139.07464,276.09468 -4.73632,-3.30079 3.10679,3.82015 z"
         id="path105"
         transform="rotate(1.3549077,584.9922,-847.53026)"
         sodipodi:nodetypes="cccc" />
      <path
         style="fill:#a65746;fill-opacity:1;stroke:#a65746;stroke-width:0.264583;stroke-opacity:1"
         d="m 148.08045,259.35315 4.39751,-3.04385 -4.20543,1.94718 z"
         id="path106"
         sodipodi:nodetypes="cccc"
         transform="rotate(1.3549077,584.9922,-847.53026)" />
      <path
         style="fill:#a65746;fill-opacity:1;stroke:#a65746;stroke-width:0.264583;stroke-opacity:1"
         d="m 130.03605,245.85577 3.80514,-1.45387 -0.34668,-0.68989 z"
         id="path107"
         sodipodi:nodetypes="cccc"
         transform="rotate(1.3549077,584.9922,-847.53026)" />
      <path
         style="fill:#a65746;fill-opacity:1;stroke:#a65746;stroke-width:0.264583;stroke-opacity:1"
         d="m 123.03338,227.11232 3.57558,-2.58511 -4.15833,1.73421 z"
         id="path108"
         sodipodi:nodetypes="cccc"
         transform="rotate(1.3549077,584.9922,-847.53026)" />
      <path
         style="fill:#a65746;fill-opacity:1;stroke:#a65746;stroke-width:0.264583;stroke-opacity:1"
         d="m 120.92467,217.66593 -0.41058,-6.60259 0.62091,5.8164 z"
         id="path109"
         sodipodi:nodetypes="cccc"
         transform="rotate(1.3549077,584.9922,-847.53026)" />
      <path
         style="fill:#a65746;fill-opacity:1;stroke:#a65746;stroke-width:0.264583;stroke-opacity:1"
         d="m 134.37313,222.10501 4.57087,4.60156 -3.7928,-4.59153 z"
         id="path110"
         sodipodi:nodetypes="cccc"
         transform="rotate(1.3549077,584.9922,-847.53026)" />
      <path
         style="fill:#a65746;fill-opacity:1;stroke:#a65746;stroke-width:0.264583;stroke-opacity:1"
         d="m 142.89582,203.0644 -5.18182,-5.38858 5.56769,4.32335 z"
         id="path111"
         sodipodi:nodetypes="cccc"
         transform="rotate(1.3549077,584.9922,-847.53026)" />
      <path
         style="fill:#a65746;fill-opacity:1;stroke:#a65746;stroke-width:0.264583;stroke-opacity:1"
         d="m 175.5853,173.41482 -6.5573,-3.63653 7.19714,2.70736 z"
         id="path113"
         sodipodi:nodetypes="cccc"
         transform="rotate(1.3549077,584.9922,-847.53026)" />
      <path
         style="display:inline;fill:#a65746;fill-opacity:1;stroke:#a65746;stroke-width:0.264583;stroke-opacity:1"
         d="m 170.4137,188.7457 6.9768,3.25514 -5.75155,-3.80913 z"
         id="path112"
         sodipodi:nodetypes="cccc"
         transform="rotate(1.3549077,584.9922,-847.53026)" />
    </g>
  </g>
</svg>
