<?xml version="1.0" encoding="UTF-8" standalone="no"?>
<!-- Created with Inkscape (http://www.inkscape.org/) -->

<svg
   width="210mm"
   height="297mm"
   viewBox="0 0 210 297"
   version="1.1"
   id="svg1"
   inkscape:version="1.3.2 (091e20e, 2023-11-25, custom)"
   sodipodi:docname="AnimatedThornbushAttackLeft2.svg"
   xmlns:inkscape="http://www.inkscape.org/namespaces/inkscape"
   xmlns:sodipodi="http://sodipodi.sourceforge.net/DTD/sodipodi-0.dtd"
   xmlns="http://www.w3.org/2000/svg"
   xmlns:svg="http://www.w3.org/2000/svg">
  <sodipodi:namedview
     id="namedview1"
     pagecolor="#ffffff"
     bordercolor="#000000"
     borderopacity="0.25"
     inkscape:showpageshadow="2"
     inkscape:pageopacity="0.0"
     inkscape:pagecheckerboard="0"
     inkscape:deskcolor="#d1d1d1"
     inkscape:document-units="mm"
     inkscape:zoom="0.5"
     inkscape:cx="314"
     inkscape:cy="785"
     inkscape:window-width="1920"
     inkscape:window-height="1009"
     inkscape:window-x="2552"
     inkscape:window-y="-3"
     inkscape:window-maximized="1"
     inkscape:current-layer="layer1" />
  <defs
     id="defs1" />
  <g
     inkscape:label="Ebene 1"
     inkscape:groupmode="layer"
     id="layer1">
    <g
       id="g28"
       inkscape:label="Arm3"
       style="display:inline"
       transform="rotate(-1.3549077,584.99181,-847.53053)">
      <path
         style="fill:#71291c;fill-opacity:1;stroke:#000000;stroke-width:0.264583"
         d="m 88.165534,270.1617 6.361015,-6.8344 11.085001,-8.83994 4.63045,-14.87355 -6.59488,-16.04285 -19.270131,-8.41899 -13.283295,-8.79317 -17.399246,-3.18051 -14.967095,-9.16734 -8.044812,-22.45064 -28.437477,-15.71545 -19.083044,-3.74177 20.205576,-0.37418 30.682543,14.78 9.354431,24.50862 11.038231,6.5481 16.83798,2.99342 14.967095,10.10279 19.644314,8.2319 9.72861,20.20558 -4.30304,16.4638 -11.03823,10.10278 -3.554688,4.67722"
         id="path18"
         sodipodi:nodetypes="ccccccccccccccccccccccc" />
      <path
         style="fill:#71291c;fill-opacity:1;stroke:#000000;stroke-width:0.264583"
         d="m 93.123384,264.91755 1.403165,-1.59025 2.104747,-1.73057 -6.361015,-4.25627 z"
         id="path19" />
      <path
         style="fill:#71291c;fill-opacity:1;stroke:#000000;stroke-width:0.264583"
         d="m 109.54041,257.20015 1.77735,-1.63703 1.02898,-3.3676 5.56589,6.54811 z"
         id="path20" />
      <path
         style="fill:#71291c;fill-opacity:1;stroke:#000000;stroke-width:0.264583"
         d="m 109.63396,241.25084 0.60804,-1.6838 -1.07576,-2.66601 -4.86431,2.71278 z"
         id="path21" />
      <path
         style="fill:#71291c;fill-opacity:1;stroke:#000000;stroke-width:0.264583"
         d="m 107.12318,221.48932 -1.2237,-2.64583 -2.91042,-1.2237 7.87136,-3.57188 z"
         id="path22" />
      <path
         style="fill:#71291c;fill-opacity:1;stroke:#000000;stroke-width:0.264583"
         d="m 87.147134,216.36302 -2.84427,-1.2237 -2.645834,-1.88516 -0.892969,9.55808 z"
         id="path23" />
      <path
         style="fill:#71291c;fill-opacity:1;stroke:#000000;stroke-width:0.264583"
         d="m 74.46129,202.6638 -3.180509,-2.15152 -3.975632,-0.74835 7.34323,-7.95127 z"
         id="path24" />
      <path
         style="fill:#71291c;fill-opacity:1;stroke:#000000;stroke-width:0.264583"
         d="m 57.348437,203.82838 -3.73724,-0.66146 -3.340364,-2.11666 1.124479,11.54245 z"
         id="path25" />
      <path
         style="fill:#71291c;fill-opacity:1;stroke:#000000;stroke-width:0.264583"
         d="m 31.828459,174.90452 -1.169305,-3.43776 -3.203892,-1.70718 -0.865286,7.60048 z"
         id="path26" />
      <path
         style="fill:#71291c;fill-opacity:1;stroke:#000000;stroke-width:0.264583"
         d="m 46.066732,192.58743 -2.476628,-1.42597 -1.262789,-2.95702 11.019299,-3.65757 z"
         id="path27"
         sodipodi:nodetypes="ccccc" />
      <path
         style="fill:#71291c;fill-opacity:1;stroke:#000000;stroke-width:0.264583"
         d="m 0.88867116,151.70552 2.54908304,-0.0234 2.3619944,1.23947 -1.4967093,-8.04482 z"
         id="path28" />
      <path
         style="fill:#71291c;fill-opacity:1;stroke:#000000;stroke-width:0.264583"
         d="m 101.16536,217.06728 3.23012,-12.67291 -1.73057,-12.95589 -5.752981,-10.61728 1.169305,-10.52374 4.312516,-11.28288 5.95312,-9.26042 0.26459,-13.75833 -3.83646,-13.09687 0.79375,12.96458 -1.19063,12.83229 -5.556246,8.59896 -4.365625,11.50937 -1.455209,11.77396 5.820834,11.90625 1.058333,11.90625 -3.568551,10.62844"
         id="path29"
         sodipodi:nodetypes="ccccccccccccccccc" />
      <path
         style="fill:#71291c;fill-opacity:1;stroke:#000000;stroke-width:0.264583"
         d="m 103.97453,201.63481 8.09158,2.80633 -8.37222,2.47893 0.79513,-2.61924 z"
         id="path30" />
      <path
         style="fill:#71291c;fill-opacity:1;stroke:#000000;stroke-width:0.264583"
         d="m 93.965283,182.41145 -1.028989,-1.91766 0.608039,-4.16272 -7.34323,5.7062 z"
         id="path31" />
      <path
         style="fill:#71291c;fill-opacity:1;stroke:#000000;stroke-width:0.264583"
         d="m 101.6,160.96588 0.79375,-2.01744 1.91823,-2.94349 4.66328,5.25859 z"
         id="path32" />
      <path
         style="fill:#71291c;fill-opacity:1;stroke:#000000;stroke-width:0.264583"
         d="m 103.31972,150.2322 c 0.0935,0 1.05237,-1.56687 1.05237,-1.56687 l 0.35079,-3.97563 -7.506932,2.6894 z"
         id="path33" />
      <path
         style="fill:#5f190e;fill-opacity:1;stroke:#5f190e;stroke-width:0.264583;stroke-opacity:1"
         d="m 120.81676,281.44583 4.20524,-5.46666 10.7576,-10.05602 3.99902,-16.20655 -9.30766,-18.45162 -19.69108,-7.71741 -14.967097,-9.58829 -16.791206,-2.59586 -12.020447,-6.57149 -10.079403,-24.43845 -29.770485,-13.86795 -18.9154498,-0.3287 18.8534378,-0.69604 30.880492,13.98347 9.934952,24.26932 11.313555,6.36101 16.901289,2.59042 15.158312,9.71893 19.76927,7.74493 10.1276,19.7982 -3.86166,16.3881 -10.77519,10.31998 -3.45288,4.78588 z"
         id="path85"
         sodipodi:nodetypes="cccccccccccccccccccccccc"
         transform="rotate(1.3549077,584.9922,-847.53026)" />
      <path
         style="fill:#5f190e;fill-opacity:1;stroke:#5f190e;stroke-width:0.264583;stroke-opacity:1"
         d="m 99.496184,216.36431 3.457136,-12.15257 -1.55004,-12.5985 -5.746909,-10.70939 1.215143,-10.82544 4.352346,-11.42962 5.80945,-9.24304 0.35359,-13.46579 -2.41638,-11.84018 3.38139,11.92905 -0.26018,13.64829 -5.91925,9.14474 -4.344929,11.40569 -1.199886,10.64493 5.792675,10.63757 1.7112,12.85266 -3.2019,12.56308 z"
         id="path86"
         sodipodi:nodetypes="cccccccccccccccccc" />
      <path
         style="fill:#5f190e;fill-opacity:1;stroke:#5f190e;stroke-width:0.264583;stroke-opacity:1"
         d="m 95.140151,262.50083 -4.575643,-4.77908 5.641688,3.90933 z"
         id="path87"
         sodipodi:nodetypes="cccc" />
      <path
         style="fill:#5f190e;fill-opacity:1;stroke:#5f190e;stroke-width:0.264583;stroke-opacity:1"
         d="m 112.0892,253.91189 5.47659,4.65766 -5.12174,-5.84849 z"
         id="path88"
         sodipodi:nodetypes="cccc" />
      <path
         style="fill:#5f190e;fill-opacity:1;stroke:#5f190e;stroke-width:0.264583;stroke-opacity:1"
         d="m 109.42068,238.22986 -4.73927,1.40969 4.37346,-2.37773 z"
         id="path89"
         sodipodi:nodetypes="cccc" />
      <path
         style="fill:#5f190e;fill-opacity:1;stroke:#5f190e;stroke-width:0.264583;stroke-opacity:1"
         d="m 105.15271,218.25137 5.43679,-3.91227 -6.97287,3.28046 z"
         id="path90"
         sodipodi:nodetypes="cccc" />
      <path
         style="fill:#5f190e;fill-opacity:1;stroke:#5f190e;stroke-width:0.264583;stroke-opacity:1"
         d="m 84.859213,215.66217 -3.937461,6.77508 5.774905,-5.98645 z"
         id="path91"
         sodipodi:nodetypes="cccc" />
      <path
         style="fill:#5f190e;fill-opacity:1;stroke:#5f190e;stroke-width:0.264583;stroke-opacity:1"
         d="m 69.858724,199.98999 4.683685,-7.85802 -6.73054,7.47393 z"
         id="path92"
         sodipodi:nodetypes="cccc" />
      <path
         style="fill:#5f190e;fill-opacity:1;stroke:#5f190e;stroke-width:0.264583;stroke-opacity:1"
         d="m 43.323702,189.8718 9.523545,-5.01827 -10.176388,3.49476 z"
         id="path93"
         sodipodi:nodetypes="cccc" />
      <path
         style="fill:#5f190e;fill-opacity:1;stroke:#5f190e;stroke-width:0.264583;stroke-opacity:1"
         d="m 54.603386,203.60644 -3.079726,8.5588 5.36472,-8.143 z"
         id="path94"
         sodipodi:nodetypes="cccc" />
      <path
         style="fill:#5f190e;fill-opacity:1;stroke:#5f190e;stroke-width:0.264583;stroke-opacity:1"
         d="m 30.801021,172.71469 -4.051468,4.39556 4.745938,-2.35567 z"
         id="path95"
         sodipodi:nodetypes="cccc" />
      <path
         style="fill:#5f190e;fill-opacity:1;stroke:#5f190e;stroke-width:0.264583;stroke-opacity:1"
         d="m 2.8731259,151.43297 1.3770778,-6.12071 -2.9570412,6.13297 z"
         id="path96"
         sodipodi:nodetypes="cccc" />
      <path
         style="fill:#5f190e;fill-opacity:1;stroke:#5f190e;stroke-width:0.264583;stroke-opacity:1"
         d="m 104.58688,203.39868 6.98125,1.04021 -7.27037,-2.40287 z"
         id="path97"
         sodipodi:nodetypes="cccc" />
      <path
         style="fill:#5f190e;fill-opacity:1;stroke:#5f190e;stroke-width:0.264583;stroke-opacity:1"
         d="m 93.003789,178.3264 -6.389676,3.60923 6.568699,-4.99686 z"
         id="path98"
         sodipodi:nodetypes="cccc" />
      <path
         style="fill:#5f190e;fill-opacity:1;stroke:#5f190e;stroke-width:0.264583;stroke-opacity:1"
         d="m 103.52383,157.69743 5.11846,3.42222 -4.29741,-4.68844 z"
         id="path99"
         sodipodi:nodetypes="cccc" />
      <path
         style="fill:#5f190e;fill-opacity:1;stroke:#5f190e;stroke-width:0.264583;stroke-opacity:1"
         d="m 104.30499,146.5692 -6.686954,0.84772 6.815864,-2.3418 z"
         id="path100"
         sodipodi:nodetypes="cccc" />
      <path
         style="fill:#84392a;fill-opacity:1;stroke:#84392a;stroke-width:0.264583;stroke-opacity:1"
         d="m 119.64127,275.7289 -2.56732,-6.38175 3.25359,5.5632 z"
         id="path134"
         transform="rotate(1.3549077,584.9922,-847.53026)"
         sodipodi:nodetypes="cccc" />
      <path
         style="fill:#84392a;fill-opacity:1;stroke:#84392a;stroke-width:0.264583;stroke-opacity:1"
         d="m 110.10153,257.0409 7.19197,1.31693 -6.16513,-2.27346 z"
         id="path135"
         sodipodi:nodetypes="cccc" />
      <path
         style="fill:#84392a;fill-opacity:1;stroke:#84392a;stroke-width:0.264583;stroke-opacity:1"
         d="m 109.47363,240.9194 -4.4404,-1.36609 4.73408,0.52287 z"
         id="path136"
         sodipodi:nodetypes="cccc" />
      <path
         style="fill:#84392a;fill-opacity:1;stroke:#84392a;stroke-width:0.264583;stroke-opacity:1"
         d="m 107.13306,220.84919 3.1814,-6.3051 -3.68255,5.24057 z"
         id="path137"
         sodipodi:nodetypes="cccc" />
      <path
         style="fill:#84392a;fill-opacity:1;stroke:#84392a;stroke-width:0.264583;stroke-opacity:1"
         d="m 104.07377,206.53591 7.17051,-2.12808 -6.87217,1.14816 z"
         id="path138"
         sodipodi:nodetypes="cccc" />
      <path
         style="fill:#84392a;fill-opacity:1;stroke:#84392a;stroke-width:0.264583;stroke-opacity:1"
         d="m 86.893087,181.80405 c 0.09352,0.002 6.620524,0.31692 6.620524,0.31692 l -0.557987,-1.06408 z"
         id="path139"
         sodipodi:nodetypes="cccc" />
      <path
         style="fill:#84392a;fill-opacity:1;stroke:#84392a;stroke-width:0.264583;stroke-opacity:1"
         d="m 101.96209,160.71561 6.43661,0.25975 -5.97979,-1.39028 z"
         id="path140"
         sodipodi:nodetypes="cccc" />
      <path
         style="fill:#84392a;fill-opacity:1;stroke:#84392a;stroke-width:0.264583;stroke-opacity:1"
         d="m 97.893776,147.3948 5.349694,2.50431 0.70746,-1.06258 z"
         id="path141"
         sodipodi:nodetypes="cccc" />
      <path
         style="fill:#84392a;fill-opacity:1;stroke:#84392a;stroke-width:0.264583;stroke-opacity:1"
         d="m 90.554973,270.07597 5.569114,-6.42268 10.559293,-8.64935 4.6627,-15.30601 -6.82156,-16.50394 -19.802542,-8.97049 -13.152051,-9.01168 -17.5864,-3.36026 -14.315535,-8.77455 -8.040318,-22.32214 -29.0323061,-15.97063 -17.1435479,-2.50206 16.9012088,3.30684 28.5228272,15.69375 8.062987,22.55029 14.84268,9.09599 17.398326,3.18455 13.314827,8.80339 19.355814,8.45128 6.67981,16.20284 -4.69452,15.07781 -11.122525,8.85934 -6.080597,6.54292 z"
         id="path142"
         sodipodi:nodetypes="cccccccccccccccccccccccc" />
      <path
         style="fill:#84392a;fill-opacity:1;stroke:#84392a;stroke-width:0.264583;stroke-opacity:1"
         d="m 97.45137,215.35631 3.59421,-10.82024 -1.177044,-12.12764 -5.97122,-11.89367 1.489971,-11.59314 4.363773,-11.40938 5.52795,-8.52851 0.9729,-13.16023 -1.07713,-10.70718 0.66452,10.73969 -1.2016,12.93553 -5.582161,8.61678 -4.341508,11.45702 -1.435297,11.66929 5.796444,11.87634 1.075962,12.02174 -3.563056,10.56952 z"
         id="path143"
         sodipodi:nodetypes="cccccccccccccccccc" />
      <path
         style="fill:#84392a;fill-opacity:1;stroke:#84392a;stroke-width:0.264583;stroke-opacity:1"
         d="m 83.010401,214.55519 -1.915317,7.54707 0.784732,-8.35123 z"
         id="path144"
         sodipodi:nodetypes="cccc" />
      <path
         style="fill:#84392a;fill-opacity:1;stroke:#84392a;stroke-width:0.264583;stroke-opacity:1"
         d="m 74.211114,202.17822 0.159934,-9.73646 -1.696466,8.7103 z"
         id="path145"
         sodipodi:nodetypes="cccc" />
      <path
         style="fill:#84392a;fill-opacity:1;stroke:#84392a;stroke-width:0.264583;stroke-opacity:1"
         d="m 52.04144,202.48794 -0.442315,9.4345 -1.008198,-10.34962 z"
         id="path146"
         sodipodi:nodetypes="cccc" />
      <path
         style="fill:#84392a;fill-opacity:1;stroke:#84392a;stroke-width:0.264583;stroke-opacity:1"
         d="m 46.017792,192.25362 6.567896,-7.24989 -7.704824,6.60894 z"
         id="path147"
         sodipodi:nodetypes="cccc" />
      <path
         style="fill:#84392a;fill-opacity:1;stroke:#84392a;stroke-width:0.264583;stroke-opacity:1"
         d="m 27.668191,170.16681 -0.755158,6.70752 2.066326,-6.01567 z"
         id="path148"
         sodipodi:nodetypes="cccc" />
      <path
         style="fill:#84392a;fill-opacity:1;stroke:#84392a;stroke-width:0.264583;stroke-opacity:1"
         d="m 5.4482637,152.43945 -1.2659492,-6.76463 0.313826,6.26496 z"
         id="path149"
         sodipodi:nodetypes="cccc" />
    </g>
    <g
       id="g10"
       inkscape:label="Arm1"
       style="display:inline"
       transform="rotate(-1.3549077,584.99181,-847.53053)">
      <path
         style="display:inline;fill:#8f4333;fill-opacity:1;stroke:#000000;stroke-width:0.264583;stroke-opacity:1"
         d="m 88.085672,270.19829 5.941264,-14.72401 -3.09979,-7.49115 -1.291579,-6.4579 0.774949,-4.39136 9.557684,-11.3659 0.77495,-3.3581 -0.25832,-5.42463 -2.841474,-18.85705 1.29158,-5.94126 3.874734,-3.61643 13.94905,-4.908 3.61642,-2.58315 -1.03326,-5.42463 v -2.84148 l 5.42463,-4.39137 15.24063,-6.19957 5.16632,-5.16632 3.09978,-14.46568 6.62053,-3.42292 10.49006,-1.24481 10.27089,-5.92322 6.71621,-11.62421 -8.00779,8.26611 -6.71621,3.87473 -14.20737,2.06653 -8.2661,2.58316 -4.39137,14.98231 -5.16632,5.94126 -13.69073,5.16632 -6.4579,5.16631 -1.54989,7.23285 -0.51663,3.3581 -5.68295,2.32484 -7.49116,3.35811 -5.941259,3.09979 -2.324841,5.94126 -0.516633,7.74947 1.291579,10.84926 0.774949,9.29937 -4.391369,6.19958 -4.133051,4.908 -2.841474,7.49115 2.066526,7.23285 1.033264,8.2661 -4.133054,14.20738"
         id="path1"
         sodipodi:nodetypes="cccccccccccccccccccccccccccccccccccccccccccccc" />
      <path
         style="fill:#8f4333;fill-opacity:1;stroke:#000000;stroke-width:0.264583"
         d="m 94.026301,255.48828 6.515369,-7.04453 -8.152479,3.07578 z"
         id="path2"
         sodipodi:nodetypes="cccc" />
      <path
         style="fill:#8f4333;fill-opacity:1;stroke:#000000;stroke-width:0.264583"
         d="m 82.471022,239.2981 c 0,-0.11693 1.648721,-4.24457 1.648721,-4.24457 l -10.36714,-0.96343 z"
         id="path3"
         sodipodi:nodetypes="cccc" />
      <path
         style="fill:#8f4333;fill-opacity:1;stroke:#000000;stroke-width:0.264583"
         d="m 99.91328,225.77226 0.8599,-3.42304 -0.16537,-3.19154 8.7974,4.28294 z"
         id="path4" />
      <path
         style="fill:#8f4333;fill-opacity:1;stroke:#000000;stroke-width:0.264583"
         d="m 93.207746,190.4752 1.083138,-2.75333 2.315105,-1.17408 -6.616341,-6.28786 z"
         id="path5"
         sodipodi:nodetypes="ccccc" />
      <path
         style="fill:#8f4333;fill-opacity:1;stroke:#000000;stroke-width:0.264583"
         d="m 117.87284,182.90077 2.52911,-1.85963 -0.69169,-3.62784 8.25839,5.93359 z"
         id="path6"
         sodipodi:nodetypes="ccccc" />
      <path
         style="fill:#8f4333;fill-opacity:1;stroke:#000000;stroke-width:0.264583"
         d="m 114.84906,171.11597 0.58465,-2.64262 2.64263,-2.22168 -10.21972,-3.57807 z"
         id="path7" />
      <path
         style="fill:#8f4333;fill-opacity:1;stroke:#000000;stroke-width:0.264583"
         d="m 139.9891,162.20587 5.1917,-5.19171 5.42558,11.03824 z"
         id="path8" />
      <path
         style="fill:#8f4333;fill-opacity:1;stroke:#000000;stroke-width:0.264583"
         d="m 144.36328,139.73307 0.82682,-2.61276 3.175,-1.02526 -7.63984,-4.46484 z"
         id="path9" />
      <path
         style="fill:#8f4333;fill-opacity:1;stroke:#000000;stroke-width:0.264583"
         d="m 165.33961,137.97789 5.84652,-3.43775 1.54348,10.57051 z"
         id="path10" />
      <path
         style="fill:#8f4333;fill-opacity:1;stroke:#000000;stroke-width:0.264583"
         d="m 88.024741,229.22672 -14.86745,-10.68089 -1.502331,-12.7483 -12.160763,-14.03165 -0.374179,-5.05139 6.361014,-9.9157 1.496711,-5.98684 -1.870887,-9.72861 -7.857723,-9.35443 -2.432153,-6.36102 3.554685,-12.53494 7.670633,-10.47696 13.096208,-5.42557 -10.664054,6.92228 -5.986836,9.16734 -3.741774,11.97368 2.806329,6.36101 6.173928,6.36102 3.367595,12.53494 -1.122532,7.29646 -6.184302,10.71139 2.629617,3.69443 8.606079,10.10279 2.057974,12.53494 14.815085,9.67014"
         id="path34"
         sodipodi:nodetypes="ccccccccccccccccccccccccc" />
      <path
         style="fill:#8f4333;fill-opacity:1;stroke:#000000;stroke-width:0.264583"
         d="m 75.911228,220.53077 -2.75956,-2.01121 -0.561266,-4.0224 -5.098166,10.38342 z"
         id="path35" />
      <path
         style="fill:#8f4333;fill-opacity:1;stroke:#000000;stroke-width:0.264583"
         d="m 75.373348,204.74516 -0.350792,-2.66601 -2.034591,-2.45554 9.728613,-1.80073 z"
         id="path36" />
      <path
         style="fill:#8f4333;fill-opacity:1;stroke:#000000;stroke-width:0.264583"
         d="m 59.465103,191.85599 -0.330729,-5.19245 -7.474479,3.30729 z"
         id="path37" />
      <path
         style="fill:#8f4333;fill-opacity:1;stroke:#000000;stroke-width:0.264583"
         d="m 70.813061,171.88771 0.327404,-1.68379 -0.935443,-3.25067 8.629465,2.50231 z"
         id="path38" />
      <path
         style="fill:#8f4333;fill-opacity:1;stroke:#000000;stroke-width:0.264583"
         d="m 58.770572,153.55755 -1.5875,-1.75286 -1.157552,-3.24115 -5.820833,9.8888 z"
         id="path39" />
      <path
         style="fill:#8f4333;fill-opacity:1;stroke:#000000;stroke-width:0.264583"
         d="m 61.929036,134.88789 0.628385,-1.98438 1.951302,-3.00963 6.498828,4.84518 z"
         id="path40" />
      <path
         style="fill:#782f1f;fill-opacity:1;stroke:#782f1f;stroke-width:0.264583;stroke-opacity:1"
         d="m 112.20161,281.69205 -1.69221,-0.051 5.62589,-14.24453 -0.56126,-2.15154 -1.73058,-4.06917 -0.93544,-3.92886 -0.51449,-4.44336 0.79512,-4.49013 5.98684,-7.01582 3.50791,-4.39659 0.88867,-3.50791 -0.28063,-4.63044 -1.21607,-7.10937 -1.02899,-6.40779 -0.70158,-5.14494 1.44993,-6.50133 0.88867,-1.35639 2.94665,-2.75956 8.83994,-3.55468 6.17392,-2.05798 1.96444,-1.63702 -0.18709,-3.97564 -0.18709,-3.78854 0.51449,-1.12254 5.0514,-4.11595 15.38804,-6.45456 4.58367,-4.77076 3.18051,-13.84456 1.07576,-1.44994 6.45456,-3.1805 10.99146,-1.3564 9.77538,-5.3788 6.73519,-9.95728 -6.15763,10.60383 -10.20695,5.86281 -10.45241,1.25199 -6.78221,3.4968 -3.07585,14.45886 -5.16549,5.16691 -15.17757,6.1594 -5.54333,4.48753 -0.0117,2.99 1.02899,5.26529 -3.45347,2.48093 -14.00141,4.93647 -3.93856,3.68473 -1.32272,6.0544 2.83113,18.88911 0.28406,5.39391 -0.83221,3.33512 -9.49274,11.28036 -0.79513,4.51434 1.28966,6.54468 3.08212,7.43193 z"
         id="path51"
         sodipodi:nodetypes="ccccccccccccccccccccccccccccccccccccccccccccccccccccccc"
         transform="translate(-24.341667,-11.641667)" />
      <path
         style="fill:#782f1f;fill-opacity:1;stroke:#782f1f;stroke-width:0.264583;stroke-opacity:1"
         d="m 115.00992,237.32197 -14.82394,-9.86892 -2.525696,-13.6107 -11.248705,-13.33007 6.548102,-11.69304 1.075761,-7.13276 -3.016805,-11.83336 -6.244085,-6.36101 -2.90178,-6.64732 3.720292,-12.50588 6.127155,-9.02703 10.406811,-6.08038 -9.489791,6.0698 -6.027539,9.23561 -3.811654,12.10469 2.877344,6.49882 6.176367,6.37481 3.315559,12.39408 -1.091406,7.17682 -6.250781,10.83965 2.736784,3.84473 8.565885,10.06243 2.042252,12.55117 14.81666,9.65729 z"
         id="path53"
         sodipodi:nodetypes="ccccccccccccccccccccccccc"
         transform="translate(-24.341667,-11.641667)" />
      <path
         style="fill:#782f1f;stroke:#782f1f;stroke-width:0.264583"
         d="m 119.26371,263.91324 6.86913,-3.98862 -7.2707,3.07952 z"
         id="path70"
         sodipodi:nodetypes="cccc"
         transform="rotate(1.3549077,584.9922,-847.53026)" />
      <path
         style="fill:#782f1f;stroke:#782f1f;stroke-width:0.264583"
         d="m 109.12408,247.83603 -9.04544,-1.77353 9.41339,0.76894 z"
         id="path71"
         sodipodi:nodetypes="cccc"
         transform="rotate(1.3549077,584.9922,-847.53026)" />
      <path
         style="fill:#782f1f;stroke:#782f1f;stroke-width:0.264583"
         d="m 126.3497,231.93219 8.06181,2.41975 -8.16363,-3.61763 z"
         id="path72"
         sodipodi:nodetypes="cccc"
         transform="rotate(1.3549077,584.9922,-847.53026)" />
      <path
         style="fill:#782f1f;stroke:#782f1f;stroke-width:0.264583"
         d="m 119.71026,198.32057 -4.98031,-6.16693 6.02577,5.60285 z"
         id="path73"
         sodipodi:nodetypes="cccc"
         transform="rotate(1.3549077,584.9922,-847.53026)" />
      <path
         style="fill:#782f1f;stroke:#782f1f;stroke-width:0.264583"
         d="m 144.74817,190.09378 7.27307,3.62484 -7.5654,-5.00462 z"
         id="path74"
         sodipodi:nodetypes="cccc"
         transform="rotate(1.3549077,584.9922,-847.53026)" />
      <path
         style="fill:#782f1f;stroke:#782f1f;stroke-width:0.264583"
         d="m 140.48548,178.14726 -8.12767,-4.15065 9.30176,3.13366 z"
         id="path75"
         sodipodi:nodetypes="cccc"
         transform="rotate(1.3549077,584.9922,-847.53026)" />
      <path
         style="fill:#782f1f;stroke:#782f1f;stroke-width:0.264583"
         d="m 167.43565,169.22159 6.9413,8.47919 -5.38621,-10.11211 z"
         id="path76"
         sodipodi:nodetypes="cccc"
         transform="rotate(1.3549077,584.9922,-847.53026)" />
      <path
         style="fill:#782f1f;stroke:#782f1f;stroke-width:0.264583"
         d="m 169.91211,146.51095 -5.55625,-4.28087 6.76773,3.87044 z"
         id="path77"
         sodipodi:nodetypes="cccc"
         transform="rotate(1.3549077,584.9922,-847.53026)" />
      <path
         style="fill:#782f1f;stroke:#782f1f;stroke-width:0.264583"
         d="m 192.55052,145.58698 3.5388,8.61549 -1.757,-9.7317 z"
         id="path78"
         sodipodi:nodetypes="cccc"
         transform="rotate(1.3549077,584.9922,-847.53026)" />
      <path
         style="fill:#782f1f;stroke:#782f1f;stroke-width:0.264583"
         d="m 97.97015,228.70421 -4.612906,7.82264 4.384893,-9.34859 z"
         id="path79"
         sodipodi:nodetypes="cccc"
         transform="rotate(1.3549077,584.9922,-847.53026)" />
      <path
         style="fill:#782f1f;stroke:#782f1f;stroke-width:0.264583"
         d="m 99.156737,212.48935 7.949903,-2.84013 -8.751921,1.95544 z"
         id="path80"
         sodipodi:nodetypes="cccc"
         transform="rotate(1.3549077,584.9922,-847.53026)" />
      <path
         style="fill:#782f1f;stroke:#782f1f;stroke-width:0.264583"
         d="m 83.61885,200.53378 -6.856611,1.77325 6.765245,-3.11052 z"
         id="path81"
         sodipodi:nodetypes="cccc"
         transform="rotate(1.3549077,584.9922,-847.53026)" />
      <path
         style="fill:#782f1f;stroke:#782f1f;stroke-width:0.264583"
         d="m 95.039867,180.21245 7.565403,0.94714 -7.902373,-1.95521 z"
         id="path82"
         sodipodi:nodetypes="cccc"
         transform="rotate(1.3549077,584.9922,-847.53026)" />
      <path
         style="fill:#782f1f;stroke:#782f1f;stroke-width:0.264583"
         d="m 80.113121,162.51847 -5.599841,7.95588 5.185599,-9.08477 z"
         id="path83"
         sodipodi:nodetypes="cccc"
         transform="rotate(1.3549077,584.9922,-847.53026)" />
      <path
         style="fill:#782f1f;stroke:#782f1f;stroke-width:0.264583"
         d="m 87.154087,143.40931 6.834582,3.1045 -6.156386,-4.20949 z"
         id="path84"
         sodipodi:nodetypes="cccc"
         transform="rotate(1.3549077,584.9922,-847.53026)" />
      <path
         style="display:inline;fill:#a65746;fill-opacity:1;stroke:#a65746;stroke-width:0.264583;stroke-opacity:1"
         d="m 83.17719,269.88372 4.361645,-13.80083 -1.002841,-9.02988 -1.967176,-6.83039 2.739854,-7.04655 8.534596,-10.7225 -0.856238,-11.2721 -1.477776,-9.7195 0.27379,-7.61952 2.092724,-5.40099 6.748332,-3.44285 11.34051,-4.73779 0.92618,-0.58631 2.17813,-10.9898 5.99339,-4.16248 13.24256,-5.0437 5.67793,-6.64957 4.35291,-14.91511 9.51336,-2.65228 12.01677,-1.68076 6.95251,-4.1632 6.13236,-7.1944 -6.41601,6.62381 -6.79744,3.92639 -14.24663,2.07319 -8.1001,2.52842 -4.38105,14.91559 -5.24598,6.02738 -13.70059,5.17001 -6.35555,5.10089 -1.53072,7.10319 -0.53934,3.50766 -5.76604,2.36141 -7.54774,3.37973 -5.83109,3.04231 -2.279028,5.81174 -0.503129,7.6772 1.299533,10.94009 0.775007,9.29646 -4.437059,6.27807 -4.132329,4.89475 -2.788952,7.35838 2.040661,7.1662 1.047178,8.34311 -4.094206,14.08403 z"
         id="path101"
         sodipodi:nodetypes="cccccccccccccccccccccccccccccccccccccccccccccc" />
      <path
         style="fill:#a65746;fill-opacity:1;stroke:#a65746;stroke-width:0.264583;stroke-opacity:1"
         d="m 88.312934,227.47638 -13.631487,-9.75206 -1.847951,-12.08562 -12.184585,-14.24886 -0.319563,-4.67215 6.446276,-9.59023 1.287326,-6.17246 -1.876385,-10.18406 -7.887498,-9.20145 -2.463837,-6.32734 3.564998,-12.25533 7.166529,-9.97018 10.108057,-4.78218 -10.458113,4.33263 -7.598274,10.37921 -3.523352,12.40736 2.38573,6.2435 7.876435,9.36704 1.894173,9.85329 -1.521867,6.08472 -6.328129,9.85083 0.350671,4.90321 12.156486,14.03241 1.501046,12.69033 14.6777,10.55804 0.838291,-1.07379 z"
         id="path102"
         sodipodi:nodetypes="ccccccccccccccccccccccccccc" />
      <path
         style="fill:#a65746;stroke:#a65746;stroke-width:0.264583"
         d="m 120.311,266.31138 5.42479,-6.15565 -5.75552,5.34538 z"
         id="path114"
         sodipodi:nodetypes="cccc"
         transform="rotate(1.3549077,584.9922,-847.53026)" />
      <path
         style="fill:#a65746;stroke:#a65746;stroke-width:0.264583"
         d="m 82.336774,238.90369 -7.563061,-4.51528 7.918891,3.5646 z"
         id="path115"
         sodipodi:nodetypes="cccc" />
      <path
         style="fill:#a65746;stroke:#a65746;stroke-width:0.264583"
         d="m 125.76536,236.57415 8.40319,-2.26908 -8.02527,0.68576 z"
         id="path116"
         transform="rotate(1.3549077,584.9922,-847.53026)"
         sodipodi:nodetypes="cccc" />
      <path
         style="fill:#a65746;stroke:#a65746;stroke-width:0.264583"
         d="m 143.10347,193.41164 8.61787,0.18366 -7.41598,-1.10846 z"
         id="path117"
         sodipodi:nodetypes="cccc"
         transform="rotate(1.3549077,584.9922,-847.53026)" />
      <path
         style="fill:#a65746;stroke:#a65746;stroke-width:0.264583"
         d="m 132.64586,174.14447 6.53349,5.86698 -0.25432,1.38271 z"
         id="path118"
         sodipodi:nodetypes="cccc"
         transform="rotate(1.3549077,584.9922,-847.53026)" />
      <path
         style="fill:#a65746;stroke:#a65746;stroke-width:0.264583"
         d="m 164.40795,172.37881 9.73593,5.05671 -8.5743,-6.25684 z"
         id="path119"
         transform="rotate(1.3549077,584.9922,-847.53026)"
         sodipodi:nodetypes="cccc" />
      <path
         style="fill:#a65746;stroke:#a65746;stroke-width:0.264583"
         d="m 144.32922,139.02927 -3.06406,-6.84344 3.41986,5.63935 z"
         id="path120"
         sodipodi:nodetypes="cccc" />
      <path
         style="fill:#a65746;stroke:#a65746;stroke-width:0.264583"
         d="m 189.18822,147.65772 6.76254,6.22524 -5.41182,-7.04847 z"
         id="path121"
         sodipodi:nodetypes="cccc"
         transform="rotate(1.3549077,584.9922,-847.53026)" />
      <path
         style="fill:#a65746;stroke:#a65746;stroke-width:0.264583"
         d="m 75.407529,220.49648 -7.323255,3.78015 6.019898,-4.74443 z"
         id="path122"
         sodipodi:nodetypes="cccc" />
      <path
         style="fill:#a65746;stroke:#a65746;stroke-width:0.264583"
         d="m 100.59127,215.9248 6.24819,-6.17463 -6.48797,4.81864 z"
         id="path123"
         sodipodi:nodetypes="cccc"
         transform="rotate(1.3549077,584.9922,-847.53026)" />
      <path
         style="fill:#a65746;stroke:#a65746;stroke-width:0.264583"
         d="m 52.537674,189.89951 6.64032,1.61267 -0.06671,-1.20081 z"
         id="path124"
         sodipodi:nodetypes="cccc" />
      <path
         style="fill:#a65746;stroke:#a65746;stroke-width:0.264583"
         d="m 71.167956,171.50399 6.872462,-2.0829 -6.655463,0.95084 z"
         id="path125"
         sodipodi:nodetypes="cccc" />
      <path
         style="fill:#a65746;stroke:#a65746;stroke-width:0.264583"
         d="m 58.351005,153.50182 -7.499162,4.27325 6.600695,-5.28289 z"
         id="path126"
         sodipodi:nodetypes="cccc" />
      <path
         style="fill:#a65746;stroke:#a65746;stroke-width:0.264583"
         d="m 62.29256,134.6196 8.003167,-0.12206 -7.599649,-1.1819 z"
         id="path127"
         sodipodi:nodetypes="cccc" />
    </g>
    <g
       id="g17"
       inkscape:label="Arm2"
       style="display:inline"
       transform="rotate(-1.3549077,584.99181,-847.53053)">
      <path
         style="fill:#8f4333;fill-opacity:1;stroke:#000000;stroke-width:0.264583"
         d="m -8.9401708,111.28722 -1.8082982,-2.31528 0.489517,-2.84772 -6.504181,7.4004 z"
         id="path17"
         sodipodi:nodetypes="ccccc" />
      <path
         style="fill:#8f4333;fill-opacity:1;stroke:#000000;stroke-width:0.264583"
         d="M 81.126323,269.88709 68.726355,246.53099 50.611538,222.27209 42.118906,191.5202 12.80078,164.44994 l 1.072668,-30.68256 -21.891588,-25.3436 2.138127,-27.168074 -4.878288,27.719204 20.6810258,25.46541 -1.3288245,30.79139 28.4997647,28.48406 7.257125,27.15039 17.436908,26.69792 11.537888,22.2027"
         id="path11"
         sodipodi:nodetypes="ccccccccccccccc" />
      <path
         style="fill:#8f4333;fill-opacity:1;stroke:#000000;stroke-width:0.264583"
         d="m 67.223457,244.51248 8.921573,-3.45691 -5.718989,8.54244 -1.701924,-3.10002 z"
         id="path12"
         sodipodi:nodetypes="ccccc" />
      <path
         style="fill:#8f4333;fill-opacity:1;stroke:#000000;stroke-width:0.264583"
         d="m 45.756888,223.05389 -1.461669,-2.1606 -0.671422,-2.86726 -5.316355,7.29776 z"
         id="path13"
         sodipodi:nodetypes="ccccc" />
      <path
         style="fill:#8f4333;fill-opacity:1;stroke:#000000;stroke-width:0.264583"
         d="m 43.093663,194.93777 -0.98135,-3.39415 -3.028178,-2.84954 13.736344,-2.05095 z"
         id="path14"
         sodipodi:nodetypes="ccccc" />
      <path
         style="fill:#8f4333;fill-opacity:1;stroke:#000000;stroke-width:0.264583"
         d="m 10.69301,167.3168 -2.1025735,-2.15109 0.2006224,-4.33389 -6.1016175,10.13307 z"
         id="path15"
         sodipodi:nodetypes="ccccc" />
      <path
         style="fill:#8f4333;fill-opacity:1;stroke:#000000;stroke-width:0.264583"
         d="m 12.297434,131.98122 1.596798,1.76775 -0.02589,2.19098 8.807043,-5.04619 z"
         id="path16"
         sodipodi:nodetypes="ccccc" />
      <path
         style="display:inline;fill:#782f1f;fill-opacity:1;stroke:#782f1f;stroke-width:0.264583;stroke-opacity:1"
         d="M 104.8632,281.21474 92.459703,259.31941 74.32192,235.20714 64.852929,204.64508 35.510917,178.47664 35.887035,147.23405 13.854576,122.55778 15.96602,97.740764 l -1.473763,24.538776 22.485218,24.81617 -0.327364,30.70618 29.957942,26.40025 9.212689,30.50893 18.708673,23.89077 12.801025,22.75027 -2.35031,0.035 z"
         id="path54"
         sodipodi:nodetypes="ccccccccccccccccc"
         transform="rotate(1.3549077,584.9922,-847.53026)" />
      <path
         style="fill:#782f1f;stroke:#782f1f;stroke-width:0.264583"
         d="m 68.385478,245.65169 7.413701,-4.3438 -8.169886,3.3273 z"
         id="path55"
         sodipodi:nodetypes="cccc" />
      <path
         style="fill:#782f1f;stroke:#782f1f;stroke-width:0.264583"
         d="m 43.744315,219.67644 -5.09401,5.45493 4.854769,-6.49283 z"
         id="path56"
         sodipodi:nodetypes="cccc" />
      <path
         style="fill:#782f1f;stroke:#782f1f;stroke-width:0.264583"
         d="m 41.353383,190.46453 10.97507,-3.61781 -12.676955,2.02049 z"
         id="path57"
         sodipodi:nodetypes="cccc" />
      <path
         style="fill:#782f1f;stroke:#782f1f;stroke-width:0.264583"
         d="m 8.3954481,163.71239 -5.3197804,6.9609 5.4184864,-8.89001 z"
         id="path58"
         sodipodi:nodetypes="cccc" />
      <path
         style="fill:#782f1f;stroke:#782f1f;stroke-width:0.264583"
         d="m 13.435998,132.85252 8.606541,-1.77101 -9.202027,1.10167 z"
         id="path59"
         sodipodi:nodetypes="cccc" />
      <path
         style="fill:#782f1f;stroke:#782f1f;stroke-width:0.264583"
         d="m -10.897474,108.24281 -5.443348,5.00911 5.654755,-6.24868 z"
         id="path60"
         sodipodi:nodetypes="cccc" />
      <path
         style="fill:#a65746;fill-opacity:1;stroke:#a65746;stroke-width:0.264583;stroke-opacity:1"
         d="M 101.8761,281.41343 89.648735,259.3129 71.181573,233.16492 63.441672,206.02993 33.892231,178.45021 34.41739,147.67087 12.970147,122.79352 15.797989,99.709096 12.311328,122.7155 l 21.249063,24.95248 -0.595334,30.74311 29.144363,27.84286 7.906926,26.99786 18.029857,26.22626 12.063777,21.94422 z"
         id="path104"
         sodipodi:nodetypes="cccccccccccccccc"
         transform="rotate(1.3549077,584.9922,-847.53026)" />
      <path
         style="fill:#a65746;stroke:#a65746;stroke-width:0.264583"
         d="m 70.443591,249.08098 5.107157,-7.61726 -5.859871,6.25043 z"
         id="path128"
         sodipodi:nodetypes="cccc" />
      <path
         style="fill:#a65746;stroke:#a65746;stroke-width:0.264583"
         d="m 45.34179,222.91831 -6.40292,1.94706 5.646562,-3.08832 z"
         id="path129"
         sodipodi:nodetypes="cccc" />
      <path
         style="fill:#a65746;stroke:#a65746;stroke-width:0.264583"
         d="m 43.246552,194.4647 8.813159,-7.52378 -9.214933,5.88984 z"
         id="path130"
         sodipodi:nodetypes="cccc" />
      <path
         style="display:inline;fill:#a65746;stroke:#a65746;stroke-width:0.264583"
         d="m 10.217729,167.23999 -6.8990143,3.15158 5.9736541,-4.13205 z"
         id="path131"
         sodipodi:nodetypes="cccc" />
      <path
         style="fill:#a65746;stroke:#a65746;stroke-width:0.264583"
         d="m 14.135845,135.46457 7.530499,-4.29787 -7.525667,3.35916 z"
         id="path132"
         sodipodi:nodetypes="cccc" />
      <path
         style="fill:#a65746;stroke:#a65746;stroke-width:0.264583"
         d="m -9.389392,111.14369 -6.726995,1.92555 6.024208,-2.83805 z"
         id="path133"
         sodipodi:nodetypes="cccc" />
    </g>
    <g
       id="g50"
       inkscape:label="Arm4"
       style="display:inline"
       transform="rotate(-1.3549077,584.99181,-847.53053)">
      <path
         style="display:inline;fill:#8f4333;fill-opacity:1;stroke:#000000;stroke-width:0.264583"
         d="m 96.771353,270.27187 18.586977,-7.01146 9.78959,-13.22916 -0.79375,-19.57917 -6.87917,-12.7 -0.79375,-6.87917 8.20208,-13.75833 11.1125,-5.55625 3.175,-6.08542 -2.11667,-12.96458 6.08542,-15.61042 7.40833,-11.37708 1.5875,-14.81666 -6.35,-15.875 2.91042,-17.462505 0.52917,17.462505 7.14375,15.61041 -1.05834,16.66875 -8.20208,11.37708 -4.49792,13.49375 1.32292,14.55209 -4.23333,7.9375 -11.37708,5.82083 -6.68073,9.98802 1.05833,7.54063 5.88698,9.72343 2.11667,23.28334 -9.525,14.75052 -11.37708,4.69635"
         id="path41"
         sodipodi:nodetypes="ccccccccccccccccccccccccccccc" />
      <path
         style="fill:#8f4333;fill-opacity:1;stroke:#000000;stroke-width:0.264583"
         d="m 113.15898,264.0707 2.19935,-0.79375 2.1332,-2.84427 -5.88697,-3.04271 z"
         id="path42" />
      <path
         style="fill:#8f4333;fill-opacity:1;stroke:#000000;stroke-width:0.264583"
         d="m 129.72851,252.2306 0.99219,-1.4056 -0.28112,-2.91042 5.8043,3.37344 z"
         id="path43" />
      <path
         style="fill:#8f4333;fill-opacity:1;stroke:#000000;stroke-width:0.264583"
         d="m 124.40377,232.46953 -0.0661,-2.05052 -1.35599,-2.46393 -3.43958,4.05143 z"
         id="path44" />
      <path
         style="fill:#8f4333;fill-opacity:1;stroke:#000000;stroke-width:0.264583"
         d="m 121.89023,212.17929 -0.28112,-1.9513 1.5875,-2.26549 3.83646,3.3569 z"
         id="path45" />
      <path
         style="fill:#8f4333;fill-opacity:1;stroke:#000000;stroke-width:0.264583"
         d="m 123.84153,198.8013 1.0418,-1.70326 2.6293,-1.32291 -6.81302,-4.15065 z"
         id="path46" />
      <path
         style="fill:#8f4333;fill-opacity:1;stroke:#000000;stroke-width:0.264583"
         d="m 138.00128,195.35565 1.6838,-0.87698 1.3447,-2.59585 4.5369,5.72958 z"
         id="path47" />
      <path
         style="fill:#8f4333;fill-opacity:1;stroke:#000000;stroke-width:0.264583"
         d="m 137.40493,174.86944 -0.35079,-2.40877 1.19269,-3.07527 -9.10888,2.87649 z"
         id="path48" />
      <path
         style="fill:#8f4333;fill-opacity:1;stroke:#000000;stroke-width:0.264583"
         d="m 153.85521,149.05963 1.4552,-1.9513 0.23152,-3.93568 7.24296,5.32474 z"
         id="path49" />
      <path
         style="fill:#8f4333;fill-opacity:1;stroke:#000000;stroke-width:0.264583"
         d="m 151.84584,133.0902 0.25725,-2.40877 -1.19269,-3.1805 -7.55371,5.51911 z"
         id="path50" />
      <path
         style="fill:#782f1f;fill-opacity:1;stroke:#782f1f;stroke-width:0.264583;stroke-opacity:1"
         d="m 131.60127,281.42985 12.26592,-5.13871 9.55807,-14.2875 -1.88516,-22.45651 -5.8539,-9.22734 -1.28985,-8.43359 6.91224,-10.48412 11.9724,-5.95312 3.77031,-7.63985 -1.48828,-14.02291 4.69635,-14.05599 8.26823,-11.54245 0.69453,-15.74271 -6.61458,-15.61042 0.32246,-16.45377 0.38447,16.15612 7.13135,15.59801 -1.04593,16.52406 -8.18141,11.33574 -4.53513,13.59296 1.32292,14.52315 -4.16718,7.80934 -11.36056,5.81257 -6.80061,10.0831 1.11207,7.7308 5.87871,9.71517 2.11254,23.13037 -9.43405,14.62651 -11.30267,4.65915 -0.0207,0.0992 -3.06656,0.012 z"
         id="path52"
         sodipodi:nodetypes="cccccccccccccccccccccccccccccccc"
         transform="translate(-24.341667,-11.641667)" />
      <path
         style="fill:#782f1f;stroke:#782f1f;stroke-width:0.264583"
         d="m 142.64349,272.35133 -4.5806,-3.81579 5.37021,2.73679 z"
         id="path61"
         sodipodi:nodetypes="cccc"
         transform="rotate(1.3549077,584.9922,-847.53026)" />
      <path
         style="fill:#782f1f;stroke:#782f1f;stroke-width:0.264583"
         d="m 156.90412,259.78983 5.02915,1.71772 -5.16558,-2.69337 z"
         id="path62"
         sodipodi:nodetypes="cccc"
         transform="rotate(1.3549077,584.9922,-847.53026)" />
      <path
         style="fill:#782f1f;stroke:#782f1f;stroke-width:0.264583"
         d="m 145.47898,242.58969 3.74177,-2.34446 -0.70158,-1.21607 z"
         id="path63"
         sodipodi:nodetypes="cccc"
         transform="rotate(1.3549077,584.9922,-847.53026)" />
      <path
         style="fill:#782f1f;stroke:#782f1f;stroke-width:0.264583"
         d="m 147.73672,219.86048 4.15065,1.91823 -3.5388,-2.80294 z"
         id="path64"
         sodipodi:nodetypes="cccc"
         transform="rotate(1.3549077,584.9922,-847.53026)" />
      <path
         style="fill:#782f1f;stroke:#782f1f;stroke-width:0.264583"
         d="m 150.6306,206.9207 -4.92787,-4.26641 6.07715,3.62976 z"
         id="path65"
         sodipodi:nodetypes="cccc"
         transform="rotate(1.3549077,584.9922,-847.53026)" />
      <path
         style="fill:#782f1f;stroke:#782f1f;stroke-width:0.264583"
         d="m 165.25245,203.66055 4.77607,3.80909 -4.2487,-4.91697 z"
         id="path66"
         sodipodi:nodetypes="cccc"
         transform="rotate(1.3549077,584.9922,-847.53026)" />
      <path
         style="fill:#782f1f;stroke:#782f1f;stroke-width:0.264583"
         d="m 161.53983,181.31301 -7.68279,1.44923 8.14626,-2.67805 z"
         id="path67"
         sodipodi:nodetypes="cccc"
         transform="rotate(1.3549077,584.9922,-847.53026)" />
      <path
         style="fill:#782f1f;stroke:#782f1f;stroke-width:0.264583"
         d="m 179.28356,155.13743 6.77612,2.97588 -6.74689,-4.56028 z"
         id="path68"
         sodipodi:nodetypes="cccc"
         transform="rotate(1.3549077,584.9922,-847.53026)" />
      <path
         style="fill:#782f1f;stroke:#782f1f;stroke-width:0.264583"
         d="m 174.50128,139.20165 -7.40771,3.86272 6.87468,-5.14871 z"
         id="path69"
         sodipodi:nodetypes="cccc"
         transform="rotate(1.3549077,584.9922,-847.53026)" />
      <path
         style="fill:#a65746;fill-opacity:1;stroke:#a65746;stroke-width:0.264583;stroke-opacity:1"
         d="m 127.61539,281.27038 15.22681,-6.3202 9.89231,-13.98488 -1.35639,-20.25234 -7.15614,-12.51156 -0.91206,-6.59487 7.46016,-13.2833 10.87453,-5.61266 3.46114,-6.73519 -2.08136,-13.25991 5.07478,-15.4582 7.34323,-11.4358 1.19269,-15.17757 -6.78197,-15.71544 1.23654,-15.12787 -2.16029,15.10155 6.72741,15.71897 -1.2485,14.98412 -7.15445,11.58479 -5.67734,15.63857 2.42309,12.93292 -3.11379,6.3166 -10.97586,5.82183 -7.79735,13.80101 0.93188,6.72099 7.18409,12.54432 1.27481,19.7062 -9.57469,13.61654 -17.50836,7.05196 z"
         id="path103"
         transform="rotate(1.3549077,584.9922,-847.53026)"
         sodipodi:nodetypes="cccccccccccccccccccccccccccccc" />
      <path
         style="fill:#a65746;fill-opacity:1;stroke:#a65746;stroke-width:0.264583;stroke-opacity:1"
         d="m 141.27934,273.97882 -3.01443,-5.24874 1.48702,5.83328 z"
         id="path105"
         transform="rotate(1.3549077,584.9922,-847.53026)"
         sodipodi:nodetypes="cccc" />
      <path
         style="fill:#a65746;fill-opacity:1;stroke:#a65746;stroke-width:0.264583;stroke-opacity:1"
         d="m 156.39355,262.33851 5.271,-0.90537 -4.63434,-0.008 z"
         id="path106"
         sodipodi:nodetypes="cccc"
         transform="rotate(1.3549077,584.9922,-847.53026)" />
      <path
         style="fill:#a65746;fill-opacity:1;stroke:#a65746;stroke-width:0.264583;stroke-opacity:1"
         d="m 145.72453,242.4903 4.06334,0.28648 -0.0234,-0.77174 z"
         id="path107"
         sodipodi:nodetypes="cccc"
         transform="rotate(1.3549077,584.9922,-847.53026)" />
      <path
         style="fill:#a65746;fill-opacity:1;stroke:#a65746;stroke-width:0.264583;stroke-opacity:1"
         d="m 147.2797,222.54197 4.33228,-0.83605 -4.50182,-0.18124 z"
         id="path108"
         sodipodi:nodetypes="cccc"
         transform="rotate(1.3549077,584.9922,-847.53026)" />
      <path
         style="fill:#a65746;fill-opacity:1;stroke:#a65746;stroke-width:0.264583;stroke-opacity:1"
         d="m 148.73207,208.81657 -2.76215,-5.92045 3.25832,5.07172 z"
         id="path109"
         sodipodi:nodetypes="cccc"
         transform="rotate(1.3549077,584.9922,-847.53026)" />
      <path
         style="fill:#a65746;fill-opacity:1;stroke:#a65746;stroke-width:0.264583;stroke-opacity:1"
         d="m 163.48971,205.55101 6.25712,1.70751 -5.5778,-2.087 z"
         id="path110"
         sodipodi:nodetypes="cccc"
         transform="rotate(1.3549077,584.9922,-847.53026)" />
      <path
         style="fill:#a65746;fill-opacity:1;stroke:#a65746;stroke-width:0.264583;stroke-opacity:1"
         d="m 161.37638,184.79734 -7.17926,-2.08477 6.98223,0.96907 z"
         id="path111"
         sodipodi:nodetypes="cccc"
         transform="rotate(1.3549077,584.9922,-847.53026)" />
      <path
         style="fill:#a65746;fill-opacity:1;stroke:#a65746;stroke-width:0.264583;stroke-opacity:1"
         d="m 174.91438,142.79232 -7.49721,0.11988 7.58816,-1.24437 z"
         id="path113"
         sodipodi:nodetypes="cccc"
         transform="rotate(1.3549077,584.9922,-847.53026)" />
      <path
         style="display:inline;fill:#a65746;fill-opacity:1;stroke:#a65746;stroke-width:0.264583;stroke-opacity:1"
         d="m 178.08112,158.65905 7.6705,-0.65972 -6.88502,-0.43169 z"
         id="path112"
         sodipodi:nodetypes="cccc"
         transform="rotate(1.3549077,584.9922,-847.53026)" />
    </g>
  </g>
</svg>
