<?xml version="1.0" encoding="UTF-8" standalone="no"?>
<!-- Created with Inkscape (http://www.inkscape.org/) -->

<svg
   width="210mm"
   height="297mm"
   viewBox="0 0 210 297"
   version="1.1"
   id="svg1"
   xml:space="preserve"
   inkscape:version="1.4.2 (f4327f4, 2025-05-13)"
   sodipodi:docname="TinyLifePotion50.svg"
   inkscape:export-filename="TinyRecoveryPotion25.png"
   inkscape:export-xdpi="9.6299543"
   inkscape:export-ydpi="9.6299543"
   xmlns:inkscape="http://www.inkscape.org/namespaces/inkscape"
   xmlns:sodipodi="http://sodipodi.sourceforge.net/DTD/sodipodi-0.dtd"
   xmlns="http://www.w3.org/2000/svg"
   xmlns:svg="http://www.w3.org/2000/svg"><sodipodi:namedview
     id="namedview1"
     pagecolor="#505050"
     bordercolor="#eeeeee"
     borderopacity="1"
     inkscape:showpageshadow="0"
     inkscape:pageopacity="0"
     inkscape:pagecheckerboard="0"
     inkscape:deskcolor="#505050"
     inkscape:document-units="mm"
     inkscape:zoom="0.35355339"
     inkscape:cx="384.66609"
     inkscape:cy="948.9373"
     inkscape:window-width="1920"
     inkscape:window-height="1009"
     inkscape:window-x="1912"
     inkscape:window-y="-8"
     inkscape:window-maximized="1"
     inkscape:current-layer="layer1" /><defs
     id="defs1" /><g
     inkscape:label="Ebene 1"
     inkscape:groupmode="layer"
     id="layer1"><path
       style="display:inline;fill:#6c6c6c;fill-opacity:0.40000001;stroke:none;stroke-width:0.264999;stroke-opacity:1"
       d="m 99.800631,245.27273 -4.944491,-0.26023 -6.766144,-0.65059 -7.611915,-2.14695 -7.481792,-4.68426 -4.098724,-9.62874 1.171065,-12.55641 5.725199,-9.49862 8.327563,-13.33711 4.098722,-13.27205 0.910825,-13.20699 -0.715648,-10.21428 -3.448132,-12.16605 -0.520473,-7.1565 2.992718,-3.70837 6.375791,1.4313 h 9.433565 l 7.41674,-1.62647 4.03366,2.40718 -1.49636,3.64331 -1.69154,4.68425 -1.17106,10.14922 -0.26024,9.75886 -0.71565,9.88898 0.97589,8.13239 5.33485,13.27205 6.89626,10.40945 6.63602,8.71792 2.99272,11.32028 -1.23612,7.28662 -4.87943,7.09144 -8.32756,3.90354 -12.94676,1.56142 z"
       id="path1"
       sodipodi:nodetypes="cccccccccccccccccccccccccccccccccc" /><path
       style="fill:#2c1e10;fill-opacity:1;stroke:#000000;stroke-width:0.264999;stroke-opacity:1"
       d="m 87.395562,132.78398 -1.054142,-1.60629 -0.02739,-2.24587 1.715897,-1.47482 5.332026,-1.49671 8.980267,-0.28063 8.04481,1.02898 2.30649,1.75546 -0.20646,1.45074 -0.79513,1.70123 -0.93544,0.88948 -7.43677,1.73057 h -9.354429 z"
       id="path2"
       sodipodi:nodetypes="cccccccccccccc" /><path
       style="display:inline;fill:#babab4;fill-opacity:0.266667;stroke-width:0.264999"
       d="m 75.009374,236.60364 -3.902604,-8.99583 1.389062,-12.17083 13.626042,-21.76198 4.233333,-14.35365 0.992188,-12.83229 -0.595313,-10.51719 -3.373437,-12.50156 -0.595313,-6.01927 1.5875,-2.64583 4.894792,0.92604 9.789586,0.46302 6.48229,-1.71979 1.78594,0.99218 -1.91823,6.4823 -1.19063,10.71562 -0.99219,19.84375 0.66146,8.40052 5.35782,13.89063 13.55989,19.38073 2.91042,10.71562 -1.32292,6.68073 -3.77031,5.82083 -7.27604,3.37344 -17.528649,2.05052 -11.1125,-0.99219 -7.60677,-1.98437 z"
       id="path5" /><path
       style="display:inline;fill:#6c5d55;fill-opacity:1;stroke-width:0.264999"
       d="m 89.989338,133.22184 -1.32085,-2.1208 -0.132291,-1.28984 4.597135,-1.5875 8.797398,-0.29766 6.97838,0.8599 2.01745,1.52135 0.92604,0.64492 0.50437,-1.06866 0.20464,-1.35186 -2.22416,-1.69706 -7.98917,-1.02525 -8.964834,0.28111 -5.285465,1.47795 -1.647445,1.4118 0.02067,2.15801 0.996322,1.53375 z"
       id="path6"
       sodipodi:nodetypes="cccccccccccccccccc" /><path
       style="fill:#a02c2c;fill-opacity:1;stroke-width:0.264999"
       d="m 71.135708,227.65742 1.363343,-12.42316 7.304146,-11.5169 18.507436,0.032 21.174017,-0.0208 7.26547,10.1444 2.96392,11.00736 -0.72554,3.64939 -0.59944,3.05098 -3.77444,5.82909 -7.27191,3.36518 -17.511653,2.05101 -11.142639,-0.99722 -7.578511,-1.97424 -6.099753,-3.24641 z"
       id="path7"
       sodipodi:nodetypes="cccccccccccccccc"
       inkscape:label="Liquid" /><path
       style="fill:#e6e6e6;fill-opacity:0.266667;stroke-width:0.264999"
       d="m 91.615897,182.40205 -2.245064,10.28987 -2.525696,4.95785 -4.95785,8.13836 -4.209497,6.45456 -2.245064,3.92886 -0.748353,6.26747 0.187087,5.70621 2.993419,7.10937 0.280633,-3.92887 0.935443,-5.7062 1.216078,-5.79975 2.338607,-5.05139 3.648231,-5.14494 3.461139,-4.77076 2.338609,-4.02241 2.338607,-4.49013 0.748356,-3.36759 1.028988,-5.42557 0.561266,-4.2095 0.187087,-1.87088 -2.057974,0.18708 z"
       id="path3" /><path
       style="fill:#e6e6e6;fill-opacity:0.266667;stroke-width:0.264999"
       d="m 90.355207,137.05417 -0.595313,1.98437 0.595313,4.89479 1.190625,4.23334 1.058333,5.88698 0.595313,4.43177 v 5.15937 l -0.132292,3.70417 -0.595312,5.82083 -0.264584,4.0349 4.299479,-5.22553 1.5875,-5.29166 0.727604,-7.2099 v -5.29167 l -1.256771,-4.56405 -0.859896,-4.29948 -0.727604,-3.24115 -0.46302,-2.4474 0.661458,-2.77812 -2.778125,0.39687 z"
       id="path4"
       sodipodi:nodetypes="ccccccccccccccccccccc" /><path
       style="display:inline;fill:#393939;fill-opacity:0.560784;stroke-width:0.264999"
       d="m 106.29732,135.33644 -1.2237,5.55625 -1.35598,13.85756 -1.05834,16.83411 v 7.9375 l 5.42396,15.34583 12.56771,17.06563 1.98437,3.30729 3.175,9.39271 -2.11666,5.55625 -4.43945,9.69638 5.37517,-2.48247 3.77433,-5.82686 1.31122,-6.69408 -2.87533,-10.65516 -13.58162,-19.44756 -5.36349,-13.83783 -0.66146,-8.44529 0.97081,-19.66468 1.19464,-10.84792 1.93559,-6.50769 -1.79763,-1.00955 z"
       id="path7-1"
       sodipodi:nodetypes="ccccccccccccccccccccccc" /></g></svg>
