<svg xmlns="http://www.w3.org/2000/svg">
<defs>
<font
       horiz-adv-x="1000"
       id="font1"
       inkscape:label="Ethasia Game UI Sans">
      <font-face
         units-per-em="1000"
         ascent="750"
         cap-height="600"
         x-height="400"
         descent="200"
         id="font-face1"
         font-family="EthasiaGameUI" />
      <missing-glyph
         d="M0,0h1000v1000h-1000z"
         id="missing-glyph1" />
      <glyph
         glyph-name="Latin Capital Letter E"
         unicode="E"
         id="glyph2"
         d="m 410.66368,892.70963 -369.38674,-0.008 -0.011,-639.19444 369.40805,0.011 -6e-4,75.2239 -294.51478,-0.045 0.0274,192.84104 294.4814,-0.019 0.0221,75.18353 -294.52298,-0.006 0.0233,220.84028 294.48007,-0.003 z"
         horiz-adv-x="493" />
      <glyph
         glyph-name="Latin Capital Letter R"
         unicode="R"
         id="glyph8"
         d="m 63.28984,895.52356 -0.0215,-642.00977 74.89062,-0.0234 0.0352,276.08985 28.32617,-0.0918 234.75977,-275.97266 74.06054,-0.0195 -233.625,275.92383 97.84961,0.15039 c 0,0 20.78648,-1.21061 37.92973,1.93605 17.14324,3.14665 30.64324,10.65056 40.07027,20.07958 9.42697,9.42896 16.92648,22.92896 20.06925,40.07172 3.14277,17.14276 1.9288,37.92828 1.9288,37.92828 l -0.008,157.9082 c 0,0 1.6853,18.31479 -1.22205,37.22243 -2.90735,18.90764 -8.40735,36.40813 -18.77795,46.77952 -9.42771,9.42842 -26.92771,17.42989 -44.07078,21.07425 -17.14308,3.64436 -35.92922,2.93161 -35.92922,2.93161 z m 74.91797,-75.1875 196.23144,-0.0654 c 0,0 19.29572,-1.28586 24.0127,-6.00295 4.71326,-4.71337 6.00248,-23.9969 6.00248,-23.9969 l 0.0135,-155.5881 c 0,0 -0.9295,-14.93613 -8.0052,-22.00485 -4.71405,-4.7094 -21.99014,-7.98375 -21.99014,-7.98375 l -196.26572,-0.0279 z"
         horiz-adv-x="539" />
      <glyph
         glyph-name="Latin Capital Letter A"
         unicode="A"
         id="glyph15"
         d="M 289.73633,894.59961 43.4082,253.36719 l 74.9043,0.17578 53.37109,137.33789 0.16016,-0.004 235.80859,-0.041 h 0.0332 l 53.30273,-137.31641 75.17774,0.0508 z m 0.10742,-200.44336 88.63672,-228.24023 -177.41797,0.0215 z"
         horiz-adv-x="586" />
      <glyph
         glyph-name="Latin Capital Letter I"
         unicode="I"
         id="glyph16"
         d="m 63.26837,253.49836 74.94436,-0.0263 -0.0174,642.02798 -74.89844,-0.0156 z"
         horiz-adv-x="199" />
      <glyph
         glyph-name="Latin Capital Letter O"
         unicode="O"
         id="glyph17"
         d="m 339.54777,895.47641 c 0,0 -119.25166,-9.88337 -184.35876,-67.99185 C 70.42415,751.83142 63.32363,572.50781 63.32363,572.50781 c 0,0 4.86239,-175.32173 89.62689,-250.97515 65.10562,-58.10765 186.59505,-67.99576 186.59505,-67.99576 0,0 125.96773,9.88501 191.07421,67.99185 84.76577,75.65252 85.14993,252.97498 85.14993,252.97498 0,0 -0.37715,177.3228 -85.14117,252.97693 -65.10637,58.10913 -191.08077,67.99575 -191.08077,67.99575 z m -1.23632,-75.17478 c 0,0 88.24239,-7.57116 133.84735,-52.06753 59.37464,-57.93123 59.63822,-193.7128 59.63822,-193.7128 0,0 -0.26898,-135.78269 -59.64479,-193.7128 -45.60503,-44.4946 -133.84296,-52.06557 -133.84296,-52.06557 0,0 -85.0985,7.57222 -130.70297,52.06752 -59.37492,57.93067 -62.7804,192.1817 -62.7804,192.1817 0,0 4.97413,137.31537 64.34931,195.24586 45.60551,44.49587 129.13624,52.06362 129.13624,52.06362 z"
         horiz-adv-x="674" />
      <glyph
         glyph-name="Latin Capital Letter T"
         unicode="T"
         id="glyph20"
         d="m 229.392,253.4433 74.93122,-0.028 -0.0511,569.55984 168.40721,0.0818 0.001,72.43797 -409.46331,-0.0382 0.0572,-72.423 166.08504,-0.0615 z"
         horiz-adv-x="541" />
      <glyph
         glyph-name="Latin Capital Letter N"
         unicode="N"
         id="glyph21"
         d="m 63.27046,253.49964 74.93122,-0.006 -0.011,506.64787 342.87553,-506.62401 75.13505,-0.0128 10e-4,641.99454 -74.93218,-0.0109 0.0661,-516.01922 -342.9468,516.03326 -75.12511,0.0328 z"
         horiz-adv-x="621" />
      <glyph
         glyph-name="Latin Capital Letter S"
         unicode="S"
         id="glyph1"
         d="m 369.40601,820.48646 74.8594,-0.006 0.006,75.32124 -170.96804,-4.0266 c 0,0 -117.92936,-7.9265 -157.99929,-47.995 -37.71302,-37.71168 -52.001,-113.99994 -52.001,-113.99994 l -0.006,-62.04313 c 0,0 21.0007,-54.99849 53.998,-87.99588 40.06858,-40.06868 155.99681,-41.998 155.99681,-41.998 l 2.00111,0.0128 c 0,0 49.8408,2.1601 71.99569,-19.995 22.62804,-22.62825 21.994,-76.00309 21.994,-76.00309 l 0.0412,-6.72185 c 0,0 0.98943,-59.01982 -23.996,-84.0062 -25.45472,-25.45568 -83.99727,-22.00003 -83.99727,-22.00003 l -123.1301,-0.086 0.0121,-0.004 -74.96129,-0.0205 0.0532,-75.14742 196.94273,0.003 c 0,0 100.63367,-3.36426 144.00347,40.006 42.89773,42.89818 40.004,142.00061 40.004,142.00061 l 0.004,7.16859 c 0,0 2.06819,91.92579 -37.99985,131.9934 -40.53988,40.53944 -133.9952,37.998 -133.9952,37.998 l -4.06551,0.01 c 0,0 -77.35759,-0.64012 -107.99821,30.001 -20.2694,20.26974 -21.99925,55.9965 -21.99925,55.9965 l 0.009,15.64493 c 0,0 -0.99219,51.01773 23.994,76.0008 31.93922,31.93523 111.49815,29.9754 111.49815,29.9754 l 95.49815,-0.0245 z"
         horiz-adv-x="506" />
      <glyph
         glyph-name="Latin Capital Letter L"
         unicode="L"
         id="glyph3"
         d="m 63.27725,895.48478 74.92127,0.0141 -0.0166,-566.76634 295.29225,-0.0228 -0.004,-75.77517 -370.19782,0.57031 z"
         horiz-adv-x="497" />
      <glyph
         glyph-name="Latin Capital Letter C"
         unicode="C"
         id="glyph4"
         d="m 417.59555,408.73411 74.97647,-0.1186 -5.9531,-55.14198 c 0,0 -6.43925,-24.44492 -30.01565,-48.01698 -42.4298,-42.42198 -143.99781,-51.995 -143.99781,-51.995 l -9.31032,0.005 c 0,0 -127.4289,-4.57102 -183.99336,51.99848 -56.56214,56.56718 -55.9771,247.98354 -55.9771,247.98354 l -0.0396,62.07729 c 0,0 -1.39269,94.10709 8.16082,139.16043 4.77676,22.52667 10.29007,44.7899 18.08229,60.89459 7.79223,16.10468 17.86338,26.05082 23.7558,31.94331 6.01004,6.01011 17.01471,16.01516 34.14105,23.64205 17.12635,7.6269 40.37439,12.87564 62.87116,17.37311 44.99356,8.99495 94.98209,6.98484 94.98209,6.98484 h 2.66617 l 4.66046,-10e-6 c 0,0 109.57303,0.4255 152.00061,-42.00002 24.041,-24.03983 26.00498,-59.99484 26.00498,-59.99484 l 2.0381,-49.44241 -74.98585,0.15056 -0.0103,2.00008 c 0,0 -4.93726,46.93093 -12.0103,54.00007 -25.93291,25.91808 -97.99353,23.97664 -97.99353,23.97664 l -7.69431,0.0535 c 0,0 -91.43969,5.61932 -129.62279,-32.56407 C 132.6208,753.99268 138.33117,663.71001 138.33117,663.71001 l 0.0116,-174.9734 c 0,0 -3.70658,-90.28419 34.004,-127.99684 37.71072,-37.71279 125.99743,-32.0128 125.99743,-32.0128 0,0 75.12552,-2.09712 103.2318,26.003 18.85922,18.85509 16.01955,54.00414 16.01955,54.00414 z"
         horiz-adv-x="552" />
      <glyph
         glyph-name="Latin Capital Letter U"
         unicode="U"
         id="glyph5"
         d="m 63.27252,895.86544 0.0141,-452.39782 c 0,0 -0.57172,-41.92617 4.39141,-77.3879 4.96314,-35.46174 15.46114,-64.45905 29.60059,-78.60133 14.13992,-14.14275 49.13822,-24.64675 84.60154,-29.61506 35.46332,-4.96831 71.39166,-4.40094 71.39166,-4.40094 l 25.36321,0.0503 c 0,0 37.93626,-0.57965 73.40988,4.37699 35.47362,4.95664 68.4846,15.44957 82.63403,29.59476 14.14369,14.13945 24.64565,43.13826 29.61168,78.6022 4.96603,35.46394 4.39614,77.39302 4.39614,77.39302 l -0.008,452.05773 -74.95487,-0.0222 -10e-4,-456.8531 c 0,0 -1.05483,-28.55215 -3.58244,-50.57744 -2.5276,-22.0253 -6.52798,-37.52373 -12.41906,-43.41628 -5.89116,-5.89263 -21.38976,-9.89614 -43.41558,-12.4265 -22.02581,-2.53035 -50.57883,-3.58754 -50.57883,-3.58754 l -35.53627,-0.0461 c 0,0 -28.55528,1.05692 -50.58355,3.58744 -22.02827,2.53051 -37.52953,6.53461 -43.42147,12.42896 -5.88884,5.89125 -9.88784,21.38592 -12.41463,43.40778 -2.52679,22.02185 -3.58137,50.5709 -3.58137,50.5709 l 0.004,457.25994 z"
         horiz-adv-x="531" />
      <glyph
         glyph-name="Latin Capital Letter D"
         unicode="D"
         id="glyph6"
         d="m 63.29883,895.44729 -0.0234,-641.97852 75.5625,0.0117 c 0,0 145.16067,5.24638 172.6734,19.37109 27.51273,14.12473 55.90463,41.12664 75.41601,60.63867 75.65752,75.66006 70.00977,240.99415 70.00977,240.99415 0,0 3.67271,167.33757 -71.98828,242.99414 -19.51221,19.51106 -47.40365,46.00663 -74.41602,59.625 -27.01237,13.61836 -171.67339,18.35937 -171.67339,18.35937 169.66434,0.004 4.38738,-0.008 -75.56059,-0.0156 z m 171.19726,-75.07034 c 3.10541,-0.41235 57.50275,-6.89552 86.77105,-36.16211 75.661,-75.65656 67.85547,-209.80078 67.85547,-209.80078 0,0 11.70834,-126.08403 -63.94922,-201.74414 -39.02276,-39.02396 -96.15386,-44.09961 -96.15386,-44.09961 l -90.84375,0.12305 0.0918,491.53516 94.91015,-0.0293 c 0,0 0.28323,0.31518 1.31836,0.17773 z"
         horiz-adv-x="520" />
      <glyph
         glyph-name="Latin Capital Letter P"
         unicode="P"
         id="glyph25"
         d="m 63.25759,895.49737 -0.0215,-642.00977 74.89062,-0.0234 0.0352,276.08985 28.32617,-0.0918 1.13832,-0.0463 74.06054,-0.0195 -0.004,-0.002 97.84961,0.15039 c 0,0 20.78648,-1.21061 37.92973,1.93605 17.14324,3.14665 30.64324,10.65056 40.07027,20.07958 9.42697,9.42896 16.92648,22.92896 20.06925,40.07172 3.14277,17.14276 1.9288,37.92828 1.9288,37.92828 l -0.008,157.9082 c 0,0 1.6853,18.31479 -1.22205,37.22243 -2.90735,18.90764 -8.40735,36.40813 -18.77795,46.77952 -9.42771,9.42842 -26.92771,17.42989 -44.07078,21.07425 -17.14308,3.64436 -35.92922,2.93161 -35.92922,2.93161 z m 74.91797,-75.1875 196.23144,-0.0654 c 0,0 19.29572,-1.28586 24.0127,-6.00295 4.71326,-4.71337 6.00248,-23.9969 6.00248,-23.9969 l 0.0135,-155.5881 c 0,0 -0.9295,-14.93613 -8.0052,-22.00485 -4.71405,-4.7094 -21.99014,-7.98375 -21.99014,-7.98375 l -196.26572,-0.0279 z"
         horiz-adv-x="503" />
      <glyph
         glyph-name="Latin Capital Letter M"
         unicode="M"
         id="glyph7"
         d="m 63.27907,253.50532 74.91497,0.01 0.0174,572.93654 136.93351,-573.05294 149.95443,0.1255 136.57487,572.94217 -0.0527,-572.91137 74.88774,-0.068 -0.0884,641.96458 -149.7197,0.0663 L 350.05406,326.18662 213.17095,895.4777 63.29433,895.4964 Z"
         horiz-adv-x="695" />
      <glyph
         glyph-name="Latin Capital Letter H"
         unicode="H"
         id="glyph28"
         d="m 63.26147,895.49127 h 74.92207 l -0.0115,-286.32559 342.31066,-0.007 1.55785,286.35465 74.35051,-0.038 -0.0159,-641.97072 -74.39793,0.0122 -0.003,280.45783 -343.78328,0.0145 -0.015,-280.48828 -74.89729,0.004 z"
         horiz-adv-x="618" />
      <glyph
         glyph-name="Latin Capital Letter G"
         unicode="G"
         id="glyph30"
         d="m 417.71664,495.41643 -116.53205,-0.0185 -0.1121,75.26229 191.37842,-0.003 -5.9531,-217.14198 c 0,0 -6.43925,-24.44492 -30.01565,-48.01698 -42.4298,-42.42198 -143.99781,-51.995 -143.99781,-51.995 l -9.31032,0.005 c 0,0 -127.4289,-4.57102 -183.99336,51.99848 -56.56214,56.56718 -55.9771,247.98354 -55.9771,247.98354 l -0.0396,62.07729 c 0,0 -1.39269,94.10709 8.16082,139.16043 4.77676,22.52667 10.29007,44.7899 18.08229,60.89459 7.79223,16.10468 17.86338,26.05082 23.7558,31.94331 6.01004,6.01011 17.01471,16.01516 34.14105,23.64205 17.12635,7.6269 40.37439,12.87564 62.87116,17.37311 44.99356,8.99495 94.98209,6.98484 94.98209,6.98484 h 2.66617 l 4.66046,-1e-5 c 0,0 109.57303,0.4255 152.00061,-42.00002 24.041,-24.03983 26.00498,-59.99484 26.00498,-59.99484 l 2.0381,-49.44241 -74.98585,0.15056 -0.0103,2.00008 c 0,0 -4.93726,46.93093 -12.0103,54.00007 -25.93291,25.91809 -97.99353,23.97665 -97.99353,23.97665 l -7.69431,0.0535 c 0,0 -91.43969,5.61932 -129.62279,-32.56407 -37.71072,-37.71103 -32.00035,-127.9937 -32.00035,-127.9937 l 0.0116,-174.9734 c 0,0 -3.70658,-90.28419 34.004,-127.99684 37.71072,-37.71279 125.99743,-32.0128 125.99743,-32.0128 0,0 75.12552,-2.09712 103.2318,26.003 18.85922,18.85509 16.26174,140.64476 16.26174,140.64476 z"
         horiz-adv-x="553" />
      <glyph
         glyph-name="Latin Capital Letter B"
         unicode="B"
         id="glyph31"
         d="m 63.29297,895.4668 -0.01,-641.98242 h 180.57422 c 0,0 33.24345,-2.33253 63.43696,9.0012 30.19351,11.33374 57.33706,36.33374 77.13726,58.9988 24.47862,28.02039 35.96605,66.72612 36.8418,96.47656 0.87575,29.75038 -4.86002,50.54606 -22.82617,82.74218 -15.47667,27.73485 -48.52305,50.24803 -109.70027,61.82751 -61.17722,11.57947 -150.48528,12.22523 -150.48528,12.22523 0,0 90.30528,0.62985 150.48013,12.19062 60.17485,11.56077 90.21929,34.05248 105.6976,61.77618 17.93414,32.12241 23.55035,52.68089 26.625,82.27148 3.07466,29.59059 -4.39216,68.21323 -28.62695,96.4668 -19.59384,22.84303 -48.73691,47.844 -80.98152,59.13422 -32.2446,11.29022 -67.59075,8.86968 -67.59075,8.86968 z m 189.28515,-75.71289 c 18.50461,0.13488 57.81824,-1.90057 76.25196,-20.33399 19.97942,-19.97909 18.00195,-64.76367 18.00195,-64.76367 0,0 -0.0191,-40.78406 -19.99609,-60.76563 -24.57338,-24.57905 -84.26953,-24.01953 -84.26953,-24.01953 l -104.26758,-0.0215 -0.0215,169.57422 104.27539,-0.002 c 0,0 3.85719,0.28706 10.02539,0.33203 z m -0.006,-321.19532 c 18.50458,0.13489 57.81825,-1.89863 76.25195,-20.33203 19.9794,-19.97907 18.00391,-64.76562 18.0039,-64.76562 1e-5,0 -0.0211,-40.78409 -19.99804,-60.76563 -24.57336,-24.57902 -84.26758,-24.01953 -84.26758,-24.01953 l -104.26758,-0.0195 -0.0234,169.57227 h 104.27735 c 0,0 3.85523,0.28511 10.02344,0.33007 z"
         horiz-adv-x="482" />
      <glyph
         glyph-name="Latin Capital Letter F"
         unicode="F"
         id="glyph35"
         d="m 63.27898,253.50542 74.92187,0.01 0.0252,293.94339 215.73876,-0.0221 -0.004,75.20645 -215.76812,-0.0217 0.0331,197.3406 263.08791,-0.011 0.0387,75.55164 -338.04649,0.0162 z"
         horiz-adv-x="463" />
      <glyph
         glyph-name="Latin Capital Letter Y"
         unicode="Y"
         id="glyph36"
         d="m 63.50679,895.49656 h 74.9036 l 142.79337,-314.99669 143.46925,314.99644 74.96594,-0.005 -181.00939,-415.66422 -0.0156,-226.352 -74.92177,0.008 0.0221,226.22998 z"
         horiz-adv-x="559" />
      <glyph
         glyph-name="Latin Capital Letter K"
         unicode="K"
         id="glyph37"
         d="m 63.30535,895.51808 h 74.91171 l -0.19887,-332.50282 282.1105,332.4974 74.64732,-0.005 -221.34963,-270.07938 191.47436,-371.92385 -74.85492,0.003 -167.87687,311.47879 -84.15076,-86.52525 0.19944,-224.95334 -74.93381,2.2e-4 z"
         horiz-adv-x="556" />
      <glyph
         glyph-name="Latin Capital Letter W"
         unicode="W"
         id="glyph9"
         d="m 63.40593,895.47996 74.9637,-0.008 140.3425,-568.01614 72.69885,567.99852 74.55304,0.008 69.64821,-567.56647 132.54028,567.57563 74.90449,-0.006 -176.92458,-641.99999 -75.03118,-0.0174 -63.25481,568.12509 -70.78338,-568.09124 -74.98526,-0.003 z"
         horiz-adv-x="768" />
      <glyph
         glyph-name="Latin Capital Letter V"
         unicode="V"
         id="glyph42"
         d="m 63.4463,895.49589 74.88077,0.0139 161.90627,-567.19052 169.71873,567.17489 74.90625,0.0156 -210.63966,-641.96875 -75.18846,4e-5 z"
         horiz-adv-x="602" />
      <glyph
         glyph-name="Latin Capital Letter X"
         unicode="X"
         id="glyph43"
         horiz-adv-x="551"
         d="m 63.51679,895.489 74.78742,0.002 134.24672,-297.28523 148.57056,297.30668 72.0702,-0.008 -169.71003,-339.33618 169.61613,-302.67664 -74.93769,0.008 -145.64042,269.06578 -134.18091,-269.08136 -74.74768,0.0149 157.43295,306.52286 z" />
      <glyph
         glyph-name="Latin Capital Letter Z"
         unicode="Z"
         id="glyph10"
         d="m 63.26548,895.50227 -0.0146,-75.17771 331.43805,-0.008 -331.41476,-491.3088 -10e-6,-75.5033 431.01894,0.011 -0.005,75.1687 -329.4114,-0.01 329.39679,491.30821 0.002,75.51696 z"
         horiz-adv-x="559" />
      <glyph
         glyph-name="Latin Capital Letter J"
         unicode="J"
         id="glyph47"
         d="m 433.47207,896.04757 -74.92127,0.0141 0.0161,-486.76989 c 0,0 -9.14296,-33.14231 -27.99951,-51.99645 -18.85485,-18.85245 -51.98926,-27.9893 -51.98926,-27.9893 l -215.30297,-0.0335 v -75.77517 l 90.19428,0.0421 c 0,0 54.83076,-0.66675 101.49432,5.99962 46.66356,6.66637 85.15992,20.66587 108.4911,33.99838 23.33372,13.33396 46.83472,43.33414 58.50229,70.00084 11.66757,26.6667 11.50171,49.99991 11.50171,49.99991 z"
         horiz-adv-x="494" />
      <glyph
         glyph-name="Latin Capital Letter Q"
         unicode="Q"
         id="glyph48"
         d="m 339.57031,895.46289 c 0,0 -119.25038,-9.88181 -184.35742,-67.99023 C 70.44812,751.81959 63.34766,572.49609 63.34766,572.49609 c 0,0 4.86253,-175.32321 89.62695,-250.97656 65.10555,-58.10759 186.59375,-67.99609 186.59375,-67.99609 0,0 20.01923,1.62994 48.06836,7.15429 l 228.57617,-81.48242 -0.0176,75.14649 -115.57031,45.57812 -1.29883,-0.44922 c 11.29775,6.46581 21.97326,13.70627 31.31641,22.04492 84.76568,75.65245 85.15039,252.97461 85.15039,252.97461 0,0 -0.37669,177.32447 -85.14063,252.97852 -65.1063,58.10907 -191.08203,67.99414 -191.08203,67.99414 z m -1.23633,-75.17383 c 0,0 88.24275,-7.57203 133.84766,-52.06836 59.37458,-57.93117 59.63867,-193.71289 59.63867,-193.71289 0,0 -0.26878,-135.78284 -59.64453,-193.71289 -45.60498,-44.49455 -133.84375,-52.06445 -133.84375,-52.06445 0,0 -85.0987,7.57115 -130.70312,52.06641 -59.37486,57.93061 -62.7793,192.18164 -62.7793,192.18164 0,0 4.97449,137.31566 64.34961,195.24609 45.60546,44.49582 129.13476,52.06445 129.13476,52.06445 z"
         horiz-adv-x="677" />
      <glyph
         glyph-name="Space"
         unicode=" "
         id="glyph19" />
      <glyph
         glyph-name="Digit Zero"
         unicode="0"
         id="glyph22"
         d="m 245.49911,895.56886 c 0,0 -78.69306,-9.88643 -121.65662,-68.01291 -55.93554,-75.67657 -60.6211,-255.05573 -60.6211,-255.05573 0,0 3.20864,-175.37603 59.14394,-251.05289 42.96259,-58.12565 123.13233,-68.01682 123.13233,-68.01682 0,0 83.12492,9.88807 126.08804,68.01291 55.93616,75.67595 56.18969,253.05334 56.18969,253.05334 0,0 -0.24891,177.37772 -56.18388,253.05529 -42.96308,58.12713 -126.0924,68.01681 -126.0924,68.01681 z m -0.81584,-75.19807 c 0,0 44.23033,-7.5735 74.32461,-52.08365 39.18077,-57.94918 39.35471,-193.77281 39.35471,-193.77281 0,0 -0.17751,-135.82474 -39.35904,-193.7728 -30.09433,-44.50838 -74.32172,-52.08169 -74.32172,-52.08169 0,0 -42.1557,7.57456 -72.24966,52.08364 -39.18096,57.94862 -41.4282,192.24123 -41.4282,192.24123 0,0 3.28238,137.3579 42.46351,195.30634 30.09465,44.50965 71.21579,52.07974 71.21579,52.07974 z"
         horiz-adv-x="491" />
      <glyph
         glyph-name="Digit One"
         unicode="1"
         id="glyph50"
         d="m 199.22456,253.46227 74.92119,0.04 0.0182,641.92666 -75.18934,0.049 -135.75,-116.01563 0.004,-76.26041 136.05085,108.03941 z"
         horiz-adv-x="334" />
      <glyph
         glyph-name="Digit Two"
         unicode="2"
         id="glyph51"
         d="m 63.18842,820.21106 131.3544,0.004 c 0,0 82.3945,0.96466 113.35439,-29.9965 19.29914,-19.29994 17.99445,-51.88101 17.99445,-51.88101 0,0 -4.95217,-58.13275 -14.006,-83.88101 C 288.6763,588.45124 194.52642,480.73997 194.52642,480.73997 L 63.16717,329.02341 l 0.004,-75.62624 338.01899,-0.0214 0.0113,75.37785 -239.63203,0.008 119.71011,148.15256 c 0,0 70.55198,84.29097 91.71012,144.15256 15.02216,42.5014 27.9838,139.23427 27.9838,139.23427 0,0 -6.1412,63.35923 -38.0162,95.23427 -39.80672,39.80622 -206.88716,40.01945 -206.88716,40.01945 l -92.88761,0.0204 z"
         horiz-adv-x="461" />
      <glyph
         glyph-name="Digit Three"
         unicode="3"
         id="glyph53"
         d="m 63.27563,895.48708 -0.01,-641.98242 105.57422,0.25 c 0,0 33.24345,-2.33253 63.43696,9.0012 30.19351,11.33374 57.33706,36.33374 77.13726,58.9988 24.47862,28.02039 35.96605,66.72612 36.8418,96.47656 0.87575,29.75038 -4.86002,50.54606 -22.82617,82.74218 -15.47667,27.73485 -48.52305,54.24803 -109.70027,65.82751 -61.17722,11.57947 -150.48528,8.22523 -150.48528,8.22523 0,0 90.30528,-3.37015 150.48013,8.19062 60.17485,11.56077 90.21929,38.05248 105.6976,65.77618 17.93414,32.12241 23.55035,52.68089 26.625,82.27148 3.07466,29.59059 -4.39216,68.21323 -28.62695,96.4668 -19.59384,22.84303 -48.73691,47.844 -80.98152,59.13422 -32.2446,11.29022 -67.59075,8.86968 -67.59075,8.86968 z m 114.28515,-75.46289 c 18.50461,0.13488 57.81824,-1.90057 76.25196,-20.33399 19.97942,-19.97909 18.00195,-64.76367 18.00195,-64.76367 0,0 -0.0191,-40.78406 -19.99609,-60.76563 -24.57338,-24.57905 -84.26953,-36.01953 -84.26953,-36.01953 l -104.26758,-18.0215 -0.0215,199.57422 104.27539,-0.002 c 0,0 3.85719,0.28706 10.02539,0.33203 z m -0.006,-301.19532 c 18.50458,0.13489 57.81825,-21.89863 76.25195,-40.33203 19.9794,-19.97907 18.00391,-64.76562 18.0039,-64.76562 10e-6,0 -0.0211,-40.78409 -19.99804,-60.76563 -24.57336,-24.57902 -84.26758,-24.01953 -84.26758,-24.01953 l -104.26758,-0.0195 -0.0234,199.57227 104.27735,-8 c 4.00692,0.28189 10.03308,-1.6627 10.0234,-1.66996 z"
         horiz-adv-x="405" />
      <glyph
         glyph-name="Digit Four"
         unicode="4"
         id="glyph11"
         d="M 304.19881,895.49388 63.38826,440.0349 v -75.53125 h 241.01563 v -111 l 74.98046,-0.01 -0.0566,111.02149 92.06836,-0.0117 -0.0137,75.1582 -92.05273,0.0606 0.0137,455.77148 z m -0.86328,-160.14258 0.0195,-295.68359 -164.91211,-0.008 z"
         horiz-adv-x="529" />
      <glyph
         glyph-name="Digit Five"
         unicode="5"
         id="glyph60"
         d="m 343.12282,820.325 -204.97735,-0.006 0.0238,-148.04789 c 0,0 88.87908,7.13411 137.04709,-41.35958 82.55204,-83.1102 88.12062,-231.71682 21.962,-315.42467 -57.85322,-73.19936 -233.90404,-61.989 -233.90404,-61.989 l 0.002,75.1946 c 0,0 127.04262,-21.93499 169.0824,31.971 35.31098,45.27791 47.40133,153.67134 0.01,201.06115 -48.35104,48.34948 -169.13277,33.9832 -169.13277,33.9832 l 0.003,299.77049 279.99915,0.0202 z"
         horiz-adv-x="403" />
      <glyph
         glyph-name="Digit Six"
         unicode="6"
         id="glyph12"
         d="M 63.8005,659.68222 63.7673,429.18418 c 0,0 -3.40606,-102.2501 37.995,-143.65234 32.9813,-32.98223 131.9298,-31.99999 131.9298,-31.99999 0,0 70.94803,-0.98177 103.9298,31.99999 41.50754,41.50754 36,144.10156 36,144.10156 0,0 5.50673,136.59321 -36,178.10156 -48.31434,48.31622 -198.98437,38.008 -198.98437,38.008 l 0.0772,64.62597 c 0,0 -1.87556,64.0427 24.0459,89.9541 24.15703,24.14766 108.46972,20.003 108.46972,20.003 l 102.46973,0.003 -0.008,75.17774 -139.94424,8.1e-4 C 163.89755,885.77354 106.72098,870.79873 88.10184,834.26667 69.48271,797.7346 59.42102,739.64528 63.8005,659.68222 Z M 160.72487,556.5709 c 15.3212,15.31687 72.99316,13.998 72.99316,13.998 0,0 29.6746,1.3175 44.99317,-14.002 23.78771,-23.78915 19.997,-108.92578 19.997,-108.92578 0,0 3.78615,-81.13806 -20.003,-104.92578 -15.32479,-15.32387 -45.01562,-13.998 -45.01562,-13.998 0,0 -61.69347,-1.3245 -77.01563,14.002 -23.78506,23.79181 -17.9745,104.92578 -17.9745,104.92578 0,0 -1.76638,85.14071 22.02542,108.92578 z"
         horiz-adv-x="439" />
      <glyph
         glyph-name="Digit Seven"
         unicode="7"
         id="glyph13"
         d="m 63.25061,895.50802 311.75391,0.003 -0.0156,-75.54969 -236.61877,-566.45311 -74.8576,-0.012 232.59183,566.86214 -232.85137,-0.0257 z"
         horiz-adv-x="439" />
      <glyph
         glyph-name="Digit Eight"
         unicode="8"
         id="glyph65"
         d="m 228.8338,895.72832 c 0,0 -71.12754,2.73994 -107.86524,-33.99805 C 67.89252,808.65377 63.8677,732.77035 84.97247,670.54668 c 11.59351,-34.18145 72.81641,-67.3125 72.81641,-67.3125 0,0 -67.11096,-33.90685 -78.81836,-68.25781 -27.56773,-80.8871 -22.29075,-182.95749 44,-249.24805 36.73685,-36.73683 105.86132,-32 105.86132,-32 0,0 71.12418,-4.73653 107.86133,32 66.30309,66.30186 67.86183,167.992 42.00586,249.29883 -10.37368,32.62111 -70.76953,68.20703 -70.76953,68.20703 0,0 54.46867,34.86752 64.76758,67.30273 19.8372,62.47495 19.0794,138.11297 -33.99805,191.19141 -36.73751,36.73817 -109.86523,34 -109.86523,34 z m -7.46094,-75.96875 c 4.59503,0.01 7.46094,-0.18164 7.46094,-0.18164 0,0 45.83859,3.06317 64.9082,-16.00781 16.57421,-16.57542 16,-54.32032 16,-54.32032 0,0 0.57675,-67.74744 -15.99805,-84.32226 -19.07504,-19.07508 -64.92968,-15.99805 -64.92968,-15.99805 0,0 -45.85541,-3.07778 -64.92774,16 -16.57387,16.57859 -15.98047,84.32813 -15.98047,84.32813 0,0 -0.55967,37.75291 16.01953,54.32617 14.3053,14.30014 43.66216,16.14655 57.44727,16.17578 z M 160.30645,537.53105 c 21.33302,21.32862 68.49902,19.991 68.49902,19.991 0,0 45.16873,1.32235 66.49903,-20.009 23.42855,-23.4297 24.005,-109.40137 24.005,-109.40137 0,0 3.43315,-55.97126 -19.995,-79.40136 -21.33362,-21.3354 -70.51465,-20.003 -70.51465,-20.003 0,0 -47.18093,0.66171 -68.51465,21.997 -23.43109,23.43282 -21.98938,77.41336 -21.98938,77.41336 0,0 -1.42374,85.98383 22.01063,109.41337 z"
         horiz-adv-x="454" />
      <glyph
         glyph-name="Digit Nine"
         unicode="9"
         id="glyph68"
         d="m 373.16404,489.33399 0.0332,230.49804 c 0,0 7.40606,102.2501 -33.995,143.65234 -32.9813,32.98223 -135.9298,31.99999 -135.9298,31.99999 0,0 -70.94803,0.98177 -103.9298,-31.99999 -41.50754,-41.50754 -36,-144.10156 -36,-144.10156 0,0 -5.50673,-136.59321 36,-178.10156 48.31434,-48.31622 198.98437,-38.008 198.98437,-38.008 l -0.0772,-64.62597 c 0,0 1.87556,-64.0427 -24.0459,-89.9541 -24.15703,-24.14766 -108.46972,-20.003 -108.46972,-20.003 l -102.46973,-0.003 0.008,-75.17774 139.94424,-8.1e-4 c 69.85029,9.73404 127.02686,24.70885 145.646,61.24091 18.61913,36.53207 28.68082,94.62139 24.30134,174.58445 z m -96.92437,103.11132 c -15.3212,-15.31687 -72.99316,-13.998 -72.99316,-13.998 0,0 -29.6746,-1.3175 -44.99317,14.002 -23.78771,23.78915 -19.997,108.92578 -19.997,108.92578 0,0 -3.78615,81.13806 20.003,104.92578 15.32479,15.32387 45.01562,13.998 45.01562,13.998 0,0 61.69347,1.3245 77.01563,-14.002 23.78506,-23.79181 17.9745,-104.92578 17.9745,-104.92578 0,0 1.76638,-85.14071 -22.02542,-108.92578 z"
         horiz-adv-x="435" />
    </font>
</defs>
</svg>
